<svg id="Layer_1" data-name="Layer 1" xmlns="http://www.w3.org/2000/svg" viewBox="0 0 79.67 23"><defs><style>.cls-1{fill:#282828;}</style></defs><path class="cls-1" d="M21.34.86h3.43V22H21.34Z"/><path class="cls-1" d="M36.65,15.27a3.31,3.31,0,0,1-3.57,3.56c-2.08,0-2.37-1.93-2.37-3V7.69H27.28v8a6.26,6.26,0,0,0,1.79,4.75,5.4,5.4,0,0,0,4,1.48,5.17,5.17,0,0,0,3.57-1.19V22h3.43V7.69H36.65Z"/><path class="cls-1" d="M46.76,2.49H43.33v5.2H40.8V11h2.53V22h3.43V11h2.53V7.69H46.76Z"/><path class="cls-1" d="M60,17.66a4.6,4.6,0,0,1-2.82,1,4,4,0,0,1-4-4.17,3.82,3.82,0,0,1,4-4,3.93,3.93,0,0,1,2.82,1l.45.45L62.8,9.78l-.6-.45a7.59,7.59,0,0,0-5-1.93,7.11,7.11,0,0,0-7.29,7.28A7.11,7.11,0,0,0,57.16,22a7.55,7.55,0,0,0,5-1.93l.6-.45-2.37-2.37Z"/><path class="cls-1" d="M74.86,8.88A4.73,4.73,0,0,0,71.14,7.4a4.43,4.43,0,0,0-3.27,1.19V.86H64.44V22h3.43V14.08c0-3.27,2.22-3.56,3.11-3.56,2.09,0,1.93,1.92,1.93,3v8.31h3.43V13.63A6.82,6.82,0,0,0,74.86,8.88Z"/><circle class="cls-1" cx="57.02" cy="14.68" r="2.38"/><path class="cls-1" d="M16.59,16.77a7,7,0,0,1-4.91,1.93c-3.72,0-6.39-3-6.39-7s2.67-7,6.55-7a6.93,6.93,0,0,1,4.9,2.09l.45.44L19.41,5,19,4.58a10,10,0,0,0-7.12-3C6.19,1.44,2,5.9,2,11.7S6.19,22,11.68,22a9.68,9.68,0,0,0,7.13-3l.45-.45L17,16.32Z"/></svg>