<svg width="500" height="500" viewBox="0 0 500 500" fill="none" xmlns="http://www.w3.org/2000/svg">
<g clip-path="url(#clip0_173_2)">
<path d="M500 0H0V500H500V0Z" fill="white"/>
<path opacity="0.5" d="M368.053 199.971C388.259 199.971 404.639 183.591 404.639 163.385C404.639 143.179 388.259 126.799 368.053 126.799C347.847 126.799 331.467 143.179 331.467 163.385C331.467 183.591 347.847 199.971 368.053 199.971Z" fill="url(#paint0_linear_173_2)"/>
<path opacity="0.5" d="M343.649 117.26C356.281 117.26 366.521 107.019 366.521 94.3876C366.521 81.7558 356.281 71.5156 343.649 71.5156C331.017 71.5156 320.777 81.7558 320.777 94.3876C320.777 107.019 331.017 117.26 343.649 117.26Z" fill="url(#paint1_linear_173_2)"/>
<path d="M424.418 195.128C430.734 195.128 435.854 190.008 435.854 183.692C435.854 177.376 430.734 172.256 424.418 172.256C418.102 172.256 412.982 177.376 412.982 183.692C412.982 190.008 418.102 195.128 424.418 195.128Z" fill="url(#paint2_linear_173_2)"/>
<path d="M85.0719 198.683C90.0789 198.683 94.1379 194.624 94.1379 189.617C94.1379 184.61 90.0789 180.551 85.0719 180.551C80.0648 180.551 76.0059 184.61 76.0059 189.617C76.0059 194.624 80.0648 198.683 85.0719 198.683Z" fill="url(#paint3_linear_173_2)"/>
<path d="M424.418 400.694C430.734 400.694 435.854 395.574 435.854 389.258C435.854 382.942 430.734 377.822 424.418 377.822C418.102 377.822 412.982 382.942 412.982 389.258C412.982 395.574 418.102 400.694 424.418 400.694Z" fill="url(#paint4_linear_173_2)"/>
<path d="M405.913 105.976C409.817 105.976 412.982 102.811 412.982 98.9069C412.982 95.0028 409.817 91.8379 405.913 91.8379C402.009 91.8379 398.844 95.0028 398.844 98.9069C398.844 102.811 402.009 105.976 405.913 105.976Z" fill="url(#paint5_linear_173_2)"/>
<path d="M75.4557 371.607C79.3598 371.607 82.5247 368.442 82.5247 364.538C82.5247 360.634 79.3598 357.469 75.4557 357.469C71.5516 357.469 68.3867 360.634 68.3867 364.538C68.3867 368.442 71.5516 371.607 75.4557 371.607Z" fill="url(#paint6_linear_173_2)"/>
<path d="M87.4427 105.245C87.4427 109.149 84.2777 112.314 80.3737 112.314C76.4697 112.314 73.3047 109.149 73.3047 105.245C73.3047 101.341 76.4697 98.1758 80.3737 98.1758C84.2777 98.1758 87.4427 101.341 87.4427 105.245Z" fill="url(#paint7_linear_173_2)"/>
<path d="M419.106 129.947C419.106 131.899 417.524 133.482 415.572 133.482C413.62 133.482 412.037 131.9 412.037 129.947C412.037 127.995 413.619 126.412 415.572 126.412C417.524 126.413 419.106 127.995 419.106 129.947Z" fill="url(#paint8_linear_173_2)"/>
<path d="M69.8815 164.281C69.8815 166.233 68.2995 167.816 66.3475 167.816C64.3955 167.816 62.8125 166.233 62.8125 164.281C62.8125 162.329 64.3945 160.746 66.3475 160.746C68.2995 160.747 69.8815 162.329 69.8815 164.281Z" fill="url(#paint9_linear_173_2)"/>
<path d="M448.868 364.539C448.868 366.491 447.285 368.073 445.333 368.073C443.381 368.073 441.799 366.491 441.799 364.539C441.799 362.587 443.381 361.004 445.333 361.004C447.285 361.005 448.868 362.587 448.868 364.539Z" fill="url(#paint10_linear_173_2)"/>
<path d="M156.745 48.9725C156.745 50.9245 155.163 52.5075 153.211 52.5075C151.259 52.5075 149.676 50.9245 149.676 48.9725C149.676 47.0205 151.258 45.4375 153.211 45.4375C155.163 45.4385 156.745 47.0205 156.745 48.9725Z" fill="url(#paint11_linear_173_2)"/>
<path d="M247.305 441.219C349.198 441.219 431.798 432.84 431.798 422.503C431.798 412.167 349.198 403.787 247.305 403.787C145.413 403.787 62.8125 412.167 62.8125 422.503C62.8125 432.84 145.413 441.219 247.305 441.219Z" fill="#F1F0FE"/>
<path d="M146.409 176.027C120.975 194.043 97.951 216.996 84.036 245.763C76.446 261.453 71.657 279.108 73.293 296.633C76.015 325.78 94.758 354.826 121.079 364.259C154.056 376.077 196.416 369.497 214.447 363.897C263.957 348.52 317.687 342.877 366.988 358.977C378.226 362.647 389.552 367.476 401.292 366.659C421.457 365.256 437.824 346.67 442.984 326.088C448.144 305.506 444.108 283.563 437.596 263.411C427.312 231.586 410.712 201.825 388.038 178.167C364.575 153.686 293.921 108.728 200.967 145.973C181.747 153.674 163.474 163.939 146.409 176.027Z" fill="url(#paint12_linear_173_2)"/>
<path d="M109.428 326.291C109.374 319.223 109.588 311.887 106.732 305.421C104.074 299.402 99.0531 294.822 94.4921 290.079C84.8881 280.094 76.6811 268.379 72.9231 255.045C68.6461 239.868 70.5401 223.047 78.0841 209.201C95.1891 222.173 112.405 237.852 116.82 258.86C119.765 272.873 116.557 287.331 115.097 301.575C112.842 323.572 114.827 345.995 120.911 367.254C119.668 368.755 117.017 368.028 115.973 366.382C113.682 362.769 112.7 353.66 111.68 349.315C109.913 341.793 109.486 333.994 109.428 326.291Z" fill="url(#paint13_linear_173_2)"/>
<path d="M117.442 343.751C117.171 340.502 116.907 337.173 117.767 334.028C118.571 331.085 120.31 328.488 121.369 325.628C124.521 317.116 121.33 307.611 122.303 298.586C123.226 290.025 127.825 282.363 132.314 275.016C137.481 266.559 142.647 258.102 147.813 249.645C152.505 256.833 157.236 264.094 160.243 272.134C165.05 284.985 165.097 299.687 159.705 312.303C154.312 324.919 143.375 335.2 130.231 339.134C127.708 339.889 124.809 340.651 123.601 342.992C122.862 344.425 122.957 346.127 123.07 347.735C124.009 361.036 126.686 375.547 125.721 388.776C116.897 391.921 120.262 378.759 119.973 374.125C119.341 363.994 118.285 353.869 117.442 343.751Z" fill="url(#paint14_linear_173_2)"/>
<path d="M119.868 357.165C118.653 351.777 116.816 346.162 112.564 342.637C110.6 341.008 108.235 339.934 106.192 338.405C96.0929 330.851 96.4639 314.87 87.4199 306.081C79.4359 298.321 65.8949 297.957 58.9219 289.277C59.8969 303.192 60.9939 317.555 67.4259 329.933C73.8579 342.311 87.1149 352.265 100.935 350.371C102.633 350.138 104.427 349.746 106.009 350.405C107.395 350.983 108.344 352.265 109.158 353.527C115.582 363.494 117.874 376.038 115.39 387.632C115.151 388.748 121.713 388.528 122.693 387.422C123.487 386.525 122.541 381.413 122.492 380.293C122.15 372.465 121.598 364.837 119.868 357.165Z" fill="url(#paint15_linear_173_2)"/>
<path d="M141.829 419.104H97.555L92.707 386.527H146.677L141.829 419.104Z" fill="url(#paint16_linear_173_2)"/>
<path d="M149.261 377.447H90.1211V386.527H149.261V377.447Z" fill="#8C165A"/>
<path d="M338.522 417.999H342.35L327.311 322.809H318.586L338.522 417.999Z" fill="#2E3092"/>
<path d="M267.029 417.999H263.201L278.24 322.809H286.965L267.029 417.999Z" fill="#2E3092"/>
<path d="M307.275 333.43C328.117 333.43 345.013 328.076 345.013 321.473C345.013 314.869 328.117 309.516 307.275 309.516C286.433 309.516 269.537 314.869 269.537 321.473C269.537 328.076 286.433 333.43 307.275 333.43Z" fill="url(#paint17_linear_173_2)"/>
<path d="M267.027 420.656C259.875 424.994 249.841 428.176 241.506 428.879C240.198 428.989 238.808 429.046 237.654 428.421C236.5 427.796 235.754 426.237 236.445 425.122C238.966 423.241 244.525 421.269 248.088 418.578C250.445 416.798 252.709 414.717 253.874 412.003C254.683 410.118 254.933 407.989 256.03 406.255C259.54 400.706 267.028 406.257 267.028 406.257C265.18 409.949 271.897 417.702 267.027 420.656Z" fill="#2E3092"/>
<path d="M332.941 302.132C330.042 312.665 322.47 315.925 314.64 319.546C304.674 324.157 296.483 329.388 290.005 333.989C283.516 338.6 278.729 342.572 275.603 344.636C275.531 344.688 275.459 344.739 275.397 344.78C268.568 349.216 267.03 406.255 267.03 406.255C263.842 407.173 256.002 409.257 254.547 406.265C253.103 403.304 251.803 343.686 252.999 338.177C253.009 338.136 253.02 338.094 253.03 338.053C253.432 336.598 257.693 331.461 263.831 325.127C265.224 323.683 266.73 322.166 268.308 320.608C279.295 309.807 293.831 297.375 303.765 293.239C305.797 292.383 307.644 291.887 309.222 291.826C312.793 291.682 333.88 298.697 332.941 302.132Z" fill="url(#paint18_linear_173_2)"/>
<path d="M300.315 339.696C300.315 339.696 298.975 346.508 296.062 348.325C295.01 348.979 286.403 347.361 275.603 344.636C268.503 342.853 260.45 340.582 252.995 338.178C240.489 334.146 229.634 329.726 227.662 326.503C224.56 320.145 228.958 313.067 239.703 308.038C248.974 303.696 274.042 293.084 274.042 293.084C279.171 289.717 294.844 289.561 303.762 293.239C293.837 297.371 279.293 309.81 268.305 320.61C264.45 321.596 261.459 322.438 260.097 323.069C261.027 323.756 262.301 324.443 263.83 325.129C270.443 328.12 281.719 331.111 290.005 333.991C295.652 335.952 299.895 337.869 300.315 339.696Z" fill="url(#paint19_linear_173_2)"/>
<path d="M294.541 346.286C294.258 348.599 295.067 348.632 294.872 350.954C294.555 354.725 292.384 358.079 291.49 361.757C291.171 363.069 288.626 370.829 293.612 368.102C300.045 364.582 314.033 348.472 311.766 343.068C310.641 340.386 304.288 338.871 298.879 338.871C298.879 338.871 295.364 339.553 294.541 346.286Z" fill="#2E3092"/>
<path d="M270.911 258.152C268.866 260.023 265.968 260.584 263.217 260.925C260.466 261.265 257.594 261.494 255.205 262.898C252.815 264.303 251.097 267.321 252.163 269.88C253.105 272.141 255.729 273.149 258.131 273.627C265.326 275.062 272.755 273.902 280 272.74C281.741 272.461 283.555 272.153 284.981 271.116C286.947 269.687 287.772 267.186 288.351 264.825C289.786 258.973 290.424 252.927 290.241 246.905C290.166 244.422 289.901 241.801 288.438 239.791C286.594 237.259 274.28 236.774 274.042 240.376C273.614 246.856 273.662 255.637 270.911 258.152Z" fill="#FFC8B6"/>
<path d="M278.474 222.008C276.101 226.842 274.364 235.001 274.043 240.376C277.498 241.099 282.202 242.972 285.714 243.326C289.226 243.68 293.091 242.981 295.505 240.405C297.586 238.184 298.227 234.997 298.541 231.969C299.055 227.014 300.725 212.278 293.247 211.279C287.73 210.541 280.525 217.829 278.474 222.008Z" fill="#60C4F6"/>
<path d="M280.765 240.626C284.568 263.735 286.257 276.755 274.043 293.083C297.48 289.206 310.758 306.56 332.936 302.129C338.474 284.775 335.06 263.21 335.57 237.862C335.716 230.625 330.885 217.494 326.06 212.098C319.404 204.654 300.982 207.488 292.412 210.466C278.875 215.172 278.732 228.271 280.765 240.626Z" fill="#60C4F6"/>
<path d="M345.013 255.792C345.195 266.302 328.014 268.097 323.89 268.089C316.242 268.073 307.448 268.964 299.89 267.792C297.306 267.391 285.343 265.309 283.828 263.177C279.815 257.526 289.927 256.883 290.978 256.793C297.007 256.277 297.837 257.955 301.736 259.116C308.357 261.087 330.838 256.273 330.747 255.5C330.222 251.04 327.081 246.288 325.736 242.004C325.274 240.531 343.273 234.621 343.647 237.973C343.967 240.839 344.942 251.697 345.013 255.792Z" fill="#FFC8B6"/>
<path d="M343.645 237.972C343.896 239.667 326.417 244.788 325.734 242.003C324.258 235.985 312.621 206.363 321.336 208.759C334.614 212.407 341.612 224.223 343.645 237.972Z" fill="#60C4F6"/>
<path d="M311.084 199.681C310.924 198.567 307.827 191.984 302.426 191.986C297.571 191.989 293.41 197.198 294.744 201.866C294.744 201.866 294.9 211.958 295.336 216.588C296.196 225.719 307.642 224.222 313.781 214.36C314.572 213.09 311.931 205.576 311.084 199.681Z" fill="#F2B5A5"/>
<path d="M282.658 190.401C283.057 197.206 284.904 205.089 291.157 207.802C296.186 209.984 306.165 207.239 311.084 199.683C314.075 195.088 315.777 191.099 316.642 185.685C317.268 181.767 316.091 165.586 299.554 164.408C282.626 163.201 281.334 167.823 282.658 190.401Z" fill="#FFC8B6"/>
<path d="M279.133 159.247C276.196 160.562 274.013 164.142 275.376 167.057C276.821 170.147 280.942 170.619 284.352 170.66C288.894 170.714 293.436 170.769 297.977 170.823C300.394 170.852 303.234 171.107 304.498 173.168C306.357 176.199 305.155 181.552 308.056 183.607C308.407 182.173 310.454 180.358 311.794 180.976C315.394 182.638 315.579 189.214 310.825 190.253C310.831 192.942 311.076 196.993 311.082 199.682C318.126 197.269 321.307 183.569 321.307 178.658C321.307 165.995 314.787 164.618 314.787 164.618C315.057 161.915 310.04 157.023 300.994 156.099C294.562 155.443 285.229 156.517 279.133 159.247Z" fill="#2E3092"/>
<path d="M394.042 265.945H122.287V275.176H394.042V265.945Z" fill="#2E3092"/>
<path d="M123.026 423.238H119.334L154.78 275.176H165.119L123.026 423.238Z" fill="#2E3092"/>
<path d="M395.151 423.238H398.844L363.397 275.176H353.059L395.151 423.238Z" fill="#2E3092"/>
<path d="M260.767 218.926C260.481 217.564 259.279 216.59 257.888 216.59H197.087C196.216 216.59 195.566 217.391 195.745 218.243L204.938 261.938H269.816L260.767 218.926Z" fill="url(#paint20_linear_173_2)"/>
<path d="M298.211 261.938H204.938V265.947H298.879V262.605C298.88 262.236 298.58 261.938 298.211 261.938Z" fill="url(#paint21_linear_173_2)"/>
<path d="M237.554 240.377C237.554 243.109 235.339 245.324 232.607 245.324C229.875 245.324 227.66 243.109 227.66 240.377C227.66 237.645 229.875 235.43 232.607 235.43C235.339 235.43 237.554 237.645 237.554 240.377Z" fill="white"/>
<path d="M377.325 246.359C375.697 245.431 373.933 245.458 372.219 245.905V243.49C372.219 242.71 371.587 242.078 370.807 242.078H354.471C353.691 242.078 353.059 242.71 353.059 243.49V264.534C353.059 265.314 353.691 265.946 354.471 265.946H370.806C371.586 265.946 372.218 265.314 372.218 264.534V261.241C373.566 261.387 374.95 261.27 375.911 261.006C379.157 260.117 380.756 257.497 380.727 254.238C380.701 251.32 380.078 247.929 377.325 246.359ZM377.327 254.618C377.176 256.946 375.56 257.687 373.483 257.673C373.07 257.67 372.646 257.6 372.218 257.513V249.081C373.62 248.614 375.115 248.459 376.159 249.474C377.395 250.674 377.429 253.036 377.327 254.618Z" fill="url(#paint22_linear_173_2)"/>
<path d="M356.611 234.864C356.876 234.362 357.315 233.977 357.668 233.533C358.914 231.968 358.977 229.57 357.813 227.943C358.878 228.342 359.755 229.216 360.157 230.28C360.559 231.344 360.48 232.579 359.945 233.583C359.685 234.072 359.326 234.502 359.057 234.985C358.354 236.246 358.346 237.806 358.958 239.103C357.186 238.959 355.759 236.479 356.611 234.864Z" fill="white"/>
<path d="M361.445 234.864C361.71 234.362 362.149 233.977 362.503 233.533C363.749 231.968 363.811 229.57 362.648 227.943C363.713 228.342 364.59 229.216 364.992 230.28C365.394 231.344 365.315 232.579 364.78 233.583C364.52 234.072 364.161 234.502 363.892 234.985C363.189 236.246 363.181 237.806 363.793 239.103C362.021 238.959 360.593 236.479 361.445 234.864Z" fill="white"/>
<path d="M366.279 234.864C366.544 234.362 366.983 233.977 367.336 233.533C368.582 231.968 368.645 229.57 367.481 227.943C368.546 228.342 369.423 229.216 369.825 230.28C370.227 231.344 370.148 232.579 369.613 233.583C369.353 234.072 368.994 234.502 368.725 234.985C368.022 236.246 368.014 237.806 368.626 239.103C366.855 238.959 365.427 236.479 366.279 234.864Z" fill="white"/>
<path d="M78.5378 155.763C81.9458 164.151 90.1678 170.795 99.2208 170.889C103.333 170.932 107.39 169.695 111.499 169.852C119.503 170.157 127.591 174.811 134.922 171.584C146.156 166.639 144.67 150.882 141.428 143.571C129.684 117.09 109.03 117.316 101.772 118.539C82.9668 121.708 70.8858 136.931 78.5378 155.763Z" fill="url(#paint23_linear_173_2)"/>
<path d="M114.462 129.803C116.494 132.842 115.677 136.953 112.637 138.985C109.598 141.017 105.487 140.2 103.455 137.161C101.423 134.122 102.24 130.011 105.28 127.979C108.319 125.947 112.43 126.763 114.462 129.803Z" fill="#0085E6"/>
<path d="M99.6427 139.709C101.675 142.748 100.858 146.859 97.8188 148.891C94.7798 150.923 90.6688 150.106 88.6368 147.066C86.6048 144.026 87.4218 139.916 90.4608 137.884C93.4998 135.853 97.6107 136.67 99.6427 139.709Z" fill="url(#paint24_linear_173_2)"/>
<path d="M112.415 152.971C114.447 156.01 113.63 160.121 110.59 162.153C107.55 164.185 103.44 163.368 101.408 160.329C99.3762 157.29 100.193 153.179 103.232 151.147C106.272 149.115 110.383 149.932 112.415 152.971Z" fill="url(#paint25_linear_173_2)"/>
<path d="M129.135 143.824C131.167 146.863 130.35 150.974 127.311 153.006C124.272 155.038 120.161 154.221 118.129 151.181C116.097 148.142 116.914 144.031 119.954 141.999C122.992 139.968 127.103 140.785 129.135 143.824Z" fill="white"/>
<path d="M253.049 173.861C251.882 173.683 251.07 172.606 251.221 171.435L258.109 116.953L265.135 118.022L255.516 172.088C255.311 173.251 254.216 174.039 253.049 173.861Z" fill="url(#paint26_linear_173_2)"/>
<path d="M267.498 102.472L260.472 101.404L258.107 116.954L265.133 118.022L267.498 102.472Z" fill="url(#paint27_linear_173_2)"/>
<path d="M260.473 101.404C260.473 101.404 256.949 96.0471 262.121 90.5661C267.293 85.0851 267.139 81.2051 267.139 81.2051C267.139 81.2051 276.102 93.1741 267.5 102.472L260.473 101.404Z" fill="url(#paint28_linear_173_2)"/>
<path d="M237.605 184.649L234.791 187.645L242.026 194.44L244.84 191.444L237.605 184.649Z" fill="#1E2278"/>
<path d="M228.89 194.275C237.172 194.275 243.887 187.561 243.887 179.278C243.887 170.996 237.172 164.281 228.89 164.281C220.607 164.281 213.893 170.996 213.893 179.278C213.893 187.561 220.607 194.275 228.89 194.275Z" fill="url(#paint29_linear_173_2)"/>
<path d="M236.412 171.269C240.835 175.423 241.053 182.376 236.898 186.799C232.744 191.222 225.791 191.44 221.368 187.285C216.945 183.131 216.727 176.178 220.882 171.755C225.037 167.333 231.99 167.115 236.412 171.269Z" fill="url(#paint30_linear_173_2)"/>
<path d="M245.452 190.8L241.425 195.087C241.126 195.405 241.142 195.905 241.46 196.204L250.569 204.76C252.042 206.143 254.397 206.28 255.855 204.882C257.41 203.391 257.381 200.922 255.831 199.466L246.568 190.766C246.251 190.466 245.751 190.482 245.452 190.8Z" fill="url(#paint31_linear_173_2)"/>
<path d="M223.665 175.127C226.829 178.154 230.014 181.15 233.318 184.023C233.56 184.233 233.884 183.889 233.658 183.661C230.583 180.543 227.394 177.552 224.175 174.584C223.823 174.257 223.318 174.794 223.665 175.127Z" fill="white"/>
<path d="M228.763 172.676C231.034 174.812 233.25 177.047 235.649 179.04C235.847 179.205 236.099 178.936 235.922 178.749C233.783 176.48 231.413 174.408 229.139 172.275C228.881 172.032 228.504 172.433 228.763 172.676Z" fill="white"/>
<path d="M222.423 181.834C223.955 183.299 225.431 184.942 227.112 186.232C227.444 186.487 227.831 186.075 227.556 185.759C226.162 184.161 224.431 182.791 222.873 181.354C222.562 181.068 222.117 181.541 222.423 181.834Z" fill="white"/>
<path d="M200.643 141.668L204.759 133.275L202.034 131.939C202.303 130.515 202.391 129.088 202.306 127.687L205.18 126.696L202.156 117.852L199.272 118.838C198.486 117.669 197.543 116.594 196.463 115.648L197.804 112.913L189.411 108.797L188.07 111.532C186.661 111.258 185.234 111.17 183.828 111.265L182.842 108.381L173.998 111.405L174.974 114.285C173.814 115.076 172.74 116.019 171.779 117.103L169.044 115.762L164.928 124.155L167.663 125.496C167.394 126.919 167.306 128.347 167.391 129.748L164.521 130.729L167.545 139.573L170.415 138.592C171.206 139.752 172.149 140.826 173.233 141.787L171.897 144.512L180.29 148.628L181.626 145.903C183.049 146.172 184.476 146.26 185.877 146.175L186.858 149.045L195.702 146.021L194.721 143.151C195.881 142.36 196.955 141.417 197.916 140.333L200.643 141.668ZM181.943 134.642C178.675 133.039 177.321 129.081 178.924 125.812C180.531 122.534 184.485 121.19 187.754 122.793C191.022 124.396 192.381 128.344 190.773 131.623C189.17 134.891 185.212 136.244 181.943 134.642Z" fill="#2E3092"/>
<path d="M214.381 159.605L216.572 155.137L215.121 154.426C215.264 153.668 215.311 152.908 215.266 152.163L216.796 151.635L215.186 146.927L213.651 147.452C213.232 146.829 212.73 146.257 212.156 145.754L212.87 144.298L208.402 142.107L207.688 143.563C206.938 143.417 206.178 143.37 205.43 143.421L204.905 141.885L200.197 143.495L200.717 145.028C200.1 145.449 199.528 145.951 199.016 146.528L197.56 145.814L195.369 150.282L196.825 150.996C196.682 151.754 196.635 152.514 196.68 153.259L195.152 153.781L196.762 158.489L198.29 157.967C198.711 158.584 199.213 159.156 199.79 159.668L199.078 161.119L203.546 163.31L204.258 161.859C205.016 162.002 205.775 162.049 206.521 162.004L207.043 163.532L211.751 161.922L211.229 160.394C211.846 159.973 212.418 159.471 212.93 158.894L214.381 159.605ZM203.591 157.554C200.915 156.242 199.809 153.006 201.124 150.325C202.436 147.649 205.672 146.543 208.347 147.855C211.028 149.17 212.134 152.405 210.822 155.081C209.507 157.763 206.272 158.869 203.591 157.554Z" fill="url(#paint32_linear_173_2)"/>
<path d="M119.581 36.5176L79.1152 63.1992L98.3481 92.3681L138.814 65.6865L119.581 36.5176Z" fill="white"/>
<path d="M118.352 41.3493L84.041 63.9727L99.5778 87.536L133.889 64.9127L118.352 41.3493Z" fill="#8BDEFC"/>
<path d="M92.5254 76.8511L99.0334 64.2841L111.245 64.5081L118.452 55.6191L128.565 56.8541L133.88 64.9151L99.5704 87.5371L92.5254 76.8511Z" fill="url(#paint33_linear_173_2)"/>
<path d="M111.476 54.1735C112.655 55.9615 112.161 58.3665 110.373 59.5455C108.585 60.7245 106.179 60.2305 105 58.4425C103.821 56.6545 104.315 54.2495 106.103 53.0705C107.891 51.8915 110.297 52.3855 111.476 54.1735Z" fill="url(#paint34_linear_173_2)"/>
<path d="M175.613 163.627L151.52 191.365L179.258 215.459L203.352 187.721L175.613 163.627Z" fill="white"/>
<path d="M184.782 171.606L160.689 199.343L151.508 191.368L175.601 163.631L184.782 171.606Z" fill="url(#paint35_linear_173_2)"/>
<path d="M179.553 195.312C180.548 192.859 180.007 190.027 176.906 189.043C173.976 188.114 170.142 192.779 169.979 195.01L171.735 195.96C171.834 194.748 174.033 191.12 175.906 191.917C178.873 193.179 177.251 196.4 176.155 197.908L178.204 199.696C179.67 197.848 182.273 195.088 184.423 197.499C185.58 198.797 183.605 202.464 180.078 203.57L182.254 205.371C188.454 201.436 188.741 197.044 186.06 194.714C183.885 192.825 181.88 193.364 179.553 195.312Z" fill="#2E3092"/>
<path d="M181.079 181.16L179.559 182.912C179.552 182.961 179.088 186.284 179.088 186.284L181.05 186.979C181.05 186.979 181.324 185.341 181.337 184.87C183.01 186.392 188.357 191.245 192.322 194.632L193.927 192.711C190.385 189.526 183.242 183.145 181.079 181.16Z" fill="#2E3092"/>
<path d="M153.702 180.305C153.233 180.845 153.291 181.663 153.83 182.131L159.676 187.209C160.216 187.678 161.033 187.62 161.502 187.081C161.971 186.541 161.913 185.724 161.374 185.255L155.528 180.177C154.988 179.708 154.171 179.765 153.702 180.305Z" fill="#60C4F6"/>
<path d="M159.329 173.828C158.86 174.368 158.918 175.186 159.457 175.654L165.303 180.732C165.843 181.201 166.661 181.143 167.129 180.604C167.598 180.064 167.54 179.247 167.001 178.778L161.155 173.7C160.615 173.231 159.797 173.289 159.329 173.828Z" fill="#60C4F6"/>
<path d="M164.954 167.352C164.485 167.892 164.543 168.709 165.082 169.178L170.928 174.256C171.468 174.725 172.285 174.667 172.754 174.128C173.223 173.588 173.165 172.771 172.626 172.302L166.78 167.224C166.241 166.755 165.423 166.812 164.954 167.352Z" fill="#60C4F6"/>
<path d="M206.666 50.7181C196.429 46.1751 184.406 50.8081 179.864 61.0441C175.322 71.2801 179.954 83.3041 190.19 87.8461C200.427 92.3891 212.45 87.7561 216.993 77.5201C221.534 67.2851 216.903 55.2611 206.666 50.7181ZM191.328 85.2821C189.938 84.6651 189.223 81.6331 189.864 77.1231L198.359 80.8931C195.446 84.3941 192.719 85.8981 191.328 85.2821ZM190.409 74.2941C190.858 72.4111 191.516 70.3491 192.417 68.1511L203.299 72.9801C202.274 75.1231 201.187 76.9941 200.092 78.5901L190.409 74.2941ZM181.925 63.4951L189.851 67.0121C189.025 69.0311 188.337 71.1091 187.824 73.1461L180.965 70.1021C180.857 67.9071 181.161 65.6691 181.925 63.4951ZM205.527 53.2841C206.917 53.9011 207.632 56.9331 206.99 61.4421L198.495 57.6721C201.409 54.1721 204.137 52.6671 205.527 53.2841ZM206.445 64.2721C205.996 66.1551 205.338 68.2171 204.437 70.4151L193.555 65.5861C194.58 63.4431 195.667 61.5721 196.763 59.9761L206.445 64.2721ZM190.989 64.4461L183.063 60.9291C184.163 58.9041 185.618 57.1771 187.318 55.7831L194.177 58.8271C193.011 60.5751 191.932 62.4791 190.989 64.4461ZM205.865 74.1191L213.792 77.6371C212.692 79.6621 211.237 81.3891 209.537 82.7831L202.676 79.7391C203.843 77.9901 204.922 76.0861 205.865 74.1191ZM207.004 71.5531C207.83 69.5341 208.518 67.4561 209.031 65.4191L215.892 68.4631C215.999 70.6581 215.695 72.8961 214.931 75.0701L207.004 71.5531ZM215.417 65.1821L209.633 62.6151C210.044 60.2171 210.153 57.9721 209.897 56.0641C212.674 58.4761 214.57 61.6881 215.417 65.1821ZM200.533 51.9091C198.946 52.9991 197.355 54.5861 195.852 56.5001L190.069 53.9341C193.228 52.2181 196.882 51.4681 200.533 51.9091ZM181.438 73.3841L187.221 75.9501C186.81 78.3481 186.701 80.5931 186.957 82.5011C184.181 80.0891 182.286 76.8781 181.438 73.3841ZM196.321 86.6571C197.908 85.5671 199.499 83.9801 201.002 82.0661L206.786 84.6331C203.627 86.3481 199.973 87.0971 196.321 86.6571Z" fill="url(#paint36_linear_173_2)"/>
<path d="M232.617 105.994L231.326 106.045L231.024 98.3293C230.887 94.8403 233.615 91.8903 237.103 91.7543L243.108 91.5193C245.867 91.4113 248.024 89.0783 247.916 86.3193C247.808 83.5603 245.475 81.4033 242.716 81.5113L237.437 81.7183C233.548 81.8703 230.26 78.8303 230.108 74.9403L229.777 66.4983L231.068 66.4473L231.399 74.8893C231.523 78.0663 234.21 80.5503 237.387 80.4263L242.666 80.2193C246.138 80.0833 249.072 82.7973 249.208 86.2683C249.344 89.7393 246.631 92.6743 243.159 92.8103L237.154 93.0453C234.377 93.1543 232.207 95.5013 232.316 98.2783L232.617 105.994Z" fill="url(#paint37_linear_173_2)"/>
<path d="M243.271 113.674L243.9 129.725C244.138 135.794 239.423 140.906 233.354 141.144C227.285 141.382 222.172 136.654 221.934 130.585L221.305 114.534C221.076 108.684 225.459 103.714 231.219 103.153C231.438 103.131 231.645 103.123 231.864 103.115C232.083 103.106 232.29 103.098 232.51 103.103C238.296 103.212 243.042 107.825 243.271 113.674Z" fill="url(#paint38_linear_173_2)"/>
<path d="M243.415 117.342L243.466 118.633L221.5 119.493L221.449 118.202L231.793 117.797L231.219 103.153C231.438 103.131 231.645 103.123 231.864 103.115C232.083 103.106 232.29 103.098 232.51 103.103L233.084 117.747L243.415 117.342Z" fill="#60C4F6"/>
<path d="M232.192 111.527C230.778 111.582 229.677 112.773 229.732 114.187L230.071 122.847C230.126 124.261 231.318 125.362 232.732 125.307C234.146 125.252 235.247 124.06 235.192 122.646L234.853 113.987C234.797 112.573 233.606 111.472 232.192 111.527Z" fill="white"/>
<path d="M165.565 94.3842C165.565 99.6622 163.429 104.437 159.964 107.902C156.509 111.357 151.734 113.493 146.456 113.493C135.91 113.493 127.357 104.94 127.357 94.3842C127.357 83.8382 135.91 75.2852 146.456 75.2852C151.734 75.2852 156.509 77.4212 159.964 80.8762C163.429 84.3412 165.565 89.1062 165.565 94.3842Z" fill="url(#paint39_linear_173_2)"/>
<path d="M159.965 80.8762L146.457 94.3842V75.2852C151.735 75.2852 156.51 77.4212 159.965 80.8762Z" fill="url(#paint40_linear_173_2)"/>
<path d="M165.566 94.385C165.566 99.663 163.43 104.438 159.965 107.903L146.457 94.385L159.965 80.877C163.43 84.342 165.566 89.107 165.566 94.385Z" fill="url(#paint41_linear_173_2)"/>
<path d="M159.964 107.903C156.509 111.358 151.734 113.494 146.456 113.494C135.91 113.494 127.357 104.941 127.357 94.3848H146.456L159.964 107.903Z" fill="#2E3092"/>
</g>
<defs>
<linearGradient id="paint0_linear_173_2" x1="331.467" y1="163.385" x2="404.639" y2="163.385" gradientUnits="userSpaceOnUse">
<stop offset="2.5e-07" stop-color="#E7FFE7"/>
<stop offset="1" stop-color="#BBEEF6"/>
</linearGradient>
<linearGradient id="paint1_linear_173_2" x1="320.777" y1="94.3878" x2="366.522" y2="94.3878" gradientUnits="userSpaceOnUse">
<stop offset="2.5e-07" stop-color="#E7FFE7"/>
<stop offset="1" stop-color="#BBEEF6"/>
</linearGradient>
<linearGradient id="paint2_linear_173_2" x1="412.982" y1="183.692" x2="435.855" y2="183.692" gradientUnits="userSpaceOnUse">
<stop offset="2.5e-07" stop-color="#E7FFE7"/>
<stop offset="1" stop-color="#BBEEF6"/>
</linearGradient>
<linearGradient id="paint3_linear_173_2" x1="76.0059" y1="189.617" x2="94.1383" y2="189.617" gradientUnits="userSpaceOnUse">
<stop offset="2.5e-07" stop-color="#E7FFE7"/>
<stop offset="1" stop-color="#BBEEF6"/>
</linearGradient>
<linearGradient id="paint4_linear_173_2" x1="412.982" y1="389.259" x2="435.855" y2="389.259" gradientUnits="userSpaceOnUse">
<stop offset="2.5e-07" stop-color="#E7FFE7"/>
<stop offset="1" stop-color="#BBEEF6"/>
</linearGradient>
<linearGradient id="paint5_linear_173_2" x1="398.843" y1="98.9068" x2="412.981" y2="98.9068" gradientUnits="userSpaceOnUse">
<stop offset="2.5e-07" stop-color="#E7FFE7"/>
<stop offset="1" stop-color="#BBEEF6"/>
</linearGradient>
<linearGradient id="paint6_linear_173_2" x1="68.3865" y1="364.538" x2="82.5247" y2="364.538" gradientUnits="userSpaceOnUse">
<stop offset="2.5e-07" stop-color="#E7FFE7"/>
<stop offset="1" stop-color="#BBEEF6"/>
</linearGradient>
<linearGradient id="paint7_linear_173_2" x1="73.3048" y1="105.245" x2="87.4429" y2="105.245" gradientUnits="userSpaceOnUse">
<stop offset="2.5e-07" stop-color="#E7FFE7"/>
<stop offset="1" stop-color="#BBEEF6"/>
</linearGradient>
<linearGradient id="paint8_linear_173_2" x1="412.038" y1="129.947" x2="419.107" y2="129.947" gradientUnits="userSpaceOnUse">
<stop offset="2.5e-07" stop-color="#E7FFE7"/>
<stop offset="1" stop-color="#BBEEF6"/>
</linearGradient>
<linearGradient id="paint9_linear_173_2" x1="62.813" y1="164.282" x2="69.882" y2="164.282" gradientUnits="userSpaceOnUse">
<stop offset="2.5e-07" stop-color="#E7FFE7"/>
<stop offset="1" stop-color="#BBEEF6"/>
</linearGradient>
<linearGradient id="paint10_linear_173_2" x1="441.799" y1="364.539" x2="448.868" y2="364.539" gradientUnits="userSpaceOnUse">
<stop offset="2.5e-07" stop-color="#E7FFE7"/>
<stop offset="1" stop-color="#BBEEF6"/>
</linearGradient>
<linearGradient id="paint11_linear_173_2" x1="149.676" y1="48.9725" x2="156.745" y2="48.9725" gradientUnits="userSpaceOnUse">
<stop offset="2.5e-07" stop-color="#E7FFE7"/>
<stop offset="1" stop-color="#BBEEF6"/>
</linearGradient>
<linearGradient id="paint12_linear_173_2" x1="72.9722" y1="251.307" x2="445.333" y2="251.307" gradientUnits="userSpaceOnUse">
<stop offset="2.5e-07" stop-color="#E7FFE7"/>
<stop offset="1" stop-color="#BBEEF6"/>
</linearGradient>
<linearGradient id="paint13_linear_173_2" x1="70.6774" y1="288.637" x2="120.911" y2="288.637" gradientUnits="userSpaceOnUse">
<stop stop-color="#B2DDEF"/>
<stop offset="1" stop-color="#29A7DF"/>
</linearGradient>
<linearGradient id="paint14_linear_173_2" x1="117.18" y1="319.451" x2="163.8" y2="319.451" gradientUnits="userSpaceOnUse">
<stop stop-color="#B2DDEF"/>
<stop offset="1" stop-color="#29A7DF"/>
</linearGradient>
<linearGradient id="paint15_linear_173_2" x1="58.9228" y1="338.822" x2="123.009" y2="338.822" gradientUnits="userSpaceOnUse">
<stop offset="0.0036" stop-color="#3AC3E3"/>
<stop offset="1" stop-color="#584E9F"/>
</linearGradient>
<linearGradient id="paint16_linear_173_2" x1="92.707" y1="402.816" x2="146.677" y2="402.816" gradientUnits="userSpaceOnUse">
<stop stop-color="#F38C96"/>
<stop offset="1" stop-color="#ED5391"/>
</linearGradient>
<linearGradient id="paint17_linear_173_2" x1="269.536" y1="321.472" x2="345.013" y2="321.472" gradientUnits="userSpaceOnUse">
<stop stop-color="#F38C96"/>
<stop offset="1" stop-color="#ED5391"/>
</linearGradient>
<linearGradient id="paint18_linear_173_2" x1="252.529" y1="349.822" x2="332.971" y2="349.822" gradientUnits="userSpaceOnUse">
<stop offset="0.0036" stop-color="#3AC3E3"/>
<stop offset="1" stop-color="#584E9F"/>
</linearGradient>
<linearGradient id="paint19_linear_173_2" x1="226.689" y1="319.495" x2="303.761" y2="319.495" gradientUnits="userSpaceOnUse">
<stop offset="0.0036" stop-color="#3AC3E3"/>
<stop offset="1" stop-color="#584E9F"/>
</linearGradient>
<linearGradient id="paint20_linear_173_2" x1="195.715" y1="239.264" x2="269.816" y2="239.264" gradientUnits="userSpaceOnUse">
<stop stop-color="#75C0DF"/>
<stop offset="0.292" stop-color="#759CDA"/>
<stop offset="0.5651" stop-color="#7681D6"/>
<stop offset="0.8092" stop-color="#7672D4"/>
<stop offset="1" stop-color="#766CD3"/>
</linearGradient>
<linearGradient id="paint21_linear_173_2" x1="204.938" y1="263.942" x2="298.879" y2="263.942" gradientUnits="userSpaceOnUse">
<stop stop-color="#75C0DF"/>
<stop offset="0.292" stop-color="#759CDA"/>
<stop offset="0.5651" stop-color="#7681D6"/>
<stop offset="0.8092" stop-color="#7672D4"/>
<stop offset="1" stop-color="#766CD3"/>
</linearGradient>
<linearGradient id="paint22_linear_173_2" x1="353.058" y1="254.012" x2="380.727" y2="254.012" gradientUnits="userSpaceOnUse">
<stop stop-color="#F38C96"/>
<stop offset="1" stop-color="#ED5391"/>
</linearGradient>
<linearGradient id="paint23_linear_173_2" x1="84.6007" y1="165.748" x2="134.856" y2="132.158" gradientUnits="userSpaceOnUse">
<stop stop-color="#B2DDEF"/>
<stop offset="1" stop-color="#29A7DF"/>
</linearGradient>
<linearGradient id="paint24_linear_173_2" x1="88.6356" y1="147.066" x2="99.6427" y2="139.709" gradientUnits="userSpaceOnUse">
<stop stop-color="#F38C96"/>
<stop offset="1" stop-color="#ED5391"/>
</linearGradient>
<linearGradient id="paint25_linear_173_2" x1="101.408" y1="160.328" x2="112.415" y2="152.971" gradientUnits="userSpaceOnUse">
<stop stop-color="#75C0DF"/>
<stop offset="0.292" stop-color="#759CDA"/>
<stop offset="0.5651" stop-color="#7681D6"/>
<stop offset="0.8092" stop-color="#7672D4"/>
<stop offset="1" stop-color="#766CD3"/>
</linearGradient>
<linearGradient id="paint26_linear_173_2" x1="240.03" y1="157.247" x2="275.039" y2="131.479" gradientUnits="userSpaceOnUse">
<stop stop-color="#F38C96"/>
<stop offset="1" stop-color="#ED5391"/>
</linearGradient>
<linearGradient id="paint27_linear_173_2" x1="256.301" y1="114.499" x2="269.305" y2="104.927" gradientUnits="userSpaceOnUse">
<stop stop-color="#B2DDEF"/>
<stop offset="1" stop-color="#29A7DF"/>
</linearGradient>
<linearGradient id="paint28_linear_173_2" x1="258.312" y1="98.4683" x2="272.278" y2="88.1885" gradientUnits="userSpaceOnUse">
<stop stop-color="#75C0DF"/>
<stop offset="0.292" stop-color="#759CDA"/>
<stop offset="0.5651" stop-color="#7681D6"/>
<stop offset="0.8092" stop-color="#7672D4"/>
<stop offset="1" stop-color="#766CD3"/>
</linearGradient>
<linearGradient id="paint29_linear_173_2" x1="213.9" y1="179.748" x2="243.879" y2="178.809" gradientUnits="userSpaceOnUse">
<stop stop-color="#75C0DF"/>
<stop offset="0.292" stop-color="#759CDA"/>
<stop offset="0.5651" stop-color="#7681D6"/>
<stop offset="0.8092" stop-color="#7672D4"/>
<stop offset="1" stop-color="#766CD3"/>
</linearGradient>
<linearGradient id="paint30_linear_173_2" x1="217.909" y1="179.622" x2="239.872" y2="178.934" gradientUnits="userSpaceOnUse">
<stop stop-color="#B2DDEF"/>
<stop offset="1" stop-color="#29A7DF"/>
</linearGradient>
<linearGradient id="paint31_linear_173_2" x1="241.3" y1="198.472" x2="256.879" y2="197.984" gradientUnits="userSpaceOnUse">
<stop stop-color="#F38C96"/>
<stop offset="1" stop-color="#ED5391"/>
</linearGradient>
<linearGradient id="paint32_linear_173_2" x1="196.465" y1="148.044" x2="215.479" y2="157.368" gradientUnits="userSpaceOnUse">
<stop stop-color="#F38C96"/>
<stop offset="1" stop-color="#ED5391"/>
</linearGradient>
<linearGradient id="paint33_linear_173_2" x1="94.1465" y1="79.3103" x2="128.456" y2="56.6879" gradientUnits="userSpaceOnUse">
<stop stop-color="#75C0DF"/>
<stop offset="0.292" stop-color="#759CDA"/>
<stop offset="0.5651" stop-color="#7681D6"/>
<stop offset="0.8092" stop-color="#7672D4"/>
<stop offset="1" stop-color="#766CD3"/>
</linearGradient>
<linearGradient id="paint34_linear_173_2" x1="105.001" y1="58.4435" x2="111.476" y2="54.1739" gradientUnits="userSpaceOnUse">
<stop stop-color="#F38C96"/>
<stop offset="1" stop-color="#ED5391"/>
</linearGradient>
<linearGradient id="paint35_linear_173_2" x1="156.099" y1="195.355" x2="180.191" y2="167.618" gradientUnits="userSpaceOnUse">
<stop stop-color="#F38C96"/>
<stop offset="1" stop-color="#ED5391"/>
</linearGradient>
<linearGradient id="paint36_linear_173_2" x1="179.863" y1="61.0448" x2="216.992" y2="77.5212" gradientUnits="userSpaceOnUse">
<stop stop-color="#75C0DF"/>
<stop offset="0.292" stop-color="#759CDA"/>
<stop offset="0.5651" stop-color="#7681D6"/>
<stop offset="0.8092" stop-color="#7672D4"/>
<stop offset="1" stop-color="#766CD3"/>
</linearGradient>
<linearGradient id="paint37_linear_173_2" x1="221.62" y1="97.0694" x2="241.239" y2="75.8517" gradientUnits="userSpaceOnUse">
<stop stop-color="#F38C96"/>
<stop offset="1" stop-color="#ED5391"/>
</linearGradient>
<linearGradient id="paint38_linear_173_2" x1="221.285" y1="134.372" x2="243.928" y2="109.885" gradientUnits="userSpaceOnUse">
<stop stop-color="#75C0DF"/>
<stop offset="0.292" stop-color="#759CDA"/>
<stop offset="0.5651" stop-color="#7681D6"/>
<stop offset="0.8092" stop-color="#7672D4"/>
<stop offset="1" stop-color="#766CD3"/>
</linearGradient>
<linearGradient id="paint39_linear_173_2" x1="127.357" y1="94.3894" x2="165.565" y2="94.3894" gradientUnits="userSpaceOnUse">
<stop stop-color="#F38C96"/>
<stop offset="1" stop-color="#ED5391"/>
</linearGradient>
<linearGradient id="paint40_linear_173_2" x1="146.457" y1="84.8349" x2="159.965" y2="84.8349" gradientUnits="userSpaceOnUse">
<stop stop-color="#B2DDEF"/>
<stop offset="1" stop-color="#29A7DF"/>
</linearGradient>
<linearGradient id="paint41_linear_173_2" x1="146.457" y1="94.3902" x2="165.566" y2="94.3902" gradientUnits="userSpaceOnUse">
<stop stop-color="#75C0DF"/>
<stop offset="0.292" stop-color="#759CDA"/>
<stop offset="0.5651" stop-color="#7681D6"/>
<stop offset="0.8092" stop-color="#7672D4"/>
<stop offset="1" stop-color="#766CD3"/>
</linearGradient>
<clipPath id="clip0_173_2">
<rect width="500" height="500" fill="white"/>
</clipPath>
</defs>
</svg>
