<svg width="77" height="17" viewBox="0 0 77 17" fill="none" xmlns="http://www.w3.org/2000/svg">
<mask id="path-1-outside-1_2_272" maskUnits="userSpaceOnUse" x="0" y="-1" width="78" height="18" fill="black">
<rect fill="white" y="-1" width="78" height="18"/>
<path d="M5.30859 8.19531L5.27344 11.0898C5.27344 13.1133 5.30469 14.2461 5.36719 14.4883C5.42969 14.7227 5.5625 14.9688 5.76562 15.2266C5.97656 15.4766 6.41016 15.6211 7.06641 15.6602C7.41797 15.6758 7.59375 15.7617 7.59375 15.918C7.59375 16.0898 7.46875 16.1758 7.21875 16.1758C7.125 16.1758 6.87891 16.1562 6.48047 16.1172C5.66797 16.0391 4.94922 16 4.32422 16C3.79297 16 3.05469 16.0312 2.10938 16.0938L1.45312 16.1289C1.20312 16.1289 1.07812 16.0508 1.07812 15.8945C1.07812 15.7383 1.26172 15.6602 1.62891 15.6602C2.12891 15.6602 2.48828 15.5195 2.70703 15.2383C2.92578 14.957 3.06641 14.2422 3.12891 13.0938C3.19922 11.9375 3.23438 10.4141 3.23438 8.52344C3.23438 6.74219 3.20312 5.33984 3.14062 4.31641C3.07812 3.28516 2.98828 2.60937 2.87109 2.28906C2.76172 1.96875 2.59375 1.74219 2.36719 1.60938C2.14062 1.46875 1.71094 1.37891 1.07812 1.33984C0.828125 1.32422 0.703125 1.24609 0.703125 1.10547C0.703125 0.980469 0.8125 0.910156 1.03125 0.894531C2.98438 0.738281 6.67578 0.660156 12.1055 0.660156C13.0352 0.660156 13.5391 0.675781 13.6172 0.707031C13.7031 0.730469 13.7617 0.78125 13.793 0.859375C13.832 0.929688 13.9375 1.46875 14.1094 2.47656C14.2891 3.48438 14.3789 4.01172 14.3789 4.05859C14.3789 4.22266 14.3086 4.30469 14.168 4.30469C14.0664 4.30469 13.9688 4.22656 13.875 4.07031C12.7734 2.15625 10.9844 1.19922 8.50781 1.19922C7.65625 1.19922 6.96484 1.23828 6.43359 1.31641C5.91016 1.38672 5.60547 1.47656 5.51953 1.58594C5.43359 1.6875 5.375 2.17578 5.34375 3.05078C5.32031 3.92578 5.30859 5.45312 5.30859 7.63281C5.92578 7.66406 6.35156 7.67969 6.58594 7.67969C7.71094 7.67969 8.49219 7.44141 8.92969 6.96484C9.375 6.48047 9.60938 5.98047 9.63281 5.46484C9.64844 5.12109 9.73828 4.94922 9.90234 4.94922C10.0742 4.94922 10.1602 5.06641 10.1602 5.30078C10.1602 5.37891 10.1523 5.47656 10.1367 5.59375C10.082 6.04688 10.0547 7.20703 10.0547 9.07422V10.4336C10.0547 10.7617 9.95703 10.9258 9.76172 10.9258C9.59766 10.9258 9.51172 10.8047 9.50391 10.5625C9.48047 9.85938 9.25781 9.28516 8.83594 8.83984C8.41406 8.38672 7.58203 8.16016 6.33984 8.16016C6.13672 8.16016 5.79297 8.17188 5.30859 8.19531ZM21.0703 14.5C20.6875 15.0547 20.2305 15.4727 19.6992 15.7539C19.168 16.0273 18.5664 16.1641 17.8945 16.1641C17.1055 16.1641 16.4844 15.9531 16.0312 15.5312C15.5859 15.1094 15.3633 14.5547 15.3633 13.8672C15.3633 13.3516 15.4961 12.8711 15.7617 12.4258C16.0352 11.9805 16.3438 11.6602 16.6875 11.4648C17.0391 11.2695 17.6523 11.0234 18.5273 10.7266C19.7773 10.3125 20.5273 9.96875 20.7773 9.69531C21.0273 9.42188 21.1523 9.06641 21.1523 8.62891C21.1523 7.93359 20.9883 7.39453 20.6602 7.01172C20.332 6.62109 19.8672 6.42578 19.2656 6.42578C18.7734 6.42578 18.4023 6.53516 18.1523 6.75391C17.9023 6.98047 17.7109 7.42188 17.5781 8.07812C17.4375 8.79688 17.1289 9.15625 16.6523 9.15625C16.4805 9.15625 16.2891 9.07031 16.0781 8.89844C15.875 8.72656 15.7734 8.47266 15.7734 8.13672C15.7734 7.55078 16.0977 7.04297 16.7461 6.61328C17.3945 6.17578 18.2852 5.95703 19.418 5.95703C20.3164 5.95703 21.0312 6.08594 21.5625 6.34375C22.1016 6.59375 22.4375 6.88281 22.5703 7.21094C22.7109 7.53906 22.7812 8.17188 22.7812 9.10938L22.7109 12.2031C22.7109 13.3984 22.7812 14.25 22.9219 14.7578C23.0703 15.2578 23.3398 15.5078 23.7305 15.5078C23.8086 15.5078 23.918 15.4961 24.0586 15.4727L24.2578 15.4492C24.4375 15.4492 24.5273 15.5156 24.5273 15.6484C24.5273 15.9531 23.7578 16.1055 22.2188 16.1055C21.7734 16.1055 21.4727 16.0039 21.3164 15.8008C21.168 15.5898 21.0859 15.1562 21.0703 14.5ZM21.0703 9.92969C20.8359 10.2344 20.3047 10.6055 19.4766 11.043C18.6562 11.4648 18.0664 11.8672 17.707 12.25C17.3477 12.6406 17.168 13.1094 17.168 13.6562C17.168 14.1484 17.3125 14.5664 17.6016 14.9102C17.8984 15.2539 18.2656 15.4258 18.7031 15.4258C19.1562 15.4258 19.582 15.2891 19.9805 15.0156C20.3789 14.7344 20.6719 14.3789 20.8594 13.9492C21.0547 13.5195 21.1523 12.8828 21.1523 12.0391C21.1523 11.4062 21.125 10.7031 21.0703 9.92969ZM33.0938 12.8945C33.0938 13.8008 32.7578 14.582 32.0859 15.2383C31.4141 15.8867 30.6172 16.2109 29.6953 16.2109C29.1484 16.2109 28.4961 16.0352 27.7383 15.6836C27.3242 15.4961 27.0781 15.4023 27 15.4023C26.8672 15.4023 26.75 15.4844 26.6484 15.6484C26.5234 15.8672 26.4062 15.9766 26.2969 15.9766C26.2031 15.9766 26.1445 15.8672 26.1211 15.6484C26.0977 15.4219 26.082 14.9141 26.0742 14.125C26.0664 13.4453 26.0547 13.0078 26.0391 12.8125C26.0391 12.5234 26.1133 12.3789 26.2617 12.3789C26.3477 12.3789 26.4141 12.4531 26.4609 12.6016C26.7656 13.4922 27.1914 14.25 27.7383 14.875C28.293 15.4922 28.9414 15.8008 29.6836 15.8008C30.207 15.8008 30.6719 15.6406 31.0781 15.3203C31.4844 14.9922 31.6875 14.5508 31.6875 13.9961C31.6875 13.1367 30.9414 12.375 29.4492 11.7109C28.4258 11.25 27.7422 10.9141 27.3984 10.7031C27.0547 10.4922 26.7852 10.207 26.5898 9.84766C26.3945 9.48828 26.2969 9.09766 26.2969 8.67578C26.2969 7.87109 26.6016 7.19922 27.2109 6.66016C27.8203 6.11328 28.5586 5.83984 29.4258 5.83984C30.0664 5.83984 30.7695 6.03906 31.5352 6.4375C31.6602 6.5 31.7695 6.53125 31.8633 6.53125C31.9414 6.53125 32.0273 6.46875 32.1211 6.34375C32.2148 6.22656 32.2891 6.16797 32.3438 6.16797C32.4141 6.16797 32.4688 6.19922 32.5078 6.26172C32.5469 6.31641 32.5898 6.66016 32.6367 7.29297C32.6836 7.91797 32.707 8.43359 32.707 8.83984C32.707 9.08984 32.6406 9.21484 32.5078 9.21484C32.3906 9.21484 32.2969 9.10156 32.2266 8.875C32.1641 8.66406 31.9766 8.26172 31.6641 7.66797C31.3516 7.07422 31.0078 6.69531 30.6328 6.53125C30.2656 6.36719 29.9023 6.28516 29.543 6.28516C28.9805 6.28516 28.5195 6.42188 28.1602 6.69531C27.8008 6.96875 27.6211 7.32422 27.6211 7.76172C27.6211 8.03516 27.6953 8.28125 27.8438 8.5C27.9922 8.71875 28.1289 8.88281 28.2539 8.99219C28.3867 9.10156 29.1328 9.46094 30.4922 10.0703C31.3359 10.4531 31.8906 10.75 32.1562 10.9609C32.4219 11.1641 32.6445 11.4414 32.8242 11.793C33.0039 12.1445 33.0938 12.5117 33.0938 12.8945ZM38.1562 7.67969C39.1016 6.51562 40.2227 5.93359 41.5195 5.93359C42.5508 5.93359 43.3398 6.22656 43.8867 6.8125C44.4414 7.39844 44.7188 8.44141 44.7188 9.94141L44.6484 13.0469C44.6484 14.0391 44.6602 14.6406 44.6836 14.8516C44.707 15.0625 44.8164 15.2461 45.0117 15.4023C45.2148 15.5586 45.4141 15.6406 45.6094 15.6484C45.8203 15.6484 45.9258 15.6953 45.9258 15.7891C45.9258 15.9297 45.7539 16 45.4102 16H41.9414C41.8086 15.9688 41.7422 15.9023 41.7422 15.8008C41.7422 15.6914 41.832 15.625 42.0117 15.6016C42.5664 15.5312 42.8945 15.3164 42.9961 14.957C43.0977 14.5898 43.1484 13.4336 43.1484 11.4883C43.1484 9.39453 42.9375 8.04688 42.5156 7.44531C42.1016 6.83594 41.5508 6.53125 40.8633 6.53125C40.1914 6.53125 39.5977 6.78906 39.082 7.30469C38.5742 7.8125 38.2734 8.5625 38.1797 9.55469C38.0859 10.5469 38.0391 11.7578 38.0391 13.1875C38.0391 14.1562 38.0898 14.7891 38.1914 15.0859C38.293 15.3828 38.582 15.5781 39.0586 15.6719C39.2539 15.7031 39.3516 15.7734 39.3516 15.8828C39.3516 16.0078 39.2578 16.0703 39.0703 16.0703L36.7031 16.0234C36.1953 16.0234 35.7539 16.0352 35.3789 16.0586C35.1445 16.0586 35.0273 15.9961 35.0273 15.8711C35.0273 15.7617 35.1211 15.6953 35.3086 15.6719C35.6836 15.625 35.9375 15.5195 36.0703 15.3555C36.2031 15.1914 36.3164 14.5625 36.4102 13.4688C36.5039 12.3672 36.5508 10.9609 36.5508 9.25C36.5508 6.19531 36.5352 4.19531 36.5039 3.25C36.4805 2.29688 36.3438 1.60938 36.0938 1.1875C35.8438 0.757812 35.5391 0.507812 35.1797 0.4375C34.9609 0.390625 34.8516 0.3125 34.8516 0.203125C34.8516 0.140625 34.875 0.105469 34.9219 0.0976562C34.9766 0.0820313 35.2305 0.0742188 35.6836 0.0742188C36.4492 0.0742188 37.2734 0.046875 38.1562 -0.0078125L38.1211 5.82812C38.1211 6.57031 38.1328 7.1875 38.1562 7.67969ZM49.582 0.203125C49.8789 0.203125 50.1445 0.3125 50.3789 0.53125C50.6133 0.75 50.7305 0.988281 50.7305 1.24609C50.7305 1.55078 50.6328 1.8125 50.4375 2.03125C50.25 2.25 49.9883 2.35938 49.6523 2.35938C49.3555 2.35938 49.0898 2.26562 48.8555 2.07812C48.6211 1.88281 48.5039 1.62109 48.5039 1.29297C48.5039 0.972656 48.6016 0.710937 48.7969 0.507812C49 0.304688 49.2617 0.203125 49.582 0.203125ZM50.8828 5.93359L50.8711 8.57031L50.8945 11.0312V12.8828L50.8828 14.2891C50.8828 14.8516 50.9727 15.2109 51.1523 15.3672C51.3398 15.5156 51.6172 15.5977 51.9844 15.6133C52.4141 15.6367 52.6289 15.7266 52.6289 15.8828C52.6289 16.0078 52.5469 16.0703 52.3828 16.0703C52.3203 16.0703 52.25 16.0664 52.1719 16.0586C51.4453 15.9648 50.7695 15.918 50.1445 15.918C49.1445 15.918 48.4531 15.9492 48.0703 16.0117C47.9922 16.0273 47.9141 16.0352 47.8359 16.0352C47.6484 16.0352 47.5547 15.9648 47.5547 15.8242C47.5547 15.6836 47.7734 15.5859 48.2109 15.5312C48.6484 15.4766 48.9258 15.3828 49.043 15.25C49.168 15.1094 49.2305 14.7188 49.2305 14.0781L49.3008 9.22656C49.3008 7.92969 49.2031 7.16406 49.0078 6.92969C48.8125 6.6875 48.4336 6.55859 47.8711 6.54297C47.6836 6.54297 47.5898 6.48047 47.5898 6.35547C47.5898 6.28516 47.6211 6.23047 47.6836 6.19141C47.7461 6.15234 48.2109 6.10156 49.0781 6.03906C49.9453 5.97656 50.5469 5.94141 50.8828 5.93359ZM53.8477 11.1016C53.8477 9.72656 54.3438 8.51562 55.3359 7.46875C56.3281 6.42188 57.5469 5.89844 58.9922 5.89844C60.3516 5.89844 61.5195 6.36719 62.4961 7.30469C63.4805 8.24219 63.9727 9.41406 63.9727 10.8203C63.9727 12.2422 63.457 13.4922 62.4258 14.5703C61.3945 15.6406 60.1914 16.1758 58.8164 16.1758C57.457 16.1758 56.2891 15.6836 55.3125 14.6992C54.3359 13.707 53.8477 12.5078 53.8477 11.1016ZM55.7461 11.0312C55.7461 12.375 56.0547 13.4922 56.6719 14.3828C57.2969 15.2734 58.0664 15.7188 58.9805 15.7188C59.8164 15.7188 60.5508 15.3008 61.1836 14.4648C61.8242 13.6289 62.1445 12.5195 62.1445 11.1367C62.1445 9.90234 61.8359 8.80469 61.2188 7.84375C60.6094 6.875 59.8164 6.39062 58.8398 6.39062C57.9336 6.39062 57.1914 6.83203 56.6133 7.71484C56.0352 8.58984 55.7461 9.69531 55.7461 11.0312ZM68.543 5.96875C68.7305 6.42969 68.8438 7.20703 68.8828 8.30078C69.3672 7.53516 69.9023 6.96094 70.4883 6.57812C71.082 6.19531 71.7266 6.00391 72.4219 6.00391C72.9531 6.00391 73.4648 6.10547 73.957 6.30859C74.457 6.50391 74.8398 6.84766 75.1055 7.33984C75.3789 7.82422 75.5156 8.65234 75.5156 9.82422L75.4453 13.7734C75.4453 14.5 75.5039 14.957 75.6211 15.1445C75.7461 15.3242 76.0078 15.4688 76.4062 15.5781C76.6797 15.6562 76.8164 15.7422 76.8164 15.8359C76.8164 15.9531 76.75 16.0117 76.6172 16.0117C76.5625 16.0117 76.5078 16.0078 76.4531 16C76.0938 15.9219 75.5625 15.8828 74.8594 15.8828C74.2266 15.8828 73.5469 15.9102 72.8203 15.9648C72.5312 15.9648 72.3867 15.8984 72.3867 15.7656C72.3867 15.6719 72.4648 15.6094 72.6211 15.5781C73.0508 15.4844 73.332 15.3867 73.4648 15.2852C73.5977 15.1836 73.6914 15.0508 73.7461 14.8867C73.8008 14.7148 73.8438 14.1484 73.875 13.1875C73.9141 12.2266 73.9336 11.4453 73.9336 10.8438C73.9336 9.19531 73.7266 8.09766 73.3125 7.55078C72.8984 7.00391 72.3828 6.73047 71.7656 6.73047C70.8516 6.73047 70.0898 7.22656 69.4805 8.21875C68.8789 9.20312 68.5781 10.8477 68.5781 13.1523C68.5781 14.1992 68.6445 14.8672 68.7773 15.1562C68.918 15.4375 69.2617 15.6094 69.8086 15.6719C69.9805 15.6875 70.0664 15.7617 70.0664 15.8945C70.0664 16.0039 69.9805 16.0586 69.8086 16.0586L69.1992 16.0117C68.9805 15.9961 68.2578 15.9883 67.0312 15.9883L66.0938 16.0117C65.75 16.0117 65.5781 15.9492 65.5781 15.8242C65.5781 15.6914 65.7656 15.5898 66.1406 15.5195C66.5 15.4492 66.7422 15.3281 66.8672 15.1562C66.9922 14.9766 67.0742 14.3906 67.1133 13.3984C67.1602 12.4062 67.1836 11.168 67.1836 9.68359C67.1836 8.30078 67.0898 7.44141 66.9023 7.10547C66.7148 6.76953 66.4531 6.5625 66.1172 6.48438C65.8125 6.41406 65.6602 6.31641 65.6602 6.19141C65.6602 6.05859 65.7773 5.99219 66.0117 5.99219L66.9609 6.00391C67.0625 6.00391 67.5898 5.99219 68.543 5.96875Z"/>
</mask>
<path d="M5.30859 8.19531L5.27344 11.0898C5.27344 13.1133 5.30469 14.2461 5.36719 14.4883C5.42969 14.7227 5.5625 14.9688 5.76562 15.2266C5.97656 15.4766 6.41016 15.6211 7.06641 15.6602C7.41797 15.6758 7.59375 15.7617 7.59375 15.918C7.59375 16.0898 7.46875 16.1758 7.21875 16.1758C7.125 16.1758 6.87891 16.1562 6.48047 16.1172C5.66797 16.0391 4.94922 16 4.32422 16C3.79297 16 3.05469 16.0312 2.10938 16.0938L1.45312 16.1289C1.20312 16.1289 1.07812 16.0508 1.07812 15.8945C1.07812 15.7383 1.26172 15.6602 1.62891 15.6602C2.12891 15.6602 2.48828 15.5195 2.70703 15.2383C2.92578 14.957 3.06641 14.2422 3.12891 13.0938C3.19922 11.9375 3.23438 10.4141 3.23438 8.52344C3.23438 6.74219 3.20312 5.33984 3.14062 4.31641C3.07812 3.28516 2.98828 2.60937 2.87109 2.28906C2.76172 1.96875 2.59375 1.74219 2.36719 1.60938C2.14062 1.46875 1.71094 1.37891 1.07812 1.33984C0.828125 1.32422 0.703125 1.24609 0.703125 1.10547C0.703125 0.980469 0.8125 0.910156 1.03125 0.894531C2.98438 0.738281 6.67578 0.660156 12.1055 0.660156C13.0352 0.660156 13.5391 0.675781 13.6172 0.707031C13.7031 0.730469 13.7617 0.78125 13.793 0.859375C13.832 0.929688 13.9375 1.46875 14.1094 2.47656C14.2891 3.48438 14.3789 4.01172 14.3789 4.05859C14.3789 4.22266 14.3086 4.30469 14.168 4.30469C14.0664 4.30469 13.9688 4.22656 13.875 4.07031C12.7734 2.15625 10.9844 1.19922 8.50781 1.19922C7.65625 1.19922 6.96484 1.23828 6.43359 1.31641C5.91016 1.38672 5.60547 1.47656 5.51953 1.58594C5.43359 1.6875 5.375 2.17578 5.34375 3.05078C5.32031 3.92578 5.30859 5.45312 5.30859 7.63281C5.92578 7.66406 6.35156 7.67969 6.58594 7.67969C7.71094 7.67969 8.49219 7.44141 8.92969 6.96484C9.375 6.48047 9.60938 5.98047 9.63281 5.46484C9.64844 5.12109 9.73828 4.94922 9.90234 4.94922C10.0742 4.94922 10.1602 5.06641 10.1602 5.30078C10.1602 5.37891 10.1523 5.47656 10.1367 5.59375C10.082 6.04688 10.0547 7.20703 10.0547 9.07422V10.4336C10.0547 10.7617 9.95703 10.9258 9.76172 10.9258C9.59766 10.9258 9.51172 10.8047 9.50391 10.5625C9.48047 9.85938 9.25781 9.28516 8.83594 8.83984C8.41406 8.38672 7.58203 8.16016 6.33984 8.16016C6.13672 8.16016 5.79297 8.17188 5.30859 8.19531ZM21.0703 14.5C20.6875 15.0547 20.2305 15.4727 19.6992 15.7539C19.168 16.0273 18.5664 16.1641 17.8945 16.1641C17.1055 16.1641 16.4844 15.9531 16.0312 15.5312C15.5859 15.1094 15.3633 14.5547 15.3633 13.8672C15.3633 13.3516 15.4961 12.8711 15.7617 12.4258C16.0352 11.9805 16.3438 11.6602 16.6875 11.4648C17.0391 11.2695 17.6523 11.0234 18.5273 10.7266C19.7773 10.3125 20.5273 9.96875 20.7773 9.69531C21.0273 9.42188 21.1523 9.06641 21.1523 8.62891C21.1523 7.93359 20.9883 7.39453 20.6602 7.01172C20.332 6.62109 19.8672 6.42578 19.2656 6.42578C18.7734 6.42578 18.4023 6.53516 18.1523 6.75391C17.9023 6.98047 17.7109 7.42188 17.5781 8.07812C17.4375 8.79688 17.1289 9.15625 16.6523 9.15625C16.4805 9.15625 16.2891 9.07031 16.0781 8.89844C15.875 8.72656 15.7734 8.47266 15.7734 8.13672C15.7734 7.55078 16.0977 7.04297 16.7461 6.61328C17.3945 6.17578 18.2852 5.95703 19.418 5.95703C20.3164 5.95703 21.0312 6.08594 21.5625 6.34375C22.1016 6.59375 22.4375 6.88281 22.5703 7.21094C22.7109 7.53906 22.7812 8.17188 22.7812 9.10938L22.7109 12.2031C22.7109 13.3984 22.7812 14.25 22.9219 14.7578C23.0703 15.2578 23.3398 15.5078 23.7305 15.5078C23.8086 15.5078 23.918 15.4961 24.0586 15.4727L24.2578 15.4492C24.4375 15.4492 24.5273 15.5156 24.5273 15.6484C24.5273 15.9531 23.7578 16.1055 22.2188 16.1055C21.7734 16.1055 21.4727 16.0039 21.3164 15.8008C21.168 15.5898 21.0859 15.1562 21.0703 14.5ZM21.0703 9.92969C20.8359 10.2344 20.3047 10.6055 19.4766 11.043C18.6562 11.4648 18.0664 11.8672 17.707 12.25C17.3477 12.6406 17.168 13.1094 17.168 13.6562C17.168 14.1484 17.3125 14.5664 17.6016 14.9102C17.8984 15.2539 18.2656 15.4258 18.7031 15.4258C19.1562 15.4258 19.582 15.2891 19.9805 15.0156C20.3789 14.7344 20.6719 14.3789 20.8594 13.9492C21.0547 13.5195 21.1523 12.8828 21.1523 12.0391C21.1523 11.4062 21.125 10.7031 21.0703 9.92969ZM33.0938 12.8945C33.0938 13.8008 32.7578 14.582 32.0859 15.2383C31.4141 15.8867 30.6172 16.2109 29.6953 16.2109C29.1484 16.2109 28.4961 16.0352 27.7383 15.6836C27.3242 15.4961 27.0781 15.4023 27 15.4023C26.8672 15.4023 26.75 15.4844 26.6484 15.6484C26.5234 15.8672 26.4062 15.9766 26.2969 15.9766C26.2031 15.9766 26.1445 15.8672 26.1211 15.6484C26.0977 15.4219 26.082 14.9141 26.0742 14.125C26.0664 13.4453 26.0547 13.0078 26.0391 12.8125C26.0391 12.5234 26.1133 12.3789 26.2617 12.3789C26.3477 12.3789 26.4141 12.4531 26.4609 12.6016C26.7656 13.4922 27.1914 14.25 27.7383 14.875C28.293 15.4922 28.9414 15.8008 29.6836 15.8008C30.207 15.8008 30.6719 15.6406 31.0781 15.3203C31.4844 14.9922 31.6875 14.5508 31.6875 13.9961C31.6875 13.1367 30.9414 12.375 29.4492 11.7109C28.4258 11.25 27.7422 10.9141 27.3984 10.7031C27.0547 10.4922 26.7852 10.207 26.5898 9.84766C26.3945 9.48828 26.2969 9.09766 26.2969 8.67578C26.2969 7.87109 26.6016 7.19922 27.2109 6.66016C27.8203 6.11328 28.5586 5.83984 29.4258 5.83984C30.0664 5.83984 30.7695 6.03906 31.5352 6.4375C31.6602 6.5 31.7695 6.53125 31.8633 6.53125C31.9414 6.53125 32.0273 6.46875 32.1211 6.34375C32.2148 6.22656 32.2891 6.16797 32.3438 6.16797C32.4141 6.16797 32.4688 6.19922 32.5078 6.26172C32.5469 6.31641 32.5898 6.66016 32.6367 7.29297C32.6836 7.91797 32.707 8.43359 32.707 8.83984C32.707 9.08984 32.6406 9.21484 32.5078 9.21484C32.3906 9.21484 32.2969 9.10156 32.2266 8.875C32.1641 8.66406 31.9766 8.26172 31.6641 7.66797C31.3516 7.07422 31.0078 6.69531 30.6328 6.53125C30.2656 6.36719 29.9023 6.28516 29.543 6.28516C28.9805 6.28516 28.5195 6.42188 28.1602 6.69531C27.8008 6.96875 27.6211 7.32422 27.6211 7.76172C27.6211 8.03516 27.6953 8.28125 27.8438 8.5C27.9922 8.71875 28.1289 8.88281 28.2539 8.99219C28.3867 9.10156 29.1328 9.46094 30.4922 10.0703C31.3359 10.4531 31.8906 10.75 32.1562 10.9609C32.4219 11.1641 32.6445 11.4414 32.8242 11.793C33.0039 12.1445 33.0938 12.5117 33.0938 12.8945ZM38.1562 7.67969C39.1016 6.51562 40.2227 5.93359 41.5195 5.93359C42.5508 5.93359 43.3398 6.22656 43.8867 6.8125C44.4414 7.39844 44.7188 8.44141 44.7188 9.94141L44.6484 13.0469C44.6484 14.0391 44.6602 14.6406 44.6836 14.8516C44.707 15.0625 44.8164 15.2461 45.0117 15.4023C45.2148 15.5586 45.4141 15.6406 45.6094 15.6484C45.8203 15.6484 45.9258 15.6953 45.9258 15.7891C45.9258 15.9297 45.7539 16 45.4102 16H41.9414C41.8086 15.9688 41.7422 15.9023 41.7422 15.8008C41.7422 15.6914 41.832 15.625 42.0117 15.6016C42.5664 15.5312 42.8945 15.3164 42.9961 14.957C43.0977 14.5898 43.1484 13.4336 43.1484 11.4883C43.1484 9.39453 42.9375 8.04688 42.5156 7.44531C42.1016 6.83594 41.5508 6.53125 40.8633 6.53125C40.1914 6.53125 39.5977 6.78906 39.082 7.30469C38.5742 7.8125 38.2734 8.5625 38.1797 9.55469C38.0859 10.5469 38.0391 11.7578 38.0391 13.1875C38.0391 14.1562 38.0898 14.7891 38.1914 15.0859C38.293 15.3828 38.582 15.5781 39.0586 15.6719C39.2539 15.7031 39.3516 15.7734 39.3516 15.8828C39.3516 16.0078 39.2578 16.0703 39.0703 16.0703L36.7031 16.0234C36.1953 16.0234 35.7539 16.0352 35.3789 16.0586C35.1445 16.0586 35.0273 15.9961 35.0273 15.8711C35.0273 15.7617 35.1211 15.6953 35.3086 15.6719C35.6836 15.625 35.9375 15.5195 36.0703 15.3555C36.2031 15.1914 36.3164 14.5625 36.4102 13.4688C36.5039 12.3672 36.5508 10.9609 36.5508 9.25C36.5508 6.19531 36.5352 4.19531 36.5039 3.25C36.4805 2.29688 36.3438 1.60938 36.0938 1.1875C35.8438 0.757812 35.5391 0.507812 35.1797 0.4375C34.9609 0.390625 34.8516 0.3125 34.8516 0.203125C34.8516 0.140625 34.875 0.105469 34.9219 0.0976562C34.9766 0.0820313 35.2305 0.0742188 35.6836 0.0742188C36.4492 0.0742188 37.2734 0.046875 38.1562 -0.0078125L38.1211 5.82812C38.1211 6.57031 38.1328 7.1875 38.1562 7.67969ZM49.582 0.203125C49.8789 0.203125 50.1445 0.3125 50.3789 0.53125C50.6133 0.75 50.7305 0.988281 50.7305 1.24609C50.7305 1.55078 50.6328 1.8125 50.4375 2.03125C50.25 2.25 49.9883 2.35938 49.6523 2.35938C49.3555 2.35938 49.0898 2.26562 48.8555 2.07812C48.6211 1.88281 48.5039 1.62109 48.5039 1.29297C48.5039 0.972656 48.6016 0.710937 48.7969 0.507812C49 0.304688 49.2617 0.203125 49.582 0.203125ZM50.8828 5.93359L50.8711 8.57031L50.8945 11.0312V12.8828L50.8828 14.2891C50.8828 14.8516 50.9727 15.2109 51.1523 15.3672C51.3398 15.5156 51.6172 15.5977 51.9844 15.6133C52.4141 15.6367 52.6289 15.7266 52.6289 15.8828C52.6289 16.0078 52.5469 16.0703 52.3828 16.0703C52.3203 16.0703 52.25 16.0664 52.1719 16.0586C51.4453 15.9648 50.7695 15.918 50.1445 15.918C49.1445 15.918 48.4531 15.9492 48.0703 16.0117C47.9922 16.0273 47.9141 16.0352 47.8359 16.0352C47.6484 16.0352 47.5547 15.9648 47.5547 15.8242C47.5547 15.6836 47.7734 15.5859 48.2109 15.5312C48.6484 15.4766 48.9258 15.3828 49.043 15.25C49.168 15.1094 49.2305 14.7188 49.2305 14.0781L49.3008 9.22656C49.3008 7.92969 49.2031 7.16406 49.0078 6.92969C48.8125 6.6875 48.4336 6.55859 47.8711 6.54297C47.6836 6.54297 47.5898 6.48047 47.5898 6.35547C47.5898 6.28516 47.6211 6.23047 47.6836 6.19141C47.7461 6.15234 48.2109 6.10156 49.0781 6.03906C49.9453 5.97656 50.5469 5.94141 50.8828 5.93359ZM53.8477 11.1016C53.8477 9.72656 54.3438 8.51562 55.3359 7.46875C56.3281 6.42188 57.5469 5.89844 58.9922 5.89844C60.3516 5.89844 61.5195 6.36719 62.4961 7.30469C63.4805 8.24219 63.9727 9.41406 63.9727 10.8203C63.9727 12.2422 63.457 13.4922 62.4258 14.5703C61.3945 15.6406 60.1914 16.1758 58.8164 16.1758C57.457 16.1758 56.2891 15.6836 55.3125 14.6992C54.3359 13.707 53.8477 12.5078 53.8477 11.1016ZM55.7461 11.0312C55.7461 12.375 56.0547 13.4922 56.6719 14.3828C57.2969 15.2734 58.0664 15.7188 58.9805 15.7188C59.8164 15.7188 60.5508 15.3008 61.1836 14.4648C61.8242 13.6289 62.1445 12.5195 62.1445 11.1367C62.1445 9.90234 61.8359 8.80469 61.2188 7.84375C60.6094 6.875 59.8164 6.39062 58.8398 6.39062C57.9336 6.39062 57.1914 6.83203 56.6133 7.71484C56.0352 8.58984 55.7461 9.69531 55.7461 11.0312ZM68.543 5.96875C68.7305 6.42969 68.8438 7.20703 68.8828 8.30078C69.3672 7.53516 69.9023 6.96094 70.4883 6.57812C71.082 6.19531 71.7266 6.00391 72.4219 6.00391C72.9531 6.00391 73.4648 6.10547 73.957 6.30859C74.457 6.50391 74.8398 6.84766 75.1055 7.33984C75.3789 7.82422 75.5156 8.65234 75.5156 9.82422L75.4453 13.7734C75.4453 14.5 75.5039 14.957 75.6211 15.1445C75.7461 15.3242 76.0078 15.4688 76.4062 15.5781C76.6797 15.6562 76.8164 15.7422 76.8164 15.8359C76.8164 15.9531 76.75 16.0117 76.6172 16.0117C76.5625 16.0117 76.5078 16.0078 76.4531 16C76.0938 15.9219 75.5625 15.8828 74.8594 15.8828C74.2266 15.8828 73.5469 15.9102 72.8203 15.9648C72.5312 15.9648 72.3867 15.8984 72.3867 15.7656C72.3867 15.6719 72.4648 15.6094 72.6211 15.5781C73.0508 15.4844 73.332 15.3867 73.4648 15.2852C73.5977 15.1836 73.6914 15.0508 73.7461 14.8867C73.8008 14.7148 73.8438 14.1484 73.875 13.1875C73.9141 12.2266 73.9336 11.4453 73.9336 10.8438C73.9336 9.19531 73.7266 8.09766 73.3125 7.55078C72.8984 7.00391 72.3828 6.73047 71.7656 6.73047C70.8516 6.73047 70.0898 7.22656 69.4805 8.21875C68.8789 9.20312 68.5781 10.8477 68.5781 13.1523C68.5781 14.1992 68.6445 14.8672 68.7773 15.1562C68.918 15.4375 69.2617 15.6094 69.8086 15.6719C69.9805 15.6875 70.0664 15.7617 70.0664 15.8945C70.0664 16.0039 69.9805 16.0586 69.8086 16.0586L69.1992 16.0117C68.9805 15.9961 68.2578 15.9883 67.0312 15.9883L66.0938 16.0117C65.75 16.0117 65.5781 15.9492 65.5781 15.8242C65.5781 15.6914 65.7656 15.5898 66.1406 15.5195C66.5 15.4492 66.7422 15.3281 66.8672 15.1562C66.9922 14.9766 67.0742 14.3906 67.1133 13.3984C67.1602 12.4062 67.1836 11.168 67.1836 9.68359C67.1836 8.30078 67.0898 7.44141 66.9023 7.10547C66.7148 6.76953 66.4531 6.5625 66.1172 6.48438C65.8125 6.41406 65.6602 6.31641 65.6602 6.19141C65.6602 6.05859 65.7773 5.99219 66.0117 5.99219L66.9609 6.00391C67.0625 6.00391 67.5898 5.99219 68.543 5.96875Z" fill="#2D2D2D"/>
<path d="M5.30859 8.19531L5.29893 7.99555L5.11089 8.00464L5.10861 8.19288L5.30859 8.19531ZM5.27344 11.0898L5.07344 11.0874V11.0898H5.27344ZM5.36719 14.4883L5.17353 14.5383L5.17394 14.5398L5.36719 14.4883ZM5.76562 15.2266L5.60844 15.3504L5.61277 15.3555L5.76562 15.2266ZM7.06641 15.6602L7.05452 15.8598L7.05753 15.86L7.06641 15.6602ZM6.48047 16.1172L6.49998 15.9181L6.49961 15.9181L6.48047 16.1172ZM2.10938 16.0938L2.12007 16.2935L2.12257 16.2933L2.10938 16.0938ZM1.45312 16.1289V16.3292L1.46382 16.3286L1.45312 16.1289ZM3.12891 13.0938L2.92927 13.0816L2.9292 13.0829L3.12891 13.0938ZM3.14062 4.31641L2.94099 4.32851L2.941 4.3286L3.14062 4.31641ZM2.87109 2.28906L2.68178 2.35371L2.68327 2.35778L2.87109 2.28906ZM2.36719 1.60938L2.26168 1.77936L2.26604 1.78191L2.36719 1.60938ZM1.07812 1.33984L1.06565 1.53945L1.0658 1.53946L1.07812 1.33984ZM1.03125 0.894531L1.0455 1.09403L1.0472 1.09389L1.03125 0.894531ZM13.6172 0.707031L13.5429 0.892727L13.5535 0.896975L13.5646 0.899984L13.6172 0.707031ZM13.793 0.859375L13.6073 0.933653L13.612 0.945423L13.6181 0.956504L13.793 0.859375ZM14.1094 2.47656L13.9122 2.51019L13.9125 2.51167L14.1094 2.47656ZM13.875 4.07031L13.7016 4.17009L13.7035 4.17321L13.875 4.07031ZM6.43359 1.31641L6.46022 1.51464L6.46269 1.51428L6.43359 1.31641ZM5.51953 1.58594L5.67231 1.71521L5.6768 1.7095L5.51953 1.58594ZM5.34375 3.05078L5.14387 3.04364L5.14382 3.04543L5.34375 3.05078ZM5.30859 7.63281H5.10859V7.82294L5.29848 7.83256L5.30859 7.63281ZM8.92969 6.96484L8.78245 6.82948L8.78236 6.82959L8.92969 6.96484ZM10.1367 5.59375L9.93846 5.56732L9.93816 5.56979L10.1367 5.59375ZM9.50391 10.5625L9.7038 10.5561L9.7038 10.5558L9.50391 10.5625ZM8.83594 8.83984L8.68955 8.97613L8.69075 8.97739L8.83594 8.83984ZM5.10861 8.19288L5.07345 11.0874L5.47342 11.0923L5.50858 8.19774L5.10861 8.19288ZM5.07344 11.0898C5.07344 12.1022 5.08125 12.8934 5.09695 13.4625C5.1048 13.747 5.11465 13.9775 5.12664 14.1533C5.13822 14.3232 5.15262 14.4572 5.17353 14.5383L5.56084 14.4383C5.55051 14.3983 5.53756 14.2999 5.52571 14.126C5.51425 13.958 5.50458 13.7335 5.4968 13.4515C5.48125 12.8878 5.47344 12.1009 5.47344 11.0898H5.07344ZM5.17394 14.5398C5.24546 14.808 5.39417 15.0783 5.60853 15.3503L5.92272 15.1028C5.73083 14.8592 5.61392 14.6373 5.56043 14.4367L5.17394 14.5398ZM5.61277 15.3555C5.88124 15.6737 6.39174 15.8204 7.05452 15.8598L7.07829 15.4605C6.42858 15.4218 6.07188 15.2794 5.91848 15.0976L5.61277 15.3555ZM7.05753 15.86C7.22431 15.8674 7.32328 15.8912 7.37407 15.916C7.39737 15.9274 7.40117 15.9345 7.39893 15.9314C7.39769 15.9297 7.39602 15.9268 7.39485 15.9231C7.39371 15.9195 7.39375 15.9174 7.39375 15.918H7.79375C7.79375 15.7427 7.68548 15.623 7.54976 15.5567C7.42477 15.4955 7.26006 15.4686 7.07529 15.4604L7.05753 15.86ZM7.39375 15.918C7.39375 15.9367 7.39041 15.9434 7.39035 15.9435C7.39026 15.9437 7.39024 15.9437 7.3903 15.9436C7.39035 15.9435 7.39038 15.9435 7.39033 15.9436C7.39031 15.9436 7.38939 15.9447 7.38669 15.9465C7.37284 15.956 7.32704 15.9758 7.21875 15.9758V16.3758C7.36046 16.3758 7.50216 16.3526 7.61331 16.2761C7.73797 16.1904 7.79375 16.0596 7.79375 15.918H7.39375ZM7.21875 15.9758C7.1371 15.9758 6.90249 15.9576 6.49998 15.9181L6.46095 16.3162C6.85532 16.3549 7.1129 16.3758 7.21875 16.3758V15.9758ZM6.49961 15.9181C5.68255 15.8395 4.9572 15.8 4.32422 15.8V16.2C4.94124 16.2 5.65339 16.2386 6.46133 16.3163L6.49961 15.9181ZM4.32422 15.8C3.78644 15.8 3.04306 15.8316 2.09618 15.8942L2.12257 16.2933C3.06631 16.2309 3.7995 16.2 4.32422 16.2V15.8ZM2.09868 15.894L1.44243 15.9292L1.46382 16.3286L2.12007 16.2935L2.09868 15.894ZM1.45312 15.9289C1.34248 15.9289 1.29346 15.9105 1.27787 15.9007C1.27298 15.8977 1.27542 15.8981 1.27803 15.903C1.28037 15.9073 1.27813 15.9066 1.27813 15.8945H0.878125C0.878125 16.0366 0.940787 16.1617 1.06588 16.2399C1.17529 16.3083 1.31377 16.3289 1.45312 16.3289V15.9289ZM1.27813 15.8945C1.27813 15.8978 1.27605 15.9076 1.26999 15.9153C1.26622 15.9201 1.26914 15.9134 1.29413 15.9028C1.34831 15.8797 1.45341 15.8602 1.62891 15.8602V15.4602C1.43721 15.4602 1.26692 15.4797 1.13751 15.5347C1.0707 15.5631 1.00477 15.6053 0.955103 15.6687C0.903146 15.735 0.878125 15.8131 0.878125 15.8945H1.27813ZM1.62891 15.8602C2.16431 15.8602 2.5946 15.7086 2.8649 15.3611L2.54916 15.1155C2.38196 15.3305 2.0935 15.4602 1.62891 15.4602V15.8602ZM2.8649 15.3611C3.00481 15.1812 3.10149 14.8923 3.1728 14.5298C3.24563 14.1596 3.29711 13.6835 3.32861 13.1046L2.9292 13.0829C2.8982 13.6525 2.84812 14.108 2.78032 14.4526C2.71101 14.805 2.628 15.0141 2.54916 15.1155L2.8649 15.3611ZM3.32854 13.1059C3.3992 11.9439 3.43438 10.4159 3.43438 8.52344H3.03437C3.03437 10.4122 2.99924 11.9311 2.92928 13.0816L3.32854 13.1059ZM3.43438 8.52344C3.43438 6.74061 3.40312 5.3336 3.34025 4.30422L2.941 4.3286C3.00313 5.34608 3.03437 6.74377 3.03437 8.52344H3.43438ZM3.34026 4.30431C3.27808 3.27842 3.18785 2.57276 3.05892 2.22035L2.68327 2.35778C2.78871 2.64599 2.87817 3.29189 2.94099 4.32851L3.34026 4.30431ZM3.06036 2.22443C2.94007 1.87216 2.74702 1.60021 2.46833 1.43684L2.26604 1.78191C2.44048 1.88417 2.58336 2.06534 2.68182 2.35369L3.06036 2.22443ZM2.47266 1.43945C2.33084 1.35142 2.14083 1.28778 1.91593 1.24076C1.68853 1.19321 1.41264 1.16011 1.09045 1.14022L1.0658 1.53946C1.37642 1.55864 1.63178 1.58999 1.83407 1.63229C2.03886 1.67511 2.17697 1.7267 2.26171 1.7793L2.47266 1.43945ZM1.0906 1.14023C0.97848 1.13323 0.92388 1.11306 0.902875 1.09993C0.894861 1.09492 0.896859 1.09413 0.900211 1.09999C0.903797 1.10627 0.903125 1.10996 0.903125 1.10547H0.503125C0.503125 1.24867 0.573312 1.36565 0.690875 1.43913C0.79487 1.50413 0.92777 1.53084 1.06565 1.53945L1.0906 1.14023ZM0.903125 1.10547C0.903125 1.10436 0.903067 1.11089 0.898134 1.11969C0.893387 1.12817 0.889047 1.12996 0.893308 1.12722C0.906655 1.11864 0.949389 1.10089 1.0455 1.09402L1.017 0.69504C0.894361 0.703799 0.773033 0.729016 0.677005 0.790749C0.567849 0.86092 0.503125 0.971679 0.503125 1.10547H0.903125ZM1.0472 1.09389C2.9912 0.938374 6.67492 0.860156 12.1055 0.860156V0.460156C6.67664 0.460156 2.97755 0.538188 1.0153 0.695168L1.0472 1.09389ZM12.1055 0.860156C12.5697 0.860156 12.9256 0.864063 13.1745 0.871779C13.2991 0.875645 13.3947 0.880405 13.4627 0.885878C13.4968 0.888625 13.5217 0.891375 13.5386 0.893886C13.5603 0.897094 13.5566 0.89819 13.5429 0.892727L13.6915 0.521336C13.6583 0.50806 13.6217 0.501832 13.5972 0.498204C13.568 0.493879 13.5335 0.490281 13.4948 0.487169C13.4173 0.480923 13.3141 0.475918 13.1869 0.471971C12.9318 0.464062 12.571 0.460156 12.1055 0.460156V0.860156ZM13.5646 0.899984C13.5941 0.908046 13.6009 0.91763 13.6073 0.933653L13.9787 0.785097C13.9226 0.64487 13.8121 0.552892 13.6698 0.514078L13.5646 0.899984ZM13.6181 0.956504C13.6112 0.94406 13.612 0.940968 13.619 0.964634C13.6245 0.983055 13.6315 1.00982 13.6401 1.04616C13.6573 1.11854 13.6789 1.22102 13.7051 1.35481C13.7574 1.62194 13.8264 2.00677 13.9122 2.51019L14.3065 2.44294C14.2205 1.93854 14.1509 1.54994 14.0976 1.278C14.0711 1.14226 14.0483 1.03381 14.0293 0.953845C14.0199 0.914009 14.0109 0.87925 14.0025 0.850795C13.9956 0.827586 13.9845 0.792268 13.9678 0.762246L13.6181 0.956504ZM13.9125 2.51167C14.0023 3.01544 14.0696 3.39862 14.1144 3.66152C14.1368 3.79307 14.1534 3.89383 14.1645 3.96427C14.17 3.99959 14.174 4.02636 14.1765 4.04515C14.1798 4.07002 14.1789 4.0689 14.1789 4.05859H14.5789C14.5789 4.03657 14.5752 4.00871 14.5729 3.99183C14.5698 3.96888 14.5654 3.93888 14.5597 3.90243C14.5482 3.82931 14.5312 3.72646 14.5087 3.59434C14.4636 3.3299 14.3961 2.9455 14.3063 2.44146L13.9125 2.51167ZM14.1789 4.05859C14.1789 4.08597 14.1759 4.10263 14.1734 4.11132C14.1711 4.11943 14.17 4.11803 14.1743 4.11301C14.1792 4.10732 14.185 4.104 14.1878 4.10291C14.1894 4.10228 14.1841 4.10469 14.168 4.10469V4.50469C14.2779 4.50469 14.3941 4.4712 14.478 4.37332C14.5569 4.28135 14.5789 4.16456 14.5789 4.05859H14.1789ZM14.168 4.10469C14.1723 4.10469 14.1653 4.10736 14.1435 4.08992C14.1196 4.07084 14.0862 4.03364 14.0465 3.96741L13.7035 4.17321C13.8048 4.34206 13.9543 4.50469 14.168 4.50469V4.10469ZM14.0483 3.97055C12.9062 1.9859 11.0454 0.999219 8.50781 0.999219V1.39922C10.9233 1.39922 12.6407 2.3266 13.7017 4.17007L14.0483 3.97055ZM8.50781 0.999219C7.65144 0.999219 6.94927 1.03842 6.40449 1.11853L6.46269 1.51428C6.98042 1.43814 7.66106 1.39922 8.50781 1.39922V0.999219ZM6.40697 1.11819C6.14081 1.15394 5.92237 1.19561 5.75593 1.24469C5.6727 1.26923 5.59763 1.29702 5.53413 1.3294C5.47277 1.3607 5.40903 1.40286 5.36227 1.46237L5.6768 1.7095C5.673 1.71433 5.67957 1.70425 5.71587 1.68574C5.75002 1.66831 5.79996 1.64873 5.86907 1.62836C6.00732 1.58759 6.20294 1.54919 6.46022 1.51463L6.40697 1.11819ZM5.36685 1.45675C5.31235 1.52116 5.28425 1.61233 5.26595 1.68702C5.24516 1.77185 5.22766 1.87866 5.21256 2.00449C5.18227 2.25685 5.15957 2.60414 5.14388 3.04364L5.54362 3.05792C5.55918 2.62242 5.5814 2.28807 5.60971 2.05215C5.62391 1.93384 5.63911 1.84485 5.65446 1.78222C5.67229 1.70944 5.68374 1.7015 5.67221 1.71513L5.36685 1.45675ZM5.14382 3.04543C5.1203 3.92341 5.10859 5.45319 5.10859 7.63281H5.50859C5.50859 5.45306 5.52032 3.92815 5.54368 3.05614L5.14382 3.04543ZM5.29848 7.83256C5.91532 7.86379 6.34584 7.87969 6.58594 7.87969V7.47969C6.35729 7.47969 5.93624 7.46434 5.31871 7.43307L5.29848 7.83256ZM6.58594 7.87969C7.72804 7.87969 8.58156 7.63979 9.07702 7.1001L8.78236 6.82959C8.40281 7.24302 7.69383 7.47969 6.58594 7.47969V7.87969ZM9.07692 7.1002C9.54511 6.59095 9.8065 6.04821 9.83261 5.47393L9.43302 5.45576C9.41225 5.91273 9.20489 6.36999 8.78245 6.82948L9.07692 7.1002ZM9.83261 5.47393C9.83997 5.31202 9.86449 5.21797 9.88916 5.17078C9.90026 5.14954 9.90733 5.14571 9.90533 5.14707C9.90161 5.14958 9.89835 5.14922 9.90234 5.14922V4.74922C9.73077 4.74922 9.60649 4.84808 9.53467 4.98547C9.4695 5.11015 9.44128 5.27391 9.43302 5.45576L9.83261 5.47393ZM9.90234 5.14922C9.92274 5.14922 9.93109 5.15268 9.93238 5.15326C9.93255 5.15334 9.93265 5.15297 9.93442 5.15538C9.94102 5.16438 9.96016 5.20214 9.96016 5.30078H10.3602C10.3602 5.16505 10.3363 5.02703 10.257 4.91884C10.1692 4.79908 10.0388 4.74922 9.90234 4.74922V5.14922ZM9.96016 5.30078C9.96016 5.36681 9.95346 5.45494 9.93847 5.56732L10.335 5.62018C10.3512 5.49819 10.3602 5.391 10.3602 5.30078H9.96016ZM9.93816 5.56979C9.8817 6.0376 9.85469 7.21173 9.85469 9.07422H10.2547C10.2547 7.20234 10.2824 6.05615 10.3353 5.61771L9.93816 5.56979ZM9.85469 9.07422V10.4336H10.2547V9.07422H9.85469ZM9.85469 10.4336C9.85469 10.5844 9.83109 10.6643 9.80959 10.7004C9.80062 10.7155 9.79416 10.7194 9.79217 10.7205C9.78996 10.7218 9.78196 10.7258 9.76172 10.7258V11.1258C9.92789 11.1258 10.0674 11.0493 10.1533 10.905C10.2295 10.7771 10.2547 10.611 10.2547 10.4336H9.85469ZM9.76172 10.7258C9.75349 10.7258 9.74805 10.725 9.74486 10.7244C9.74177 10.7237 9.74054 10.7231 9.74051 10.7231C9.74044 10.723 9.74049 10.7231 9.74059 10.7231C9.74069 10.7232 9.74071 10.7232 9.74061 10.7231C9.74049 10.723 9.73931 10.722 9.73732 10.7192C9.72731 10.7051 9.70717 10.6604 9.7038 10.5561L9.30401 10.5689C9.30846 10.7068 9.33519 10.8437 9.41112 10.9507C9.49595 11.0702 9.6228 11.1258 9.76172 11.1258V10.7258ZM9.7038 10.5558C9.67898 9.81151 9.44153 9.18827 8.98113 8.70229L8.69075 8.97739C9.0741 9.38204 9.28195 9.90724 9.30402 10.5692L9.7038 10.5558ZM8.98232 8.70356C8.49879 8.18422 7.58864 7.96016 6.33984 7.96016V8.36016C7.57543 8.36016 8.32934 8.58922 8.68956 8.97613L8.98232 8.70356ZM6.33984 7.96016C6.13139 7.96016 5.78334 7.97211 5.29893 7.99555L5.31826 8.39508C5.80259 8.37164 6.14204 8.36016 6.33984 8.36016V7.96016ZM21.0703 14.5L21.2703 14.4952L21.2556 13.8794L20.9057 14.3864L21.0703 14.5ZM19.6992 15.7539L19.7908 15.9317L19.7928 15.9307L19.6992 15.7539ZM16.0312 15.5312L15.8937 15.6764L15.895 15.6776L16.0312 15.5312ZM15.7617 12.4258L15.5913 12.3211L15.59 12.3233L15.7617 12.4258ZM16.6875 11.4648L16.5904 11.29L16.5887 11.291L16.6875 11.4648ZM18.5273 10.7266L18.4645 10.5367L18.4631 10.5372L18.5273 10.7266ZM20.6602 7.01172L20.507 7.14036L20.5083 7.14188L20.6602 7.01172ZM18.1523 6.75391L18.0206 6.60337L18.018 6.60571L18.1523 6.75391ZM17.5781 8.07812L17.3821 8.03845L17.3818 8.03972L17.5781 8.07812ZM16.0781 8.89844L15.9489 9.05114L15.9518 9.05348L16.0781 8.89844ZM16.7461 6.61328L16.8566 6.78001L16.858 6.77907L16.7461 6.61328ZM21.5625 6.34375L21.4752 6.52371L21.4784 6.52519L21.5625 6.34375ZM22.5703 7.21094L22.3849 7.28599L22.3865 7.28972L22.5703 7.21094ZM22.7812 9.10938L22.9813 9.11392V9.10938H22.7812ZM22.7109 12.2031L22.5109 12.1986V12.2031H22.7109ZM22.9219 14.7578L22.7291 14.8112L22.7301 14.8147L22.9219 14.7578ZM24.0586 15.4727L24.0352 15.2738L24.0257 15.2754L24.0586 15.4727ZM24.2578 15.4492V15.2492H24.2461L24.2344 15.2506L24.2578 15.4492ZM21.3164 15.8008L21.1527 15.916L21.1579 15.9227L21.3164 15.8008ZM21.0703 9.92969L21.2698 9.91558L21.2327 9.39057L20.9118 9.80774L21.0703 9.92969ZM19.4766 11.043L19.568 11.2208L19.57 11.2198L19.4766 11.043ZM17.707 12.25L17.5612 12.1131L17.5598 12.1146L17.707 12.25ZM17.6016 14.9102L17.4485 15.0389L17.4502 15.0409L17.6016 14.9102ZM19.9805 15.0156L20.0936 15.1805L20.0958 15.179L19.9805 15.0156ZM20.8594 13.9492L20.6773 13.8664L20.6761 13.8692L20.8594 13.9492ZM20.9057 14.3864C20.5389 14.9179 20.1052 15.3127 19.6056 15.5771L19.7928 15.9307C20.3557 15.6326 20.8361 15.1915 21.2349 14.6136L20.9057 14.3864ZM19.6077 15.5761C19.1081 15.8332 18.5386 15.9641 17.8945 15.9641V16.3641C18.5942 16.3641 19.2278 16.2215 19.7907 15.9317L19.6077 15.5761ZM17.8945 15.9641C17.1416 15.9641 16.5743 15.7636 16.1675 15.3849L15.895 15.6776C16.3945 16.1427 17.0693 16.3641 17.8945 16.3641V15.9641ZM16.1688 15.3861C15.7684 15.0067 15.5633 14.5071 15.5633 13.8672H15.1633C15.1633 14.6023 15.4035 15.212 15.8937 15.6764L16.1688 15.3861ZM15.5633 13.8672C15.5633 13.3878 15.6862 12.9428 15.9335 12.5282L15.59 12.3233C15.306 12.7994 15.1633 13.3153 15.1633 13.8672H15.5633ZM15.9322 12.5304C16.1934 12.1049 16.4798 11.8129 16.7863 11.6387L16.5887 11.291C16.2077 11.5074 15.8769 11.856 15.5913 12.3211L15.9322 12.5304ZM16.7846 11.6397C17.119 11.4539 17.7172 11.2126 18.5916 10.916L18.4631 10.5372C17.5875 10.8342 16.9591 11.0852 16.5904 11.29L16.7846 11.6397ZM18.5902 10.9164C19.2186 10.7083 19.7263 10.5162 20.1107 10.34C20.4874 10.1674 20.7704 9.99926 20.9249 9.83027L20.6297 9.56036C20.5343 9.6648 20.3173 9.8053 19.944 9.97639C19.5784 10.144 19.0861 10.3308 18.4645 10.5367L18.5902 10.9164ZM20.9249 9.83027C21.2146 9.51345 21.3523 9.10677 21.3523 8.62891H20.9523C20.9523 9.02604 20.8401 9.3303 20.6297 9.56036L20.9249 9.83027ZM21.3523 8.62891C21.3523 7.90391 21.1812 7.31231 20.812 6.88156L20.5083 7.14188C20.7953 7.47675 20.9523 7.96327 20.9523 8.62891H21.3523ZM20.8133 6.88308C20.4402 6.43895 19.9145 6.22578 19.2656 6.22578V6.62578C19.8198 6.62578 20.2238 6.80324 20.507 7.14036L20.8133 6.88308ZM19.2656 6.22578C18.7477 6.22578 18.3212 6.34042 18.0206 6.60339L18.284 6.90442C18.4835 6.72989 18.7992 6.62578 19.2656 6.62578V6.22578ZM18.018 6.60571C17.7177 6.8779 17.5164 7.37489 17.3821 8.03845L17.7742 8.1178C17.9055 7.46886 18.087 7.08304 18.2866 6.9021L18.018 6.60571ZM17.3818 8.03972C17.3149 8.38207 17.2122 8.61356 17.0895 8.75642C16.9734 8.89156 16.8327 8.95625 16.6523 8.95625V9.35625C16.9485 9.35625 17.2004 9.24126 17.3929 9.01701C17.5789 8.8005 17.7008 8.49293 17.7744 8.11653L17.3818 8.03972ZM16.6523 8.95625C16.5466 8.95625 16.3993 8.90212 16.2045 8.74339L15.9518 9.05348C16.1789 9.23851 16.4143 9.35625 16.6523 9.35625V8.95625ZM16.2073 8.74576C16.0605 8.6215 15.9734 8.43054 15.9734 8.13672H15.5734C15.5734 8.51477 15.6895 8.83163 15.9489 9.05112L16.2073 8.74576ZM15.9734 8.13672C15.9734 7.63906 16.2437 7.18613 16.8566 6.78L16.6356 6.44656C15.9516 6.89981 15.5734 7.46251 15.5734 8.13672H15.9734ZM16.858 6.77907C17.4616 6.37179 18.308 6.15703 19.418 6.15703V5.75703C18.2623 5.75703 17.3275 5.97977 16.6342 6.44749L16.858 6.77907ZM19.418 6.15703C20.3005 6.15703 20.9816 6.28416 21.4752 6.52368L21.6498 6.16382C21.0809 5.88771 20.3323 5.75703 19.418 5.75703V6.15703ZM21.4784 6.52519C22.0005 6.76736 22.2805 7.02798 22.3849 7.28598L22.7557 7.1359C22.5945 6.73765 22.2026 6.42014 21.6466 6.16231L21.4784 6.52519ZM22.3865 7.28972C22.4453 7.42685 22.4953 7.64411 22.5297 7.95373C22.5638 8.26026 22.5812 8.64491 22.5812 9.10938H22.9813C22.9813 8.63634 22.9635 8.23584 22.9273 7.90955C22.8914 7.58636 22.836 7.32315 22.7541 7.13215L22.3865 7.28972ZM22.5813 9.10483L22.511 12.1986L22.9109 12.2077L22.9812 9.11392L22.5813 9.10483ZM22.5109 12.2031C22.5109 13.3996 22.5806 14.275 22.7291 14.8112L23.1146 14.7044C22.9819 14.225 22.9109 13.3973 22.9109 12.2031H22.5109ZM22.7301 14.8147C22.8105 15.0855 22.9295 15.3094 23.0993 15.4669C23.2736 15.6285 23.4882 15.7078 23.7305 15.7078V15.3078C23.5821 15.3078 23.4667 15.2621 23.3714 15.1737C23.2716 15.0812 23.1817 14.9302 23.1136 14.7009L22.7301 14.8147ZM23.7305 15.7078C23.8251 15.7078 23.9473 15.694 24.0915 15.6699L24.0257 15.2754C23.8886 15.2982 23.7921 15.3078 23.7305 15.3078V15.7078ZM24.082 15.6713L24.2812 15.6478L24.2344 15.2506L24.0352 15.274L24.082 15.6713ZM24.2578 15.6492C24.2911 15.6492 24.3137 15.6524 24.3279 15.6559C24.3419 15.6593 24.3443 15.6623 24.3411 15.6599C24.3367 15.6566 24.3313 15.6505 24.3282 15.6435C24.3255 15.6376 24.3273 15.6376 24.3273 15.6484H24.7273C24.7273 15.5321 24.6848 15.4165 24.5788 15.3382C24.4842 15.2683 24.3664 15.2492 24.2578 15.2492V15.6492ZM24.3273 15.6484C24.3273 15.6242 24.3475 15.6369 24.2809 15.6764C24.2137 15.7163 24.0956 15.7585 23.9114 15.795C23.5464 15.8673 22.9852 15.9055 22.2188 15.9055V16.3055C22.9914 16.3055 23.5845 16.2675 23.989 16.1874C24.1896 16.1477 24.36 16.0947 24.4852 16.0203C24.611 15.9456 24.7273 15.825 24.7273 15.6484H24.3273ZM22.2188 15.9055C21.7912 15.9055 21.5727 15.8059 21.4749 15.6788L21.1579 15.9227C21.3726 16.2019 21.7557 16.3055 22.2188 16.3055V15.9055ZM21.48 15.6857C21.4299 15.6145 21.379 15.4862 21.3401 15.2802C21.3018 15.0779 21.2779 14.8172 21.2703 14.4952L20.8704 14.5048C20.8783 14.8391 20.9033 15.1233 20.947 15.3546C20.9901 15.5822 21.0545 15.7761 21.1528 15.9159L21.48 15.6857ZM20.9118 9.80774C20.7069 10.0741 20.2123 10.4281 19.3831 10.8661L19.57 11.2198C20.397 10.7829 20.965 10.3946 21.2288 10.0516L20.9118 9.80774ZM19.3851 10.8651C18.5574 11.2908 17.9438 11.7056 17.5612 12.1131L17.8528 12.3869C18.189 12.0288 18.7551 11.6389 19.568 11.2208L19.3851 10.8651ZM17.5598 12.1146C17.1654 12.5433 16.968 13.0609 16.968 13.6562H17.368C17.368 13.1579 17.5299 12.7379 17.8542 12.3854L17.5598 12.1146ZM16.968 13.6562C16.968 14.1907 17.1261 14.6555 17.4485 15.0389L17.7546 14.7814C17.4989 14.4773 17.368 14.1062 17.368 13.6562H16.968ZM17.4502 15.0409C17.7834 15.4267 18.205 15.6258 18.7031 15.6258V15.2258C18.3262 15.2258 18.0135 15.0811 17.7529 14.7794L17.4502 15.0409ZM18.7031 15.6258C19.1994 15.6258 19.6642 15.4752 20.0936 15.1805L19.8673 14.8507C19.4998 15.1029 19.1131 15.2258 18.7031 15.2258V15.6258ZM20.0958 15.179C20.5228 14.8776 20.84 14.4938 21.0427 14.0292L20.6761 13.8692C20.5038 14.264 20.235 14.5912 19.8651 14.8522L20.0958 15.179ZM21.0414 14.032C21.2545 13.5633 21.3523 12.8923 21.3523 12.0391H20.9523C20.9523 12.8733 20.8549 13.4758 20.6773 13.8665L21.0414 14.032ZM21.3523 12.0391C21.3523 11.4006 21.3248 10.6927 21.2698 9.91558L20.8708 9.94379C20.9252 10.7135 20.9523 11.4119 20.9523 12.0391H21.3523ZM32.0859 15.2383L32.2248 15.3822L32.2257 15.3814L32.0859 15.2383ZM27.7383 15.6836L27.8225 15.5022L27.8208 15.5014L27.7383 15.6836ZM26.6484 15.6484L26.4783 15.5431L26.4748 15.5492L26.6484 15.6484ZM26.1211 15.6484L25.9222 15.669L25.9222 15.6697L26.1211 15.6484ZM26.0742 14.125L26.2742 14.123L26.2742 14.1227L26.0742 14.125ZM26.0391 12.8125H25.8391V12.8205L25.8397 12.8284L26.0391 12.8125ZM26.4609 12.6016L26.2702 12.6618L26.2717 12.6663L26.4609 12.6016ZM27.7383 14.875L27.5878 15.0067L27.5895 15.0087L27.7383 14.875ZM31.0781 15.3203L31.202 15.4774L31.2038 15.4759L31.0781 15.3203ZM29.4492 11.7109L29.3671 11.8933L29.3679 11.8937L29.4492 11.7109ZM27.2109 6.66016L27.3435 6.80996L27.3445 6.809L27.2109 6.66016ZM31.5352 6.4375L31.4428 6.61494L31.4457 6.61639L31.5352 6.4375ZM32.1211 6.34375L31.9648 6.21875L31.9611 6.22375L32.1211 6.34375ZM32.5078 6.26172L32.3379 6.36792L32.3451 6.37797L32.5078 6.26172ZM32.6367 7.29297L32.4373 7.30774L32.4373 7.30793L32.6367 7.29297ZM32.2266 8.875L32.0348 8.93182L32.0355 8.93428L32.2266 8.875ZM30.6328 6.53125L30.5512 6.71386L30.5526 6.71448L30.6328 6.53125ZM28.2539 8.99219L28.1221 9.14277L28.1268 9.14657L28.2539 8.99219ZM30.4922 10.0703L30.5748 9.88818L30.574 9.88781L30.4922 10.0703ZM32.1562 10.9609L32.0319 11.1176L32.0348 11.1198L32.1562 10.9609ZM32.8937 12.8945C32.8937 13.7448 32.5811 14.4751 31.9462 15.0952L32.2257 15.3814C32.9345 14.689 33.2938 13.8568 33.2938 12.8945H32.8937ZM31.947 15.0944C31.3119 15.7073 30.5646 16.0109 29.6953 16.0109V16.4109C30.6697 16.4109 31.5162 16.0661 32.2248 15.3822L31.947 15.0944ZM29.6953 16.0109C29.1888 16.0109 28.5665 15.8473 27.8224 15.5022L27.6541 15.865C28.4257 16.223 29.1081 16.4109 29.6953 16.4109V16.0109ZM27.8208 15.5014C27.6123 15.407 27.443 15.3348 27.3144 15.2858C27.2502 15.2613 27.1935 15.2416 27.1456 15.2278C27.103 15.2155 27.0497 15.2023 27 15.2023V15.6023C26.9893 15.6023 26.9962 15.601 27.0345 15.6121C27.0677 15.6216 27.1131 15.6371 27.172 15.6596C27.2894 15.7043 27.4502 15.7727 27.6558 15.8658L27.8208 15.5014ZM27 15.2023C26.7696 15.2023 26.5985 15.3492 26.4784 15.5432L26.8185 15.7537C26.9015 15.6195 26.9648 15.6023 27 15.6023V15.2023ZM26.4748 15.5492C26.4172 15.6499 26.3683 15.7128 26.3303 15.7483C26.2918 15.7843 26.2816 15.7766 26.2969 15.7766V16.1766C26.4215 16.1766 26.5247 16.1141 26.6033 16.0407C26.6824 15.9668 26.7546 15.8657 26.8221 15.7477L26.4748 15.5492ZM26.2969 15.7766C26.3153 15.7766 26.3349 15.7829 26.3498 15.7936C26.3623 15.8025 26.3636 15.8088 26.3589 15.8001C26.3478 15.7793 26.3307 15.7276 26.32 15.6271L25.9222 15.6697C25.9349 15.788 25.9589 15.9004 26.0063 15.989C26.0574 16.0843 26.1522 16.1766 26.2969 16.1766V15.7766ZM26.32 15.6279C26.2977 15.4124 26.282 14.9146 26.2742 14.123L25.8742 14.127C25.882 14.9135 25.8976 15.4313 25.9222 15.669L26.32 15.6279ZM26.2742 14.1227C26.2664 13.4449 26.2547 13 26.2384 12.7966L25.8397 12.8284C25.8547 13.0156 25.8664 13.4457 25.8742 14.1273L26.2742 14.1227ZM26.2391 12.8125C26.2391 12.6786 26.2573 12.6085 26.2726 12.5787C26.2788 12.5667 26.2805 12.569 26.2732 12.5738C26.2649 12.5792 26.2585 12.5789 26.2617 12.5789V12.1789C26.1907 12.1789 26.1194 12.1967 26.0554 12.2382C25.9924 12.2792 25.9478 12.3357 25.9168 12.3959C25.8579 12.5107 25.8391 12.6573 25.8391 12.8125H26.2391ZM26.2617 12.5789C26.2533 12.5789 26.2436 12.5768 26.2349 12.5726C26.2269 12.5687 26.2246 12.5654 26.2269 12.5679C26.2295 12.5708 26.2357 12.5787 26.2439 12.5948C26.252 12.6108 26.261 12.6327 26.2702 12.6618L26.6517 12.5413C26.624 12.4537 26.5848 12.368 26.525 12.3012C26.4605 12.2291 26.3708 12.1789 26.2617 12.1789V12.5789ZM26.2717 12.6663C26.5837 13.5783 27.0216 14.3597 27.5878 15.0067L27.8888 14.7433C27.3612 14.1403 26.9476 13.4061 26.6502 12.5368L26.2717 12.6663ZM27.5895 15.0087C28.1772 15.6625 28.8776 16.0008 29.6836 16.0008V15.6008C29.0052 15.6008 28.4088 15.3218 27.887 14.7413L27.5895 15.0087ZM29.6836 16.0008C30.2514 16.0008 30.76 15.8259 31.202 15.4774L30.9543 15.1633C30.5838 15.4554 30.1627 15.6008 29.6836 15.6008V16.0008ZM31.2038 15.4759C31.6603 15.1072 31.8875 14.6069 31.8875 13.9961H31.4875C31.4875 14.4947 31.3084 14.8772 30.9525 15.1647L31.2038 15.4759ZM31.8875 13.9961C31.8875 13.0045 31.0286 12.1949 29.5305 11.5282L29.3679 11.8937C30.8542 12.5551 31.4875 13.2689 31.4875 13.9961H31.8875ZM29.5313 11.5286C28.5066 11.0671 27.8343 10.736 27.503 10.5327L27.2938 10.8736C27.65 11.0922 28.3449 11.4329 29.3671 11.8933L29.5313 11.5286ZM27.503 10.5327C27.1896 10.3403 26.9444 10.0812 26.7656 9.75215L26.4141 9.94316C26.6259 10.3329 26.9198 10.6441 27.2938 10.8736L27.503 10.5327ZM26.7656 9.75215C26.5867 9.42303 26.4969 9.06539 26.4969 8.67578H26.0969C26.0969 9.12993 26.2024 9.55353 26.4141 9.94316L26.7656 9.75215ZM26.4969 8.67578C26.4969 7.92911 26.7764 7.31154 27.3435 6.80996L27.0784 6.51036C26.4267 7.0869 26.0969 7.81308 26.0969 8.67578H26.4969ZM27.3445 6.809C27.9149 6.29713 28.6047 6.03984 29.4258 6.03984V5.63984C28.5125 5.63984 27.7257 5.92943 27.0774 6.51131L27.3445 6.809ZM29.4258 6.03984C30.0251 6.03984 30.6963 6.22639 31.4428 6.61491L31.6275 6.26009C30.8428 5.85173 30.1077 5.63984 29.4258 5.63984V6.03984ZM31.4457 6.61639C31.586 6.68652 31.727 6.73125 31.8633 6.73125V6.33125C31.8121 6.33125 31.7343 6.31348 31.6246 6.25861L31.4457 6.61639ZM31.8633 6.73125C31.9575 6.73125 32.0389 6.69344 32.104 6.64612C32.1687 6.59904 32.2273 6.53544 32.2811 6.46375L31.9611 6.22375C31.9211 6.27706 31.8899 6.30721 31.8687 6.32263C31.8478 6.33781 31.8472 6.33125 31.8633 6.33125V6.73125ZM32.2773 6.46869C32.3195 6.41591 32.3507 6.38494 32.371 6.36889C32.3808 6.36112 32.3844 6.35988 32.3818 6.36103C32.3793 6.36218 32.3657 6.36797 32.3438 6.36797V5.96797C32.2488 5.96797 32.1724 6.01608 32.1231 6.05494C32.0693 6.09748 32.0164 6.1544 31.9649 6.21881L32.2773 6.46869ZM32.3438 6.36797C32.3465 6.36797 32.3467 6.36826 32.345 6.36786C32.3433 6.36742 32.3409 6.36653 32.3383 6.36506C32.3357 6.3636 32.3344 6.36232 32.3342 6.36212C32.3341 6.36203 32.3356 6.36352 32.3382 6.36772L32.6774 6.15572C32.6039 6.03816 32.4869 5.96797 32.3438 5.96797V6.36797ZM32.3451 6.37797C32.3309 6.35812 32.3283 6.34448 32.3319 6.35593C32.3341 6.36284 32.3376 6.37596 32.3419 6.39726C32.3507 6.4396 32.3604 6.50156 32.3709 6.58535C32.3917 6.75222 32.4139 6.99243 32.4373 7.30774L32.8362 7.27819C32.8127 6.9607 32.7899 6.71262 32.7678 6.53574C32.7568 6.44766 32.7455 6.37387 32.7337 6.3166C32.7279 6.2881 32.7212 6.26045 32.7134 6.23562C32.707 6.21533 32.6945 6.17899 32.6706 6.14547L32.3451 6.37797ZM32.4373 7.30793C32.484 7.9303 32.507 8.44049 32.507 8.83984H32.907C32.907 8.4267 32.8832 7.90563 32.8362 7.27801L32.4373 7.30793ZM32.507 8.83984C32.507 8.95366 32.4908 9.00805 32.4806 9.02726C32.4771 9.03389 32.4784 9.02843 32.4887 9.02199C32.4996 9.01513 32.5084 9.01484 32.5078 9.01484V9.41484C32.5736 9.41484 32.6405 9.39893 32.7013 9.36082C32.7613 9.32314 32.8042 9.27079 32.8339 9.21492C32.8901 9.10913 32.907 8.97602 32.907 8.83984H32.507ZM32.5078 9.01484C32.5236 9.01484 32.5231 9.02583 32.5037 9.00237C32.4806 8.97441 32.4492 8.91751 32.4176 8.81572L32.0355 8.93428C32.0743 9.05905 32.1249 9.17207 32.1955 9.2574C32.2699 9.34722 32.3749 9.41484 32.5078 9.41484V9.01484ZM32.4183 8.81818C32.3493 8.58512 32.1519 8.16537 31.841 7.57482L31.4871 7.76112C31.8013 8.35807 31.9789 8.74301 32.0348 8.93182L32.4183 8.81818ZM31.841 7.57482C31.5199 6.96463 31.1488 6.53868 30.713 6.34802L30.5526 6.71448C30.8669 6.85195 31.1832 7.18381 31.4871 7.76112L31.841 7.57482ZM30.7144 6.34865C30.3246 6.17449 29.9336 6.08516 29.543 6.08516V6.48516C29.8711 6.48516 30.2066 6.55989 30.5512 6.71385L30.7144 6.34865ZM29.543 6.08516C28.9477 6.08516 28.441 6.23028 28.0391 6.53615L28.2813 6.85448C28.598 6.61347 29.0133 6.48516 29.543 6.48516V6.08516ZM28.0391 6.53615C27.6318 6.84598 27.4211 7.25944 27.4211 7.76172H27.8211C27.8211 7.389 27.9697 7.09152 28.2813 6.85448L28.0391 6.53615ZM27.4211 7.76172C27.4211 8.07374 27.5065 8.35923 27.6783 8.6123L28.0092 8.3877C27.8841 8.20327 27.8211 7.99657 27.8211 7.76172H27.4211ZM27.6783 8.6123C27.8313 8.83791 27.9791 9.01748 28.1222 9.1427L28.3856 8.84167C28.2787 8.74814 28.153 8.59959 28.0092 8.3877L27.6783 8.6123ZM28.1268 9.14657C28.1778 9.18861 28.2671 9.24033 28.3744 9.29756C28.4877 9.35801 28.6387 9.43357 28.8263 9.52394C29.2018 9.70481 29.7301 9.94787 30.4104 10.2528L30.574 9.88781C29.8949 9.58338 29.3705 9.34207 28.9999 9.16356C28.8144 9.07424 28.669 9.00137 28.5626 8.94462C28.4502 8.88467 28.3964 8.85045 28.381 8.8378L28.1268 9.14657ZM30.4096 10.2524C31.2556 10.6363 31.7883 10.9241 32.0319 11.1176L32.2806 10.8043C31.993 10.5759 31.4163 10.2699 30.5748 9.88818L30.4096 10.2524ZM32.0348 11.1198C32.2728 11.3018 32.4776 11.5542 32.6461 11.884L33.0023 11.7019C32.8115 11.3286 32.571 11.0263 32.2777 10.8021L32.0348 11.1198ZM32.6461 11.884C32.8119 12.2083 32.8937 12.5444 32.8937 12.8945H33.2938C33.2938 12.4791 33.1959 12.0808 33.0023 11.7019L32.6461 11.884ZM38.1562 7.67969L37.9565 7.6892L37.9814 8.21228L38.3115 7.80577L38.1562 7.67969ZM43.8867 6.8125L43.7405 6.94897L43.7415 6.95L43.8867 6.8125ZM44.7188 9.94141L44.9188 9.94593V9.94141H44.7188ZM44.6484 13.0469L44.4484 13.0423V13.0469H44.6484ZM45.0117 15.4023L44.8868 15.5585L44.8898 15.5609L45.0117 15.4023ZM45.6094 15.6484L45.6014 15.8484H45.6094V15.6484ZM41.9414 16L41.8956 16.1947L41.9182 16.2H41.9414V16ZM42.0117 15.6016L41.9866 15.4031L41.9859 15.4032L42.0117 15.6016ZM42.9961 14.957L43.1886 15.0114L43.1889 15.0103L42.9961 14.957ZM42.5156 7.44531L42.3502 7.55773L42.3519 7.56015L42.5156 7.44531ZM39.0586 15.6719L39.02 15.8682L39.027 15.8694L39.0586 15.6719ZM39.0703 16.0703L39.0664 16.2703H39.0703V16.0703ZM36.7031 16.0234L36.7071 15.8234H36.7031V16.0234ZM35.3789 16.0586V16.259L35.3914 16.2582L35.3789 16.0586ZM36.4102 13.4688L36.6094 13.4858L36.6094 13.4857L36.4102 13.4688ZM36.5039 3.25L36.304 3.25492L36.304 3.25661L36.5039 3.25ZM36.0938 1.1875L35.9209 1.28808L35.9217 1.28946L36.0938 1.1875ZM35.1797 0.4375L35.1378 0.633092L35.1413 0.633779L35.1797 0.4375ZM34.9219 0.0976562L34.9548 0.294935L34.9659 0.293073L34.9768 0.289961L34.9219 0.0976562ZM38.1562 -0.0078125L38.3562 -0.00660777L38.3575 -0.220665L38.1439 -0.20743L38.1562 -0.0078125ZM38.1211 5.82812L37.9211 5.82692V5.82812H38.1211ZM38.3115 7.80577C39.2255 6.68028 40.2927 6.13359 41.5195 6.13359V5.73359C40.1526 5.73359 38.9776 6.35097 38.001 7.55361L38.3115 7.80577ZM41.5195 6.13359C42.5121 6.13359 43.2416 6.41439 43.7405 6.94896L44.0329 6.67604C43.4381 6.03873 42.5894 5.73359 41.5195 5.73359V6.13359ZM43.7415 6.95C44.2411 7.47773 44.5187 8.45334 44.5187 9.94141H44.9188C44.9188 8.42947 44.6417 7.31915 44.032 6.675L43.7415 6.95ZM44.5188 9.93688L44.4485 13.0423L44.8484 13.0514L44.9187 9.94593L44.5188 9.93688ZM44.4484 13.0469C44.4484 14.0338 44.4599 14.6489 44.4848 14.8736L44.8824 14.8295C44.8605 14.6323 44.8484 14.0444 44.8484 13.0469H44.4484ZM44.4848 14.8736C44.5151 15.1466 44.658 15.3755 44.8868 15.5585L45.1367 15.2462C44.9748 15.1167 44.8989 14.9784 44.8824 14.8295L44.4848 14.8736ZM44.8898 15.5609C45.1156 15.7346 45.3536 15.8384 45.6014 15.8483L45.6174 15.4486C45.4745 15.4429 45.3141 15.3826 45.1337 15.2438L44.8898 15.5609ZM45.6094 15.8484C45.6552 15.8484 45.6911 15.851 45.7185 15.8551C45.7465 15.8592 45.7606 15.8642 45.7655 15.8664C45.7701 15.8684 45.7587 15.8645 45.746 15.8475C45.7314 15.8281 45.7258 15.8058 45.7258 15.7891H46.1258C46.1258 15.7254 46.1069 15.6621 46.066 15.6075C46.0269 15.5554 45.976 15.5222 45.9279 15.5008C45.8364 15.4602 45.7235 15.4484 45.6094 15.4484V15.8484ZM45.7258 15.7891C45.7258 15.7799 45.7299 15.7656 45.7385 15.755C45.7444 15.7477 45.744 15.7528 45.7211 15.7622C45.6718 15.7823 45.5744 15.8 45.4102 15.8V16.2C45.5897 16.2 45.7501 16.1825 45.8726 16.1324C45.9357 16.1065 45.9997 16.0677 46.0486 16.0077C46.1002 15.9443 46.1258 15.8686 46.1258 15.7891H45.7258ZM45.4102 15.8H41.9414V16.2H45.4102V15.8ZM41.9872 15.8053C41.9654 15.8002 41.9511 15.7947 41.9423 15.7904C41.9337 15.7862 41.9319 15.7838 41.9334 15.7853C41.9354 15.7873 41.9385 15.7914 41.9406 15.7968C41.9427 15.802 41.9422 15.8041 41.9422 15.8008H41.5422C41.5422 15.8998 41.5766 15.9942 41.6506 16.0682C41.7194 16.137 41.8084 16.1742 41.8956 16.1947L41.9872 15.8053ZM41.9422 15.8008C41.9422 15.8016 41.9418 15.8087 41.9371 15.8178C41.9325 15.8268 41.9276 15.8304 41.9284 15.8298C41.9301 15.8285 41.9382 15.8232 41.957 15.8169C41.9758 15.8107 42.0021 15.8045 42.0376 15.7999L41.9859 15.4032C41.8811 15.4169 41.7749 15.4459 41.6907 15.5081C41.596 15.5781 41.5422 15.6811 41.5422 15.8008H41.9422ZM42.0369 15.8C42.6256 15.7253 43.0549 15.4842 43.1886 15.0114L42.8036 14.9026C42.7341 15.1486 42.5072 15.3372 41.9866 15.4032L42.0369 15.8ZM43.1889 15.0103C43.2467 14.8012 43.285 14.3972 43.3102 13.8232C43.3357 13.2409 43.3484 12.4622 43.3484 11.4883H42.9484C42.9484 12.4597 42.9357 13.2318 42.9105 13.8057C42.885 14.3879 42.847 14.7457 42.8033 14.9037L43.1889 15.0103ZM43.3484 11.4883C43.3484 10.4359 43.2955 9.56424 43.1878 8.8763C43.081 8.19388 42.9171 7.66951 42.6794 7.33048L42.3519 7.56015C42.536 7.82268 42.6885 8.27291 42.7926 8.93815C42.8959 9.59787 42.9484 10.4469 42.9484 11.4883H43.3484ZM42.681 7.33291C42.2329 6.67339 41.6225 6.33125 40.8633 6.33125V6.73125C41.4791 6.73125 41.9702 6.99849 42.3502 7.55772L42.681 7.33291ZM40.8633 6.33125C40.1336 6.33125 39.4902 6.61366 38.9406 7.16327L39.2235 7.44611C39.7051 6.96446 40.2492 6.73125 40.8633 6.73125V6.33125ZM38.9406 7.16327C38.3891 7.71474 38.077 8.51515 37.9806 9.53587L38.3788 9.5735C38.4699 8.60985 38.7593 7.91026 39.2235 7.44611L38.9406 7.16327ZM37.9806 9.53587C37.886 10.5364 37.8391 11.754 37.8391 13.1875H38.2391C38.2391 11.7616 38.2858 10.5574 38.3788 9.5735L37.9806 9.53587ZM37.8391 13.1875C37.8391 13.6748 37.8518 14.081 37.8778 14.4047C37.9034 14.7244 37.9429 14.9775 38.0022 15.1507L38.3806 15.0212C38.3383 14.8975 38.3016 14.6858 38.2765 14.3727C38.2517 14.0636 38.2391 13.669 38.2391 13.1875H37.8391ZM38.0022 15.1507C38.1378 15.5472 38.5145 15.7687 39.02 15.8681L39.0972 15.4756C38.6495 15.3876 38.4481 15.2184 38.3806 15.0212L38.0022 15.1507ZM39.027 15.8694C39.1114 15.8829 39.1492 15.9015 39.1615 15.9104C39.1658 15.9135 39.162 15.9118 39.1575 15.9036C39.1527 15.8947 39.1516 15.8864 39.1516 15.8828H39.5516C39.5516 15.7567 39.4901 15.6541 39.3952 15.5857C39.3098 15.5243 39.2011 15.4921 39.0902 15.4744L39.027 15.8694ZM39.1516 15.8828C39.1516 15.8889 39.1505 15.8846 39.1551 15.8754C39.1601 15.8654 39.167 15.8592 39.1703 15.857C39.1723 15.8557 39.1674 15.8595 39.15 15.8634C39.1326 15.8672 39.1067 15.8703 39.0703 15.8703V16.2703C39.18 16.2703 39.2972 16.2532 39.3922 16.1898C39.5015 16.117 39.5516 16.0036 39.5516 15.8828H39.1516ZM39.0743 15.8704L36.7071 15.8235L36.6992 16.2234L39.0664 16.2703L39.0743 15.8704ZM36.7031 15.8234C36.1925 15.8234 35.7467 15.8352 35.3664 15.859L35.3914 16.2582C35.7611 16.2351 36.1981 16.2234 36.7031 16.2234V15.8234ZM35.3789 15.8586C35.3286 15.8586 35.2896 15.8552 35.2601 15.85C35.2302 15.8446 35.215 15.8383 35.2094 15.8352C35.2047 15.8328 35.2116 15.8354 35.2189 15.8471C35.2266 15.8595 35.2273 15.8699 35.2273 15.8711H34.8273C34.8273 15.9348 34.8427 15.9999 34.8797 16.0591C34.9163 16.1177 34.9671 16.1594 35.0211 16.1882C35.1231 16.2426 35.2505 16.2586 35.3789 16.2586V15.8586ZM35.2273 15.8711C35.2273 15.8733 35.2266 15.8815 35.2214 15.8912C35.2164 15.9006 35.2113 15.9038 35.2133 15.9025C35.216 15.9005 35.2255 15.8947 35.2464 15.888C35.2671 15.8814 35.2956 15.8751 35.3334 15.8703L35.2838 15.4734C35.176 15.4869 35.0679 15.5153 34.9821 15.5761C34.8854 15.6445 34.8273 15.7478 34.8273 15.8711H35.2273ZM35.3334 15.8703C35.7228 15.8217 36.0428 15.7073 36.2258 15.4813L35.9149 15.2296C35.8322 15.3318 35.6444 15.4283 35.2838 15.4734L35.3334 15.8703ZM36.2258 15.4813C36.2839 15.4095 36.3248 15.3091 36.3573 15.2045C36.3914 15.0946 36.4226 14.9577 36.4517 14.7962C36.51 14.4729 36.5623 14.0352 36.6094 13.4858L36.2109 13.4517C36.1642 13.9961 36.1131 14.4197 36.0581 14.7253C36.0305 14.8783 36.0027 14.9977 35.9752 15.086C35.9462 15.1797 35.9232 15.2194 35.9149 15.2296L36.2258 15.4813ZM36.6094 13.4857C36.7038 12.3763 36.7508 10.9639 36.7508 9.25H36.3508C36.3508 10.958 36.304 12.358 36.2109 13.4518L36.6094 13.4857ZM36.7508 9.25C36.7508 6.19604 36.7352 4.19262 36.7038 3.24339L36.304 3.25661C36.3351 4.19801 36.3508 6.19458 36.3508 9.25H36.7508ZM36.7038 3.24508C36.6802 2.2844 36.5431 1.55345 36.2658 1.08554L35.9217 1.28946C36.1444 1.6653 36.2807 2.30935 36.304 3.25492L36.7038 3.24508ZM36.2666 1.08692C35.9985 0.626121 35.6522 0.326151 35.2181 0.241221L35.1413 0.633779C35.426 0.689474 35.689 0.889504 35.9209 1.28808L36.2666 1.08692ZM35.2216 0.24194C35.1235 0.220922 35.0722 0.196996 35.0498 0.181003C35.0402 0.174091 35.0413 0.172448 35.0448 0.178523C35.0491 0.185921 35.0516 0.195346 35.0516 0.203125H34.6516C34.6516 0.337419 34.7236 0.439564 34.8173 0.506497C34.9043 0.568629 35.0171 0.607203 35.1378 0.63306L35.2216 0.24194ZM35.0516 0.203125C35.0516 0.19351 35.0539 0.213311 35.0355 0.240823C35.0257 0.255581 35.0121 0.269121 34.9954 0.279299C34.9792 0.289186 34.9645 0.293313 34.9548 0.294935L34.889 -0.0996225C34.8185 -0.087878 34.7491 -0.0505989 34.7027 0.0189428C34.661 0.0816107 34.6516 0.15024 34.6516 0.203125H35.0516ZM34.9768 0.289961C34.9682 0.292424 34.9748 0.289907 35.0154 0.286828C35.0497 0.284223 35.0974 0.281895 35.1595 0.279984C35.2834 0.276171 35.4578 0.274219 35.6836 0.274219V-0.125781C35.4563 -0.125781 35.2772 -0.123827 35.1472 -0.119827C35.0823 -0.117832 35.0279 -0.115278 34.9851 -0.112023C34.9485 -0.109243 34.9029 -0.104924 34.8669 -0.0946486L34.9768 0.289961ZM35.6836 0.274219C36.4539 0.274219 37.2823 0.246709 38.1686 0.191805L38.1439 -0.20743C37.2646 -0.152959 36.4445 -0.125781 35.6836 -0.125781V0.274219ZM37.9563 -0.00901723L37.9211 5.82692L38.3211 5.82933L38.3562 -0.00660777L37.9563 -0.00901723ZM37.9211 5.82812C37.9211 6.57207 37.9328 7.19269 37.9565 7.6892L38.356 7.67017C38.3328 7.18231 38.3211 6.56855 38.3211 5.82812H37.9211ZM50.4375 2.03125L50.2883 1.89802L50.2856 1.90109L50.4375 2.03125ZM48.8555 2.07812L48.7274 2.2318L48.7305 2.2343L48.8555 2.07812ZM48.7969 0.507812L48.6554 0.366364L48.6527 0.369191L48.7969 0.507812ZM50.8828 5.93359L51.0828 5.93448L51.0837 5.72887L50.8782 5.73365L50.8828 5.93359ZM50.8711 8.57031L50.6711 8.56942L50.6711 8.57222L50.8711 8.57031ZM50.8945 11.0312H51.0945L51.0945 11.0293L50.8945 11.0312ZM50.8945 12.8828L51.0945 12.8845V12.8828H50.8945ZM50.8828 14.2891L50.6828 14.2874V14.2891H50.8828ZM51.1523 15.3672L51.021 15.5183L51.0282 15.524L51.1523 15.3672ZM51.9844 15.6133L51.9953 15.4136L51.9929 15.4135L51.9844 15.6133ZM52.1719 16.0586L52.1463 16.257L52.152 16.2576L52.1719 16.0586ZM48.0703 16.0117L48.0381 15.8142L48.0311 15.8156L48.0703 16.0117ZM49.043 15.25L48.8935 15.1171L48.893 15.1177L49.043 15.25ZM49.2305 14.0781L49.0305 14.0752V14.0781H49.2305ZM49.3008 9.22656L49.5008 9.22946V9.22656H49.3008ZM49.0078 6.92969L48.8521 7.05525L48.8542 7.05772L49.0078 6.92969ZM47.8711 6.54297L47.8766 6.34297H47.8711V6.54297ZM49.582 0.403125C49.824 0.403125 50.0419 0.490258 50.2424 0.677461L50.5154 0.385039C50.2472 0.134742 49.9338 0.00312495 49.582 0.00312495V0.403125ZM50.2424 0.677461C50.4468 0.868241 50.5305 1.05667 50.5305 1.24609H50.9305C50.9305 0.919888 50.7797 0.631759 50.5154 0.385039L50.2424 0.677461ZM50.5305 1.24609C50.5305 1.50375 50.4495 1.71749 50.2883 1.89805L50.5867 2.16445C50.8161 1.90751 50.9305 1.59782 50.9305 1.24609H50.5305ZM50.2856 1.90109C50.1426 2.06796 49.9406 2.15938 49.6523 2.15938V2.55937C50.0359 2.55937 50.3574 2.43204 50.5894 2.16141L50.2856 1.90109ZM49.6523 2.15938C49.4014 2.15938 49.1797 2.08142 48.9804 1.92195L48.7305 2.2343C48.9999 2.44983 49.3095 2.55937 49.6523 2.55937V2.15938ZM48.9835 1.92448C48.7985 1.77032 48.7039 1.56685 48.7039 1.29297H48.3039C48.3039 1.67534 48.4437 1.9953 48.7274 2.23177L48.9835 1.92448ZM48.7039 1.29297C48.7039 1.0167 48.7865 0.807135 48.941 0.646434L48.6527 0.369191C48.4166 0.61474 48.3039 0.928613 48.3039 1.29297H48.7039ZM48.9383 0.649234C49.0994 0.488089 49.3081 0.403125 49.582 0.403125V0.00312495C49.2154 0.00312495 48.9006 0.121286 48.6555 0.366391L48.9383 0.649234ZM50.6828 5.9327L50.6711 8.56942L51.0711 8.5712L51.0828 5.93448L50.6828 5.9327ZM50.6711 8.57222L50.6945 11.0332L51.0945 11.0293L51.0711 8.56841L50.6711 8.57222ZM50.6945 11.0312V12.8828H51.0945V11.0312H50.6945ZM50.6945 12.8811L50.6828 14.2874L51.0828 14.2907L51.0945 12.8845L50.6945 12.8811ZM50.6828 14.2891C50.6828 14.5792 50.7058 14.8275 50.7562 15.029C50.8059 15.2279 50.8875 15.4019 51.0211 15.5181L51.2836 15.2163C51.2375 15.1762 51.1843 15.0924 51.1442 14.932C51.1047 14.7741 51.0828 14.5615 51.0828 14.2891H50.6828ZM51.0282 15.524C51.2622 15.7093 51.5878 15.7966 51.9759 15.8131L51.9929 15.4135C51.6466 15.3987 51.4175 15.322 51.2765 15.2104L51.0282 15.524ZM51.9735 15.813C52.1814 15.8243 52.3152 15.8512 52.3906 15.8828C52.4658 15.9142 52.4289 15.9229 52.4289 15.8828H52.8289C52.8289 15.6865 52.6846 15.5721 52.5449 15.5137C52.4056 15.4554 52.217 15.4257 51.9953 15.4136L51.9735 15.813ZM52.4289 15.8828C52.4289 15.8924 52.4273 15.8915 52.4303 15.8847C52.4338 15.8767 52.4399 15.8692 52.4462 15.8644C52.4514 15.8604 52.4518 15.8621 52.4412 15.8647C52.4305 15.8675 52.4118 15.8703 52.3828 15.8703V16.2703C52.4846 16.2703 52.5975 16.2519 52.6886 16.1825C52.7899 16.1053 52.8289 15.9929 52.8289 15.8828H52.4289ZM52.3828 15.8703C52.3284 15.8703 52.2649 15.8669 52.1918 15.8596L52.152 16.2576C52.2351 16.2659 52.3122 16.2703 52.3828 16.2703V15.8703ZM52.1975 15.8602C51.4638 15.7656 50.7794 15.718 50.1445 15.718V16.118C50.7597 16.118 51.4268 16.1641 52.1463 16.2569L52.1975 15.8602ZM50.1445 15.718C49.1454 15.718 48.4389 15.7489 48.0381 15.8143L48.1025 16.2091C48.4673 16.1495 49.1437 16.118 50.1445 16.118V15.718ZM48.0311 15.8156C47.9656 15.8287 47.9006 15.8352 47.8359 15.8352V16.2352C47.9275 16.2352 48.0188 16.226 48.1095 16.2078L48.0311 15.8156ZM47.8359 15.8352C47.8009 15.8352 47.7768 15.8318 47.7614 15.8279C47.7462 15.8241 47.7427 15.8207 47.745 15.8224C47.7484 15.825 47.7527 15.83 47.755 15.8353C47.7569 15.8394 47.7547 15.8374 47.7547 15.8242H47.3547C47.3547 15.9433 47.3974 16.0617 47.505 16.1424C47.6018 16.215 47.723 16.2352 47.8359 16.2352V15.8352ZM47.7547 15.8242C47.7547 15.8789 47.7084 15.8691 47.8003 15.8281C47.8824 15.7915 48.0231 15.7563 48.2357 15.7297L48.1861 15.3328C47.9613 15.3609 47.7738 15.4019 47.6372 15.4629C47.5103 15.5195 47.3547 15.6289 47.3547 15.8242H47.7547ZM48.2357 15.7297C48.4619 15.7014 48.655 15.6621 48.8111 15.6094C48.9637 15.5578 49.1007 15.4869 49.1929 15.3823L48.893 15.1177C48.8681 15.1459 48.8078 15.1883 48.683 15.2305C48.5618 15.2714 48.3975 15.3064 48.1861 15.3328L48.2357 15.7297ZM49.1925 15.3829C49.2959 15.2664 49.3491 15.0828 49.3811 14.8832C49.4147 14.673 49.4305 14.4034 49.4305 14.0781H49.0305C49.0305 14.3935 49.015 14.6395 48.9861 14.82C48.9555 15.0109 48.915 15.0929 48.8935 15.1171L49.1925 15.3829ZM49.4304 14.081L49.5008 9.22946L49.1008 9.22366L49.0305 14.0752L49.4304 14.081ZM49.5008 9.22656C49.5008 8.57452 49.4763 8.04932 49.4259 7.65438C49.4008 7.45699 49.3685 7.28753 49.3279 7.14885C49.2883 7.01357 49.2361 6.89117 49.1615 6.80165L48.8542 7.05772C48.8772 7.08539 48.9104 7.14659 48.9441 7.26131C48.9767 7.37262 49.0055 7.51958 49.0291 7.70499C49.0764 8.07568 49.1008 8.58173 49.1008 9.22656H49.5008ZM49.1635 6.80414C48.9106 6.4906 48.4535 6.35907 47.8766 6.34305L47.8655 6.74289C48.4137 6.75812 48.7144 6.8844 48.8521 7.05524L49.1635 6.80414ZM47.8711 6.34297C47.8347 6.34297 47.8088 6.33988 47.7914 6.33601C47.774 6.33213 47.7691 6.32839 47.7711 6.32968C47.7744 6.33187 47.7813 6.33804 47.7863 6.34806C47.7909 6.35725 47.7898 6.3616 47.7898 6.35547H47.3898C47.3898 6.47623 47.4399 6.58963 47.5492 6.6625C47.6442 6.72584 47.7614 6.74297 47.8711 6.74297V6.34297ZM47.7898 6.35547C47.7898 6.35277 47.7901 6.35256 47.7897 6.35417C47.7893 6.3559 47.7884 6.35836 47.7869 6.36095C47.7855 6.3635 47.7842 6.36486 47.784 6.36505C47.7839 6.36515 47.7854 6.36363 47.7896 6.36101L47.5776 6.02181C47.46 6.09528 47.3898 6.21227 47.3898 6.35547H47.7898ZM47.7896 6.36101C47.7689 6.37392 47.7564 6.37489 47.7758 6.36989C47.7886 6.36658 47.8092 6.36223 47.8395 6.35707C47.8996 6.34683 47.9861 6.33537 48.1008 6.32284C48.3296 6.29785 48.6597 6.26974 49.0925 6.23855L49.0637 5.83958C48.6294 5.87088 48.2935 5.89941 48.0574 5.92521C47.9397 5.93807 47.844 5.95054 47.7723 5.96275C47.7367 5.96883 47.704 5.97533 47.676 5.98253C47.6546 5.98803 47.6139 5.99913 47.5776 6.02181L47.7896 6.36101ZM49.0925 6.23855C49.96 6.17603 50.557 6.14122 50.8875 6.13354L50.8782 5.73365C50.5367 5.74159 49.9307 5.7771 49.0637 5.83958L49.0925 6.23855ZM62.4961 7.30469L62.3576 7.44897L62.3582 7.44952L62.4961 7.30469ZM62.4258 14.5703L62.5698 14.7091L62.5703 14.7086L62.4258 14.5703ZM55.3125 14.6992L55.17 14.8395L55.1705 14.8401L55.3125 14.6992ZM56.6719 14.3828L56.5075 14.4967L56.5082 14.4977L56.6719 14.3828ZM61.1836 14.4648L61.0248 14.3432L61.0241 14.3441L61.1836 14.4648ZM61.2188 7.84375L61.0494 7.95024L61.0505 7.95183L61.2188 7.84375ZM56.6133 7.71484L56.7802 7.8251L56.7806 7.82441L56.6133 7.71484ZM54.0477 11.1016C54.0477 9.78045 54.5222 8.61806 55.4811 7.60633L55.1908 7.33117C54.1653 8.41319 53.6477 9.67267 53.6477 11.1016H54.0477ZM55.4811 7.60633C56.4354 6.5994 57.6017 6.09844 58.9922 6.09844V5.69844C57.4921 5.69844 56.2208 6.24435 55.1908 7.33117L55.4811 7.60633ZM58.9922 6.09844C60.3002 6.09844 61.4184 6.54739 62.3576 7.44897L62.6346 7.16041C61.6206 6.18699 60.403 5.69844 58.9922 5.69844V6.09844ZM62.3582 7.44952C63.3014 8.34783 63.7727 9.46667 63.7727 10.8203H64.1727C64.1727 9.36145 63.6595 8.13655 62.634 7.15986L62.3582 7.44952ZM63.7727 10.8203C63.7727 12.1879 63.2788 13.3891 62.2813 14.4321L62.5703 14.7086C63.6352 13.5952 64.1727 12.2964 64.1727 10.8203H63.7727ZM62.2818 14.4315C61.2848 15.4662 60.1324 15.9758 58.8164 15.9758V16.3758C60.2504 16.3758 61.5042 15.815 62.5698 14.7091L62.2818 14.4315ZM58.8164 15.9758C57.5115 15.9758 56.3943 15.5057 55.4545 14.5584L55.1705 14.8401C56.1838 15.8615 57.4025 16.3758 58.8164 16.3758V15.9758ZM55.455 14.5589C54.5157 13.6046 54.0477 12.4559 54.0477 11.1016H53.6477C53.6477 12.5597 54.1562 13.8095 55.17 14.8395L55.455 14.5589ZM55.5461 11.0312C55.5461 12.4059 55.8621 13.5654 56.5075 14.4967L56.8363 14.2689C56.2473 13.419 55.9461 12.3441 55.9461 11.0312H55.5461ZM56.5082 14.4977C57.1625 15.4301 57.9883 15.9188 58.9805 15.9188V15.5187C58.1446 15.5187 57.4313 15.1168 56.8356 14.2679L56.5082 14.4977ZM58.9805 15.9188C59.8948 15.9188 60.6831 15.4574 61.3431 14.5856L61.0241 14.3441C60.4185 15.1442 59.738 15.5187 58.9805 15.5187V15.9188ZM61.3423 14.5865C62.017 13.7061 62.3445 12.5497 62.3445 11.1367H61.9445C61.9445 12.4893 61.6314 13.5517 61.0248 14.3432L61.3423 14.5865ZM62.3445 11.1367C62.3445 9.86725 62.0266 8.73146 61.387 7.73567L61.0505 7.95183C61.6453 8.87791 61.9445 9.93744 61.9445 11.1367H62.3445ZM61.388 7.73726C60.7494 6.72202 59.8979 6.19063 58.8398 6.19063V6.59062C59.7349 6.59062 60.4693 7.02798 61.0495 7.95024L61.388 7.73726ZM58.8398 6.19063C57.8542 6.19063 57.054 6.67683 56.446 7.60527L56.7806 7.82441C57.3288 6.98723 58.013 6.59062 58.8398 6.59062V6.19063ZM56.4464 7.60459C55.8415 8.5202 55.5461 9.66679 55.5461 11.0312H55.9461C55.9461 9.72384 56.2289 8.65949 56.7801 7.8251L56.4464 7.60459ZM68.543 5.96875L68.7282 5.89339L68.6762 5.76541L68.5381 5.76881L68.543 5.96875ZM68.8828 8.30078L68.6829 8.30792L68.706 8.9543L69.0518 8.40771L68.8828 8.30078ZM70.4883 6.57812L70.3799 6.41003L70.3789 6.41069L70.4883 6.57812ZM73.957 6.30859L73.8807 6.4935L73.8843 6.49489L73.957 6.30859ZM75.1055 7.33984L74.9294 7.43485L74.9313 7.43816L75.1055 7.33984ZM75.5156 9.82422L75.7156 9.82778V9.82422H75.5156ZM75.4453 13.7734L75.2453 13.7699V13.7734H75.4453ZM75.6211 15.1445L75.4513 15.2507L75.4569 15.2587L75.6211 15.1445ZM76.4062 15.5781L76.4612 15.3858L76.4592 15.3853L76.4062 15.5781ZM76.4531 16L76.4106 16.1954L76.4177 16.197L76.4248 16.198L76.4531 16ZM72.8203 15.9648V16.1648H72.8278L72.8353 16.1643L72.8203 15.9648ZM72.6211 15.5781L72.6603 15.7743L72.6637 15.7735L72.6211 15.5781ZM73.7461 14.8867L73.9358 14.95L73.9367 14.9474L73.7461 14.8867ZM73.875 13.1875L73.6752 13.1794L73.6751 13.181L73.875 13.1875ZM69.4805 8.21875L69.31 8.11408L69.3098 8.11446L69.4805 8.21875ZM68.7773 15.1562L68.5955 15.2398L68.5985 15.2457L68.7773 15.1562ZM69.8086 15.6719L69.7859 15.8706L69.7905 15.8711L69.8086 15.6719ZM69.8086 16.0586L69.7933 16.258L69.8009 16.2586H69.8086V16.0586ZM69.1992 16.0117L69.2146 15.8123L69.2135 15.8122L69.1992 16.0117ZM67.0312 15.9883V15.7882L67.0263 15.7883L67.0312 15.9883ZM66.0938 16.0117V16.2118L66.0987 16.2117L66.0938 16.0117ZM66.1406 15.5195L66.1775 15.7161L66.179 15.7158L66.1406 15.5195ZM66.8672 15.1562L67.029 15.2739L67.0314 15.2705L66.8672 15.1562ZM67.1133 13.3984L66.9135 13.389L66.9134 13.3906L67.1133 13.3984ZM66.1172 6.48438L66.1625 6.28957L66.1622 6.2895L66.1172 6.48438ZM66.0117 5.99219L66.0142 5.79219H66.0117V5.99219ZM66.9609 6.00391L66.9585 6.20391H66.9609V6.00391ZM68.3577 6.04411C68.5309 6.46983 68.644 7.2163 68.6829 8.30792L69.0827 8.29364C69.0435 7.19776 68.9301 6.38955 68.7282 5.89339L68.3577 6.04411ZM69.0518 8.40771C69.5252 7.65945 70.0417 7.10881 70.5977 6.74556L70.3789 6.41069C69.763 6.81306 69.2092 7.41086 68.7138 8.19385L69.0518 8.40771ZM70.5967 6.74622C71.1586 6.38388 71.7656 6.20391 72.4219 6.20391V5.80391C71.6875 5.80391 71.0054 6.00674 70.3799 6.41003L70.5967 6.74622ZM72.4219 6.20391C72.9269 6.20391 73.4127 6.30031 73.8807 6.49347L74.0333 6.12372C73.517 5.91063 72.9794 5.80391 72.4219 5.80391V6.20391ZM73.8843 6.49489C74.3382 6.67218 74.6853 6.98244 74.9295 7.43483L75.2815 7.24486C74.9944 6.71287 74.5759 6.33563 74.0298 6.1223L73.8843 6.49489ZM74.9313 7.43816C75.1774 7.87414 75.3156 8.65653 75.3156 9.82422H75.7156C75.7156 8.64816 75.5804 7.7743 75.2796 7.24152L74.9313 7.43816ZM75.3157 9.82066L75.2453 13.7699L75.6453 13.777L75.7156 9.82778L75.3157 9.82066ZM75.2453 13.7734C75.2453 14.141 75.2601 14.4463 75.2909 14.6866C75.3207 14.9193 75.3685 15.1177 75.4515 15.2505L75.7907 15.0385C75.7565 14.9839 75.7164 14.86 75.6876 14.6357C75.6599 14.419 75.6453 14.1325 75.6453 13.7734H75.2453ZM75.4569 15.2587C75.6238 15.4987 75.9446 15.6588 76.3533 15.771L76.4592 15.3853C76.071 15.2787 75.8684 15.1498 75.7853 15.0303L75.4569 15.2587ZM76.3513 15.7704C76.4814 15.8076 76.5628 15.8424 76.6074 15.8705C76.6599 15.9035 76.6164 15.8962 76.6164 15.8359H77.0164C77.0164 15.6819 76.9045 15.5848 76.8203 15.5318C76.7282 15.474 76.6045 15.4268 76.4612 15.3858L76.3513 15.7704ZM76.6164 15.8359C76.6164 15.8468 76.6148 15.8476 76.6169 15.8422C76.6179 15.8393 76.6199 15.8352 76.623 15.8306C76.6262 15.8259 76.63 15.8216 76.6343 15.8178C76.6431 15.81 76.6496 15.8084 76.6479 15.8089C76.6456 15.8095 76.6363 15.8117 76.6172 15.8117V16.2117C76.7087 16.2117 76.8147 16.1921 76.8989 16.1177C76.9879 16.0392 77.0164 15.9323 77.0164 15.8359H76.6164ZM76.6172 15.8117C76.5721 15.8117 76.5268 15.8085 76.4814 15.802L76.4248 16.198C76.4888 16.2071 76.5529 16.2117 76.6172 16.2117V15.8117ZM76.4956 15.8046C76.1148 15.7218 75.5664 15.6828 74.8594 15.6828V16.0828C75.5586 16.0828 76.0727 16.122 76.4106 16.1954L76.4956 15.8046ZM74.8594 15.6828C74.2209 15.6828 73.5361 15.7104 72.8053 15.7654L72.8353 16.1643C73.5576 16.1099 74.2323 16.0828 74.8594 16.0828V15.6828ZM72.8203 15.7648C72.6848 15.7648 72.6113 15.7483 72.5786 15.7333C72.5648 15.727 72.5685 15.7255 72.5757 15.7353C72.5844 15.7473 72.5867 15.7602 72.5867 15.7656H72.1867C72.1867 15.8375 72.2071 15.9084 72.2519 15.9702C72.2952 16.0299 72.3532 16.0699 72.4116 16.0968C72.5235 16.1482 72.6667 16.1648 72.8203 16.1648V15.7648ZM72.5867 15.7656C72.5867 15.7709 72.5854 15.7804 72.5803 15.7906C72.5753 15.8005 72.57 15.8048 72.5703 15.8046C72.571 15.804 72.5772 15.7994 72.5928 15.7931C72.6083 15.7869 72.6303 15.7803 72.6603 15.7742L72.5819 15.382C72.489 15.4006 72.3949 15.4326 72.3204 15.4923C72.2375 15.5585 72.1867 15.6534 72.1867 15.7656H72.5867ZM72.6637 15.7735C72.8831 15.7257 73.0691 15.6759 73.2199 15.6235C73.3675 15.5722 73.4947 15.5141 73.5863 15.444L73.3434 15.1263C73.3022 15.1578 73.2223 15.1992 73.0887 15.2456C72.9582 15.2909 72.7888 15.3368 72.5785 15.3827L72.6637 15.7735ZM73.5863 15.444C73.7521 15.3173 73.8689 15.1506 73.9358 14.95L73.5564 14.8235C73.5139 14.9509 73.4432 15.0499 73.3434 15.1263L73.5863 15.444ZM73.9367 14.9474C73.9724 14.8352 73.9977 14.6265 74.0188 14.3481C74.0406 14.0608 74.0592 13.6757 74.0749 13.194L73.6751 13.181C73.6595 13.6603 73.6411 14.0388 73.6199 14.3179C73.5981 14.606 73.5745 14.7664 73.5555 14.8261L73.9367 14.9474ZM74.0748 13.1956C74.114 12.2334 74.1336 11.4491 74.1336 10.8438H73.7336C73.7336 11.4415 73.7142 12.2198 73.6752 13.1794L74.0748 13.1956ZM74.1336 10.8438C74.1336 10.0124 74.0815 9.31243 73.9749 8.74711C73.8688 8.18481 73.7058 7.73892 73.472 7.43005L73.153 7.67151C73.3333 7.90951 73.4808 8.28589 73.5818 8.82125C73.6822 9.35358 73.7336 10.0267 73.7336 10.8438H74.1336ZM73.472 7.43005C73.0249 6.83964 72.453 6.53047 71.7656 6.53047V6.93047C72.3126 6.93047 72.772 7.16818 73.153 7.67151L73.472 7.43005ZM71.7656 6.53047C70.7627 6.53047 69.9444 7.08121 69.31 8.11408L69.6509 8.32342C70.2353 7.37191 70.9404 6.93047 71.7656 6.93047V6.53047ZM69.3098 8.11446C68.6778 9.14862 68.3781 10.841 68.3781 13.1523H68.7781C68.7781 10.8543 69.08 9.25763 69.6511 8.32304L69.3098 8.11446ZM68.3781 13.1523C68.3781 13.6792 68.3948 14.1151 68.4289 14.4583C68.4624 14.7954 68.5144 15.063 68.5956 15.2397L68.9591 15.0728C68.9075 14.9604 68.8598 14.7495 68.827 14.4187C68.7947 14.0938 68.7781 13.6724 68.7781 13.1523H68.3781ZM68.5985 15.2457C68.7865 15.6217 69.2219 15.8061 69.7859 15.8706L69.8313 15.4732C69.3015 15.4126 69.0495 15.2533 68.9562 15.0668L68.5985 15.2457ZM69.7905 15.8711C69.8552 15.8769 69.8725 15.8917 69.8712 15.8906C69.8695 15.8891 69.8669 15.8859 69.8656 15.8826C69.8645 15.8801 69.8664 15.8829 69.8664 15.8945H70.2664C70.2664 15.7809 70.2273 15.6696 70.1327 15.5879C70.0455 15.5126 69.9339 15.4824 69.8267 15.4727L69.7905 15.8711ZM69.8664 15.8945C69.8664 15.8954 69.8664 15.8864 69.8731 15.8735C69.8802 15.86 69.8896 15.852 69.8946 15.8488C69.8982 15.8465 69.8952 15.8494 69.8799 15.8527C69.8647 15.8559 69.8416 15.8586 69.8086 15.8586V16.2586C69.9093 16.2586 70.0191 16.2437 70.1093 16.1863C70.2149 16.1191 70.2664 16.0116 70.2664 15.8945H69.8664ZM69.8239 15.8592L69.2146 15.8123L69.1839 16.2111L69.7933 16.258L69.8239 15.8592ZM69.2135 15.8122C68.9857 15.796 68.2536 15.7883 67.0312 15.7883V16.1883C68.262 16.1883 68.9753 16.1962 69.185 16.2112L69.2135 15.8122ZM67.0263 15.7883L66.0888 15.8118L66.0987 16.2117L67.0362 16.1882L67.0263 15.7883ZM66.0938 15.8117C65.9284 15.8117 65.8278 15.796 65.7754 15.7769C65.7503 15.7678 65.7501 15.7627 65.7578 15.7711C65.7695 15.7838 65.7781 15.8045 65.7781 15.8242H65.3781C65.3781 15.9065 65.4083 15.9818 65.4629 16.0414C65.5136 16.0966 65.5778 16.1307 65.6387 16.1528C65.7581 16.1962 65.9153 16.2117 66.0938 16.2117V15.8117ZM65.7781 15.8242C65.7781 15.8688 65.743 15.8627 65.814 15.8243C65.8805 15.7883 65.997 15.7499 66.1775 15.7161L66.1038 15.323C65.9093 15.3594 65.7445 15.407 65.6235 15.4726C65.507 15.5357 65.3781 15.6468 65.3781 15.8242H65.7781ZM66.179 15.7158C66.5549 15.6423 66.8591 15.5075 67.0289 15.2739L66.7054 15.0386C66.6253 15.1488 66.4451 15.2562 66.1022 15.3233L66.179 15.7158ZM67.0314 15.2705C67.0824 15.1972 67.1181 15.1004 67.146 14.9975C67.1748 14.8909 67.1994 14.7609 67.2205 14.6098C67.2629 14.3073 67.2935 13.9052 67.3131 13.4063L66.9134 13.3906C66.894 13.8838 66.8641 14.2708 66.8244 14.5543C66.8045 14.6961 66.7827 14.8083 66.7598 14.8931C66.7359 14.9816 66.7145 15.0255 66.703 15.042L67.0314 15.2705ZM67.3131 13.4079C67.3601 12.4114 67.3836 11.1697 67.3836 9.68359H66.9836C66.9836 11.1662 66.9602 12.4011 66.9135 13.389L67.3131 13.4079ZM67.3836 9.68359C67.3836 8.98868 67.3601 8.4201 67.3121 7.98026C67.2651 7.549 67.1921 7.21427 67.077 7.008L66.7277 7.20294C66.8001 7.3326 66.8678 7.59553 66.9145 8.02364C66.9602 8.44318 66.9836 8.9957 66.9836 9.68359H67.3836ZM67.077 7.008C66.8655 6.62915 66.56 6.38202 66.1625 6.28957L66.0719 6.67918C66.3463 6.74298 66.5641 6.90991 66.7277 7.20294L67.077 7.008ZM66.1622 6.2895C66.0184 6.25631 65.9301 6.22062 65.8823 6.19002C65.8358 6.16016 65.8602 6.15828 65.8602 6.19141H65.4602C65.4602 6.34953 65.5607 6.45898 65.6665 6.52677C65.7711 6.59383 65.9113 6.64213 66.0722 6.67925L66.1622 6.2895ZM65.8602 6.19141C65.8602 6.18846 65.8605 6.19547 65.8545 6.20565C65.8486 6.21569 65.8428 6.21819 65.8466 6.216C65.8517 6.21312 65.866 6.20664 65.895 6.20116C65.9237 6.19576 65.962 6.19219 66.0117 6.19219V5.79219C65.8822 5.79219 65.7529 5.80939 65.6494 5.86799C65.5293 5.93608 65.4602 6.05171 65.4602 6.19141H65.8602ZM66.0092 6.19217L66.9585 6.20389L66.9634 5.80392L66.0142 5.7922L66.0092 6.19217ZM66.9609 6.20391C67.0657 6.20391 67.5968 6.19208 68.5479 6.16869L68.5381 5.76881C67.5828 5.7923 67.0593 5.80391 66.9609 5.80391V6.20391Z" fill="#2D2D2D" mask="url(#path-1-outside-1_2_272)"/>
</svg>
