<svg xmlns="http://www.w3.org/2000/svg" width="20" height="20" viewBox="0 0 20 20" fill="none">
  <path d="M17.2166 10.1666C17.2166 9.54996 17.1665 9.09996 17.0583 8.6333H10.0166V11.4166H14.1499C14.0666 12.1083 13.6166 13.15 12.6166 13.8499L12.6026 13.9431L14.829 15.6679L14.9833 15.6833C16.3999 14.3749 17.2166 12.4499 17.2166 10.1666Z" fill="#4285F4"/>
  <path d="M10.0164 17.5C12.0414 17.5 13.7414 16.8334 14.9831 15.6834L12.6164 13.85C11.9831 14.2917 11.1331 14.6 10.0164 14.6C8.0331 14.6 6.34978 13.2917 5.74972 11.4834L5.66177 11.4909L3.34668 13.2825L3.31641 13.3667C4.54972 15.8167 7.08306 17.5 10.0164 17.5Z" fill="#34A853"/>
  <path d="M5.75087 11.4834C5.59254 11.0168 5.50091 10.5167 5.50091 10.0001C5.50091 9.4834 5.59254 8.98342 5.74254 8.51676L5.73835 8.41737L3.39425 6.59692L3.31756 6.6334C2.80925 7.65008 2.51758 8.79177 2.51758 10.0001C2.51758 11.2084 2.80925 12.3501 3.31756 13.3667L5.75087 11.4834Z" fill="#FBBC05"/>
  <path d="M10.0164 5.39997C11.4247 5.39997 12.3747 6.0083 12.9164 6.51667L15.033 4.45C13.7331 3.24167 12.0414 2.5 10.0164 2.5C7.08306 2.5 4.54972 4.18332 3.31641 6.63329L5.74139 8.51665C6.34978 6.70832 8.0331 5.39997 10.0164 5.39997Z" fill="#EB4335"/>
</svg>