<svg width="99" height="111" viewBox="0 0 99 111" fill="none" xmlns="http://www.w3.org/2000/svg">
<path d="M56.49 61.3501C49.3444 62.2563 49.984 55.7083 46.986 51.0336C43.9902 46.0669 40.6065 44.6148 34.8364 45.3392C29.8135 45.8986 25.9229 49.3257 25.7224 54.5068C25.5468 59.1076 26.1264 63.3447 25.4947 67.6588C21.1275 75.032 16.1967 83.8436 26.7029 88.294C32.6952 90.7637 36.7673 88.7031 41.4171 85.1067C46.228 81.657 50.0694 83.8741 55.5818 84.667C65.2194 86.4552 75.3194 73.457 69.0482 64.7496C65.7525 59.7971 61.656 60.6419 56.49 61.3501Z" fill="#A0BF1E" fill-opacity="0.33"/>
<path d="M47.6567 70.255C46.6409 72.4638 44.018 73.421 41.8096 72.4066C39.5995 71.3914 38.6344 68.7861 39.6502 66.5773C40.6652 64.3702 43.2728 63.404 45.483 64.4192C47.6914 65.4336 48.6717 68.0479 47.6567 70.255Z" fill="#070707" fill-opacity="0.64"/>
<path d="M76.6592 48.9757C74.2867 54.1343 70.057 57.8531 65.1269 59.7009C60.8237 61.3167 57.1185 64.1673 54.5245 67.8735L39.1212 60.7981C40.244 56.3708 39.9341 51.6651 38.3663 47.2813C36.625 42.3691 36.7158 36.7967 39.0718 31.6973C43.607 21.836 55.3423 17.1052 65.4376 21.0951C76.5648 25.4791 81.5942 38.2451 76.6592 48.9757Z" fill="#A0BF1E"/>
<path d="M67.3942 19.6135C67.0199 19.4416 66.8579 19.0004 67.0291 18.6281L68.2154 16.0488C68.3866 15.6765 68.8262 15.5138 69.2005 15.6857C69.5731 15.8568 69.7358 16.2963 69.5646 16.6686L68.3784 19.2479C68.2072 19.6202 67.7667 19.7846 67.3942 19.6135Z" fill="#A0BF1E"/>
<path d="M49.3491 18.9305C49.1762 18.8511 49.0328 18.7076 48.9623 18.5134L47.9752 15.8528C47.8344 15.4688 48.0311 15.0412 48.4143 14.898C48.7994 14.7555 49.2271 14.952 49.3697 15.3368L50.356 17.9992C50.4985 18.384 50.3027 18.8098 49.9177 18.9522C49.7243 19.0253 49.522 19.01 49.3491 18.9305Z" fill="#A0BF1E"/>
<path d="M79.6558 32.8476C79.4829 32.7682 79.3403 32.6229 79.2691 32.4305C79.1265 32.0457 79.3231 31.6182 79.7082 31.4757L82.3714 30.4918C82.7564 30.3493 83.1824 30.545 83.325 30.9298C83.4675 31.3146 83.2709 31.7421 82.8859 31.8846L80.2244 32.8693C80.0319 32.9406 79.8287 32.927 79.6558 32.8476Z" fill="#A0BF1E"/>
<path d="M43.5039 63.0689L49.9526 66.0311C52.255 60.2879 59.3037 52.8757 63.0833 49.1639C61.6204 49.4391 60.541 49.2324 59.819 48.5491C58.9728 47.7461 58.8902 46.5128 59.0188 45.4866C57.1032 46.4644 55.6446 46.6035 54.5832 45.9024C53.4941 45.1863 53.2025 43.7924 53.1621 42.6691C51.8312 43.4882 50.6123 43.7116 49.529 43.3348C48.7913 43.0801 48.2192 42.5778 47.7823 41.9974C47.4226 47.319 46.3747 57.5825 43.5039 63.0689ZM50.0632 67.7152L42.1512 64.0809C41.9587 63.9925 41.8146 63.827 41.7518 63.6256C41.689 63.4241 41.7169 63.2039 41.8259 63.0232C45.8154 56.4281 46.445 39.4456 46.4696 38.7255C46.481 38.3488 46.7763 38.04 47.1527 38.0101C47.5309 37.981 47.8685 38.2375 47.9413 38.6096C47.9963 38.8938 48.5246 41.43 50.0166 41.932C51.1354 42.3207 52.5395 41.4036 53.5179 40.567C53.7543 40.3628 54.0929 40.3306 54.3675 40.4848C54.6394 40.6399 54.7865 40.9491 54.7334 41.257C54.6139 41.9486 54.4831 44.0591 55.4018 44.6624C56.1418 45.1468 57.6968 44.6809 59.7487 43.3363C60.0194 43.1608 60.3729 43.1807 60.6226 43.3796C60.8724 43.5828 60.9661 43.9236 60.8496 44.2239C60.6137 44.8448 60.1021 46.7739 60.8413 47.4716C61.1511 47.765 62.2492 48.2737 65.7186 46.7151C66.0508 46.5656 66.4433 46.679 66.6439 46.9847C66.8444 47.2904 66.7919 47.6957 66.5234 47.9413C66.3921 48.0579 53.559 59.7995 51.0775 67.2749C51.0112 67.4753 50.8629 67.6381 50.6691 67.7217C50.4752 67.8052 50.2539 67.8028 50.0632 67.7152Z" fill="#F6F8F9"/>
<path d="M54.5313 69.203C54.2421 69.8318 53.7312 70.2855 53.1276 70.5088C52.5282 70.7232 51.8408 70.7203 51.2205 70.4354L38.0808 64.3998C36.8313 63.8258 36.2805 62.343 36.8589 61.0854C37.144 60.4655 37.6638 60.016 38.2602 59.7894C38.8638 59.5661 39.5381 59.5738 40.1673 59.8628L53.3071 65.8984C54.5566 66.4723 55.1056 67.9544 54.5313 69.203Z" fill="#A0BF1E"/>
</svg>
