<svg width="378" height="69" viewBox="0 0 378 69" fill="none" xmlns="http://www.w3.org/2000/svg">
<g clip-path="url(#clip0_269_17)">
<path d="M108.21 37.69H81.68C81.7267 40.77 82.38 43.22 83.64 45.04C85.6467 47.98 88.54 49.45 92.32 49.45C96.9867 49.45 100.137 47.2333 101.77 42.8H107.51C106.763 46.58 105.037 49.52 102.33 51.62C99.6233 53.72 96.2167 54.77 92.11 54.77C86.65 54.77 82.4733 52.9033 79.58 49.17C77.0133 45.9033 75.73 41.5867 75.73 36.22C75.73 30.0133 77.41 25.1833 80.77 21.73C83.71 18.7433 87.5133 17.25 92.18 17.25C95.5867 17.25 98.5733 18.0667 101.14 19.7C103.753 21.3333 105.62 23.5733 106.74 26.42C107.72 28.8467 108.21 32.5333 108.21 37.48V37.69ZM102.05 33C102.05 29.8733 101.117 27.3533 99.25 25.44C97.43 23.48 95.0733 22.5 92.18 22.5C89.24 22.5 86.8367 23.4567 84.97 25.37C83.15 27.2367 82.1233 29.78 81.89 33H102.05ZM125.143 3.88V54H119.403V3.88H125.143ZM152.357 17.25C157.77 17.25 161.9 19.14 164.747 22.92C167.267 26.1867 168.527 30.62 168.527 36.22C168.527 42.4733 166.894 47.2333 163.627 50.5C160.827 53.3467 157.047 54.77 152.287 54.77C146.78 54.77 142.58 52.9267 139.687 49.24C137.167 46.02 135.907 41.68 135.907 36.22C135.907 29.8733 137.564 24.9967 140.877 21.59C143.724 18.6967 147.55 17.25 152.357 17.25ZM152.357 22.5C149.09 22.5 146.524 23.7367 144.657 26.21C142.79 28.6367 141.857 31.9733 141.857 36.22C141.857 40.6533 142.907 44.0367 145.007 46.37C146.827 48.4233 149.254 49.45 152.287 49.45C155.507 49.45 158.004 48.2833 159.777 45.95C161.597 43.6167 162.507 40.3733 162.507 36.22C162.507 31.6467 161.48 28.1467 159.427 25.72C157.654 23.5733 155.297 22.5 152.357 22.5ZM194.77 54H188.54L175.87 18.02H182.38L191.9 47.14L202.12 18.02H208.56L194.77 54ZM248.265 37.69H221.735C221.781 40.77 222.435 43.22 223.695 45.04C225.701 47.98 228.595 49.45 232.375 49.45C237.041 49.45 240.191 47.2333 241.825 42.8H247.565C246.818 46.58 245.091 49.52 242.385 51.62C239.678 53.72 236.271 54.77 232.165 54.77C226.705 54.77 222.528 52.9033 219.635 49.17C217.068 45.9033 215.785 41.5867 215.785 36.22C215.785 30.0133 217.465 25.1833 220.825 21.73C223.765 18.7433 227.568 17.25 232.235 17.25C235.641 17.25 238.628 18.0667 241.195 19.7C243.808 21.3333 245.675 23.5733 246.795 26.42C247.775 28.8467 248.265 32.5333 248.265 37.48V37.69ZM242.105 33C242.105 29.8733 241.171 27.3533 239.305 25.44C237.485 23.48 235.128 22.5 232.235 22.5C229.295 22.5 226.891 23.4567 225.025 25.37C223.205 27.2367 222.178 29.78 221.945 33H242.105ZM285.148 27.89H278.848C278.661 24.2967 276.258 22.5 271.638 22.5C269.258 22.5 267.368 22.9667 265.968 23.9C264.614 24.7867 263.938 26 263.938 27.54C263.938 29.8733 266.154 31.5533 270.588 32.58L276.118 33.84C279.711 34.68 282.301 35.87 283.888 37.41C285.474 38.95 286.268 41.05 286.268 43.71C286.268 47.1167 284.938 49.8233 282.278 51.83C279.618 53.79 276.024 54.77 271.498 54.77C266.551 54.77 262.794 53.6033 260.228 51.27C258.081 49.3567 256.938 46.8133 256.798 43.64H263.308C263.681 45.2733 264.194 46.4633 264.848 47.21C266.108 48.7033 268.464 49.45 271.918 49.45C274.484 49.45 276.514 48.9833 278.008 48.05C279.548 47.07 280.318 45.7867 280.318 44.2C280.318 41.82 278.474 40.1867 274.788 39.3L269.398 38.04C265.291 37.06 262.421 35.8933 260.788 34.54C258.921 33 257.988 30.7833 257.988 27.89C257.988 24.6233 259.224 22.0333 261.698 20.12C264.218 18.2067 267.578 17.25 271.778 17.25C276.164 17.25 279.571 18.3467 281.998 20.54C284.098 22.4533 285.148 24.9033 285.148 27.89ZM311.552 17.25C316.966 17.25 321.096 19.14 323.942 22.92C326.462 26.1867 327.722 30.62 327.722 36.22C327.722 42.4733 326.089 47.2333 322.822 50.5C320.022 53.3467 316.242 54.77 311.482 54.77C305.976 54.77 301.776 52.9267 298.882 49.24C296.362 46.02 295.102 41.68 295.102 36.22C295.102 29.8733 296.759 24.9967 300.072 21.59C302.919 18.6967 306.746 17.25 311.552 17.25ZM311.552 22.5C308.286 22.5 305.719 23.7367 303.852 26.21C301.986 28.6367 301.052 31.9733 301.052 36.22C301.052 40.6533 302.102 44.0367 304.202 46.37C306.022 48.4233 308.449 49.45 311.482 49.45C314.702 49.45 317.199 48.2833 318.972 45.95C320.792 43.6167 321.702 40.3733 321.702 36.22C321.702 31.6467 320.676 28.1467 318.622 25.72C316.849 23.5733 314.492 22.5 311.552 22.5ZM352.075 18.02V22.64H346.125V54H340.455V22.64H335.625V18.02H340.455V11.86C340.455 9.29333 341.179 7.28667 342.625 5.84C344.119 4.39333 346.195 3.67 348.855 3.67C349.882 3.67 350.955 3.78666 352.075 4.02V8.78H351.445C350.932 8.73333 350.489 8.71 350.115 8.71C347.455 8.71 346.125 9.92333 346.125 12.35V18.02H352.075ZM375.906 18.02V22.64H368.556V46.58C368.556 47.42 368.836 48.1433 369.396 48.75C370.003 49.31 370.773 49.59 371.706 49.59C372.593 49.59 373.946 49.38 375.766 48.96L376.396 54C373.503 54.5133 371.309 54.77 369.816 54.77C365.196 54.77 362.886 52.88 362.886 49.1V22.64H357.986V18.02H362.886V10.67L368.556 8.08V18.02H375.906Z" fill="#1C1A1E"/>
<ellipse cx="38.8164" cy="34.2034" rx="27" ry="35" transform="rotate(37.9591 38.8164 34.2034)" fill="#AE9EEF"/>
<path d="M25.6695 30.9788H47.0595C49.0129 31.3351 52.8416 33.018 52.529 36.8992C52.6593 38.1874 51.7477 41.0271 47.0595 42.0796H18.1488L16 48H47.0595C51.5523 47.6437 60.3818 44.5793 59.7567 35.1724C59.4963 33.939 59.2098 31.5544 56.6312 28.9231C58.3893 27.4156 60.7725 22.3284 59.7567 17L52.529 17.9045C53.0825 19.7958 52.7635 23.8578 47.0595 24.9761H32.7995L25.6695 30.9788Z" fill="white"/>
</g>
<defs>
<clipPath id="clip0_269_17">
<rect width="378" height="69" fill="white"/>
</clipPath>
</defs>
</svg>
