<svg width="1342" height="293" viewBox="0 0 1342 293" fill="none" xmlns="http://www.w3.org/2000/svg">
<g clip-path="url(#clip0_242_61)">
<path d="M475.852 234.719C464.393 234.719 455.262 232.57 448.459 228.273C441.656 223.977 436.786 217.782 433.85 209.689C430.913 201.597 429.445 191.857 429.445 180.471V115.695C429.445 100.728 433.742 89.4128 442.336 81.75C450.93 74.0156 462.746 70.1484 477.785 70.1484C508.723 70.1484 524.191 85.3307 524.191 115.695V127.404C524.191 141.584 524.048 151.109 523.762 155.979H467.902V187.131C467.902 189.995 468.081 192.824 468.439 195.617C468.798 198.339 469.585 200.594 470.803 202.385C472.092 204.175 474.133 205.07 476.926 205.07C480.936 205.07 483.443 203.352 484.445 199.914C485.448 196.405 485.949 191.857 485.949 186.271V170.803H524.191V179.934C524.191 191.965 522.688 202.062 519.68 210.227C516.743 218.319 511.73 224.442 504.641 228.596C497.622 232.678 488.026 234.719 475.852 234.719ZM467.688 136.857H485.949V115.158C485.949 109.357 485.233 105.204 483.801 102.697C482.368 100.119 480.22 98.8301 477.355 98.8301C474.276 98.8301 471.877 100.048 470.158 102.482C468.511 104.917 467.688 109.143 467.688 115.158V136.857ZM549.156 233V43.9375H588.258V233H549.156ZM661.562 234.719C629.479 234.719 613.438 218.068 613.438 184.768V120.1C613.438 104.917 617.699 92.8145 626.221 83.791C634.743 74.696 646.523 70.1484 661.562 70.1484C676.673 70.1484 688.49 74.696 697.012 83.791C705.534 92.8145 709.795 104.917 709.795 120.1V184.768C709.795 218.068 693.717 234.719 661.562 234.719ZM661.562 205.07C664.785 205.07 667.077 203.924 668.438 201.633C669.87 199.27 670.586 196.298 670.586 192.717V113.977C670.586 104.595 667.578 99.9043 661.562 99.9043C655.547 99.9043 652.539 104.595 652.539 113.977V192.717C652.539 196.298 653.219 199.27 654.58 201.633C656.012 203.924 658.34 205.07 661.562 205.07ZM755.6 233L729.711 71.8672H768.275L777.514 179.504L787.934 71.8672H826.391L800.072 233H755.6ZM892.605 234.719C881.147 234.719 872.016 232.57 865.213 228.273C858.41 223.977 853.54 217.782 850.604 209.689C847.667 201.597 846.199 191.857 846.199 180.471V115.695C846.199 100.728 850.496 89.4128 859.09 81.75C867.684 74.0156 879.5 70.1484 894.539 70.1484C925.477 70.1484 940.945 85.3307 940.945 115.695V127.404C940.945 141.584 940.802 151.109 940.516 155.979H884.656V187.131C884.656 189.995 884.835 192.824 885.193 195.617C885.551 198.339 886.339 200.594 887.557 202.385C888.846 204.175 890.887 205.07 893.68 205.07C897.69 205.07 900.197 203.352 901.199 199.914C902.202 196.405 902.703 191.857 902.703 186.271V170.803H940.945V179.934C940.945 191.965 939.441 202.062 936.434 210.227C933.497 218.319 928.484 224.442 921.395 228.596C914.376 232.678 904.78 234.719 892.605 234.719ZM884.441 136.857H902.703V115.158C902.703 109.357 901.987 105.204 900.555 102.697C899.122 100.119 896.974 98.8301 894.109 98.8301C891.03 98.8301 888.631 100.048 886.912 102.482C885.265 104.917 884.441 109.143 884.441 115.158V136.857ZM1010.06 234.719C978.264 234.719 962.365 218.605 962.365 186.379V173.596H1001.04V192.502C1001.04 196.154 1001.75 199.019 1003.19 201.096C1004.62 203.173 1006.91 204.211 1010.06 204.211C1015.65 204.211 1018.44 200.021 1018.44 191.643C1018.44 184.624 1016.97 179.396 1014.04 175.959C1011.1 172.45 1007.52 169.084 1003.29 165.861L982.775 150.07C976.33 145.057 971.424 139.758 968.059 134.172C964.693 128.586 963.01 120.816 963.01 110.861C963.01 101.623 965.194 93.9961 969.562 87.9805C974.003 81.9648 979.839 77.4889 987.072 74.5527C994.377 71.6165 1002.25 70.1484 1010.71 70.1484C1041.93 70.1484 1057.54 85.7246 1057.54 116.877V119.885H1017.79V113.762C1017.79 110.539 1017.22 107.424 1016.08 104.416C1015 101.408 1012.85 99.9043 1009.63 99.9043C1004.19 99.9043 1001.47 102.769 1001.47 108.498C1001.47 114.299 1003.76 118.846 1008.34 122.141L1032.19 139.543C1039.64 144.914 1045.87 151.288 1050.88 158.664C1055.97 166.04 1058.51 175.852 1058.51 188.098C1058.51 203.28 1054.18 214.846 1045.51 222.795C1036.92 230.744 1025.1 234.719 1010.06 234.719ZM1128.16 234.719C1096.08 234.719 1080.04 218.068 1080.04 184.768V120.1C1080.04 104.917 1084.3 92.8145 1092.82 83.791C1101.34 74.696 1113.12 70.1484 1128.16 70.1484C1143.27 70.1484 1155.09 74.696 1163.61 83.791C1172.13 92.8145 1176.39 104.917 1176.39 120.1V184.768C1176.39 218.068 1160.32 234.719 1128.16 234.719ZM1128.16 205.07C1131.38 205.07 1133.67 203.924 1135.04 201.633C1136.47 199.27 1137.18 196.298 1137.18 192.717V113.977C1137.18 104.595 1134.18 99.9043 1128.16 99.9043C1122.14 99.9043 1119.14 104.595 1119.14 113.977V192.717C1119.14 196.298 1119.82 199.27 1121.18 201.633C1122.61 203.924 1124.94 205.07 1128.16 205.07ZM1205.22 233V108.283H1198.24V78.957H1205.22V68C1205.22 50.6693 1213.89 42.0039 1231.22 42.0039C1239.38 42.0039 1245.97 43.0423 1250.99 45.1191V68.8594C1249.2 68.5013 1248.01 68.3223 1247.44 68.3223C1245.22 68.3223 1243.86 69.1458 1243.36 70.793C1242.86 72.3685 1242.61 74.4095 1242.61 76.916V78.957H1250.99V108.713H1243.36V233H1205.22ZM1307.43 234.719C1297.04 234.719 1290.02 232.535 1286.37 228.166C1282.79 223.726 1281 216.958 1281 207.863V107.424H1270.15V78.0977H1281V43.9375H1318.38V78.0977H1329.23V107.424H1318.38V198.84C1318.38 201.49 1318.81 203.352 1319.67 204.426C1320.53 205.5 1322.18 206.037 1324.61 206.037C1326.33 206.037 1327.87 205.894 1329.23 205.607V231.818C1328.37 232.105 1325.69 232.642 1321.18 233.43C1316.66 234.289 1312.08 234.719 1307.43 234.719Z" fill="#EC7F84"/>
<path d="M211 148.5H326C336 146.333 355.6 136.1 354 112.5C354.667 104.667 350 87.4 326 81H182L167 45H326C349 47.1667 394.2 65.8 391 123C389.667 130.5 388.2 145 375 161C384 170.167 396.2 201.1 391 233.5L354 228C356.833 216.5 355.2 191.8 326 185L232 180L211 148.5Z" fill="#EC7F84"/>
<path d="M5.86888 72.8074C5.86888 72.8074 32.9029 24.8701 93.9996 32.6015C167.383 41.8962 181.78 27.0257 198.455 1.94729C198.455 1.94729 186.67 59.3492 108.52 50.9093C25.1208 41.904 5.86888 72.8074 5.86888 72.8074Z" fill="#EC7F84"/>
<g clip-path="url(#clip1_242_61)">
<path d="M-24.2508 -162.218C-24.2508 -162.218 121.92 -136.718 156.178 32.1452C179.054 228.264 301.754 218.681 381.577 242.526C381.577 242.526 173.46 278.575 123.737 92.9529C72.9613 -136.283 -24.2508 -162.218 -24.2508 -162.218Z" fill="#EC7F84"/>
<path d="M-159.83 -267.388C-159.83 -267.388 76.6583 -231.018 97.0391 -0.586026C121.937 280.912 303.51 247.292 400.235 262.413C400.235 262.413 133.491 360.855 67.4028 68.0266C-3.12825 -244.465 -159.83 -267.388 -159.83 -267.388Z" fill="#EC7F84"/>
<path d="M-24.2521 -162.218C-24.2521 -162.218 142.5 -129 156.177 32.1452C179.053 228.264 272.5 211 424.001 252C424.001 252 173.458 278.575 123.736 92.9528C72.96 -136.283 -24.2521 -162.218 -24.2521 -162.218Z" fill="#EC7F84"/>
<path d="M-159.83 -267.388C-159.83 -267.388 76.6583 -231.018 97.0391 -0.586026C121.937 280.912 303.51 247.292 400.235 262.413C400.235 262.413 133.491 360.855 67.4028 68.0266C-3.12825 -244.465 -159.83 -267.388 -159.83 -267.388Z" fill="#EC7F84"/>
</g>
</g>
<defs>
<clipPath id="clip0_242_61">
<rect width="1342" height="293" fill="white"/>
</clipPath>
<clipPath id="clip1_242_61">
<rect width="800" height="800" fill="white" transform="translate(-297 45)"/>
</clipPath>
</defs>
</svg>
