<svg width="247" height="41" viewBox="0 0 247 41" fill="none" xmlns="http://www.w3.org/2000/svg">
<path d="M16.0219 41L33.9979 22.5897C35.964 19.8933 38.211 13.4404 31.47 9.20044C29.972 8.08467 25.684 6.74574 20.5159 10.3162C23.5119 15.9881 25.4031 28.5034 9 33.1896L16.0219 41Z" fill="#CB06AD"/>
<path d="M53.88 21.72C55.3733 21.9867 56.64 22.7733 57.68 24.08C58.72 25.3867 59.24 26.8667 59.24 28.52C59.24 29.9333 58.8667 31.2133 58.12 32.36C57.4 33.48 56.3467 34.3733 54.96 35.04C53.5733 35.68 51.96 36 50.12 36H39V8.2H49.6C51.4933 8.2 53.12 8.52 54.48 9.16C55.84 9.8 56.8667 10.6667 57.56 11.76C58.2533 12.8267 58.6 14.0267 58.6 15.36C58.6 16.96 58.1733 18.2933 57.32 19.36C56.4667 20.4267 55.32 21.2133 53.88 21.72ZM43.56 19.88H49.2C50.6933 19.88 51.8533 19.5467 52.68 18.88C53.5333 18.1867 53.96 17.2 53.96 15.92C53.96 14.6667 53.5333 13.6933 52.68 13C51.8533 12.28 50.6933 11.92 49.2 11.92H43.56V19.88ZM49.72 32.28C51.2667 32.28 52.48 31.9067 53.36 31.16C54.24 30.4133 54.68 29.3733 54.68 28.04C54.68 26.68 54.2133 25.6 53.28 24.8C52.3467 24 51.1067 23.6 49.56 23.6H43.56V32.28H49.72ZM84.3953 24.44C84.3953 25.2667 84.342 26.0133 84.2353 26.68H67.3953C67.5286 28.44 68.182 29.8533 69.3553 30.92C70.5286 31.9867 71.9686 32.52 73.6753 32.52C76.1286 32.52 77.862 31.4933 78.8753 29.44H83.7953C83.1286 31.4667 81.9153 33.1333 80.1553 34.44C78.422 35.72 76.262 36.36 73.6753 36.36C71.5686 36.36 69.6753 35.8933 67.9953 34.96C66.342 34 65.0353 32.6667 64.0753 30.96C63.142 29.2267 62.6753 27.2267 62.6753 24.96C62.6753 22.6933 63.1286 20.7067 64.0353 19C64.9686 17.2667 66.262 15.9333 67.9153 15C69.5953 14.0667 71.5153 13.6 73.6753 13.6C75.7553 13.6 77.6086 14.0533 79.2353 14.96C80.862 15.8667 82.1286 17.1467 83.0353 18.8C83.942 20.4267 84.3953 22.3067 84.3953 24.44ZM79.6353 23C79.6086 21.32 79.0086 19.9733 77.8353 18.96C76.662 17.9467 75.2086 17.44 73.4753 17.44C71.902 17.44 70.5553 17.9467 69.4353 18.96C68.3153 19.9467 67.6486 21.2933 67.4353 23H79.6353ZM93.4428 6.4V36H88.8828V6.4H93.4428ZM108.99 36.36C106.91 36.36 105.03 35.8933 103.35 34.96C101.67 34 100.35 32.6667 99.3897 30.96C98.4297 29.2267 97.9497 27.2267 97.9497 24.96C97.9497 22.72 98.443 20.7333 99.4297 19C100.416 17.2667 101.763 15.9333 103.47 15C105.176 14.0667 107.083 13.6 109.19 13.6C111.296 13.6 113.203 14.0667 114.91 15C116.616 15.9333 117.963 17.2667 118.95 19C119.936 20.7333 120.43 22.72 120.43 24.96C120.43 27.2 119.923 29.1867 118.91 30.92C117.896 32.6533 116.51 34 114.75 34.96C113.016 35.8933 111.096 36.36 108.99 36.36ZM108.99 32.4C110.163 32.4 111.256 32.12 112.27 31.56C113.31 31 114.15 30.16 114.79 29.04C115.43 27.92 115.75 26.56 115.75 24.96C115.75 23.36 115.443 22.0133 114.83 20.92C114.216 19.8 113.403 18.96 112.39 18.4C111.376 17.84 110.283 17.56 109.11 17.56C107.936 17.56 106.843 17.84 105.83 18.4C104.843 18.96 104.056 19.8 103.47 20.92C102.883 22.0133 102.59 23.36 102.59 24.96C102.59 27.3333 103.19 29.1733 104.39 30.48C105.616 31.76 107.15 32.4 108.99 32.4ZM133.458 31.92L139.698 13.96H144.537L136.138 36H130.698L122.338 13.96H127.217L133.458 31.92ZM168.184 24.44C168.184 25.2667 168.131 26.0133 168.024 26.68H151.184C151.318 28.44 151.971 29.8533 153.144 30.92C154.318 31.9867 155.758 32.52 157.464 32.52C159.918 32.52 161.651 31.4933 162.664 29.44H167.584C166.918 31.4667 165.704 33.1333 163.944 34.44C162.211 35.72 160.051 36.36 157.464 36.36C155.358 36.36 153.464 35.8933 151.784 34.96C150.131 34 148.824 32.6667 147.864 30.96C146.931 29.2267 146.464 27.2267 146.464 24.96C146.464 22.6933 146.918 20.7067 147.824 19C148.758 17.2667 150.051 15.9333 151.704 15C153.384 14.0667 155.304 13.6 157.464 13.6C159.544 13.6 161.398 14.0533 163.024 14.96C164.651 15.8667 165.918 17.1467 166.824 18.8C167.731 20.4267 168.184 22.3067 168.184 24.44ZM163.424 23C163.398 21.32 162.798 19.9733 161.624 18.96C160.451 17.9467 158.998 17.44 157.264 17.44C155.691 17.44 154.344 17.9467 153.224 18.96C152.104 19.9467 151.438 21.2933 151.224 23H163.424ZM180.672 36.36C178.939 36.36 177.379 36.0533 175.992 35.44C174.632 34.8 173.552 33.9467 172.752 32.88C171.952 31.7867 171.525 30.5733 171.472 29.24H176.192C176.272 30.1733 176.712 30.96 177.512 31.6C178.339 32.2133 179.365 32.52 180.592 32.52C181.872 32.52 182.859 32.28 183.552 31.8C184.272 31.2933 184.632 30.6533 184.632 29.88C184.632 29.0533 184.232 28.44 183.432 28.04C182.659 27.64 181.419 27.2 179.712 26.72C178.059 26.2667 176.712 25.8267 175.672 25.4C174.632 24.9733 173.725 24.32 172.952 23.44C172.205 22.56 171.832 21.4 171.832 19.96C171.832 18.7867 172.179 17.72 172.872 16.76C173.565 15.7733 174.552 15 175.832 14.44C177.139 13.88 178.632 13.6 180.312 13.6C182.819 13.6 184.832 14.24 186.352 15.52C187.899 16.7733 188.725 18.4933 188.832 20.68H184.272C184.192 19.6933 183.792 18.9067 183.072 18.32C182.352 17.7333 181.379 17.44 180.152 17.44C178.952 17.44 178.032 17.6667 177.392 18.12C176.752 18.5733 176.432 19.1733 176.432 19.92C176.432 20.5067 176.645 21 177.072 21.4C177.499 21.8 178.019 22.12 178.632 22.36C179.245 22.5733 180.152 22.8533 181.352 23.2C182.952 23.6267 184.259 24.0667 185.272 24.52C186.312 24.9467 187.205 25.5867 187.952 26.44C188.699 27.2933 189.085 28.4267 189.112 29.84C189.112 31.0933 188.765 32.2133 188.072 33.2C187.379 34.1867 186.392 34.96 185.112 35.52C183.859 36.08 182.379 36.36 180.672 36.36ZM203.599 36.36C201.519 36.36 199.639 35.8933 197.959 34.96C196.279 34 194.959 32.6667 193.999 30.96C193.039 29.2267 192.559 27.2267 192.559 24.96C192.559 22.72 193.052 20.7333 194.039 19C195.026 17.2667 196.372 15.9333 198.079 15C199.786 14.0667 201.692 13.6 203.799 13.6C205.906 13.6 207.812 14.0667 209.519 15C211.226 15.9333 212.572 17.2667 213.559 19C214.546 20.7333 215.039 22.72 215.039 24.96C215.039 27.2 214.532 29.1867 213.519 30.92C212.506 32.6533 211.119 34 209.359 34.96C207.626 35.8933 205.706 36.36 203.599 36.36ZM203.599 32.4C204.772 32.4 205.866 32.12 206.879 31.56C207.919 31 208.759 30.16 209.399 29.04C210.039 27.92 210.359 26.56 210.359 24.96C210.359 23.36 210.052 22.0133 209.439 20.92C208.826 19.8 208.012 18.96 206.999 18.4C205.986 17.84 204.892 17.56 203.719 17.56C202.546 17.56 201.452 17.84 200.439 18.4C199.452 18.96 198.666 19.8 198.079 20.92C197.492 22.0133 197.199 23.36 197.199 24.96C197.199 27.3333 197.799 29.1733 198.999 30.48C200.226 31.76 201.759 32.4 203.599 32.4ZM228.787 17.68H224.707V36H220.107V17.68H217.507V13.96H220.107V12.4C220.107 9.86666 220.774 8.02666 222.107 6.88C223.467 5.70667 225.587 5.12 228.467 5.12V8.92C227.08 8.92 226.107 9.18667 225.547 9.72C224.987 10.2267 224.707 11.12 224.707 12.4V13.96H228.787V17.68ZM238.148 17.68V29.88C238.148 30.7067 238.335 31.3067 238.708 31.68C239.108 32.0267 239.775 32.2 240.708 32.2H243.508V36H239.908C237.855 36 236.281 35.52 235.188 34.56C234.095 33.6 233.548 32.04 233.548 29.88V17.68H230.948V13.96H233.548V8.48H238.148V13.96H243.508V17.68H238.148Z" fill="#4E2A7E"/>
<circle cx="9.5" cy="18.5" r="9.5" fill="#FF5767"/>
</svg>
