<svg width="193" height="33" viewBox="0 0 193 33" fill="none" xmlns="http://www.w3.org/2000/svg">
<path fill-rule="evenodd" clip-rule="evenodd" d="M10.4152 31.5968V13.1191H7.0982C3.4262 13.1191 0.36173 16.5322 0 20.1322V31.5968H10.4152Z" fill="#F7462C"/>
<path fill-rule="evenodd" clip-rule="evenodd" d="M21.9427 13.1192V0C15.9502 1.62692 11.3296 6.7915 10.415 13.1123H21.9427V13.1192Z" fill="#F7462C"/>
<path d="M183.041 32.1849C176.33 32.1849 171.885 27.2694 171.885 20.4732C171.885 12.7367 176.886 8.54785 182.613 8.54785C188.854 8.54785 192.872 12.7367 193 20.0031V20.9862H175.432C175.646 25.8161 178.467 29.1074 183.041 29.1074C186.204 29.1074 188.512 27.5259 189.452 24.5766H192.914C191.889 29.2356 188.213 32.1849 183.041 32.1849ZM175.646 18.0369H189.281C188.64 14.0617 186.247 11.6254 182.613 11.6254C179.023 11.6254 176.373 13.9763 175.646 18.0369Z" fill="black"/>
<path d="M156.933 31.7155L147.487 9.06152H151.334L158.814 27.5694L166.251 9.06152H170.098L160.652 31.7155H156.933Z" fill="black"/>
<path d="M140.188 31.7155V9.0616H143.736V31.7155H140.188ZM139.333 2.6073C139.333 1.11133 140.488 0 141.984 0C143.48 0 144.591 1.11133 144.591 2.6073C144.591 4.1034 143.48 5.2574 141.984 5.2574C140.488 5.2574 139.333 4.1034 139.333 2.6073Z" fill="black"/>
<path d="M133.101 31.7157C128.698 31.7157 126.348 29.4503 126.348 25.2614V12.0538H122.159V9.0617H126.348V1.3252H129.895V9.0617H136.008V12.0538H129.895V25.2614C129.895 27.5268 131.007 28.7236 133.101 28.7236H135.623V31.7157H133.101Z" fill="black"/>
<path d="M109.495 32.1849C102.143 32.1849 98.211 26.7992 98.211 20.2595C98.211 12.6512 103.212 8.54785 109.367 8.54785C115.052 8.54785 119.112 11.9673 119.754 17.7804H116.291C115.693 14.019 113.086 11.6254 109.281 11.6254C104.793 11.6254 101.801 14.9166 101.801 20.2595C101.801 26.0299 105.306 29.1074 109.538 29.1074C113.171 29.1074 115.65 26.7992 116.291 22.8669H119.754C119.112 28.7227 115.351 32.1849 109.495 32.1849Z" fill="black"/>
<path d="M81.8379 32.0567C76.7087 32.0567 73.4175 29.4066 73.4175 25.2605C73.4175 20.0458 78.4612 19.0627 82.992 18.5925C86.4542 18.2506 89.4462 18.2933 89.489 16.4554C89.4462 13.5916 87.0953 11.5826 83.6759 11.5826C80.3846 11.5826 77.82 13.4206 77.4354 16.1134H73.9304C74.3578 11.6681 78.3757 8.54785 83.7614 8.54785C89.3607 8.54785 92.951 11.8818 92.951 16.6691V27.6968C92.951 28.4235 93.336 28.8082 94.105 28.8082H95.388V31.7147H93.379C90.9422 31.7147 89.6599 30.6034 89.6599 28.509V27.8251C88.3349 30.4324 85.7703 32.0567 81.8379 32.0567ZM76.9652 25.175C76.9652 27.5259 79.1023 29.0219 82.3508 29.0219C86.5824 29.0219 89.489 26.3291 89.489 22.5677V19.6184C88.5059 20.9434 85.984 21.1999 83.2057 21.4991C80.0854 21.841 76.9652 22.2684 76.9652 25.175Z" fill="black"/>
<path d="M59.9031 32.1849C53.1924 32.1849 48.7471 27.2694 48.7471 20.4732C48.7471 12.7367 53.748 8.54785 59.4756 8.54785C65.7162 8.54785 69.734 12.7367 69.8623 20.0031V20.9862H52.2948C52.5085 25.8161 55.3295 29.1074 59.9031 29.1074C63.0661 29.1074 65.3742 27.5259 66.3146 24.5766H69.7768C68.7509 29.2356 65.075 32.1849 59.9031 32.1849ZM52.5085 18.0369H66.1436C65.5024 14.0617 63.1088 11.6254 59.4756 11.6254C55.8852 11.6254 53.2351 13.9763 52.5085 18.0369Z" fill="black"/>
<path d="M35 31.7158V9.06179H37.8211L38.2485 13.3789C39.7018 10.4724 42.3518 8.93359 46.1133 8.93359H46.8826V12.4385H46.1133C41.326 12.4385 38.5477 15.1741 38.5477 19.8331V31.7158H35Z" fill="black"/>
</svg>
