<svg width="378" height="100" viewBox="0 0 378 100" fill="none" xmlns="http://www.w3.org/2000/svg">
<path d="M77.89 67.7529C73.9233 67.7529 70.4233 66.9363 67.39 65.3029C64.4033 63.6696 62.07 61.4296 60.39 58.5829C58.7567 55.7363 57.94 52.4696 57.94 48.7829C57.94 45.0963 58.7333 41.8296 60.32 38.9829C61.9533 36.1363 64.17 33.9196 66.97 32.3329C69.8167 30.6996 73.0133 29.8829 76.56 29.8829C80.1533 29.8829 83.3267 30.6763 86.08 32.2629C88.8333 33.8496 90.98 36.0896 92.52 38.9829C94.1067 41.8296 94.9 45.1663 94.9 48.9929C94.9 49.2729 94.8767 49.5996 94.83 49.9729C94.83 50.3463 94.8067 50.6963 94.76 51.0229H63.19V46.1929H91.26L88.53 47.8729C88.5767 45.4929 88.0867 43.3696 87.06 41.5029C86.0333 39.6363 84.61 38.1896 82.79 37.1629C81.0167 36.0896 78.94 35.5529 76.56 35.5529C74.2267 35.5529 72.15 36.0896 70.33 37.1629C68.51 38.1896 67.0867 39.6596 66.06 41.5729C65.0333 43.4396 64.52 45.5863 64.52 48.0129V49.1329C64.52 51.6063 65.08 53.8229 66.2 55.7829C67.3667 57.6963 68.9767 59.1896 71.03 60.2629C73.0833 61.3363 75.44 61.8729 78.1 61.8729C80.2933 61.8729 82.2767 61.4996 84.05 60.7529C85.87 60.0063 87.4567 58.8863 88.81 57.3929L92.52 61.7329C90.84 63.6929 88.74 65.1863 86.22 66.2129C83.7467 67.2396 80.97 67.7529 77.89 67.7529ZM104.231 67.3329V15.3929H110.951V67.3329H104.231ZM139.672 67.7529C135.939 67.7529 132.625 66.9363 129.732 65.3029C126.839 63.6696 124.552 61.4296 122.872 58.5829C121.192 55.6896 120.352 52.4229 120.352 48.7829C120.352 45.0963 121.192 41.8296 122.872 38.9829C124.552 36.1363 126.839 33.9196 129.732 32.3329C132.625 30.6996 135.939 29.8829 139.672 29.8829C143.359 29.8829 146.649 30.6996 149.542 32.3329C152.482 33.9196 154.769 36.1363 156.402 38.9829C158.082 41.7829 158.922 45.0496 158.922 48.7829C158.922 52.4696 158.082 55.7363 156.402 58.5829C154.769 61.4296 152.482 63.6696 149.542 65.3029C146.649 66.9363 143.359 67.7529 139.672 67.7529ZM139.672 61.8729C142.052 61.8729 144.175 61.3363 146.042 60.2629C147.955 59.1896 149.449 57.6729 150.522 55.7129C151.595 53.7063 152.132 51.3963 152.132 48.7829C152.132 46.1229 151.595 43.8363 150.522 41.9229C149.449 39.9629 147.955 38.4463 146.042 37.3729C144.175 36.2996 142.052 35.7629 139.672 35.7629C137.292 35.7629 135.169 36.2996 133.302 37.3729C131.435 38.4463 129.942 39.9629 128.822 41.9229C127.702 43.8363 127.142 46.1229 127.142 48.7829C127.142 51.3963 127.702 53.7063 128.822 55.7129C129.942 57.6729 131.435 59.1896 133.302 60.2629C135.169 61.3363 137.292 61.8729 139.672 61.8729ZM222.333 67.7529C218.367 67.7529 214.867 66.9363 211.833 65.3029C208.847 63.6696 206.513 61.4296 204.833 58.5829C203.2 55.7363 202.383 52.4696 202.383 48.7829C202.383 45.0963 203.177 41.8296 204.763 38.9829C206.397 36.1363 208.613 33.9196 211.413 32.3329C214.26 30.6996 217.457 29.8829 221.003 29.8829C224.597 29.8829 227.77 30.6763 230.523 32.2629C233.277 33.8496 235.423 36.0896 236.963 38.9829C238.55 41.8296 239.343 45.1663 239.343 48.9929C239.343 49.2729 239.32 49.5996 239.273 49.9729C239.273 50.3463 239.25 50.6963 239.203 51.0229H207.633V46.1929H235.703L232.973 47.8729C233.02 45.4929 232.53 43.3696 231.503 41.5029C230.477 39.6363 229.053 38.1896 227.233 37.1629C225.46 36.0896 223.383 35.5529 221.003 35.5529C218.67 35.5529 216.593 36.0896 214.773 37.1629C212.953 38.1896 211.53 39.6596 210.503 41.5729C209.477 43.4396 208.963 45.5863 208.963 48.0129V49.1329C208.963 51.6063 209.523 53.8229 210.643 55.7829C211.81 57.6963 213.42 59.1896 215.473 60.2629C217.527 61.3363 219.883 61.8729 222.543 61.8729C224.737 61.8729 226.72 61.4996 228.493 60.7529C230.313 60.0063 231.9 58.8863 233.253 57.3929L236.963 61.7329C235.283 63.6929 233.183 65.1863 230.663 66.2129C228.19 67.2396 225.413 67.7529 222.333 67.7529ZM259.315 67.7529C256.235 67.7529 253.295 67.3329 250.495 66.4929C247.741 65.6529 245.571 64.6263 243.985 63.4129L246.785 58.0929C248.371 59.1663 250.331 60.0763 252.665 60.8229C254.998 61.5696 257.378 61.9429 259.805 61.9429C262.931 61.9429 265.171 61.4996 266.525 60.6129C267.925 59.7263 268.625 58.4896 268.625 56.9029C268.625 55.7363 268.205 54.8263 267.365 54.1729C266.525 53.5196 265.405 53.0296 264.005 52.7029C262.651 52.3763 261.135 52.0963 259.455 51.8629C257.775 51.5829 256.095 51.2563 254.415 50.8829C252.735 50.4629 251.195 49.9029 249.795 49.2029C248.395 48.4563 247.275 47.4529 246.435 46.1929C245.595 44.8863 245.175 43.1596 245.175 41.0129C245.175 38.7729 245.805 36.8129 247.065 35.1329C248.325 33.4529 250.098 32.1696 252.385 31.2829C254.718 30.3496 257.471 29.8829 260.645 29.8829C263.071 29.8829 265.521 30.1863 267.995 30.7929C270.515 31.3529 272.568 32.1696 274.155 33.2429L271.285 38.5629C269.605 37.4429 267.855 36.6729 266.035 36.2529C264.215 35.8329 262.395 35.6229 260.575 35.6229C257.635 35.6229 255.441 36.1129 253.995 37.0929C252.548 38.0263 251.825 39.2396 251.825 40.7329C251.825 41.9929 252.245 42.9729 253.085 43.6729C253.971 44.3263 255.091 44.8396 256.445 45.2129C257.845 45.5863 259.385 45.9129 261.065 46.1929C262.745 46.4263 264.425 46.7529 266.105 47.1729C267.785 47.5463 269.301 48.0829 270.655 48.7829C272.055 49.4829 273.175 50.4629 274.015 51.7229C274.901 52.9829 275.345 54.6629 275.345 56.7629C275.345 59.0029 274.691 60.9396 273.385 62.5729C272.078 64.2063 270.235 65.4896 267.855 66.4229C265.475 67.3096 262.628 67.7529 259.315 67.7529ZM299.633 67.7529C295.9 67.7529 292.586 66.9363 289.693 65.3029C286.8 63.6696 284.513 61.4296 282.833 58.5829C281.153 55.6896 280.313 52.4229 280.313 48.7829C280.313 45.0963 281.153 41.8296 282.833 38.9829C284.513 36.1363 286.8 33.9196 289.693 32.3329C292.586 30.6996 295.9 29.8829 299.633 29.8829C303.32 29.8829 306.61 30.6996 309.503 32.3329C312.443 33.9196 314.73 36.1363 316.363 38.9829C318.043 41.7829 318.883 45.0496 318.883 48.7829C318.883 52.4696 318.043 55.7363 316.363 58.5829C314.73 61.4296 312.443 63.6696 309.503 65.3029C306.61 66.9363 303.32 67.7529 299.633 67.7529ZM299.633 61.8729C302.013 61.8729 304.136 61.3363 306.003 60.2629C307.916 59.1896 309.41 57.6729 310.483 55.7129C311.556 53.7063 312.093 51.3963 312.093 48.7829C312.093 46.1229 311.556 43.8363 310.483 41.9229C309.41 39.9629 307.916 38.4463 306.003 37.3729C304.136 36.2996 302.013 35.7629 299.633 35.7629C297.253 35.7629 295.13 36.2996 293.263 37.3729C291.396 38.4463 289.903 39.9629 288.783 41.9229C287.663 43.8363 287.103 46.1229 287.103 48.7829C287.103 51.3963 287.663 53.7063 288.783 55.7129C289.903 57.6729 291.396 59.1896 293.263 60.2629C295.13 61.3363 297.253 61.8729 299.633 61.8729ZM329.157 67.3329V26.9429C329.157 23.3029 330.207 20.4096 332.307 18.2629C334.453 16.0696 337.487 14.9729 341.407 14.9729C342.853 14.9729 344.23 15.1596 345.537 15.5329C346.89 15.8596 348.033 16.3963 348.967 17.1429L346.937 22.2529C346.237 21.6929 345.443 21.2729 344.557 20.9929C343.67 20.6663 342.737 20.5029 341.757 20.5029C339.797 20.5029 338.303 21.0629 337.277 22.1829C336.25 23.2563 335.737 24.8663 335.737 27.0129V31.9829L335.877 35.0629V67.3329H329.157ZM322.857 35.7629V30.2329H346.517V35.7629H322.857ZM365.594 67.7529C361.861 67.7529 358.968 66.7496 356.914 64.7429C354.861 62.7363 353.834 59.8663 353.834 56.1329V22.1129H360.554V55.8529C360.554 57.8596 361.044 59.3996 362.024 60.4729C363.051 61.5463 364.498 62.0829 366.364 62.0829C368.464 62.0829 370.214 61.4996 371.614 60.3329L373.714 65.1629C372.688 66.0496 371.451 66.7029 370.004 67.1229C368.604 67.5429 367.134 67.7529 365.594 67.7529ZM347.534 35.7629V30.2329H371.194V35.7629H347.534Z" fill="black"/>
<rect x="211" y="78.3329" width="163" height="18" fill="#A0C402"/>
<path d="M221.634 93.5489C220.626 93.5489 219.66 93.4169 218.736 93.1529C217.812 92.8769 217.068 92.5229 216.504 92.0909L217.494 89.8949C218.034 90.2789 218.67 90.5969 219.402 90.8489C220.146 91.0889 220.896 91.2089 221.652 91.2089C222.228 91.2089 222.69 91.1549 223.038 91.0469C223.398 90.9269 223.662 90.7649 223.83 90.5609C223.998 90.3569 224.082 90.1229 224.082 89.8589C224.082 89.5229 223.95 89.2589 223.686 89.0669C223.422 88.8629 223.074 88.7009 222.642 88.5809C222.21 88.4489 221.73 88.3289 221.202 88.2209C220.686 88.1009 220.164 87.9569 219.636 87.7889C219.12 87.6209 218.646 87.4049 218.214 87.1409C217.782 86.8769 217.428 86.5289 217.152 86.0969C216.888 85.6649 216.756 85.1129 216.756 84.4409C216.756 83.7209 216.948 83.0669 217.332 82.4789C217.728 81.8789 218.316 81.4049 219.096 81.0569C219.888 80.6969 220.878 80.5169 222.066 80.5169C222.858 80.5169 223.638 80.6129 224.406 80.8049C225.174 80.9849 225.852 81.2609 226.44 81.6329L225.54 83.8469C224.952 83.5109 224.364 83.2649 223.776 83.1089C223.188 82.9409 222.612 82.8569 222.048 82.8569C221.484 82.8569 221.022 82.9229 220.662 83.0549C220.302 83.1869 220.044 83.3609 219.888 83.5769C219.732 83.7809 219.654 84.0209 219.654 84.2969C219.654 84.6209 219.786 84.8849 220.05 85.0889C220.314 85.2809 220.662 85.4369 221.094 85.5569C221.526 85.6769 222 85.7969 222.516 85.9169C223.044 86.0369 223.566 86.1749 224.082 86.3309C224.61 86.4869 225.09 86.6969 225.522 86.9609C225.954 87.2249 226.302 87.5729 226.566 88.0049C226.842 88.4369 226.98 88.9829 226.98 89.6429C226.98 90.3509 226.782 90.9989 226.386 91.5869C225.99 92.1749 225.396 92.6489 224.604 93.0089C223.824 93.3689 222.834 93.5489 221.634 93.5489ZM234.913 93.3329V80.7329H237.829V93.3329H234.913ZM246.759 93.3329V80.7329H249.171L256.605 89.8049H255.435V80.7329H258.315V93.3329H255.921L248.469 84.2609H249.639V93.3329H246.759ZM273.266 93.5489C272.294 93.5489 271.388 93.3929 270.548 93.0809C269.72 92.7569 269 92.3009 268.388 91.7129C267.776 91.1249 267.296 90.4349 266.948 89.6429C266.612 88.8509 266.444 87.9809 266.444 87.0329C266.444 86.0849 266.612 85.2149 266.948 84.4229C267.296 83.6309 267.776 82.9409 268.388 82.3529C269.012 81.7649 269.738 81.3149 270.566 81.0029C271.394 80.6789 272.3 80.5169 273.284 80.5169C274.376 80.5169 275.36 80.7089 276.236 81.0929C277.124 81.4649 277.868 82.0169 278.468 82.7489L276.596 84.4769C276.164 83.9849 275.684 83.6189 275.156 83.3789C274.628 83.1269 274.052 83.0009 273.428 83.0009C272.84 83.0009 272.3 83.0969 271.808 83.2889C271.316 83.4809 270.89 83.7569 270.53 84.1169C270.17 84.4769 269.888 84.9029 269.684 85.3949C269.492 85.8869 269.396 86.4329 269.396 87.0329C269.396 87.6329 269.492 88.1789 269.684 88.6709C269.888 89.1629 270.17 89.5889 270.53 89.9489C270.89 90.3089 271.316 90.5849 271.808 90.7769C272.3 90.9689 272.84 91.0649 273.428 91.0649C274.052 91.0649 274.628 90.9449 275.156 90.7049C275.684 90.4529 276.164 90.0749 276.596 89.5709L278.468 91.2989C277.868 92.0309 277.124 92.5889 276.236 92.9729C275.36 93.3569 274.37 93.5489 273.266 93.5489ZM289.059 85.8089H295.125V88.0769H289.059V85.8089ZM289.275 90.9929H296.133V93.3329H286.377V80.7329H295.899V83.0729H289.275V90.9929ZM305.433 93.4769C304.953 93.4769 304.539 93.3149 304.191 92.9909C303.855 92.6549 303.687 92.2289 303.687 91.7129C303.687 91.1969 303.855 90.7829 304.191 90.4709C304.539 90.1469 304.953 89.9849 305.433 89.9849C305.925 89.9849 306.339 90.1469 306.675 90.4709C307.011 90.7829 307.179 91.1969 307.179 91.7129C307.179 92.2289 307.011 92.6549 306.675 92.9909C306.339 93.3149 305.925 93.4769 305.433 93.4769ZM314.496 93.3329V91.4429L319.356 86.8529C319.74 86.5049 320.022 86.1929 320.202 85.9169C320.382 85.6409 320.502 85.3889 320.562 85.1609C320.634 84.9329 320.67 84.7229 320.67 84.5309C320.67 84.0269 320.496 83.6429 320.148 83.3789C319.812 83.1029 319.314 82.9649 318.654 82.9649C318.126 82.9649 317.634 83.0669 317.178 83.2709C316.734 83.4749 316.356 83.7929 316.044 84.2249L313.92 82.8569C314.4 82.1369 315.072 81.5669 315.936 81.1469C316.8 80.7269 317.796 80.5169 318.924 80.5169C319.86 80.5169 320.676 80.6729 321.372 80.9849C322.08 81.2849 322.626 81.7109 323.01 82.2629C323.406 82.8149 323.604 83.4749 323.604 84.2429C323.604 84.6509 323.55 85.0589 323.442 85.4669C323.346 85.8629 323.142 86.2829 322.83 86.7269C322.53 87.1709 322.086 87.6689 321.498 88.2209L317.466 92.0189L316.908 90.9569H324.018V93.3329H314.496ZM336.561 93.5489C335.529 93.5489 334.605 93.2969 333.789 92.7929C332.973 92.2769 332.331 91.5329 331.863 90.5609C331.395 89.5889 331.161 88.4129 331.161 87.0329C331.161 85.6529 331.395 84.4769 331.863 83.5049C332.331 82.5329 332.973 81.7949 333.789 81.2909C334.605 80.7749 335.529 80.5169 336.561 80.5169C337.605 80.5169 338.529 80.7749 339.333 81.2909C340.149 81.7949 340.791 82.5329 341.259 83.5049C341.727 84.4769 341.961 85.6529 341.961 87.0329C341.961 88.4129 341.727 89.5889 341.259 90.5609C340.791 91.5329 340.149 92.2769 339.333 92.7929C338.529 93.2969 337.605 93.5489 336.561 93.5489ZM336.561 91.0829C337.053 91.0829 337.479 90.9449 337.839 90.6689C338.211 90.3929 338.499 89.9549 338.703 89.3549C338.919 88.7549 339.027 87.9809 339.027 87.0329C339.027 86.0849 338.919 85.3109 338.703 84.7109C338.499 84.1109 338.211 83.6729 337.839 83.3969C337.479 83.1209 337.053 82.9829 336.561 82.9829C336.081 82.9829 335.655 83.1209 335.283 83.3969C334.923 83.6729 334.635 84.1109 334.419 84.7109C334.215 85.3109 334.113 86.0849 334.113 87.0329C334.113 87.9809 334.215 88.7549 334.419 89.3549C334.635 89.9549 334.923 90.3929 335.283 90.6689C335.655 90.9449 336.081 91.0829 336.561 91.0829ZM351.191 93.3329V81.8129L352.451 83.0729H348.671V80.7329H354.107V93.3329H351.191ZM366.52 93.5489C365.644 93.5489 364.774 93.4349 363.91 93.2069C363.058 92.9669 362.326 92.6309 361.714 92.1989L362.866 89.9669C363.346 90.3149 363.898 90.5909 364.522 90.7949C365.158 90.9989 365.8 91.1009 366.448 91.1009C367.18 91.1009 367.756 90.9569 368.176 90.6689C368.596 90.3809 368.806 89.9789 368.806 89.4629C368.806 89.1389 368.722 88.8509 368.554 88.5989C368.386 88.3469 368.086 88.1549 367.654 88.0229C367.234 87.8909 366.64 87.8249 365.872 87.8249H362.65L363.298 80.7329H370.984V83.0729H364.342L365.854 81.7409L365.404 86.7989L363.892 85.4669H366.556C367.804 85.4669 368.806 85.6409 369.562 85.9889C370.33 86.3249 370.888 86.7869 371.236 87.3749C371.584 87.9629 371.758 88.6289 371.758 89.3729C371.758 90.1169 371.572 90.8069 371.2 91.4429C370.828 92.0669 370.252 92.5769 369.472 92.9729C368.704 93.3569 367.72 93.5489 366.52 93.5489Z" fill="#010101"/>
<path d="M5.81 68.3329V19.3329H29.75C35.91 19.3329 40.53 20.4996 43.61 22.8329C46.7367 25.1663 48.3 28.2463 48.3 32.0729C48.3 34.6396 47.67 36.8796 46.41 38.7929C45.15 40.6596 43.4233 42.1063 41.23 43.1329C39.0367 44.1596 36.5167 44.6729 33.67 44.6729L35 41.8029C38.08 41.8029 40.81 42.3163 43.19 43.3429C45.57 44.3229 47.4133 45.7929 48.72 47.7529C50.0733 49.7129 50.75 52.1163 50.75 54.9629C50.75 59.1629 49.0933 62.4529 45.78 64.8329C42.4667 67.1663 37.59 68.3329 31.15 68.3329H5.81ZM17.08 59.7929H30.31C33.25 59.7929 35.4667 59.3263 36.96 58.3929C38.5 57.4129 39.27 55.8729 39.27 53.7729C39.27 51.7196 38.5 50.2029 36.96 49.2229C35.4667 48.1963 33.25 47.6829 30.31 47.6829H16.24V39.4229H28.35C31.1033 39.4229 33.2033 38.9563 34.65 38.0229C36.1433 37.0429 36.89 35.5729 36.89 33.6129C36.89 31.6996 36.1433 30.2763 34.65 29.3429C33.2033 28.3629 31.1033 27.8729 28.35 27.8729H17.08V59.7929Z" fill="black"/>
<rect x="6" y="80.3329" width="198" height="2" fill="black"/>
<rect x="6" y="86.3329" width="198" height="2" fill="black"/>
<rect x="6" y="92.3329" width="198" height="2" fill="black"/>
<path d="M168.5 24.2647L176 50.8321C189.667 24.9987 230.4 -17.9323 274 8.06765C257 -1.09907 209.6 5.53203 174 70.332L159 24.2647H168.5Z" fill="#A0C402"/>
</svg>
