<svg width="378" height="100" viewBox="0 0 378 100" fill="none" xmlns="http://www.w3.org/2000/svg">
<path d="M77.8895 67.7527C73.9228 67.7527 70.4228 66.9361 67.3895 65.3027C64.4028 63.6694 62.0695 61.4294 60.3895 58.5827C58.7562 55.7361 57.9395 52.4694 57.9395 48.7827C57.9395 45.0961 58.7328 41.8294 60.3195 38.9827C61.9528 36.1361 64.1695 33.9194 66.9695 32.3327C69.8162 30.6994 73.0128 29.8827 76.5595 29.8827C80.1528 29.8827 83.3262 30.6761 86.0795 32.2627C88.8328 33.8494 90.9795 36.0894 92.5195 38.9827C94.1062 41.8294 94.8995 45.1661 94.8995 48.9927C94.8995 49.2727 94.8762 49.5994 94.8295 49.9727C94.8295 50.3461 94.8062 50.6961 94.7595 51.0227H63.1895V46.1927H91.2595L88.5295 47.8727C88.5762 45.4927 88.0862 43.3694 87.0595 41.5027C86.0328 39.6361 84.6095 38.1894 82.7895 37.1627C81.0162 36.0894 78.9395 35.5527 76.5595 35.5527C74.2262 35.5527 72.1495 36.0894 70.3295 37.1627C68.5095 38.1894 67.0862 39.6594 66.0595 41.5727C65.0328 43.4394 64.5195 45.5861 64.5195 48.0127V49.1327C64.5195 51.6061 65.0795 53.8227 66.1995 55.7827C67.3662 57.6961 68.9762 59.1894 71.0295 60.2627C73.0828 61.3361 75.4395 61.8727 78.0995 61.8727C80.2928 61.8727 82.2762 61.4994 84.0495 60.7527C85.8695 60.0061 87.4562 58.8861 88.8095 57.3927L92.5195 61.7327C90.8395 63.6927 88.7395 65.1861 86.2195 66.2127C83.7462 67.2394 80.9695 67.7527 77.8895 67.7527ZM104.23 67.3327V15.3927H110.95V67.3327H104.23ZM139.671 67.7527C135.938 67.7527 132.624 66.9361 129.731 65.3027C126.838 63.6694 124.551 61.4294 122.871 58.5827C121.191 55.6894 120.351 52.4227 120.351 48.7827C120.351 45.0961 121.191 41.8294 122.871 38.9827C124.551 36.1361 126.838 33.9194 129.731 32.3327C132.624 30.6994 135.938 29.8827 139.671 29.8827C143.358 29.8827 146.648 30.6994 149.541 32.3327C152.481 33.9194 154.768 36.1361 156.401 38.9827C158.081 41.7827 158.921 45.0494 158.921 48.7827C158.921 52.4694 158.081 55.7361 156.401 58.5827C154.768 61.4294 152.481 63.6694 149.541 65.3027C146.648 66.9361 143.358 67.7527 139.671 67.7527ZM139.671 61.8727C142.051 61.8727 144.174 61.3361 146.041 60.2627C147.954 59.1894 149.448 57.6727 150.521 55.7127C151.594 53.7061 152.131 51.3961 152.131 48.7827C152.131 46.1227 151.594 43.8361 150.521 41.9227C149.448 39.9627 147.954 38.4461 146.041 37.3727C144.174 36.2994 142.051 35.7627 139.671 35.7627C137.291 35.7627 135.168 36.2994 133.301 37.3727C131.434 38.4461 129.941 39.9627 128.821 41.9227C127.701 43.8361 127.141 46.1227 127.141 48.7827C127.141 51.3961 127.701 53.7061 128.821 55.7127C129.941 57.6727 131.434 59.1894 133.301 60.2627C135.168 61.3361 137.291 61.8727 139.671 61.8727ZM222.332 67.7527C218.366 67.7527 214.866 66.9361 211.832 65.3027C208.846 63.6694 206.512 61.4294 204.832 58.5827C203.199 55.7361 202.382 52.4694 202.382 48.7827C202.382 45.0961 203.176 41.8294 204.762 38.9827C206.396 36.1361 208.612 33.9194 211.412 32.3327C214.259 30.6994 217.456 29.8827 221.002 29.8827C224.596 29.8827 227.769 30.6761 230.522 32.2627C233.276 33.8494 235.422 36.0894 236.962 38.9827C238.549 41.8294 239.342 45.1661 239.342 48.9927C239.342 49.2727 239.319 49.5994 239.272 49.9727C239.272 50.3461 239.249 50.6961 239.202 51.0227H207.632V46.1927H235.702L232.972 47.8727C233.019 45.4927 232.529 43.3694 231.502 41.5027C230.476 39.6361 229.052 38.1894 227.232 37.1627C225.459 36.0894 223.382 35.5527 221.002 35.5527C218.669 35.5527 216.592 36.0894 214.772 37.1627C212.952 38.1894 211.529 39.6594 210.502 41.5727C209.476 43.4394 208.962 45.5861 208.962 48.0127V49.1327C208.962 51.6061 209.522 53.8227 210.642 55.7827C211.809 57.6961 213.419 59.1894 215.472 60.2627C217.526 61.3361 219.882 61.8727 222.542 61.8727C224.736 61.8727 226.719 61.4994 228.492 60.7527C230.312 60.0061 231.899 58.8861 233.252 57.3927L236.962 61.7327C235.282 63.6927 233.182 65.1861 230.662 66.2127C228.189 67.2394 225.412 67.7527 222.332 67.7527ZM259.314 67.7527C256.234 67.7527 253.294 67.3327 250.494 66.4927C247.74 65.6527 245.57 64.6261 243.984 63.4127L246.784 58.0927C248.37 59.1661 250.33 60.0761 252.664 60.8227C254.997 61.5694 257.377 61.9427 259.804 61.9427C262.93 61.9427 265.17 61.4994 266.524 60.6127C267.924 59.7261 268.624 58.4894 268.624 56.9027C268.624 55.7361 268.204 54.8261 267.364 54.1727C266.524 53.5194 265.404 53.0294 264.004 52.7027C262.65 52.3761 261.134 52.0961 259.454 51.8627C257.774 51.5827 256.094 51.2561 254.414 50.8827C252.734 50.4627 251.194 49.9027 249.794 49.2027C248.394 48.4561 247.274 47.4527 246.434 46.1927C245.594 44.8861 245.174 43.1594 245.174 41.0127C245.174 38.7727 245.804 36.8127 247.064 35.1327C248.324 33.4527 250.097 32.1694 252.384 31.2827C254.717 30.3494 257.47 29.8827 260.644 29.8827C263.07 29.8827 265.52 30.1861 267.994 30.7927C270.514 31.3527 272.567 32.1694 274.154 33.2427L271.284 38.5627C269.604 37.4427 267.854 36.6727 266.034 36.2527C264.214 35.8327 262.394 35.6227 260.574 35.6227C257.634 35.6227 255.44 36.1127 253.994 37.0927C252.547 38.0261 251.824 39.2394 251.824 40.7327C251.824 41.9927 252.244 42.9727 253.084 43.6727C253.97 44.3261 255.09 44.8394 256.444 45.2127C257.844 45.5861 259.384 45.9127 261.064 46.1927C262.744 46.4261 264.424 46.7527 266.104 47.1727C267.784 47.5461 269.3 48.0827 270.654 48.7827C272.054 49.4827 273.174 50.4627 274.014 51.7227C274.9 52.9827 275.344 54.6627 275.344 56.7627C275.344 59.0027 274.69 60.9394 273.384 62.5727C272.077 64.2061 270.234 65.4894 267.854 66.4227C265.474 67.3094 262.627 67.7527 259.314 67.7527ZM299.632 67.7527C295.899 67.7527 292.585 66.9361 289.692 65.3027C286.799 63.6694 284.512 61.4294 282.832 58.5827C281.152 55.6894 280.312 52.4227 280.312 48.7827C280.312 45.0961 281.152 41.8294 282.832 38.9827C284.512 36.1361 286.799 33.9194 289.692 32.3327C292.585 30.6994 295.899 29.8827 299.632 29.8827C303.319 29.8827 306.609 30.6994 309.502 32.3327C312.442 33.9194 314.729 36.1361 316.362 38.9827C318.042 41.7827 318.882 45.0494 318.882 48.7827C318.882 52.4694 318.042 55.7361 316.362 58.5827C314.729 61.4294 312.442 63.6694 309.502 65.3027C306.609 66.9361 303.319 67.7527 299.632 67.7527ZM299.632 61.8727C302.012 61.8727 304.135 61.3361 306.002 60.2627C307.915 59.1894 309.409 57.6727 310.482 55.7127C311.555 53.7061 312.092 51.3961 312.092 48.7827C312.092 46.1227 311.555 43.8361 310.482 41.9227C309.409 39.9627 307.915 38.4461 306.002 37.3727C304.135 36.2994 302.012 35.7627 299.632 35.7627C297.252 35.7627 295.129 36.2994 293.262 37.3727C291.395 38.4461 289.902 39.9627 288.782 41.9227C287.662 43.8361 287.102 46.1227 287.102 48.7827C287.102 51.3961 287.662 53.7061 288.782 55.7127C289.902 57.6727 291.395 59.1894 293.262 60.2627C295.129 61.3361 297.252 61.8727 299.632 61.8727ZM329.156 67.3327V26.9427C329.156 23.3027 330.206 20.4094 332.306 18.2627C334.452 16.0694 337.486 14.9727 341.406 14.9727C342.852 14.9727 344.229 15.1594 345.536 15.5327C346.889 15.8594 348.032 16.3961 348.966 17.1427L346.936 22.2527C346.236 21.6927 345.442 21.2727 344.556 20.9927C343.669 20.6661 342.736 20.5027 341.756 20.5027C339.796 20.5027 338.302 21.0627 337.276 22.1827C336.249 23.2561 335.736 24.8661 335.736 27.0127V31.9827L335.876 35.0627V67.3327H329.156ZM322.856 35.7627V30.2327H346.516V35.7627H322.856ZM365.593 67.7527C361.86 67.7527 358.967 66.7494 356.913 64.7427C354.86 62.7361 353.833 59.8661 353.833 56.1327V22.1127H360.553V55.8527C360.553 57.8594 361.043 59.3994 362.023 60.4727C363.05 61.5461 364.497 62.0827 366.363 62.0827C368.463 62.0827 370.213 61.4994 371.613 60.3327L373.713 65.1627C372.687 66.0494 371.45 66.7027 370.003 67.1227C368.603 67.5427 367.133 67.7527 365.593 67.7527ZM347.533 35.7627V30.2327H371.193V35.7627H347.533Z" fill="white"/>
<path d="M374 78.332H211V96.332H374V78.332Z" fill="#A0C402"/>
<path d="M221.634 93.5476C220.626 93.5476 219.66 93.4156 218.736 93.1516C217.812 92.8756 217.068 92.5216 216.504 92.0896L217.494 89.8936C218.034 90.2776 218.67 90.5956 219.402 90.8476C220.146 91.0876 220.896 91.2076 221.652 91.2076C222.228 91.2076 222.69 91.1536 223.038 91.0456C223.398 90.9256 223.662 90.7636 223.83 90.5596C223.998 90.3556 224.082 90.1216 224.082 89.8576C224.082 89.5216 223.95 89.2576 223.686 89.0656C223.422 88.8616 223.074 88.6996 222.642 88.5796C222.21 88.4476 221.73 88.3276 221.202 88.2196C220.686 88.0996 220.164 87.9556 219.636 87.7876C219.12 87.6196 218.646 87.4036 218.214 87.1396C217.782 86.8756 217.428 86.5276 217.152 86.0956C216.888 85.6636 216.756 85.1116 216.756 84.4396C216.756 83.7196 216.948 83.0656 217.332 82.4776C217.728 81.8776 218.316 81.4036 219.096 81.0556C219.888 80.6956 220.878 80.5156 222.066 80.5156C222.858 80.5156 223.638 80.6116 224.406 80.8036C225.174 80.9836 225.852 81.2596 226.44 81.6316L225.54 83.8456C224.952 83.5096 224.364 83.2636 223.776 83.1076C223.188 82.9396 222.612 82.8556 222.048 82.8556C221.484 82.8556 221.022 82.9216 220.662 83.0536C220.302 83.1856 220.044 83.3596 219.888 83.5756C219.732 83.7796 219.654 84.0196 219.654 84.2956C219.654 84.6196 219.786 84.8836 220.05 85.0876C220.314 85.2796 220.662 85.4356 221.094 85.5556C221.526 85.6756 222 85.7956 222.516 85.9156C223.044 86.0356 223.566 86.1736 224.082 86.3296C224.61 86.4856 225.09 86.6956 225.522 86.9596C225.954 87.2236 226.302 87.5716 226.566 88.0036C226.842 88.4356 226.98 88.9816 226.98 89.6416C226.98 90.3496 226.782 90.9976 226.386 91.5856C225.99 92.1736 225.396 92.6476 224.604 93.0076C223.824 93.3676 222.834 93.5476 221.634 93.5476ZM234.913 93.3316V80.7316H237.829V93.3316H234.913ZM246.759 93.3316V80.7316H249.171L256.605 89.8036H255.435V80.7316H258.315V93.3316H255.921L248.469 84.2596H249.639V93.3316H246.759ZM273.266 93.5476C272.294 93.5476 271.388 93.3916 270.548 93.0796C269.72 92.7556 269 92.2996 268.388 91.7116C267.776 91.1236 267.296 90.4336 266.948 89.6416C266.612 88.8496 266.444 87.9796 266.444 87.0316C266.444 86.0836 266.612 85.2136 266.948 84.4216C267.296 83.6296 267.776 82.9396 268.388 82.3516C269.012 81.7636 269.738 81.3136 270.566 81.0016C271.394 80.6776 272.3 80.5156 273.284 80.5156C274.376 80.5156 275.36 80.7076 276.236 81.0916C277.124 81.4636 277.868 82.0156 278.468 82.7476L276.596 84.4756C276.164 83.9836 275.684 83.6176 275.156 83.3776C274.628 83.1256 274.052 82.9996 273.428 82.9996C272.84 82.9996 272.3 83.0956 271.808 83.2876C271.316 83.4796 270.89 83.7556 270.53 84.1156C270.17 84.4756 269.888 84.9016 269.684 85.3936C269.492 85.8856 269.396 86.4316 269.396 87.0316C269.396 87.6316 269.492 88.1776 269.684 88.6696C269.888 89.1616 270.17 89.5876 270.53 89.9476C270.89 90.3076 271.316 90.5836 271.808 90.7756C272.3 90.9676 272.84 91.0636 273.428 91.0636C274.052 91.0636 274.628 90.9436 275.156 90.7036C275.684 90.4516 276.164 90.0736 276.596 89.5696L278.468 91.2976C277.868 92.0296 277.124 92.5876 276.236 92.9716C275.36 93.3556 274.37 93.5476 273.266 93.5476ZM289.059 85.8076H295.125V88.0756H289.059V85.8076ZM289.275 90.9916H296.133V93.3316H286.377V80.7316H295.899V83.0716H289.275V90.9916ZM305.433 93.4756C304.953 93.4756 304.539 93.3136 304.191 92.9896C303.855 92.6536 303.687 92.2276 303.687 91.7116C303.687 91.1956 303.855 90.7816 304.191 90.4696C304.539 90.1456 304.953 89.9836 305.433 89.9836C305.925 89.9836 306.339 90.1456 306.675 90.4696C307.011 90.7816 307.179 91.1956 307.179 91.7116C307.179 92.2276 307.011 92.6536 306.675 92.9896C306.339 93.3136 305.925 93.4756 305.433 93.4756ZM314.496 93.3316V91.4416L319.356 86.8516C319.74 86.5036 320.022 86.1916 320.202 85.9156C320.382 85.6396 320.502 85.3876 320.562 85.1596C320.634 84.9316 320.67 84.7216 320.67 84.5296C320.67 84.0256 320.496 83.6416 320.148 83.3776C319.812 83.1016 319.314 82.9636 318.654 82.9636C318.126 82.9636 317.634 83.0656 317.178 83.2696C316.734 83.4736 316.356 83.7916 316.044 84.2236L313.92 82.8556C314.4 82.1356 315.072 81.5656 315.936 81.1456C316.8 80.7256 317.796 80.5156 318.924 80.5156C319.86 80.5156 320.676 80.6716 321.372 80.9836C322.08 81.2836 322.626 81.7096 323.01 82.2616C323.406 82.8136 323.604 83.4736 323.604 84.2416C323.604 84.6496 323.55 85.0576 323.442 85.4656C323.346 85.8616 323.142 86.2816 322.83 86.7256C322.53 87.1696 322.086 87.6676 321.498 88.2196L317.466 92.0176L316.908 90.9556H324.018V93.3316H314.496ZM336.561 93.5476C335.529 93.5476 334.605 93.2956 333.789 92.7916C332.973 92.2756 332.331 91.5316 331.863 90.5596C331.395 89.5876 331.161 88.4116 331.161 87.0316C331.161 85.6516 331.395 84.4756 331.863 83.5036C332.331 82.5316 332.973 81.7936 333.789 81.2896C334.605 80.7736 335.529 80.5156 336.561 80.5156C337.605 80.5156 338.529 80.7736 339.333 81.2896C340.149 81.7936 340.791 82.5316 341.259 83.5036C341.727 84.4756 341.961 85.6516 341.961 87.0316C341.961 88.4116 341.727 89.5876 341.259 90.5596C340.791 91.5316 340.149 92.2756 339.333 92.7916C338.529 93.2956 337.605 93.5476 336.561 93.5476ZM336.561 91.0816C337.053 91.0816 337.479 90.9436 337.839 90.6676C338.211 90.3916 338.499 89.9536 338.703 89.3536C338.919 88.7536 339.027 87.9796 339.027 87.0316C339.027 86.0836 338.919 85.3096 338.703 84.7096C338.499 84.1096 338.211 83.6716 337.839 83.3956C337.479 83.1196 337.053 82.9816 336.561 82.9816C336.081 82.9816 335.655 83.1196 335.283 83.3956C334.923 83.6716 334.635 84.1096 334.419 84.7096C334.215 85.3096 334.113 86.0836 334.113 87.0316C334.113 87.9796 334.215 88.7536 334.419 89.3536C334.635 89.9536 334.923 90.3916 335.283 90.6676C335.655 90.9436 336.081 91.0816 336.561 91.0816ZM351.191 93.3316V81.8116L352.451 83.0716H348.671V80.7316H354.107V93.3316H351.191ZM366.52 93.5476C365.644 93.5476 364.774 93.4336 363.91 93.2056C363.058 92.9656 362.326 92.6296 361.714 92.1976L362.866 89.9656C363.346 90.3136 363.898 90.5896 364.522 90.7936C365.158 90.9976 365.8 91.0996 366.448 91.0996C367.18 91.0996 367.756 90.9556 368.176 90.6676C368.596 90.3796 368.806 89.9776 368.806 89.4616C368.806 89.1376 368.722 88.8496 368.554 88.5976C368.386 88.3456 368.086 88.1536 367.654 88.0216C367.234 87.8896 366.64 87.8236 365.872 87.8236H362.65L363.298 80.7316H370.984V83.0716H364.342L365.854 81.7396L365.404 86.7976L363.892 85.4656H366.556C367.804 85.4656 368.806 85.6396 369.562 85.9876C370.33 86.3236 370.888 86.7856 371.236 87.3736C371.584 87.9616 371.758 88.6276 371.758 89.3716C371.758 90.1156 371.572 90.8056 371.2 91.4416C370.828 92.0656 370.252 92.5756 369.472 92.9716C368.704 93.3556 367.72 93.5476 366.52 93.5476Z" fill="#010101"/>
<path d="M5.81055 68.332V19.332H29.7505C35.9105 19.332 40.5305 20.4987 43.6105 22.832C46.7372 25.1654 48.3005 28.2454 48.3005 32.072C48.3005 34.6387 47.6705 36.8787 46.4105 38.792C45.1505 40.6587 43.4238 42.1054 41.2305 43.132C39.0372 44.1587 36.5172 44.672 33.6705 44.672L35.0005 41.802C38.0805 41.802 40.8105 42.3154 43.1905 43.342C45.5705 44.322 47.4138 45.792 48.7205 47.752C50.0738 49.712 50.7505 52.1154 50.7505 54.962C50.7505 59.162 49.0938 62.452 45.7805 64.832C42.4672 67.1654 37.5905 68.332 31.1505 68.332H5.81055ZM17.0805 59.792H30.3105C33.2505 59.792 35.4672 59.3254 36.9605 58.392C38.5005 57.412 39.2705 55.872 39.2705 53.772C39.2705 51.7187 38.5005 50.202 36.9605 49.222C35.4672 48.1954 33.2505 47.682 30.3105 47.682H16.2405V39.422H28.3505C31.1038 39.422 33.2038 38.9554 34.6505 38.022C36.1438 37.042 36.8905 35.572 36.8905 33.612C36.8905 31.6987 36.1438 30.2754 34.6505 29.342C33.2038 28.362 31.1038 27.872 28.3505 27.872H17.0805V59.792Z" fill="white"/>
<path d="M204 80.332H6V82.332H204V80.332Z" fill="white"/>
<path d="M204 86.332H6V88.332H204V86.332Z" fill="white"/>
<path d="M204 92.332H6V94.332H204V92.332Z" fill="white"/>
<path d="M168.5 24.2647L176 50.8321C189.667 24.9987 230.4 -17.9323 274 8.06764C257 -1.09908 209.6 5.53201 174 70.332L159 24.2647H168.5Z" fill="#A0C402"/>
</svg>
