<svg width="378" height="97" viewBox="0 0 378 97" fill="none" xmlns="http://www.w3.org/2000/svg">
<path d="M77.89 69.3516C73.9233 69.3516 70.4233 68.535 67.39 66.9016C64.4033 65.2683 62.07 63.0283 60.39 60.1816C58.7567 57.335 57.94 54.0683 57.94 50.3816C57.94 46.695 58.7333 43.4283 60.32 40.5816C61.9533 37.735 64.17 35.5183 66.97 33.9316C69.8167 32.2983 73.0133 31.4816 76.56 31.4816C80.1533 31.4816 83.3267 32.275 86.08 33.8616C88.8333 35.4483 90.98 37.6883 92.52 40.5816C94.1067 43.4283 94.9 46.765 94.9 50.5916C94.9 50.8716 94.8767 51.1983 94.83 51.5716C94.83 51.945 94.8067 52.295 94.76 52.6216H63.19V47.7916H91.26L88.53 49.4716C88.5767 47.0916 88.0867 44.9683 87.06 43.1016C86.0333 41.235 84.61 39.7883 82.79 38.7616C81.0167 37.6883 78.94 37.1516 76.56 37.1516C74.2267 37.1516 72.15 37.6883 70.33 38.7616C68.51 39.7883 67.0867 41.2583 66.06 43.1716C65.0333 45.0383 64.52 47.185 64.52 49.6116V50.7316C64.52 53.205 65.08 55.4216 66.2 57.3816C67.3667 59.295 68.9767 60.7883 71.03 61.8616C73.0833 62.935 75.44 63.4716 78.1 63.4716C80.2933 63.4716 82.2767 63.0983 84.05 62.3516C85.87 61.605 87.4567 60.485 88.81 58.9916L92.52 63.3316C90.84 65.2916 88.74 66.785 86.22 67.8116C83.7467 68.8383 80.97 69.3516 77.89 69.3516ZM104.231 68.9316V16.9916H110.951V68.9316H104.231ZM139.672 69.3516C135.939 69.3516 132.625 68.535 129.732 66.9016C126.839 65.2683 124.552 63.0283 122.872 60.1816C121.192 57.2883 120.352 54.0216 120.352 50.3816C120.352 46.695 121.192 43.4283 122.872 40.5816C124.552 37.735 126.839 35.5183 129.732 33.9316C132.625 32.2983 135.939 31.4816 139.672 31.4816C143.359 31.4816 146.649 32.2983 149.542 33.9316C152.482 35.5183 154.769 37.735 156.402 40.5816C158.082 43.3816 158.922 46.6483 158.922 50.3816C158.922 54.0683 158.082 57.335 156.402 60.1816C154.769 63.0283 152.482 65.2683 149.542 66.9016C146.649 68.535 143.359 69.3516 139.672 69.3516ZM139.672 63.4716C142.052 63.4716 144.175 62.935 146.042 61.8616C147.955 60.7883 149.449 59.2716 150.522 57.3116C151.595 55.305 152.132 52.995 152.132 50.3816C152.132 47.7216 151.595 45.435 150.522 43.5216C149.449 41.5616 147.955 40.045 146.042 38.9716C144.175 37.8983 142.052 37.3616 139.672 37.3616C137.292 37.3616 135.169 37.8983 133.302 38.9716C131.435 40.045 129.942 41.5616 128.822 43.5216C127.702 45.435 127.142 47.7216 127.142 50.3816C127.142 52.995 127.702 55.305 128.822 57.3116C129.942 59.2716 131.435 60.7883 133.302 61.8616C135.169 62.935 137.292 63.4716 139.672 63.4716ZM222.333 69.3516C218.367 69.3516 214.867 68.535 211.833 66.9016C208.847 65.2683 206.513 63.0283 204.833 60.1816C203.2 57.335 202.383 54.0683 202.383 50.3816C202.383 46.695 203.177 43.4283 204.763 40.5816C206.397 37.735 208.613 35.5183 211.413 33.9316C214.26 32.2983 217.457 31.4816 221.003 31.4816C224.597 31.4816 227.77 32.275 230.523 33.8616C233.277 35.4483 235.423 37.6883 236.963 40.5816C238.55 43.4283 239.343 46.765 239.343 50.5916C239.343 50.8716 239.32 51.1983 239.273 51.5716C239.273 51.945 239.25 52.295 239.203 52.6216H207.633V47.7916H235.703L232.973 49.4716C233.02 47.0916 232.53 44.9683 231.503 43.1016C230.477 41.235 229.053 39.7883 227.233 38.7616C225.46 37.6883 223.383 37.1516 221.003 37.1516C218.67 37.1516 216.593 37.6883 214.773 38.7616C212.953 39.7883 211.53 41.2583 210.503 43.1716C209.477 45.0383 208.963 47.185 208.963 49.6116V50.7316C208.963 53.205 209.523 55.4216 210.643 57.3816C211.81 59.295 213.42 60.7883 215.473 61.8616C217.527 62.935 219.883 63.4716 222.543 63.4716C224.737 63.4716 226.72 63.0983 228.493 62.3516C230.313 61.605 231.9 60.485 233.253 58.9916L236.963 63.3316C235.283 65.2916 233.183 66.785 230.663 67.8116C228.19 68.8383 225.413 69.3516 222.333 69.3516ZM259.315 69.3516C256.235 69.3516 253.295 68.9316 250.495 68.0916C247.741 67.2516 245.571 66.225 243.985 65.0116L246.785 59.6916C248.371 60.765 250.331 61.675 252.665 62.4216C254.998 63.1683 257.378 63.5416 259.805 63.5416C262.931 63.5416 265.171 63.0983 266.525 62.2116C267.925 61.325 268.625 60.0883 268.625 58.5016C268.625 57.335 268.205 56.425 267.365 55.7716C266.525 55.1183 265.405 54.6283 264.005 54.3016C262.651 53.975 261.135 53.695 259.455 53.4616C257.775 53.1816 256.095 52.855 254.415 52.4816C252.735 52.0616 251.195 51.5016 249.795 50.8016C248.395 50.055 247.275 49.0516 246.435 47.7916C245.595 46.485 245.175 44.7583 245.175 42.6116C245.175 40.3716 245.805 38.4116 247.065 36.7316C248.325 35.0516 250.098 33.7683 252.385 32.8816C254.718 31.9483 257.471 31.4816 260.645 31.4816C263.071 31.4816 265.521 31.785 267.995 32.3916C270.515 32.9516 272.568 33.7683 274.155 34.8416L271.285 40.1616C269.605 39.0416 267.855 38.2716 266.035 37.8516C264.215 37.4316 262.395 37.2216 260.575 37.2216C257.635 37.2216 255.441 37.7116 253.995 38.6916C252.548 39.625 251.825 40.8383 251.825 42.3316C251.825 43.5916 252.245 44.5716 253.085 45.2716C253.971 45.925 255.091 46.4383 256.445 46.8116C257.845 47.185 259.385 47.5116 261.065 47.7916C262.745 48.025 264.425 48.3516 266.105 48.7716C267.785 49.145 269.301 49.6816 270.655 50.3816C272.055 51.0816 273.175 52.0616 274.015 53.3216C274.901 54.5816 275.345 56.2616 275.345 58.3616C275.345 60.6016 274.691 62.5383 273.385 64.1716C272.078 65.805 270.235 67.0883 267.855 68.0216C265.475 68.9083 262.628 69.3516 259.315 69.3516ZM299.633 69.3516C295.9 69.3516 292.586 68.535 289.693 66.9016C286.8 65.2683 284.513 63.0283 282.833 60.1816C281.153 57.2883 280.313 54.0216 280.313 50.3816C280.313 46.695 281.153 43.4283 282.833 40.5816C284.513 37.735 286.8 35.5183 289.693 33.9316C292.586 32.2983 295.9 31.4816 299.633 31.4816C303.32 31.4816 306.61 32.2983 309.503 33.9316C312.443 35.5183 314.73 37.735 316.363 40.5816C318.043 43.3816 318.883 46.6483 318.883 50.3816C318.883 54.0683 318.043 57.335 316.363 60.1816C314.73 63.0283 312.443 65.2683 309.503 66.9016C306.61 68.535 303.32 69.3516 299.633 69.3516ZM299.633 63.4716C302.013 63.4716 304.136 62.935 306.003 61.8616C307.916 60.7883 309.41 59.2716 310.483 57.3116C311.556 55.305 312.093 52.995 312.093 50.3816C312.093 47.7216 311.556 45.435 310.483 43.5216C309.41 41.5616 307.916 40.045 306.003 38.9716C304.136 37.8983 302.013 37.3616 299.633 37.3616C297.253 37.3616 295.13 37.8983 293.263 38.9716C291.396 40.045 289.903 41.5616 288.783 43.5216C287.663 45.435 287.103 47.7216 287.103 50.3816C287.103 52.995 287.663 55.305 288.783 57.3116C289.903 59.2716 291.396 60.7883 293.263 61.8616C295.13 62.935 297.253 63.4716 299.633 63.4716ZM329.157 68.9316V28.5416C329.157 24.9016 330.207 22.0083 332.307 19.8616C334.453 17.6683 337.487 16.5716 341.407 16.5716C342.853 16.5716 344.23 16.7583 345.537 17.1316C346.89 17.4583 348.033 17.995 348.967 18.7416L346.937 23.8516C346.237 23.2916 345.443 22.8716 344.557 22.5916C343.67 22.265 342.737 22.1016 341.757 22.1016C339.797 22.1016 338.303 22.6616 337.277 23.7816C336.25 24.855 335.737 26.465 335.737 28.6116V33.5816L335.877 36.6616V68.9316H329.157ZM322.857 37.3616V31.8316H346.517V37.3616H322.857ZM365.594 69.3516C361.861 69.3516 358.968 68.3483 356.914 66.3416C354.861 64.335 353.834 61.465 353.834 57.7316V23.7116H360.554V57.4516C360.554 59.4583 361.044 60.9983 362.024 62.0716C363.051 63.145 364.498 63.6816 366.364 63.6816C368.464 63.6816 370.214 63.0983 371.614 61.9316L373.714 66.7616C372.688 67.6483 371.451 68.3016 370.004 68.7216C368.604 69.1416 367.134 69.3516 365.594 69.3516ZM347.534 37.3616V31.8316H371.194V37.3616H347.534Z" fill="black"/>
<path d="M126.909 96.1216C125.87 96.1216 124.876 95.976 123.926 95.6846C122.976 95.3806 122.222 94.9943 121.665 94.5256L122.52 92.6066C123.052 93.0246 123.711 93.373 124.496 93.6516C125.281 93.9303 126.086 94.0696 126.909 94.0696C127.606 94.0696 128.169 93.9936 128.6 93.8416C129.031 93.6896 129.347 93.487 129.55 93.2336C129.753 92.9676 129.854 92.67 129.854 92.3406C129.854 91.9353 129.708 91.6123 129.417 91.3716C129.126 91.1183 128.746 90.922 128.277 90.7826C127.821 90.6306 127.308 90.4913 126.738 90.3646C126.181 90.238 125.617 90.0923 125.047 89.9276C124.49 89.7503 123.977 89.5286 123.508 89.2626C123.052 88.984 122.678 88.6166 122.387 88.1606C122.096 87.7046 121.95 87.122 121.95 86.4126C121.95 85.6906 122.14 85.032 122.52 84.4366C122.913 83.8286 123.502 83.3473 124.287 82.9926C125.085 82.6253 126.092 82.4416 127.308 82.4416C128.106 82.4416 128.898 82.543 129.683 82.7456C130.468 82.9483 131.152 83.2396 131.735 83.6196L130.956 85.5386C130.361 85.184 129.746 84.9243 129.113 84.7596C128.48 84.5823 127.872 84.4936 127.289 84.4936C126.605 84.4936 126.048 84.576 125.617 84.7406C125.199 84.9053 124.889 85.1206 124.686 85.3866C124.496 85.6526 124.401 85.9566 124.401 86.2986C124.401 86.704 124.54 87.0333 124.819 87.2866C125.11 87.5273 125.484 87.7173 125.94 87.8566C126.409 87.996 126.928 88.1353 127.498 88.2746C128.068 88.4013 128.632 88.547 129.189 88.7116C129.759 88.8763 130.272 89.0916 130.728 89.3576C131.197 89.6236 131.57 89.9846 131.849 90.4406C132.14 90.8966 132.286 91.473 132.286 92.1696C132.286 92.879 132.09 93.5376 131.697 94.1456C131.317 94.741 130.728 95.2223 129.93 95.5896C129.132 95.9443 128.125 96.1216 126.909 96.1216ZM139.485 95.9316V82.6316H141.955V95.9316H139.485ZM150.303 95.9316V82.6316H152.336L160.677 92.8726H159.67V82.6316H162.121V95.9316H160.088L151.747 85.6906H152.754V95.9316H150.303ZM176.59 96.1216C175.577 96.1216 174.633 95.957 173.759 95.6276C172.898 95.2856 172.144 94.8106 171.498 94.2026C170.865 93.582 170.371 92.8536 170.016 92.0176C169.662 91.1816 169.484 90.2696 169.484 89.2816C169.484 88.2936 169.662 87.3816 170.016 86.5456C170.371 85.7096 170.871 84.9876 171.517 84.3796C172.163 83.759 172.917 83.284 173.778 82.9546C174.64 82.6126 175.583 82.4416 176.609 82.4416C177.699 82.4416 178.693 82.6316 179.592 83.0116C180.492 83.379 181.252 83.93 181.872 84.6646L180.276 86.1656C179.795 85.6463 179.257 85.26 178.661 85.0066C178.066 84.7406 177.42 84.6076 176.723 84.6076C176.027 84.6076 175.387 84.7216 174.804 84.9496C174.234 85.1776 173.734 85.5006 173.303 85.9186C172.885 86.3366 172.556 86.8306 172.315 87.4006C172.087 87.9706 171.973 88.5976 171.973 89.2816C171.973 89.9656 172.087 90.5926 172.315 91.1626C172.556 91.7326 172.885 92.2266 173.303 92.6446C173.734 93.0626 174.234 93.3856 174.804 93.6136C175.387 93.8416 176.027 93.9556 176.723 93.9556C177.42 93.9556 178.066 93.829 178.661 93.5756C179.257 93.3096 179.795 92.9106 180.276 92.3786L181.872 93.8986C181.252 94.6206 180.492 95.1716 179.592 95.5516C178.693 95.9316 177.692 96.1216 176.59 96.1216ZM191.269 88.1606H197.881V90.1936H191.269V88.1606ZM191.459 93.8606H198.964V95.9316H188.989V82.6316H198.698V84.7026H191.459V93.8606ZM207.185 96.0646C206.755 96.0646 206.387 95.919 206.083 95.6276C205.779 95.3236 205.627 94.9436 205.627 94.4876C205.627 94.0063 205.779 93.6263 206.083 93.3476C206.387 93.0563 206.755 92.9106 207.185 92.9106C207.616 92.9106 207.983 93.0563 208.287 93.3476C208.591 93.6263 208.743 94.0063 208.743 94.4876C208.743 94.9436 208.591 95.3236 208.287 95.6276C207.983 95.919 207.616 96.0646 207.185 96.0646ZM215.106 95.9316V94.2786L220.388 89.2626C220.832 88.8446 221.161 88.4773 221.376 88.1606C221.592 87.844 221.731 87.5526 221.794 87.2866C221.87 87.008 221.908 86.7483 221.908 86.5076C221.908 85.8996 221.699 85.431 221.281 85.1016C220.863 84.7596 220.249 84.5886 219.438 84.5886C218.792 84.5886 218.203 84.7026 217.671 84.9306C217.152 85.1586 216.702 85.507 216.322 85.9756L214.593 84.6456C215.113 83.949 215.809 83.4106 216.683 83.0306C217.57 82.638 218.558 82.4416 219.647 82.4416C220.61 82.4416 221.446 82.6 222.155 82.9166C222.877 83.2206 223.428 83.6576 223.808 84.2276C224.201 84.7976 224.397 85.4753 224.397 86.2606C224.397 86.6913 224.34 87.122 224.226 87.5526C224.112 87.9706 223.897 88.414 223.58 88.8826C223.264 89.3513 222.801 89.877 222.193 90.4596L217.652 94.7726L217.139 93.8416H224.91V95.9316H215.106ZM236.634 96.1216C235.583 96.1216 234.633 95.8556 233.784 95.3236C232.948 94.7916 232.289 94.019 231.808 93.0056C231.327 91.9796 231.086 90.7383 231.086 89.2816C231.086 87.825 231.327 86.59 231.808 85.5766C232.289 84.5506 232.948 83.7716 233.784 83.2396C234.633 82.7076 235.583 82.4416 236.634 82.4416C237.698 82.4416 238.648 82.7076 239.484 83.2396C240.32 83.7716 240.979 84.5506 241.46 85.5766C241.954 86.59 242.201 87.825 242.201 89.2816C242.201 90.7383 241.954 91.9796 241.46 93.0056C240.979 94.019 240.32 94.7916 239.484 95.3236C238.648 95.8556 237.698 96.1216 236.634 96.1216ZM236.634 93.9746C237.255 93.9746 237.793 93.81 238.249 93.4806C238.705 93.1386 239.06 92.6193 239.313 91.9226C239.579 91.226 239.712 90.3456 239.712 89.2816C239.712 88.205 239.579 87.3246 239.313 86.6406C239.06 85.944 238.705 85.431 238.249 85.1016C237.793 84.7596 237.255 84.5886 236.634 84.5886C236.039 84.5886 235.507 84.7596 235.038 85.1016C234.582 85.431 234.221 85.944 233.955 86.6406C233.702 87.3246 233.575 88.205 233.575 89.2816C233.575 90.3456 233.702 91.226 233.955 91.9226C234.221 92.6193 234.582 93.1386 235.038 93.4806C235.507 93.81 236.039 93.9746 236.634 93.9746ZM250.73 95.9316V83.5816L251.813 84.7026H247.918V82.6316H253.2V95.9316H250.73ZM264.996 96.1216C264.059 96.1216 263.14 95.9886 262.241 95.7226C261.354 95.444 260.607 95.064 259.999 94.5826L261.044 92.6636C261.525 93.0563 262.108 93.373 262.792 93.6136C263.489 93.8543 264.211 93.9746 264.958 93.9746C265.832 93.9746 266.516 93.791 267.01 93.4236C267.517 93.0563 267.77 92.5623 267.77 91.9416C267.77 91.5236 267.662 91.1563 267.447 90.8396C267.244 90.523 266.877 90.2823 266.345 90.1176C265.826 89.953 265.11 89.8706 264.198 89.8706H260.987L261.671 82.6316H269.48V84.7026H262.583L263.875 83.5246L263.362 88.9396L262.07 87.7806H264.749C266.066 87.7806 267.124 87.958 267.922 88.3126C268.733 88.6546 269.322 89.136 269.689 89.7566C270.069 90.3646 270.259 91.0613 270.259 91.8466C270.259 92.6193 270.069 93.3286 269.689 93.9746C269.309 94.6206 268.726 95.14 267.941 95.5326C267.168 95.9253 266.187 96.1216 264.996 96.1216Z" fill="#040404"/>
<path d="M6.58 69.9316V20.9316H29.54C35.42 20.9316 39.9 22.0983 42.98 24.4316C46.06 26.7183 47.6 29.7983 47.6 33.6716C47.6 36.285 46.9933 38.525 45.78 40.3916C44.5667 42.2116 42.9333 43.635 40.88 44.6616C38.8733 45.6416 36.68 46.1316 34.3 46.1316L35.56 43.6116C38.3133 43.6116 40.7867 44.125 42.98 45.1516C45.1733 46.1316 46.9 47.5783 48.16 49.4916C49.4667 51.405 50.12 53.785 50.12 56.6316C50.12 60.8316 48.51 64.0983 45.29 66.4316C42.07 68.765 37.2867 69.9316 30.94 69.9316H6.58ZM15.68 62.7916H30.38C33.7867 62.7916 36.4 62.2316 38.22 61.1116C40.04 59.9916 40.95 58.195 40.95 55.7216C40.95 53.295 40.04 51.5216 38.22 50.4016C36.4 49.235 33.7867 48.6516 30.38 48.6516H14.98V41.5816H28.56C31.7333 41.5816 34.16 41.0216 35.84 39.9016C37.5667 38.7816 38.43 37.1016 38.43 34.8616C38.43 32.575 37.5667 30.8716 35.84 29.7516C34.16 28.6316 31.7333 28.0716 28.56 28.0716H15.68V62.7916Z" fill="black"/>
<path d="M168 24.9319L178.5 46.4321C192.167 20.5987 229.9 -17.2652 273.5 8.73479C256.5 -0.431933 211.1 4.63187 175.5 69.4319L158.5 24.9319H168Z" fill="#A0C402"/>
<rect x="7" y="82.9316" width="104" height="2" fill="#090909"/>
<rect x="280" y="82.9316" width="95" height="2" fill="#090909"/>
<rect x="7" y="87.9316" width="104" height="2" fill="#090909"/>
<rect x="280" y="87.9316" width="95" height="2" fill="#090909"/>
<rect x="7" y="92.9316" width="104" height="2" fill="#090909"/>
<rect x="280" y="92.9316" width="95" height="2" fill="#090909"/>
</svg>
