<svg width="321" height="96" viewBox="0 0 321 96" fill="none" xmlns="http://www.w3.org/2000/svg">
<path d="M50.3 70V35H72.8V41H56.9V49.35H71.4V55.35H56.9V64H73.1V70H50.3ZM77.9855 70V35H84.5855V64H100.586V70H77.9855ZM117.513 70.7C113.113 70.7 109.613 69.5 107.013 67.1C104.413 64.6667 103.113 61.2 103.113 56.7V48.3C103.113 43.8 104.413 40.35 107.013 37.95C109.613 35.5167 113.113 34.3 117.513 34.3C121.913 34.3 125.413 35.5167 128.013 37.95C130.613 40.35 131.913 43.8 131.913 48.3V56.7C131.913 61.2 130.613 64.6667 128.013 67.1C125.413 69.5 121.913 70.7 117.513 70.7ZM117.513 64.8C119.98 64.8 121.897 64.0833 123.263 62.65C124.63 61.2167 125.313 59.3 125.313 56.9V48.1C125.313 45.7 124.63 43.7833 123.263 42.35C121.897 40.9167 119.98 40.2 117.513 40.2C115.08 40.2 113.163 40.9167 111.763 42.35C110.397 43.7833 109.713 45.7 109.713 48.1V56.9C109.713 59.3 110.397 61.2167 111.763 62.65C113.163 64.0833 115.08 64.8 117.513 64.8ZM175.788 70V35H198.288V41H182.388V49.35H196.888V55.35H182.388V64H198.588V70H175.788ZM215.624 70.7C212.924 70.7 210.54 70.2167 208.474 69.25C206.407 68.2833 204.79 66.9 203.624 65.1C202.457 63.3 201.874 61.1333 201.874 58.6V57.2H208.374V58.6C208.374 60.7 209.024 62.2833 210.324 63.35C211.624 64.3833 213.39 64.9 215.624 64.9C217.89 64.9 219.574 64.45 220.674 63.55C221.807 62.65 222.374 61.5 222.374 60.1C222.374 59.1333 222.09 58.35 221.524 57.75C220.99 57.15 220.19 56.6667 219.124 56.3C218.09 55.9 216.824 55.5333 215.324 55.2L214.174 54.95C211.774 54.4167 209.707 53.75 207.974 52.95C206.274 52.1167 204.957 51.0333 204.024 49.7C203.124 48.3667 202.674 46.6333 202.674 44.5C202.674 42.3667 203.174 40.55 204.174 39.05C205.207 37.5167 206.64 36.35 208.474 35.55C210.34 34.7167 212.524 34.3 215.024 34.3C217.524 34.3 219.74 34.7333 221.674 35.6C223.64 36.4333 225.174 37.7 226.274 39.4C227.407 41.0667 227.974 43.1667 227.974 45.7V47.2H221.474V45.7C221.474 44.3667 221.207 43.3 220.674 42.5C220.174 41.6667 219.44 41.0667 218.474 40.7C217.507 40.3 216.357 40.1 215.024 40.1C213.024 40.1 211.54 40.4833 210.574 41.25C209.64 41.9833 209.174 43 209.174 44.3C209.174 45.1667 209.39 45.9 209.824 46.5C210.29 47.1 210.974 47.6 211.874 48C212.774 48.4 213.924 48.75 215.324 49.05L216.474 49.3C218.974 49.8333 221.14 50.5167 222.974 51.35C224.84 52.1833 226.29 53.2833 227.324 54.65C228.357 56.0167 228.874 57.7667 228.874 59.9C228.874 62.0333 228.324 63.9167 227.224 65.55C226.157 67.15 224.624 68.4167 222.624 69.35C220.657 70.25 218.324 70.7 215.624 70.7ZM247.396 70.7C242.996 70.7 239.496 69.5 236.896 67.1C234.296 64.6667 232.996 61.2 232.996 56.7V48.3C232.996 43.8 234.296 40.35 236.896 37.95C239.496 35.5167 242.996 34.3 247.396 34.3C251.796 34.3 255.296 35.5167 257.896 37.95C260.496 40.35 261.796 43.8 261.796 48.3V56.7C261.796 61.2 260.496 64.6667 257.896 67.1C255.296 69.5 251.796 70.7 247.396 70.7ZM247.396 64.8C249.863 64.8 251.779 64.0833 253.146 62.65C254.513 61.2167 255.196 59.3 255.196 56.9V48.1C255.196 45.7 254.513 43.7833 253.146 42.35C251.779 40.9167 249.863 40.2 247.396 40.2C244.963 40.2 243.046 40.9167 241.646 42.35C240.279 43.7833 239.596 45.7 239.596 48.1V56.9C239.596 59.3 240.279 61.2167 241.646 62.65C243.046 64.0833 244.963 64.8 247.396 64.8ZM267.585 70V35H289.585V41H274.185V49.45H288.385V55.45H274.185V70H267.585ZM302.394 70V41H292.194V35H319.194V41H308.994V70H302.394Z" fill="black"/>
<rect x="166" y="78" width="155" height="18" fill="#A0C402"/>
<path d="M174.562 94.252C173.59 94.252 172.732 94.078 171.988 93.73C171.244 93.382 170.662 92.884 170.242 92.236C169.822 91.588 169.612 90.808 169.612 89.896V89.392H171.952V89.896C171.952 90.652 172.186 91.222 172.654 91.606C173.122 91.978 173.758 92.164 174.562 92.164C175.378 92.164 175.984 92.002 176.38 91.678C176.788 91.354 176.992 90.94 176.992 90.436C176.992 90.088 176.89 89.806 176.686 89.59C176.494 89.374 176.206 89.2 175.822 89.068C175.45 88.924 174.994 88.792 174.454 88.672L174.04 88.582C173.176 88.39 172.432 88.15 171.808 87.862C171.196 87.562 170.722 87.172 170.386 86.692C170.062 86.212 169.9 85.588 169.9 84.82C169.9 84.052 170.08 83.398 170.44 82.858C170.812 82.306 171.328 81.886 171.988 81.598C172.66 81.298 173.446 81.148 174.346 81.148C175.246 81.148 176.044 81.304 176.74 81.616C177.448 81.916 178 82.372 178.396 82.984C178.804 83.584 179.008 84.34 179.008 85.252V85.792H176.668V85.252C176.668 84.772 176.572 84.388 176.38 84.1C176.2 83.8 175.936 83.584 175.588 83.452C175.24 83.308 174.826 83.236 174.346 83.236C173.626 83.236 173.092 83.374 172.744 83.65C172.408 83.914 172.24 84.28 172.24 84.748C172.24 85.06 172.318 85.324 172.474 85.54C172.642 85.756 172.888 85.936 173.212 86.08C173.536 86.224 173.95 86.35 174.454 86.458L174.868 86.548C175.768 86.74 176.548 86.986 177.208 87.286C177.88 87.586 178.402 87.982 178.774 88.474C179.146 88.966 179.332 89.596 179.332 90.364C179.332 91.132 179.134 91.81 178.738 92.398C178.354 92.974 177.802 93.43 177.082 93.766C176.374 94.09 175.534 94.252 174.562 94.252ZM187.044 94V81.4H189.42V94H187.044ZM197.73 94V81.4H202.248L204.75 92.38H205.074V81.4H207.414V94H202.896L200.394 83.02H200.07V94H197.73ZM220.517 94.252C218.957 94.252 217.721 93.82 216.809 92.956C215.897 92.08 215.441 90.832 215.441 89.212V86.188C215.441 84.568 215.897 83.326 216.809 82.462C217.721 81.586 218.957 81.148 220.517 81.148C222.065 81.148 223.259 81.574 224.099 82.426C224.951 83.266 225.377 84.424 225.377 85.9V86.008H223.037V85.828C223.037 85.084 222.827 84.472 222.407 83.992C221.999 83.512 221.369 83.272 220.517 83.272C219.677 83.272 219.017 83.53 218.537 84.046C218.057 84.562 217.817 85.264 217.817 86.152V89.248C217.817 90.124 218.057 90.826 218.537 91.354C219.017 91.87 219.677 92.128 220.517 92.128C221.369 92.128 221.999 91.888 222.407 91.408C222.827 90.916 223.037 90.304 223.037 89.572V89.248H225.377V89.5C225.377 90.976 224.951 92.14 224.099 92.992C223.259 93.832 222.065 94.252 220.517 94.252ZM233.253 94V81.4H241.353V83.56H235.629V86.566H240.849V88.726H235.629V91.84H241.461V94H233.253ZM250.653 94.252C250.173 94.252 249.765 94.096 249.429 93.784C249.105 93.46 248.943 93.046 248.943 92.542C248.943 92.038 249.105 91.63 249.429 91.318C249.765 90.994 250.173 90.832 250.653 90.832C251.145 90.832 251.553 90.994 251.877 91.318C252.201 91.63 252.363 92.038 252.363 92.542C252.363 93.046 252.201 93.46 251.877 93.784C251.553 94.096 251.145 94.252 250.653 94.252ZM260.029 94V92.488C260.029 91.612 260.173 90.886 260.461 90.31C260.749 89.722 261.163 89.242 261.703 88.87C262.255 88.486 262.927 88.174 263.719 87.934L264.925 87.556C265.369 87.412 265.741 87.238 266.041 87.034C266.341 86.818 266.569 86.56 266.725 86.26C266.893 85.96 266.977 85.618 266.977 85.234V85.162C266.977 84.562 266.773 84.088 266.365 83.74C265.957 83.38 265.399 83.2 264.691 83.2C263.995 83.2 263.431 83.392 262.999 83.776C262.579 84.148 262.369 84.688 262.369 85.396V85.72H260.065V85.432C260.065 84.52 260.269 83.746 260.677 83.11C261.085 82.474 261.637 81.988 262.333 81.652C263.041 81.316 263.827 81.148 264.691 81.148C265.555 81.148 266.335 81.316 267.031 81.652C267.727 81.976 268.273 82.438 268.669 83.038C269.077 83.626 269.281 84.322 269.281 85.126V85.306C269.281 86.11 269.113 86.794 268.777 87.358C268.453 87.91 268.009 88.366 267.445 88.726C266.881 89.074 266.239 89.362 265.519 89.59L264.367 89.95C263.851 90.106 263.449 90.28 263.161 90.472C262.873 90.652 262.669 90.856 262.549 91.084C262.441 91.3 262.387 91.564 262.387 91.876V91.948H269.173V94H260.029ZM281.732 94.252C280.244 94.252 279.05 93.844 278.15 93.028C277.25 92.2 276.8 90.952 276.8 89.284V86.116C276.8 84.496 277.25 83.266 278.15 82.426C279.05 81.574 280.244 81.148 281.732 81.148C283.232 81.148 284.426 81.574 285.314 82.426C286.214 83.266 286.664 84.496 286.664 86.116V89.284C286.664 90.952 286.214 92.2 285.314 93.028C284.426 93.844 283.232 94.252 281.732 94.252ZM281.732 92.2C282.632 92.2 283.292 91.954 283.712 91.462C284.144 90.97 284.36 90.268 284.36 89.356V86.008C284.36 85.084 284.12 84.388 283.64 83.92C283.172 83.44 282.536 83.2 281.732 83.2C280.904 83.2 280.256 83.446 279.788 83.938C279.332 84.43 279.104 85.12 279.104 86.008V89.356C279.104 90.304 279.32 91.018 279.752 91.498C280.196 91.966 280.856 92.2 281.732 92.2ZM298.156 94V83.092H297.832L296.14 87.088H293.728L296.302 81.4H300.46V94H298.156ZM313.045 94.252C312.061 94.252 311.209 94.078 310.489 93.73C309.781 93.382 309.235 92.89 308.851 92.254C308.467 91.618 308.275 90.88 308.275 90.04V89.86H310.615V90.022C310.615 90.622 310.813 91.138 311.209 91.57C311.617 91.99 312.217 92.2 313.009 92.2C313.801 92.2 314.407 91.99 314.827 91.57C315.259 91.138 315.475 90.58 315.475 89.896V89.716C315.475 89.044 315.259 88.51 314.827 88.114C314.407 87.718 313.879 87.52 313.243 87.52C312.895 87.52 312.607 87.568 312.379 87.664C312.151 87.76 311.965 87.88 311.821 88.024C311.677 88.168 311.557 88.312 311.461 88.456H308.671V81.4H317.275V83.488H310.975V86.566H311.299C311.419 86.41 311.581 86.26 311.785 86.116C311.989 85.972 312.253 85.852 312.577 85.756C312.901 85.66 313.285 85.612 313.729 85.612C314.473 85.612 315.151 85.768 315.763 86.08C316.375 86.392 316.861 86.854 317.221 87.466C317.593 88.066 317.779 88.81 317.779 89.698V89.914C317.779 90.802 317.587 91.57 317.203 92.218C316.831 92.866 316.291 93.37 315.583 93.73C314.875 94.078 314.029 94.252 313.045 94.252Z" fill="#010101"/>
<path d="M3.22 72V63.88H9.66V31.12H3.22V23H28.42C31.4067 23 33.9967 23.5133 36.19 24.54C38.43 25.52 40.1567 26.9433 41.37 28.81C42.63 30.63 43.26 32.8233 43.26 35.39V36.09C43.26 38.33 42.84 40.1733 42 41.62C41.16 43.02 40.1567 44.1167 38.99 44.91C37.87 45.6567 36.7967 46.1933 35.77 46.52V47.78C36.7967 48.06 37.9167 48.5967 39.13 49.39C40.3433 50.1367 41.37 51.2333 42.21 52.68C43.0967 54.1267 43.54 56.0167 43.54 58.35V59.05C43.54 61.7567 42.91 64.09 41.65 66.05C40.39 67.9633 38.64 69.4333 36.4 70.46C34.2067 71.4867 31.64 72 28.7 72H3.22ZM18.9 63.6H27.58C29.5867 63.6 31.1967 63.11 32.41 62.13C33.67 61.15 34.3 59.75 34.3 57.93V57.23C34.3 55.41 33.6933 54.01 32.48 53.03C31.2667 52.05 29.6333 51.56 27.58 51.56H18.9V63.6ZM18.9 43.16H27.44C29.3533 43.16 30.9167 42.67 32.13 41.69C33.39 40.71 34.02 39.3567 34.02 37.63V36.93C34.02 35.1567 33.4133 33.8033 32.2 32.87C30.9867 31.89 29.4 31.4 27.44 31.4H18.9V43.16Z" fill="black"/>
<rect x="4" y="80" width="153" height="2" fill="black"/>
<rect x="4" y="86" width="153" height="2" fill="black"/>
<rect x="4" y="92" width="153" height="2" fill="black"/>
<path d="M140.5 24.2647L148 50.8321C161.667 24.9987 202.4 -17.9323 246 8.06765C229 -1.09907 181.6 5.53203 146 70.332L131 24.2647H140.5Z" fill="#A0C402"/>
</svg>
