<svg width="378" height="95" viewBox="0 0 378 95" fill="none" xmlns="http://www.w3.org/2000/svg">
<path d="M77.89 68.42C73.9233 68.42 70.4233 67.6033 67.39 65.97C64.4033 64.3367 62.07 62.0967 60.39 59.25C58.7567 56.4033 57.94 53.1367 57.94 49.45C57.94 45.7633 58.7333 42.4967 60.32 39.65C61.9533 36.8033 64.17 34.5867 66.97 33C69.8167 31.3667 73.0133 30.55 76.56 30.55C80.1533 30.55 83.3267 31.3433 86.08 32.93C88.8333 34.5167 90.98 36.7567 92.52 39.65C94.1067 42.4967 94.9 45.8333 94.9 49.66C94.9 49.94 94.8767 50.2667 94.83 50.64C94.83 51.0133 94.8067 51.3633 94.76 51.69H63.19V46.86H91.26L88.53 48.54C88.5767 46.16 88.0867 44.0367 87.06 42.17C86.0333 40.3033 84.61 38.8567 82.79 37.83C81.0167 36.7567 78.94 36.22 76.56 36.22C74.2267 36.22 72.15 36.7567 70.33 37.83C68.51 38.8567 67.0867 40.3267 66.06 42.24C65.0333 44.1067 64.52 46.2533 64.52 48.68V49.8C64.52 52.2733 65.08 54.49 66.2 56.45C67.3667 58.3633 68.9767 59.8567 71.03 60.93C73.0833 62.0033 75.44 62.54 78.1 62.54C80.2933 62.54 82.2767 62.1667 84.05 61.42C85.87 60.6733 87.4567 59.5533 88.81 58.06L92.52 62.4C90.84 64.36 88.74 65.8533 86.22 66.88C83.7467 67.9067 80.97 68.42 77.89 68.42ZM104.231 68V16.06H110.951V68H104.231ZM139.672 68.42C135.939 68.42 132.625 67.6033 129.732 65.97C126.839 64.3367 124.552 62.0967 122.872 59.25C121.192 56.3567 120.352 53.09 120.352 49.45C120.352 45.7633 121.192 42.4967 122.872 39.65C124.552 36.8033 126.839 34.5867 129.732 33C132.625 31.3667 135.939 30.55 139.672 30.55C143.359 30.55 146.649 31.3667 149.542 33C152.482 34.5867 154.769 36.8033 156.402 39.65C158.082 42.45 158.922 45.7167 158.922 49.45C158.922 53.1367 158.082 56.4033 156.402 59.25C154.769 62.0967 152.482 64.3367 149.542 65.97C146.649 67.6033 143.359 68.42 139.672 68.42ZM139.672 62.54C142.052 62.54 144.175 62.0033 146.042 60.93C147.955 59.8567 149.449 58.34 150.522 56.38C151.595 54.3733 152.132 52.0633 152.132 49.45C152.132 46.79 151.595 44.5033 150.522 42.59C149.449 40.63 147.955 39.1133 146.042 38.04C144.175 36.9667 142.052 36.43 139.672 36.43C137.292 36.43 135.169 36.9667 133.302 38.04C131.435 39.1133 129.942 40.63 128.822 42.59C127.702 44.5033 127.142 46.79 127.142 49.45C127.142 52.0633 127.702 54.3733 128.822 56.38C129.942 58.34 131.435 59.8567 133.302 60.93C135.169 62.0033 137.292 62.54 139.672 62.54ZM222.333 68.42C218.367 68.42 214.867 67.6033 211.833 65.97C208.847 64.3367 206.513 62.0967 204.833 59.25C203.2 56.4033 202.383 53.1367 202.383 49.45C202.383 45.7633 203.177 42.4967 204.763 39.65C206.397 36.8033 208.613 34.5867 211.413 33C214.26 31.3667 217.457 30.55 221.003 30.55C224.597 30.55 227.77 31.3433 230.523 32.93C233.277 34.5167 235.423 36.7567 236.963 39.65C238.55 42.4967 239.343 45.8333 239.343 49.66C239.343 49.94 239.32 50.2667 239.273 50.64C239.273 51.0133 239.25 51.3633 239.203 51.69H207.633V46.86H235.703L232.973 48.54C233.02 46.16 232.53 44.0367 231.503 42.17C230.477 40.3033 229.053 38.8567 227.233 37.83C225.46 36.7567 223.383 36.22 221.003 36.22C218.67 36.22 216.593 36.7567 214.773 37.83C212.953 38.8567 211.53 40.3267 210.503 42.24C209.477 44.1067 208.963 46.2533 208.963 48.68V49.8C208.963 52.2733 209.523 54.49 210.643 56.45C211.81 58.3633 213.42 59.8567 215.473 60.93C217.527 62.0033 219.883 62.54 222.543 62.54C224.737 62.54 226.72 62.1667 228.493 61.42C230.313 60.6733 231.9 59.5533 233.253 58.06L236.963 62.4C235.283 64.36 233.183 65.8533 230.663 66.88C228.19 67.9067 225.413 68.42 222.333 68.42ZM259.315 68.42C256.235 68.42 253.295 68 250.495 67.16C247.741 66.32 245.571 65.2933 243.985 64.08L246.785 58.76C248.371 59.8333 250.331 60.7433 252.665 61.49C254.998 62.2367 257.378 62.61 259.805 62.61C262.931 62.61 265.171 62.1667 266.525 61.28C267.925 60.3933 268.625 59.1567 268.625 57.57C268.625 56.4033 268.205 55.4933 267.365 54.84C266.525 54.1867 265.405 53.6967 264.005 53.37C262.651 53.0433 261.135 52.7633 259.455 52.53C257.775 52.25 256.095 51.9233 254.415 51.55C252.735 51.13 251.195 50.57 249.795 49.87C248.395 49.1233 247.275 48.12 246.435 46.86C245.595 45.5533 245.175 43.8267 245.175 41.68C245.175 39.44 245.805 37.48 247.065 35.8C248.325 34.12 250.098 32.8367 252.385 31.95C254.718 31.0167 257.471 30.55 260.645 30.55C263.071 30.55 265.521 30.8533 267.995 31.46C270.515 32.02 272.568 32.8367 274.155 33.91L271.285 39.23C269.605 38.11 267.855 37.34 266.035 36.92C264.215 36.5 262.395 36.29 260.575 36.29C257.635 36.29 255.441 36.78 253.995 37.76C252.548 38.6933 251.825 39.9067 251.825 41.4C251.825 42.66 252.245 43.64 253.085 44.34C253.971 44.9933 255.091 45.5067 256.445 45.88C257.845 46.2533 259.385 46.58 261.065 46.86C262.745 47.0933 264.425 47.42 266.105 47.84C267.785 48.2133 269.301 48.75 270.655 49.45C272.055 50.15 273.175 51.13 274.015 52.39C274.901 53.65 275.345 55.33 275.345 57.43C275.345 59.67 274.691 61.6067 273.385 63.24C272.078 64.8733 270.235 66.1567 267.855 67.09C265.475 67.9767 262.628 68.42 259.315 68.42ZM299.633 68.42C295.9 68.42 292.586 67.6033 289.693 65.97C286.8 64.3367 284.513 62.0967 282.833 59.25C281.153 56.3567 280.313 53.09 280.313 49.45C280.313 45.7633 281.153 42.4967 282.833 39.65C284.513 36.8033 286.8 34.5867 289.693 33C292.586 31.3667 295.9 30.55 299.633 30.55C303.32 30.55 306.61 31.3667 309.503 33C312.443 34.5867 314.73 36.8033 316.363 39.65C318.043 42.45 318.883 45.7167 318.883 49.45C318.883 53.1367 318.043 56.4033 316.363 59.25C314.73 62.0967 312.443 64.3367 309.503 65.97C306.61 67.6033 303.32 68.42 299.633 68.42ZM299.633 62.54C302.013 62.54 304.136 62.0033 306.003 60.93C307.916 59.8567 309.41 58.34 310.483 56.38C311.556 54.3733 312.093 52.0633 312.093 49.45C312.093 46.79 311.556 44.5033 310.483 42.59C309.41 40.63 307.916 39.1133 306.003 38.04C304.136 36.9667 302.013 36.43 299.633 36.43C297.253 36.43 295.13 36.9667 293.263 38.04C291.396 39.1133 289.903 40.63 288.783 42.59C287.663 44.5033 287.103 46.79 287.103 49.45C287.103 52.0633 287.663 54.3733 288.783 56.38C289.903 58.34 291.396 59.8567 293.263 60.93C295.13 62.0033 297.253 62.54 299.633 62.54ZM329.157 68V27.61C329.157 23.97 330.207 21.0767 332.307 18.93C334.453 16.7367 337.487 15.64 341.407 15.64C342.853 15.64 344.23 15.8267 345.537 16.2C346.89 16.5267 348.033 17.0633 348.967 17.81L346.937 22.92C346.237 22.36 345.443 21.94 344.557 21.66C343.67 21.3333 342.737 21.17 341.757 21.17C339.797 21.17 338.303 21.73 337.277 22.85C336.25 23.9233 335.737 25.5333 335.737 27.68V32.65L335.877 35.73V68H329.157ZM322.857 36.43V30.9H346.517V36.43H322.857ZM365.594 68.42C361.861 68.42 358.968 67.4167 356.914 65.41C354.861 63.4033 353.834 60.5333 353.834 56.8V22.78H360.554V56.52C360.554 58.5267 361.044 60.0667 362.024 61.14C363.051 62.2133 364.498 62.75 366.364 62.75C368.464 62.75 370.214 62.1667 371.614 61L373.714 65.83C372.688 66.7167 371.451 67.37 370.004 67.79C368.604 68.21 367.134 68.42 365.594 68.42ZM347.534 36.43V30.9H371.194V36.43H347.534Z" fill="black"/>
<rect x="205" y="75" width="169" height="20" fill="#B5DC08"/>
<path d="M219.947 92.228C218.883 92.228 217.863 92.0887 216.888 91.81C215.913 91.5187 215.127 91.145 214.532 90.689L215.577 88.371C216.147 88.7763 216.818 89.112 217.591 89.378C218.376 89.6313 219.168 89.758 219.966 89.758C220.574 89.758 221.062 89.701 221.429 89.587C221.809 89.4603 222.088 89.2893 222.265 89.074C222.442 88.8587 222.531 88.6117 222.531 88.333C222.531 87.9783 222.392 87.6997 222.113 87.497C221.834 87.2817 221.467 87.1107 221.011 86.984C220.555 86.8447 220.048 86.718 219.491 86.604C218.946 86.4773 218.395 86.3253 217.838 86.148C217.293 85.9707 216.793 85.7427 216.337 85.464C215.881 85.1853 215.507 84.818 215.216 84.362C214.937 83.906 214.798 83.3233 214.798 82.614C214.798 81.854 215.001 81.1637 215.406 80.543C215.824 79.9097 216.445 79.4093 217.268 79.042C218.104 78.662 219.149 78.472 220.403 78.472C221.239 78.472 222.062 78.5733 222.873 78.776C223.684 78.966 224.399 79.2573 225.02 79.65L224.07 81.987C223.449 81.6323 222.829 81.3727 222.208 81.208C221.587 81.0307 220.979 80.942 220.384 80.942C219.789 80.942 219.301 81.0117 218.921 81.151C218.541 81.2903 218.269 81.474 218.104 81.702C217.939 81.9173 217.857 82.1707 217.857 82.462C217.857 82.804 217.996 83.0827 218.275 83.298C218.554 83.5007 218.921 83.6653 219.377 83.792C219.833 83.9187 220.333 84.0453 220.878 84.172C221.435 84.2987 221.986 84.4443 222.531 84.609C223.088 84.7737 223.595 84.9953 224.051 85.274C224.507 85.5527 224.874 85.92 225.153 86.376C225.444 86.832 225.59 87.4083 225.59 88.105C225.59 88.8523 225.381 89.5363 224.963 90.157C224.545 90.7777 223.918 91.278 223.082 91.658C222.259 92.038 221.214 92.228 219.947 92.228ZM232.443 92V78.7H235.521V92H232.443ZM243.428 92V78.7H245.974L253.821 88.276H252.586V78.7H255.626V92H253.099L245.233 82.424H246.468V92H243.428ZM269.887 92.228C268.861 92.228 267.905 92.0633 267.018 91.734C266.144 91.392 265.384 90.9107 264.738 90.29C264.092 89.6693 263.586 88.941 263.218 88.105C262.864 87.269 262.686 86.3507 262.686 85.35C262.686 84.3493 262.864 83.431 263.218 82.595C263.586 81.759 264.092 81.0307 264.738 80.41C265.397 79.7893 266.163 79.3143 267.037 78.985C267.911 78.643 268.868 78.472 269.906 78.472C271.059 78.472 272.098 78.6747 273.022 79.08C273.96 79.4727 274.745 80.0553 275.378 80.828L273.402 82.652C272.946 82.1327 272.44 81.7463 271.882 81.493C271.325 81.227 270.717 81.094 270.058 81.094C269.438 81.094 268.868 81.1953 268.348 81.398C267.829 81.6007 267.379 81.892 266.999 82.272C266.619 82.652 266.322 83.1017 266.106 83.621C265.904 84.1403 265.802 84.7167 265.802 85.35C265.802 85.9833 265.904 86.5597 266.106 87.079C266.322 87.5983 266.619 88.048 266.999 88.428C267.379 88.808 267.829 89.0993 268.348 89.302C268.868 89.5047 269.438 89.606 270.058 89.606C270.717 89.606 271.325 89.4793 271.882 89.226C272.44 88.96 272.946 88.561 273.402 88.029L275.378 89.853C274.745 90.6257 273.96 91.2147 273.022 91.62C272.098 92.0253 271.053 92.228 269.887 92.228ZM285.038 84.058H291.441V86.452H285.038V84.058ZM285.266 89.53H292.505V92H282.207V78.7H292.258V81.17H285.266V89.53ZM300.802 92.152C300.295 92.152 299.858 91.981 299.491 91.639C299.136 91.2843 298.959 90.8347 298.959 90.29C298.959 89.7453 299.136 89.3083 299.491 88.979C299.858 88.637 300.295 88.466 300.802 88.466C301.321 88.466 301.758 88.637 302.113 88.979C302.467 89.3083 302.645 89.7453 302.645 90.29C302.645 90.8347 302.467 91.2843 302.113 91.639C301.758 91.981 301.321 92.152 300.802 92.152ZM308.848 92V90.005L313.978 85.16C314.383 84.7927 314.681 84.4633 314.871 84.172C315.061 83.8807 315.187 83.6147 315.251 83.374C315.327 83.1333 315.365 82.9117 315.365 82.709C315.365 82.177 315.181 81.7717 314.814 81.493C314.459 81.2017 313.933 81.056 313.237 81.056C312.679 81.056 312.16 81.1637 311.679 81.379C311.21 81.5943 310.811 81.93 310.482 82.386L308.24 80.942C308.746 80.182 309.456 79.5803 310.368 79.137C311.28 78.6937 312.331 78.472 313.522 78.472C314.51 78.472 315.371 78.6367 316.106 78.966C316.853 79.2827 317.429 79.7323 317.835 80.315C318.253 80.8977 318.462 81.5943 318.462 82.405C318.462 82.8357 318.405 83.2663 318.291 83.697C318.189 84.115 317.974 84.5583 317.645 85.027C317.328 85.4957 316.859 86.0213 316.239 86.604L311.983 90.613L311.394 89.492H318.899V92H308.848ZM330.619 92.228C329.529 92.228 328.554 91.962 327.693 91.43C326.831 90.8853 326.154 90.1 325.66 89.074C325.166 88.048 324.919 86.8067 324.919 85.35C324.919 83.8933 325.166 82.652 325.66 81.626C326.154 80.6 326.831 79.821 327.693 79.289C328.554 78.7443 329.529 78.472 330.619 78.472C331.721 78.472 332.696 78.7443 333.545 79.289C334.406 79.821 335.084 80.6 335.578 81.626C336.072 82.652 336.319 83.8933 336.319 85.35C336.319 86.8067 336.072 88.048 335.578 89.074C335.084 90.1 334.406 90.8853 333.545 91.43C332.696 91.962 331.721 92.228 330.619 92.228ZM330.619 89.625C331.138 89.625 331.588 89.4793 331.968 89.188C332.36 88.8967 332.664 88.4343 332.88 87.801C333.108 87.1677 333.222 86.3507 333.222 85.35C333.222 84.3493 333.108 83.5323 332.88 82.899C332.664 82.2657 332.36 81.8033 331.968 81.512C331.588 81.2207 331.138 81.075 330.619 81.075C330.112 81.075 329.662 81.2207 329.27 81.512C328.89 81.8033 328.586 82.2657 328.358 82.899C328.142 83.5323 328.035 84.3493 328.035 85.35C328.035 86.3507 328.142 87.1677 328.358 87.801C328.586 88.4343 328.89 88.8967 329.27 89.188C329.662 89.4793 330.112 89.625 330.619 89.625ZM344.542 92V79.84L345.872 81.17H341.882V78.7H347.62V92H344.542ZM359.202 92.228C358.278 92.228 357.359 92.1077 356.447 91.867C355.548 91.6137 354.775 91.259 354.129 90.803L355.345 88.447C355.852 88.8143 356.435 89.1057 357.093 89.321C357.765 89.5363 358.442 89.644 359.126 89.644C359.899 89.644 360.507 89.492 360.95 89.188C361.394 88.884 361.615 88.4597 361.615 87.915C361.615 87.573 361.527 87.269 361.349 87.003C361.172 86.737 360.855 86.5343 360.399 86.395C359.956 86.2557 359.329 86.186 358.518 86.186H355.117L355.801 78.7H363.914V81.17H356.903L358.499 79.764L358.024 85.103L356.428 83.697H359.24C360.558 83.697 361.615 83.8807 362.413 84.248C363.224 84.6027 363.813 85.0903 364.18 85.711C364.548 86.3317 364.731 87.0347 364.731 87.82C364.731 88.6053 364.535 89.3337 364.142 90.005C363.75 90.6637 363.142 91.202 362.318 91.62C361.508 92.0253 360.469 92.228 359.202 92.228Z" fill="black"/>
<path d="M6.58 69V20H29.54C35.42 20 39.9 21.1667 42.98 23.5C46.06 25.7867 47.6 28.8667 47.6 32.74C47.6 35.3533 46.9933 37.5933 45.78 39.46C44.5667 41.28 42.9333 42.7033 40.88 43.73C38.8733 44.71 36.68 45.2 34.3 45.2L35.56 42.68C38.3133 42.68 40.7867 43.1933 42.98 44.22C45.1733 45.2 46.9 46.6467 48.16 48.56C49.4667 50.4733 50.12 52.8533 50.12 55.7C50.12 59.9 48.51 63.1667 45.29 65.5C42.07 67.8333 37.2867 69 30.94 69H6.58ZM15.68 61.86H30.38C33.7867 61.86 36.4 61.3 38.22 60.18C40.04 59.06 40.95 57.2633 40.95 54.79C40.95 52.3633 40.04 50.59 38.22 49.47C36.4 48.3033 33.7867 47.72 30.38 47.72H14.98V40.65H28.56C31.7333 40.65 34.16 40.09 35.84 38.97C37.5667 37.85 38.43 36.17 38.43 33.93C38.43 31.6433 37.5667 29.94 35.84 28.82C34.16 27.7 31.7333 27.14 28.56 27.14H15.68V61.86Z" fill="black"/>
<rect x="6" y="75" width="194" height="1" fill="black"/>
<rect x="6" y="78" width="194" height="1" fill="black"/>
<rect x="6" y="93" width="194" height="1" fill="black"/>
<rect x="6" y="81" width="194" height="1" fill="black"/>
<rect x="6" y="84" width="194" height="1" fill="black"/>
<rect x="6" y="87" width="194" height="1" fill="black"/>
<rect x="6" y="90" width="194" height="1" fill="black"/>
<path d="M168 24L178 52.8029C191.667 26.9696 229.9 -18.1971 273.5 7.80292C256.5 -1.36381 213.6 3.2 178 68L161 27.5L168 24Z" fill="#B5DC08"/>
</svg>
