<svg width="378" height="95" viewBox="0 0 378 95" fill="none" xmlns="http://www.w3.org/2000/svg">
<path d="M77.89 68.42C73.9233 68.42 70.4233 67.6033 67.39 65.97C64.4033 64.3367 62.07 62.0967 60.39 59.25C58.7567 56.4033 57.94 53.1367 57.94 49.45C57.94 45.7633 58.7333 42.4967 60.32 39.65C61.9533 36.8033 64.17 34.5867 66.97 33C69.8167 31.3667 73.0133 30.55 76.56 30.55C80.1533 30.55 83.3267 31.3433 86.08 32.93C88.8333 34.5167 90.98 36.7567 92.52 39.65C94.1067 42.4967 94.9 45.8333 94.9 49.66C94.9 49.94 94.8767 50.2667 94.83 50.64C94.83 51.0133 94.8067 51.3633 94.76 51.69H63.19V46.86H91.26L88.53 48.54C88.5767 46.16 88.0867 44.0367 87.06 42.17C86.0333 40.3033 84.61 38.8567 82.79 37.83C81.0167 36.7567 78.94 36.22 76.56 36.22C74.2267 36.22 72.15 36.7567 70.33 37.83C68.51 38.8567 67.0867 40.3267 66.06 42.24C65.0333 44.1067 64.52 46.2533 64.52 48.68V49.8C64.52 52.2733 65.08 54.49 66.2 56.45C67.3667 58.3633 68.9767 59.8567 71.03 60.93C73.0833 62.0033 75.44 62.54 78.1 62.54C80.2933 62.54 82.2767 62.1667 84.05 61.42C85.87 60.6733 87.4567 59.5533 88.81 58.06L92.52 62.4C90.84 64.36 88.74 65.8533 86.22 66.88C83.7467 67.9067 80.97 68.42 77.89 68.42ZM104.231 68V16.06H110.951V68H104.231ZM139.672 68.42C135.939 68.42 132.625 67.6033 129.732 65.97C126.839 64.3367 124.552 62.0967 122.872 59.25C121.192 56.3567 120.352 53.09 120.352 49.45C120.352 45.7633 121.192 42.4967 122.872 39.65C124.552 36.8033 126.839 34.5867 129.732 33C132.625 31.3667 135.939 30.55 139.672 30.55C143.359 30.55 146.649 31.3667 149.542 33C152.482 34.5867 154.769 36.8033 156.402 39.65C158.082 42.45 158.922 45.7167 158.922 49.45C158.922 53.1367 158.082 56.4033 156.402 59.25C154.769 62.0967 152.482 64.3367 149.542 65.97C146.649 67.6033 143.359 68.42 139.672 68.42ZM139.672 62.54C142.052 62.54 144.175 62.0033 146.042 60.93C147.955 59.8567 149.449 58.34 150.522 56.38C151.595 54.3733 152.132 52.0633 152.132 49.45C152.132 46.79 151.595 44.5033 150.522 42.59C149.449 40.63 147.955 39.1133 146.042 38.04C144.175 36.9667 142.052 36.43 139.672 36.43C137.292 36.43 135.169 36.9667 133.302 38.04C131.435 39.1133 129.942 40.63 128.822 42.59C127.702 44.5033 127.142 46.79 127.142 49.45C127.142 52.0633 127.702 54.3733 128.822 56.38C129.942 58.34 131.435 59.8567 133.302 60.93C135.169 62.0033 137.292 62.54 139.672 62.54ZM222.333 68.42C218.367 68.42 214.867 67.6033 211.833 65.97C208.847 64.3367 206.513 62.0967 204.833 59.25C203.2 56.4033 202.383 53.1367 202.383 49.45C202.383 45.7633 203.177 42.4967 204.763 39.65C206.397 36.8033 208.613 34.5867 211.413 33C214.26 31.3667 217.457 30.55 221.003 30.55C224.597 30.55 227.77 31.3433 230.523 32.93C233.277 34.5167 235.423 36.7567 236.963 39.65C238.55 42.4967 239.343 45.8333 239.343 49.66C239.343 49.94 239.32 50.2667 239.273 50.64C239.273 51.0133 239.25 51.3633 239.203 51.69H207.633V46.86H235.703L232.973 48.54C233.02 46.16 232.53 44.0367 231.503 42.17C230.477 40.3033 229.053 38.8567 227.233 37.83C225.46 36.7567 223.383 36.22 221.003 36.22C218.67 36.22 216.593 36.7567 214.773 37.83C212.953 38.8567 211.53 40.3267 210.503 42.24C209.477 44.1067 208.963 46.2533 208.963 48.68V49.8C208.963 52.2733 209.523 54.49 210.643 56.45C211.81 58.3633 213.42 59.8567 215.473 60.93C217.527 62.0033 219.883 62.54 222.543 62.54C224.737 62.54 226.72 62.1667 228.493 61.42C230.313 60.6733 231.9 59.5533 233.253 58.06L236.963 62.4C235.283 64.36 233.183 65.8533 230.663 66.88C228.19 67.9067 225.413 68.42 222.333 68.42ZM259.315 68.42C256.235 68.42 253.295 68 250.495 67.16C247.741 66.32 245.571 65.2933 243.985 64.08L246.785 58.76C248.371 59.8333 250.331 60.7433 252.665 61.49C254.998 62.2367 257.378 62.61 259.805 62.61C262.931 62.61 265.171 62.1667 266.525 61.28C267.925 60.3933 268.625 59.1567 268.625 57.57C268.625 56.4033 268.205 55.4933 267.365 54.84C266.525 54.1867 265.405 53.6967 264.005 53.37C262.651 53.0433 261.135 52.7633 259.455 52.53C257.775 52.25 256.095 51.9233 254.415 51.55C252.735 51.13 251.195 50.57 249.795 49.87C248.395 49.1233 247.275 48.12 246.435 46.86C245.595 45.5533 245.175 43.8267 245.175 41.68C245.175 39.44 245.805 37.48 247.065 35.8C248.325 34.12 250.098 32.8367 252.385 31.95C254.718 31.0167 257.471 30.55 260.645 30.55C263.071 30.55 265.521 30.8533 267.995 31.46C270.515 32.02 272.568 32.8367 274.155 33.91L271.285 39.23C269.605 38.11 267.855 37.34 266.035 36.92C264.215 36.5 262.395 36.29 260.575 36.29C257.635 36.29 255.441 36.78 253.995 37.76C252.548 38.6933 251.825 39.9067 251.825 41.4C251.825 42.66 252.245 43.64 253.085 44.34C253.971 44.9933 255.091 45.5067 256.445 45.88C257.845 46.2533 259.385 46.58 261.065 46.86C262.745 47.0933 264.425 47.42 266.105 47.84C267.785 48.2133 269.301 48.75 270.655 49.45C272.055 50.15 273.175 51.13 274.015 52.39C274.901 53.65 275.345 55.33 275.345 57.43C275.345 59.67 274.691 61.6067 273.385 63.24C272.078 64.8733 270.235 66.1567 267.855 67.09C265.475 67.9767 262.628 68.42 259.315 68.42ZM299.633 68.42C295.9 68.42 292.586 67.6033 289.693 65.97C286.8 64.3367 284.513 62.0967 282.833 59.25C281.153 56.3567 280.313 53.09 280.313 49.45C280.313 45.7633 281.153 42.4967 282.833 39.65C284.513 36.8033 286.8 34.5867 289.693 33C292.586 31.3667 295.9 30.55 299.633 30.55C303.32 30.55 306.61 31.3667 309.503 33C312.443 34.5867 314.73 36.8033 316.363 39.65C318.043 42.45 318.883 45.7167 318.883 49.45C318.883 53.1367 318.043 56.4033 316.363 59.25C314.73 62.0967 312.443 64.3367 309.503 65.97C306.61 67.6033 303.32 68.42 299.633 68.42ZM299.633 62.54C302.013 62.54 304.136 62.0033 306.003 60.93C307.916 59.8567 309.41 58.34 310.483 56.38C311.556 54.3733 312.093 52.0633 312.093 49.45C312.093 46.79 311.556 44.5033 310.483 42.59C309.41 40.63 307.916 39.1133 306.003 38.04C304.136 36.9667 302.013 36.43 299.633 36.43C297.253 36.43 295.13 36.9667 293.263 38.04C291.396 39.1133 289.903 40.63 288.783 42.59C287.663 44.5033 287.103 46.79 287.103 49.45C287.103 52.0633 287.663 54.3733 288.783 56.38C289.903 58.34 291.396 59.8567 293.263 60.93C295.13 62.0033 297.253 62.54 299.633 62.54ZM329.157 68V27.61C329.157 23.97 330.207 21.0767 332.307 18.93C334.453 16.7367 337.487 15.64 341.407 15.64C342.853 15.64 344.23 15.8267 345.537 16.2C346.89 16.5267 348.033 17.0633 348.967 17.81L346.937 22.92C346.237 22.36 345.443 21.94 344.557 21.66C343.67 21.3333 342.737 21.17 341.757 21.17C339.797 21.17 338.303 21.73 337.277 22.85C336.25 23.9233 335.737 25.5333 335.737 27.68V32.65L335.877 35.73V68H329.157ZM322.857 36.43V30.9H346.517V36.43H322.857ZM365.594 68.42C361.861 68.42 358.968 67.4167 356.914 65.41C354.861 63.4033 353.834 60.5333 353.834 56.8V22.78H360.554V56.52C360.554 58.5267 361.044 60.0667 362.024 61.14C363.051 62.2133 364.498 62.75 366.364 62.75C368.464 62.75 370.214 62.1667 371.614 61L373.714 65.83C372.688 66.7167 371.451 67.37 370.004 67.79C368.604 68.21 367.134 68.42 365.594 68.42ZM347.534 36.43V30.9H371.194V36.43H347.534Z" fill="black"/>
<rect x="205" y="75" width="169" height="20" fill="#A0C402"/>
<path d="M219.909 92.19C218.87 92.19 217.876 92.0443 216.926 91.753C215.976 91.449 215.222 91.0627 214.665 90.594L215.52 88.675C216.052 89.093 216.711 89.4413 217.496 89.72C218.281 89.9987 219.086 90.138 219.909 90.138C220.606 90.138 221.169 90.062 221.6 89.91C222.031 89.758 222.347 89.5553 222.55 89.302C222.753 89.036 222.854 88.7383 222.854 88.409C222.854 88.0037 222.708 87.6807 222.417 87.44C222.126 87.1867 221.746 86.9903 221.277 86.851C220.821 86.699 220.308 86.5597 219.738 86.433C219.181 86.3063 218.617 86.1607 218.047 85.996C217.49 85.8187 216.977 85.597 216.508 85.331C216.052 85.0523 215.678 84.685 215.387 84.229C215.096 83.773 214.95 83.1903 214.95 82.481C214.95 81.759 215.14 81.1003 215.52 80.505C215.913 79.897 216.502 79.4157 217.287 79.061C218.085 78.6937 219.092 78.51 220.308 78.51C221.106 78.51 221.898 78.6113 222.683 78.814C223.468 79.0167 224.152 79.308 224.735 79.688L223.956 81.607C223.361 81.2523 222.746 80.9927 222.113 80.828C221.48 80.6507 220.872 80.562 220.289 80.562C219.605 80.562 219.048 80.6443 218.617 80.809C218.199 80.9737 217.889 81.189 217.686 81.455C217.496 81.721 217.401 82.025 217.401 82.367C217.401 82.7723 217.54 83.1017 217.819 83.355C218.11 83.5957 218.484 83.7857 218.94 83.925C219.409 84.0643 219.928 84.2037 220.498 84.343C221.068 84.4697 221.632 84.6153 222.189 84.78C222.759 84.9447 223.272 85.16 223.728 85.426C224.197 85.692 224.57 86.053 224.849 86.509C225.14 86.965 225.286 87.5413 225.286 88.238C225.286 88.9473 225.09 89.606 224.697 90.214C224.317 90.8093 223.728 91.2907 222.93 91.658C222.132 92.0127 221.125 92.19 219.909 92.19ZM232.485 92V78.7H234.955V92H232.485ZM243.303 92V78.7H245.336L253.677 88.941H252.67V78.7H255.121V92H253.088L244.747 81.759H245.754V92H243.303ZM269.59 92.19C268.577 92.19 267.633 92.0253 266.759 91.696C265.898 91.354 265.144 90.879 264.498 90.271C263.865 89.6503 263.371 88.922 263.016 88.086C262.662 87.25 262.484 86.338 262.484 85.35C262.484 84.362 262.662 83.45 263.016 82.614C263.371 81.778 263.871 81.056 264.517 80.448C265.163 79.8273 265.917 79.3523 266.778 79.023C267.64 78.681 268.583 78.51 269.609 78.51C270.699 78.51 271.693 78.7 272.592 79.08C273.492 79.4473 274.252 79.9983 274.872 80.733L273.276 82.234C272.795 81.7147 272.257 81.3283 271.661 81.075C271.066 80.809 270.42 80.676 269.723 80.676C269.027 80.676 268.387 80.79 267.804 81.018C267.234 81.246 266.734 81.569 266.303 81.987C265.885 82.405 265.556 82.899 265.315 83.469C265.087 84.039 264.973 84.666 264.973 85.35C264.973 86.034 265.087 86.661 265.315 87.231C265.556 87.801 265.885 88.295 266.303 88.713C266.734 89.131 267.234 89.454 267.804 89.682C268.387 89.91 269.027 90.024 269.723 90.024C270.42 90.024 271.066 89.8973 271.661 89.644C272.257 89.378 272.795 88.979 273.276 88.447L274.872 89.967C274.252 90.689 273.492 91.24 272.592 91.62C271.693 92 270.692 92.19 269.59 92.19ZM284.269 84.229H290.881V86.262H284.269V84.229ZM284.459 89.929H291.964V92H281.989V78.7H291.698V80.771H284.459V89.929ZM300.185 92.133C299.755 92.133 299.387 91.9873 299.083 91.696C298.779 91.392 298.627 91.012 298.627 90.556C298.627 90.0747 298.779 89.6947 299.083 89.416C299.387 89.1247 299.755 88.979 300.185 88.979C300.616 88.979 300.983 89.1247 301.287 89.416C301.591 89.6947 301.743 90.0747 301.743 90.556C301.743 91.012 301.591 91.392 301.287 91.696C300.983 91.9873 300.616 92.133 300.185 92.133ZM308.106 92V90.347L313.388 85.331C313.832 84.913 314.161 84.5457 314.376 84.229C314.592 83.9123 314.731 83.621 314.794 83.355C314.87 83.0763 314.908 82.8167 314.908 82.576C314.908 81.968 314.699 81.4993 314.281 81.17C313.863 80.828 313.249 80.657 312.438 80.657C311.792 80.657 311.203 80.771 310.671 80.999C310.152 81.227 309.702 81.5753 309.322 82.044L307.593 80.714C308.113 80.0173 308.809 79.479 309.683 79.099C310.57 78.7063 311.558 78.51 312.647 78.51C313.61 78.51 314.446 78.6683 315.155 78.985C315.877 79.289 316.428 79.726 316.808 80.296C317.201 80.866 317.397 81.5437 317.397 82.329C317.397 82.7597 317.34 83.1903 317.226 83.621C317.112 84.039 316.897 84.4823 316.58 84.951C316.264 85.4197 315.801 85.9453 315.193 86.528L310.652 90.841L310.139 89.91H317.91V92H308.106ZM329.634 92.19C328.583 92.19 327.633 91.924 326.784 91.392C325.948 90.86 325.289 90.0873 324.808 89.074C324.327 88.048 324.086 86.8067 324.086 85.35C324.086 83.8933 324.327 82.6583 324.808 81.645C325.289 80.619 325.948 79.84 326.784 79.308C327.633 78.776 328.583 78.51 329.634 78.51C330.698 78.51 331.648 78.776 332.484 79.308C333.32 79.84 333.979 80.619 334.46 81.645C334.954 82.6583 335.201 83.8933 335.201 85.35C335.201 86.8067 334.954 88.048 334.46 89.074C333.979 90.0873 333.32 90.86 332.484 91.392C331.648 91.924 330.698 92.19 329.634 92.19ZM329.634 90.043C330.255 90.043 330.793 89.8783 331.249 89.549C331.705 89.207 332.06 88.6877 332.313 87.991C332.579 87.2943 332.712 86.414 332.712 85.35C332.712 84.2733 332.579 83.393 332.313 82.709C332.06 82.0123 331.705 81.4993 331.249 81.17C330.793 80.828 330.255 80.657 329.634 80.657C329.039 80.657 328.507 80.828 328.038 81.17C327.582 81.4993 327.221 82.0123 326.955 82.709C326.702 83.393 326.575 84.2733 326.575 85.35C326.575 86.414 326.702 87.2943 326.955 87.991C327.221 88.6877 327.582 89.207 328.038 89.549C328.507 89.8783 329.039 90.043 329.634 90.043ZM343.73 92V79.65L344.813 80.771H340.918V78.7H346.2V92H343.73ZM357.996 92.19C357.059 92.19 356.14 92.057 355.241 91.791C354.354 91.5123 353.607 91.1323 352.999 90.651L354.044 88.732C354.525 89.1247 355.108 89.4413 355.792 89.682C356.489 89.9227 357.211 90.043 357.958 90.043C358.832 90.043 359.516 89.8593 360.01 89.492C360.517 89.1247 360.77 88.6307 360.77 88.01C360.77 87.592 360.662 87.2247 360.447 86.908C360.244 86.5913 359.877 86.3507 359.345 86.186C358.826 86.0213 358.11 85.939 357.198 85.939H353.987L354.671 78.7H362.48V80.771H355.583L356.875 79.593L356.362 85.008L355.07 83.849H357.749C359.066 83.849 360.124 84.0263 360.922 84.381C361.733 84.723 362.322 85.2043 362.689 85.825C363.069 86.433 363.259 87.1297 363.259 87.915C363.259 88.6877 363.069 89.397 362.689 90.043C362.309 90.689 361.726 91.2083 360.941 91.601C360.168 91.9937 359.187 92.19 357.996 92.19Z" fill="#040404"/>
<path d="M6.58 69V20H29.54C35.42 20 39.9 21.1667 42.98 23.5C46.06 25.7867 47.6 28.8667 47.6 32.74C47.6 35.3533 46.9933 37.5933 45.78 39.46C44.5667 41.28 42.9333 42.7033 40.88 43.73C38.8733 44.71 36.68 45.2 34.3 45.2L35.56 42.68C38.3133 42.68 40.7867 43.1933 42.98 44.22C45.1733 45.2 46.9 46.6467 48.16 48.56C49.4667 50.4733 50.12 52.8533 50.12 55.7C50.12 59.9 48.51 63.1667 45.29 65.5C42.07 67.8333 37.2867 69 30.94 69H6.58ZM15.68 61.86H30.38C33.7867 61.86 36.4 61.3 38.22 60.18C40.04 59.06 40.95 57.2633 40.95 54.79C40.95 52.3633 40.04 50.59 38.22 49.47C36.4 48.3033 33.7867 47.72 30.38 47.72H14.98V40.65H28.56C31.7333 40.65 34.16 40.09 35.84 38.97C37.5667 37.85 38.43 36.17 38.43 33.93C38.43 31.6433 37.5667 29.94 35.84 28.82C34.16 27.7 31.7333 27.14 28.56 27.14H15.68V61.86Z" fill="black"/>
<rect x="6" y="75" width="194" height="1" fill="black"/>
<rect x="6" y="78" width="194" height="1" fill="black"/>
<rect x="6" y="93" width="194" height="1" fill="black"/>
<rect x="6" y="81" width="194" height="1" fill="black"/>
<rect x="6" y="84" width="194" height="1" fill="black"/>
<rect x="6" y="87" width="194" height="1" fill="black"/>
<rect x="6" y="90" width="194" height="1" fill="black"/>
<path d="M168 24L178 52.8029C191.667 26.9696 229.9 -18.1971 273.5 7.80292C256.5 -1.36381 213.6 3.2 178 68L161 27.5L168 24Z" fill="#A0C402"/>
</svg>
