<svg width="377" height="88" viewBox="0 0 377 88" fill="none" xmlns="http://www.w3.org/2000/svg">
<path d="M71.14 64.98C67.64 64.98 64.5833 64.2567 61.97 62.81C59.3567 61.3167 57.3033 59.24 55.81 56.58C54.3633 53.8733 53.64 50.7467 53.64 47.2V46.36C53.64 42.7667 54.3633 39.64 55.81 36.98C57.2567 34.2733 59.2633 32.1967 61.83 30.75C64.4433 29.2567 67.4533 28.51 70.86 28.51C74.1733 28.51 77.0667 29.2567 79.54 30.75C82.06 32.1967 84.02 34.2267 85.42 36.84C86.82 39.4533 87.52 42.51 87.52 46.01V48.74H60.99C61.0833 51.7733 62.0867 54.2 64 56.02C65.96 57.7933 68.3867 58.68 71.28 58.68C73.9867 58.68 76.0167 58.0733 77.37 56.86C78.77 55.6467 79.8433 54.2467 80.59 52.66L86.54 55.74C85.8867 57.0467 84.93 58.4233 83.67 59.87C82.4567 61.3167 80.8467 62.53 78.84 63.51C76.8333 64.49 74.2667 64.98 71.14 64.98ZM61.06 43.21H80.17C79.9833 40.5967 79.05 38.5667 77.37 37.12C75.69 35.6267 73.4967 34.88 70.79 34.88C68.0833 34.88 65.8667 35.6267 64.14 37.12C62.46 38.5667 61.4333 40.5967 61.06 43.21ZM96.1989 64V15H103.409V64H96.1989ZM130.279 64.98C126.826 64.98 123.746 64.28 121.039 62.88C118.379 61.4333 116.279 59.38 114.739 56.72C113.199 54.06 112.429 50.91 112.429 47.27V46.22C112.429 42.58 113.199 39.4533 114.739 36.84C116.279 34.18 118.379 32.1267 121.039 30.68C123.746 29.2333 126.826 28.51 130.279 28.51C133.732 28.51 136.812 29.2333 139.519 30.68C142.226 32.1267 144.349 34.18 145.889 36.84C147.429 39.4533 148.199 42.58 148.199 46.22V47.27C148.199 50.91 147.429 54.06 145.889 56.72C144.349 59.38 142.226 61.4333 139.519 62.88C136.812 64.28 133.732 64.98 130.279 64.98ZM130.279 58.54C133.452 58.54 136.019 57.5367 137.979 55.53C139.986 53.4767 140.989 50.6533 140.989 47.06V46.43C140.989 42.8367 140.009 40.0367 138.049 38.03C136.089 35.9767 133.499 34.95 130.279 34.95C127.152 34.95 124.586 35.9767 122.579 38.03C120.619 40.0367 119.639 42.8367 119.639 46.43V47.06C119.639 50.6533 120.619 53.4767 122.579 55.53C124.586 57.5367 127.152 58.54 130.279 58.54ZM208.679 64.98C205.179 64.98 202.122 64.2567 199.509 62.81C196.896 61.3167 194.842 59.24 193.349 56.58C191.902 53.8733 191.179 50.7467 191.179 47.2V46.36C191.179 42.7667 191.902 39.64 193.349 36.98C194.796 34.2733 196.802 32.1967 199.369 30.75C201.982 29.2567 204.992 28.51 208.399 28.51C211.712 28.51 214.606 29.2567 217.079 30.75C219.599 32.1967 221.559 34.2267 222.959 36.84C224.359 39.4533 225.059 42.51 225.059 46.01V48.74H198.529C198.622 51.7733 199.626 54.2 201.539 56.02C203.499 57.7933 205.926 58.68 208.819 58.68C211.526 58.68 213.556 58.0733 214.909 56.86C216.309 55.6467 217.382 54.2467 218.129 52.66L224.079 55.74C223.426 57.0467 222.469 58.4233 221.209 59.87C219.996 61.3167 218.386 62.53 216.379 63.51C214.372 64.49 211.806 64.98 208.679 64.98ZM198.599 43.21H217.709C217.522 40.5967 216.589 38.5667 214.909 37.12C213.229 35.6267 211.036 34.88 208.329 34.88C205.622 34.88 203.406 35.6267 201.679 37.12C199.999 38.5667 198.972 40.5967 198.599 43.21ZM247.878 64.98C243.491 64.98 239.851 64 236.958 62.04C234.065 60.08 232.291 57.1167 231.638 53.15L238.358 51.54C238.731 53.4533 239.361 54.97 240.248 56.09C241.135 57.21 242.231 58.0033 243.538 58.47C244.891 58.9367 246.338 59.17 247.878 59.17C250.165 59.17 251.915 58.7267 253.128 57.84C254.388 56.9533 255.018 55.81 255.018 54.41C255.018 53.01 254.435 51.9833 253.268 51.33C252.101 50.6767 250.375 50.14 248.088 49.72L245.708 49.3C243.375 48.88 241.251 48.2733 239.338 47.48C237.425 46.6867 235.908 45.59 234.788 44.19C233.668 42.79 233.108 40.9933 233.108 38.8C233.108 35.5333 234.321 33.0133 236.748 31.24C239.175 29.42 242.395 28.51 246.408 28.51C250.281 28.51 253.455 29.3967 255.928 31.17C258.448 32.8967 260.081 35.2533 260.828 38.24L254.108 40.13C253.688 38.03 252.801 36.56 251.448 35.72C250.095 34.8333 248.415 34.39 246.408 34.39C244.448 34.39 242.908 34.7633 241.788 35.51C240.668 36.21 240.108 37.2133 240.108 38.52C240.108 39.92 240.645 40.9467 241.718 41.6C242.838 42.2533 244.331 42.7433 246.198 43.07L248.648 43.49C251.121 43.91 253.385 44.4933 255.438 45.24C257.491 45.9867 259.101 47.06 260.268 48.46C261.481 49.86 262.088 51.7267 262.088 54.06C262.088 57.5133 260.805 60.1967 258.238 62.11C255.671 64.0233 252.218 64.98 247.878 64.98ZM286.685 64.98C283.232 64.98 280.152 64.28 277.445 62.88C274.785 61.4333 272.685 59.38 271.145 56.72C269.605 54.06 268.835 50.91 268.835 47.27V46.22C268.835 42.58 269.605 39.4533 271.145 36.84C272.685 34.18 274.785 32.1267 277.445 30.68C280.152 29.2333 283.232 28.51 286.685 28.51C290.139 28.51 293.219 29.2333 295.925 30.68C298.632 32.1267 300.755 34.18 302.295 36.84C303.835 39.4533 304.605 42.58 304.605 46.22V47.27C304.605 50.91 303.835 54.06 302.295 56.72C300.755 59.38 298.632 61.4333 295.925 62.88C293.219 64.28 290.139 64.98 286.685 64.98ZM286.685 58.54C289.859 58.54 292.425 57.5367 294.385 55.53C296.392 53.4767 297.395 50.6533 297.395 47.06V46.43C297.395 42.8367 296.415 40.0367 294.455 38.03C292.495 35.9767 289.905 34.95 286.685 34.95C283.559 34.95 280.992 35.9767 278.985 38.03C277.025 40.0367 276.045 42.8367 276.045 46.43V47.06C276.045 50.6533 277.025 53.4767 278.985 55.53C280.992 57.5367 283.559 58.54 286.685 58.54ZM318.513 64V35.58H308.853V29.49H318.513V21.93C318.513 19.83 319.143 18.15 320.403 16.89C321.663 15.63 323.343 15 325.443 15H334.333V21.09H327.753C326.4 21.09 325.723 21.79 325.723 23.19V29.49H335.663V35.58H325.723V64H318.513ZM355.106 64C353.006 64 351.326 63.37 350.066 62.11C348.853 60.85 348.246 59.17 348.246 57.07V35.58H338.726V29.49H348.246V18.08H355.456V29.49H365.746V35.58H355.456V55.81C355.456 57.21 356.109 57.91 357.416 57.91H364.626V64H355.106Z" fill="black"/>
<rect x="204" y="70" width="155" height="18" fill="#A0C402"/>
<path d="M211.562 86.252C210.59 86.252 209.732 86.078 208.988 85.73C208.244 85.382 207.662 84.884 207.242 84.236C206.822 83.588 206.612 82.808 206.612 81.896V81.392H208.952V81.896C208.952 82.652 209.186 83.222 209.654 83.606C210.122 83.978 210.758 84.164 211.562 84.164C212.378 84.164 212.984 84.002 213.38 83.678C213.788 83.354 213.992 82.94 213.992 82.436C213.992 82.088 213.89 81.806 213.686 81.59C213.494 81.374 213.206 81.2 212.822 81.068C212.45 80.924 211.994 80.792 211.454 80.672L211.04 80.582C210.176 80.39 209.432 80.15 208.808 79.862C208.196 79.562 207.722 79.172 207.386 78.692C207.062 78.212 206.9 77.588 206.9 76.82C206.9 76.052 207.08 75.398 207.44 74.858C207.812 74.306 208.328 73.886 208.988 73.598C209.66 73.298 210.446 73.148 211.346 73.148C212.246 73.148 213.044 73.304 213.74 73.616C214.448 73.916 215 74.372 215.396 74.984C215.804 75.584 216.008 76.34 216.008 77.252V77.792H213.668V77.252C213.668 76.772 213.572 76.388 213.38 76.1C213.2 75.8 212.936 75.584 212.588 75.452C212.24 75.308 211.826 75.236 211.346 75.236C210.626 75.236 210.092 75.374 209.744 75.65C209.408 75.914 209.24 76.28 209.24 76.748C209.24 77.06 209.318 77.324 209.474 77.54C209.642 77.756 209.888 77.936 210.212 78.08C210.536 78.224 210.95 78.35 211.454 78.458L211.868 78.548C212.768 78.74 213.548 78.986 214.208 79.286C214.88 79.586 215.402 79.982 215.774 80.474C216.146 80.966 216.332 81.596 216.332 82.364C216.332 83.132 216.134 83.81 215.738 84.398C215.354 84.974 214.802 85.43 214.082 85.766C213.374 86.09 212.534 86.252 211.562 86.252ZM224.044 86V73.4H226.42V86H224.044ZM234.73 86V73.4H239.248L241.75 84.38H242.074V73.4H244.414V86H239.896L237.394 75.02H237.07V86H234.73ZM257.517 86.252C255.957 86.252 254.721 85.82 253.809 84.956C252.897 84.08 252.441 82.832 252.441 81.212V78.188C252.441 76.568 252.897 75.326 253.809 74.462C254.721 73.586 255.957 73.148 257.517 73.148C259.065 73.148 260.259 73.574 261.099 74.426C261.951 75.266 262.377 76.424 262.377 77.9V78.008H260.037V77.828C260.037 77.084 259.827 76.472 259.407 75.992C258.999 75.512 258.369 75.272 257.517 75.272C256.677 75.272 256.017 75.53 255.537 76.046C255.057 76.562 254.817 77.264 254.817 78.152V81.248C254.817 82.124 255.057 82.826 255.537 83.354C256.017 83.87 256.677 84.128 257.517 84.128C258.369 84.128 258.999 83.888 259.407 83.408C259.827 82.916 260.037 82.304 260.037 81.572V81.248H262.377V81.5C262.377 82.976 261.951 84.14 261.099 84.992C260.259 85.832 259.065 86.252 257.517 86.252ZM270.253 86V73.4H278.353V75.56H272.629V78.566H277.849V80.726H272.629V83.84H278.461V86H270.253ZM288.211 83.498C287.815 83.498 287.449 83.408 287.113 83.228C286.789 83.036 286.531 82.778 286.339 82.454C286.147 82.13 286.051 81.77 286.051 81.374C286.051 80.966 286.147 80.6 286.339 80.276C286.531 79.952 286.789 79.7 287.113 79.52C287.437 79.328 287.803 79.232 288.211 79.232C288.619 79.232 288.985 79.328 289.309 79.52C289.645 79.7 289.903 79.952 290.083 80.276C290.275 80.6 290.371 80.966 290.371 81.374C290.371 81.782 290.275 82.148 290.083 82.472C289.891 82.796 289.627 83.048 289.291 83.228C288.967 83.408 288.607 83.498 288.211 83.498ZM298.154 86V84.488C298.154 83.612 298.298 82.886 298.586 82.31C298.874 81.722 299.288 81.242 299.828 80.87C300.38 80.486 301.052 80.174 301.844 79.934L303.05 79.556C303.494 79.412 303.866 79.238 304.166 79.034C304.466 78.818 304.694 78.56 304.85 78.26C305.018 77.96 305.102 77.618 305.102 77.234V77.162C305.102 76.562 304.898 76.088 304.49 75.74C304.082 75.38 303.524 75.2 302.816 75.2C302.12 75.2 301.556 75.392 301.124 75.776C300.704 76.148 300.494 76.688 300.494 77.396V77.72H298.19V77.432C298.19 76.52 298.394 75.746 298.802 75.11C299.21 74.474 299.762 73.988 300.458 73.652C301.166 73.316 301.952 73.148 302.816 73.148C303.68 73.148 304.46 73.316 305.156 73.652C305.852 73.976 306.398 74.438 306.794 75.038C307.202 75.626 307.406 76.322 307.406 77.126V77.306C307.406 78.11 307.238 78.794 306.902 79.358C306.578 79.91 306.134 80.366 305.57 80.726C305.006 81.074 304.364 81.362 303.644 81.59L302.492 81.95C301.976 82.106 301.574 82.28 301.286 82.472C300.998 82.652 300.794 82.856 300.674 83.084C300.566 83.3 300.512 83.564 300.512 83.876V83.948H307.298V86H298.154ZM319.857 86.252C318.369 86.252 317.175 85.844 316.275 85.028C315.375 84.2 314.925 82.952 314.925 81.284V78.116C314.925 76.496 315.375 75.266 316.275 74.426C317.175 73.574 318.369 73.148 319.857 73.148C321.357 73.148 322.551 73.574 323.439 74.426C324.339 75.266 324.789 76.496 324.789 78.116V81.284C324.789 82.952 324.339 84.2 323.439 85.028C322.551 85.844 321.357 86.252 319.857 86.252ZM319.857 84.2C320.757 84.2 321.417 83.954 321.837 83.462C322.269 82.97 322.485 82.268 322.485 81.356V78.008C322.485 77.084 322.245 76.388 321.765 75.92C321.297 75.44 320.661 75.2 319.857 75.2C319.029 75.2 318.381 75.446 317.913 75.938C317.457 76.43 317.229 77.12 317.229 78.008V81.356C317.229 82.304 317.445 83.018 317.877 83.498C318.321 83.966 318.981 84.2 319.857 84.2ZM336.281 86V75.092H335.957L334.265 79.088H331.853L334.427 73.4H338.585V86H336.281ZM351.17 86.252C350.186 86.252 349.334 86.078 348.614 85.73C347.906 85.382 347.36 84.89 346.976 84.254C346.592 83.618 346.4 82.88 346.4 82.04V81.86H348.74V82.022C348.74 82.622 348.938 83.138 349.334 83.57C349.742 83.99 350.342 84.2 351.134 84.2C351.926 84.2 352.532 83.99 352.952 83.57C353.384 83.138 353.6 82.58 353.6 81.896V81.716C353.6 81.044 353.384 80.51 352.952 80.114C352.532 79.718 352.004 79.52 351.368 79.52C351.02 79.52 350.732 79.568 350.504 79.664C350.276 79.76 350.09 79.88 349.946 80.024C349.802 80.168 349.682 80.312 349.586 80.456H346.796V73.4H355.4V75.488H349.1V78.566H349.424C349.544 78.41 349.706 78.26 349.91 78.116C350.114 77.972 350.378 77.852 350.702 77.756C351.026 77.66 351.41 77.612 351.854 77.612C352.598 77.612 353.276 77.768 353.888 78.08C354.5 78.392 354.986 78.854 355.346 79.466C355.718 80.066 355.904 80.81 355.904 81.698V81.914C355.904 82.802 355.712 83.57 355.328 84.218C354.956 84.866 354.416 85.37 353.708 85.73C353 86.078 352.154 86.252 351.17 86.252Z" fill="#010101"/>
<path d="M3.22 64V55.88H9.66V23.12H3.22V15H28.42C31.4067 15 33.9967 15.5133 36.19 16.54C38.43 17.52 40.1567 18.9433 41.37 20.81C42.63 22.63 43.26 24.8233 43.26 27.39V28.09C43.26 30.33 42.84 32.1733 42 33.62C41.16 35.02 40.1567 36.1167 38.99 36.91C37.87 37.6567 36.7967 38.1933 35.77 38.52V39.78C36.7967 40.06 37.9167 40.5967 39.13 41.39C40.3433 42.1367 41.37 43.2333 42.21 44.68C43.0967 46.1267 43.54 48.0167 43.54 50.35V51.05C43.54 53.7567 42.91 56.09 41.65 58.05C40.39 59.9633 38.64 61.4333 36.4 62.46C34.2067 63.4867 31.64 64 28.7 64H3.22ZM18.9 55.6H27.58C29.5867 55.6 31.1967 55.11 32.41 54.13C33.67 53.15 34.3 51.75 34.3 49.93V49.23C34.3 47.41 33.6933 46.01 32.48 45.03C31.2667 44.05 29.6333 43.56 27.58 43.56H18.9V55.6ZM18.9 35.16H27.44C29.3533 35.16 30.9167 34.67 32.13 33.69C33.39 32.71 34.02 31.3567 34.02 29.63V28.93C34.02 27.1567 33.4133 25.8033 32.2 24.87C30.9867 23.89 29.4 23.4 27.44 23.4H18.9V35.16Z" fill="black"/>
<rect y="72" width="198" height="2" fill="black"/>
<rect y="78" width="198" height="2" fill="black"/>
<rect y="84" width="198" height="2" fill="black"/>
<path d="M158.5 24.2647L166 50.8321C179.667 24.9987 220.4 -17.9323 264 8.06765C247 -1.09907 199.6 5.53203 164 70.332L149 24.2647H158.5Z" fill="#A0C402"/>
</svg>
