<svg width="378" height="101" viewBox="0 0 378 101" fill="none" xmlns="http://www.w3.org/2000/svg">
<path d="M77.89 67.752C73.9233 67.752 70.4233 66.9354 67.39 65.302C64.4033 63.6687 62.07 61.4287 60.39 58.582C58.7567 55.7354 57.94 52.4687 57.94 48.782C57.94 45.0954 58.7333 41.8287 60.32 38.982C61.9533 36.1354 64.17 33.9187 66.97 32.332C69.8167 30.6987 73.0133 29.882 76.56 29.882C80.1533 29.882 83.3267 30.6754 86.08 32.262C88.8333 33.8487 90.98 36.0887 92.52 38.982C94.1067 41.8287 94.9 45.1654 94.9 48.992C94.9 49.272 94.8767 49.5987 94.83 49.972C94.83 50.3454 94.8067 50.6954 94.76 51.022H63.19V46.192H91.26L88.53 47.872C88.5767 45.492 88.0867 43.3687 87.06 41.502C86.0333 39.6354 84.61 38.1887 82.79 37.162C81.0167 36.0887 78.94 35.552 76.56 35.552C74.2267 35.552 72.15 36.0887 70.33 37.162C68.51 38.1887 67.0867 39.6587 66.06 41.572C65.0333 43.4387 64.52 45.5854 64.52 48.012V49.132C64.52 51.6054 65.08 53.822 66.2 55.782C67.3667 57.6954 68.9767 59.1887 71.03 60.262C73.0833 61.3354 75.44 61.872 78.1 61.872C80.2933 61.872 82.2767 61.4987 84.05 60.752C85.87 60.0054 87.4567 58.8854 88.81 57.392L92.52 61.732C90.84 63.692 88.74 65.1854 86.22 66.212C83.7467 67.2387 80.97 67.752 77.89 67.752ZM104.231 67.332V15.392H110.951V67.332H104.231ZM139.672 67.752C135.939 67.752 132.625 66.9354 129.732 65.302C126.839 63.6687 124.552 61.4287 122.872 58.582C121.192 55.6887 120.352 52.422 120.352 48.782C120.352 45.0954 121.192 41.8287 122.872 38.982C124.552 36.1354 126.839 33.9187 129.732 32.332C132.625 30.6987 135.939 29.882 139.672 29.882C143.359 29.882 146.649 30.6987 149.542 32.332C152.482 33.9187 154.769 36.1354 156.402 38.982C158.082 41.782 158.922 45.0487 158.922 48.782C158.922 52.4687 158.082 55.7354 156.402 58.582C154.769 61.4287 152.482 63.6687 149.542 65.302C146.649 66.9354 143.359 67.752 139.672 67.752ZM139.672 61.872C142.052 61.872 144.175 61.3354 146.042 60.262C147.955 59.1887 149.449 57.672 150.522 55.712C151.595 53.7054 152.132 51.3954 152.132 48.782C152.132 46.122 151.595 43.8354 150.522 41.922C149.449 39.962 147.955 38.4454 146.042 37.372C144.175 36.2987 142.052 35.762 139.672 35.762C137.292 35.762 135.169 36.2987 133.302 37.372C131.435 38.4454 129.942 39.962 128.822 41.922C127.702 43.8354 127.142 46.122 127.142 48.782C127.142 51.3954 127.702 53.7054 128.822 55.712C129.942 57.672 131.435 59.1887 133.302 60.262C135.169 61.3354 137.292 61.872 139.672 61.872ZM222.333 67.752C218.367 67.752 214.867 66.9354 211.833 65.302C208.847 63.6687 206.513 61.4287 204.833 58.582C203.2 55.7354 202.383 52.4687 202.383 48.782C202.383 45.0954 203.177 41.8287 204.763 38.982C206.397 36.1354 208.613 33.9187 211.413 32.332C214.26 30.6987 217.457 29.882 221.003 29.882C224.597 29.882 227.77 30.6754 230.523 32.262C233.277 33.8487 235.423 36.0887 236.963 38.982C238.55 41.8287 239.343 45.1654 239.343 48.992C239.343 49.272 239.32 49.5987 239.273 49.972C239.273 50.3454 239.25 50.6954 239.203 51.022H207.633V46.192H235.703L232.973 47.872C233.02 45.492 232.53 43.3687 231.503 41.502C230.477 39.6354 229.053 38.1887 227.233 37.162C225.46 36.0887 223.383 35.552 221.003 35.552C218.67 35.552 216.593 36.0887 214.773 37.162C212.953 38.1887 211.53 39.6587 210.503 41.572C209.477 43.4387 208.963 45.5854 208.963 48.012V49.132C208.963 51.6054 209.523 53.822 210.643 55.782C211.81 57.6954 213.42 59.1887 215.473 60.262C217.527 61.3354 219.883 61.872 222.543 61.872C224.737 61.872 226.72 61.4987 228.493 60.752C230.313 60.0054 231.9 58.8854 233.253 57.392L236.963 61.732C235.283 63.692 233.183 65.1854 230.663 66.212C228.19 67.2387 225.413 67.752 222.333 67.752ZM259.315 67.752C256.235 67.752 253.295 67.332 250.495 66.492C247.741 65.652 245.571 64.6254 243.985 63.412L246.785 58.092C248.371 59.1654 250.331 60.0754 252.665 60.822C254.998 61.5687 257.378 61.942 259.805 61.942C262.931 61.942 265.171 61.4987 266.525 60.612C267.925 59.7254 268.625 58.4887 268.625 56.902C268.625 55.7354 268.205 54.8254 267.365 54.172C266.525 53.5187 265.405 53.0287 264.005 52.702C262.651 52.3754 261.135 52.0954 259.455 51.862C257.775 51.582 256.095 51.2554 254.415 50.882C252.735 50.462 251.195 49.902 249.795 49.202C248.395 48.4554 247.275 47.452 246.435 46.192C245.595 44.8854 245.175 43.1587 245.175 41.012C245.175 38.772 245.805 36.812 247.065 35.132C248.325 33.452 250.098 32.1687 252.385 31.282C254.718 30.3487 257.471 29.882 260.645 29.882C263.071 29.882 265.521 30.1854 267.995 30.792C270.515 31.352 272.568 32.1687 274.155 33.242L271.285 38.562C269.605 37.442 267.855 36.672 266.035 36.252C264.215 35.832 262.395 35.622 260.575 35.622C257.635 35.622 255.441 36.112 253.995 37.092C252.548 38.0254 251.825 39.2387 251.825 40.732C251.825 41.992 252.245 42.972 253.085 43.672C253.971 44.3254 255.091 44.8387 256.445 45.212C257.845 45.5854 259.385 45.912 261.065 46.192C262.745 46.4254 264.425 46.752 266.105 47.172C267.785 47.5454 269.301 48.082 270.655 48.782C272.055 49.482 273.175 50.462 274.015 51.722C274.901 52.982 275.345 54.662 275.345 56.762C275.345 59.002 274.691 60.9387 273.385 62.572C272.078 64.2054 270.235 65.4887 267.855 66.422C265.475 67.3087 262.628 67.752 259.315 67.752ZM299.633 67.752C295.9 67.752 292.586 66.9354 289.693 65.302C286.8 63.6687 284.513 61.4287 282.833 58.582C281.153 55.6887 280.313 52.422 280.313 48.782C280.313 45.0954 281.153 41.8287 282.833 38.982C284.513 36.1354 286.8 33.9187 289.693 32.332C292.586 30.6987 295.9 29.882 299.633 29.882C303.32 29.882 306.61 30.6987 309.503 32.332C312.443 33.9187 314.73 36.1354 316.363 38.982C318.043 41.782 318.883 45.0487 318.883 48.782C318.883 52.4687 318.043 55.7354 316.363 58.582C314.73 61.4287 312.443 63.6687 309.503 65.302C306.61 66.9354 303.32 67.752 299.633 67.752ZM299.633 61.872C302.013 61.872 304.136 61.3354 306.003 60.262C307.916 59.1887 309.41 57.672 310.483 55.712C311.556 53.7054 312.093 51.3954 312.093 48.782C312.093 46.122 311.556 43.8354 310.483 41.922C309.41 39.962 307.916 38.4454 306.003 37.372C304.136 36.2987 302.013 35.762 299.633 35.762C297.253 35.762 295.13 36.2987 293.263 37.372C291.396 38.4454 289.903 39.962 288.783 41.922C287.663 43.8354 287.103 46.122 287.103 48.782C287.103 51.3954 287.663 53.7054 288.783 55.712C289.903 57.672 291.396 59.1887 293.263 60.262C295.13 61.3354 297.253 61.872 299.633 61.872ZM329.157 67.332V26.942C329.157 23.302 330.207 20.4087 332.307 18.262C334.453 16.0687 337.487 14.972 341.407 14.972C342.853 14.972 344.23 15.1587 345.537 15.532C346.89 15.8587 348.033 16.3954 348.967 17.142L346.937 22.252C346.237 21.692 345.443 21.272 344.557 20.992C343.67 20.6654 342.737 20.502 341.757 20.502C339.797 20.502 338.303 21.062 337.277 22.182C336.25 23.2554 335.737 24.8654 335.737 27.012V31.982L335.877 35.062V67.332H329.157ZM322.857 35.762V30.232H346.517V35.762H322.857ZM365.594 67.752C361.861 67.752 358.968 66.7487 356.914 64.742C354.861 62.7354 353.834 59.8654 353.834 56.132V22.112H360.554V55.852C360.554 57.8587 361.044 59.3987 362.024 60.472C363.051 61.5454 364.498 62.082 366.364 62.082C368.464 62.082 370.214 61.4987 371.614 60.332L373.714 65.162C372.688 66.0487 371.451 66.702 370.004 67.122C368.604 67.542 367.134 67.752 365.594 67.752ZM347.534 35.762V30.232H371.194V35.762H347.534Z" fill="black"/>
<path d="M214.947 94.56C213.883 94.56 212.863 94.4207 211.888 94.142C210.913 93.8507 210.127 93.477 209.532 93.021L210.577 90.703C211.147 91.1084 211.818 91.444 212.591 91.71C213.376 91.9634 214.168 92.09 214.966 92.09C215.574 92.09 216.062 92.033 216.429 91.919C216.809 91.7924 217.088 91.6214 217.265 91.406C217.442 91.1907 217.531 90.9437 217.531 90.665C217.531 90.3104 217.392 90.0317 217.113 89.829C216.834 89.6137 216.467 89.4427 216.011 89.316C215.555 89.1767 215.048 89.05 214.491 88.936C213.946 88.8094 213.395 88.6574 212.838 88.48C212.293 88.3027 211.793 88.0747 211.337 87.796C210.881 87.5174 210.507 87.15 210.216 86.694C209.937 86.238 209.798 85.6554 209.798 84.946C209.798 84.186 210.001 83.4957 210.406 82.875C210.824 82.2417 211.445 81.7414 212.268 81.374C213.104 80.994 214.149 80.804 215.403 80.804C216.239 80.804 217.062 80.9054 217.873 81.108C218.684 81.298 219.399 81.5894 220.02 81.982L219.07 84.319C218.449 83.9644 217.829 83.7047 217.208 83.54C216.587 83.3627 215.979 83.274 215.384 83.274C214.789 83.274 214.301 83.3437 213.921 83.483C213.541 83.6224 213.269 83.806 213.104 84.034C212.939 84.2494 212.857 84.5027 212.857 84.794C212.857 85.136 212.996 85.4147 213.275 85.63C213.554 85.8327 213.921 85.9974 214.377 86.124C214.833 86.2507 215.333 86.3774 215.878 86.504C216.435 86.6307 216.986 86.7764 217.531 86.941C218.088 87.1057 218.595 87.3274 219.051 87.606C219.507 87.8847 219.874 88.252 220.153 88.708C220.444 89.164 220.59 89.7404 220.59 90.437C220.59 91.1844 220.381 91.8684 219.963 92.489C219.545 93.1097 218.918 93.61 218.082 93.99C217.259 94.37 216.214 94.56 214.947 94.56ZM224.213 94.332V81.032H227.291V94.332H224.213ZM231.968 94.332V81.032H234.514L242.361 90.608H241.126V81.032H244.166V94.332H241.639L233.773 84.756H235.008V94.332H231.968ZM255.197 94.56C254.171 94.56 253.215 94.3954 252.328 94.066C251.454 93.724 250.694 93.2427 250.048 92.622C249.402 92.0014 248.896 91.273 248.528 90.437C248.174 89.601 247.996 88.6827 247.996 87.682C247.996 86.6814 248.174 85.763 248.528 84.927C248.896 84.091 249.402 83.3627 250.048 82.742C250.707 82.1214 251.473 81.6464 252.347 81.317C253.221 80.975 254.178 80.804 255.216 80.804C256.369 80.804 257.408 81.0067 258.332 81.412C259.27 81.8047 260.055 82.3874 260.688 83.16L258.712 84.984C258.256 84.4647 257.75 84.0784 257.192 83.825C256.635 83.559 256.027 83.426 255.368 83.426C254.748 83.426 254.178 83.5274 253.658 83.73C253.139 83.9327 252.689 84.224 252.309 84.604C251.929 84.984 251.632 85.4337 251.416 85.953C251.214 86.4724 251.112 87.0487 251.112 87.682C251.112 88.3154 251.214 88.8917 251.416 89.411C251.632 89.9304 251.929 90.38 252.309 90.76C252.689 91.14 253.139 91.4314 253.658 91.634C254.178 91.8367 254.748 91.938 255.368 91.938C256.027 91.938 256.635 91.8114 257.192 91.558C257.75 91.292 258.256 90.893 258.712 90.361L260.688 92.185C260.055 92.9577 259.27 93.5467 258.332 93.952C257.408 94.3574 256.363 94.56 255.197 94.56ZM267.118 86.39H273.521V88.784H267.118V86.39ZM267.346 91.862H274.585V94.332H264.287V81.032H274.338V83.502H267.346V91.862ZM279.651 94.484C279.145 94.484 278.708 94.313 278.34 93.971C277.986 93.6164 277.808 93.1667 277.808 92.622C277.808 92.0774 277.986 91.6404 278.34 91.311C278.708 90.969 279.145 90.798 279.651 90.798C280.171 90.798 280.608 90.969 280.962 91.311C281.317 91.6404 281.494 92.0774 281.494 92.622C281.494 93.1667 281.317 93.6164 280.962 93.971C280.608 94.313 280.171 94.484 279.651 94.484ZM284.468 94.332V92.337L289.598 87.492C290.003 87.1247 290.301 86.7954 290.491 86.504C290.681 86.2127 290.807 85.9467 290.871 85.706C290.947 85.4654 290.985 85.2437 290.985 85.041C290.985 84.509 290.801 84.1037 290.434 83.825C290.079 83.5337 289.553 83.388 288.857 83.388C288.299 83.388 287.78 83.4957 287.299 83.711C286.83 83.9264 286.431 84.262 286.102 84.718L283.86 83.274C284.366 82.514 285.076 81.9124 285.988 81.469C286.9 81.0257 287.951 80.804 289.142 80.804C290.13 80.804 290.991 80.9687 291.726 81.298C292.473 81.6147 293.049 82.0644 293.455 82.647C293.873 83.2297 294.082 83.9264 294.082 84.737C294.082 85.1677 294.025 85.5984 293.911 86.029C293.809 86.447 293.594 86.8904 293.265 87.359C292.948 87.8277 292.479 88.3534 291.859 88.936L287.603 92.945L287.014 91.824H294.519V94.332H284.468ZM303.009 94.56C301.919 94.56 300.944 94.294 300.083 93.762C299.221 93.2174 298.544 92.432 298.05 91.406C297.556 90.38 297.309 89.1387 297.309 87.682C297.309 86.2254 297.556 84.984 298.05 83.958C298.544 82.932 299.221 82.153 300.083 81.621C300.944 81.0764 301.919 80.804 303.009 80.804C304.111 80.804 305.086 81.0764 305.935 81.621C306.796 82.153 307.474 82.932 307.968 83.958C308.462 84.984 308.709 86.2254 308.709 87.682C308.709 89.1387 308.462 90.38 307.968 91.406C307.474 92.432 306.796 93.2174 305.935 93.762C305.086 94.294 304.111 94.56 303.009 94.56ZM303.009 91.957C303.528 91.957 303.978 91.8114 304.358 91.52C304.75 91.2287 305.054 90.7664 305.27 90.133C305.498 89.4997 305.612 88.6827 305.612 87.682C305.612 86.6814 305.498 85.8644 305.27 85.231C305.054 84.5977 304.75 84.1354 304.358 83.844C303.978 83.5527 303.528 83.407 303.009 83.407C302.502 83.407 302.052 83.5527 301.66 83.844C301.28 84.1354 300.976 84.5977 300.748 85.231C300.532 85.8644 300.425 86.6814 300.425 87.682C300.425 88.6827 300.532 89.4997 300.748 90.133C300.976 90.7664 301.28 91.2287 301.66 91.52C302.052 91.8114 302.502 91.957 303.009 91.957ZM313.702 94.332V82.172L315.032 83.502H311.042V81.032H316.78V94.332H313.702ZM325.132 94.56C324.208 94.56 323.289 94.4397 322.377 94.199C321.478 93.9457 320.705 93.591 320.059 93.135L321.275 90.779C321.782 91.1464 322.365 91.4377 323.023 91.653C323.695 91.8684 324.372 91.976 325.056 91.976C325.829 91.976 326.437 91.824 326.88 91.52C327.324 91.216 327.545 90.7917 327.545 90.247C327.545 89.905 327.457 89.601 327.279 89.335C327.102 89.069 326.785 88.8664 326.329 88.727C325.886 88.5877 325.259 88.518 324.448 88.518H321.047L321.731 81.032H329.844V83.502H322.833L324.429 82.096L323.954 87.435L322.358 86.029H325.17C326.488 86.029 327.545 86.2127 328.343 86.58C329.154 86.9347 329.743 87.4224 330.11 88.043C330.478 88.6637 330.661 89.3667 330.661 90.152C330.661 90.9374 330.465 91.6657 330.072 92.337C329.68 92.9957 329.072 93.534 328.248 93.952C327.438 94.3574 326.399 94.56 325.132 94.56Z" fill="#807F7F"/>
<path d="M5.81 68.332V19.332H29.75C35.91 19.332 40.53 20.4987 43.61 22.832C46.7367 25.1654 48.3 28.2454 48.3 32.072C48.3 34.6387 47.67 36.8787 46.41 38.792C45.15 40.6587 43.4233 42.1054 41.23 43.132C39.0367 44.1587 36.5167 44.672 33.67 44.672L35 41.802C38.08 41.802 40.81 42.3154 43.19 43.342C45.57 44.322 47.4133 45.792 48.72 47.752C50.0733 49.712 50.75 52.1154 50.75 54.962C50.75 59.162 49.0933 62.452 45.78 64.832C42.4667 67.1654 37.59 68.332 31.15 68.332H5.81ZM17.08 59.792H30.31C33.25 59.792 35.4667 59.3254 36.96 58.392C38.5 57.412 39.27 55.872 39.27 53.772C39.27 51.7187 38.5 50.202 36.96 49.222C35.4667 48.1954 33.25 47.682 30.31 47.682H16.24V39.422H28.35C31.1033 39.422 33.2033 38.9554 34.65 38.022C36.1433 37.042 36.89 35.572 36.89 33.612C36.89 31.6987 36.1433 30.2754 34.65 29.342C33.2033 28.362 31.1033 27.872 28.35 27.872H17.08V59.792Z" fill="black"/>
<rect x="6" y="82.332" width="194" height="2" fill="black"/>
<rect x="6" y="87.332" width="194" height="2" fill="black"/>
<rect x="6" y="92.332" width="194" height="2" fill="black"/>
<path d="M168.5 24.2647L176 50.8321C189.667 24.9987 230.4 -17.9323 274 8.06765C257 -1.09907 209.6 5.53203 174 70.332L159 24.2647H168.5Z" fill="#A0C402"/>
</svg>
