<svg width="378" height="101" viewBox="0 0 378 101" fill="none" xmlns="http://www.w3.org/2000/svg">
<path d="M77.89 68.42C73.9233 68.42 70.4233 67.6033 67.39 65.97C64.4033 64.3367 62.07 62.0967 60.39 59.25C58.7567 56.4033 57.94 53.1367 57.94 49.45C57.94 45.7633 58.7333 42.4967 60.32 39.65C61.9533 36.8033 64.17 34.5867 66.97 33C69.8167 31.3667 73.0133 30.55 76.56 30.55C80.1533 30.55 83.3267 31.3433 86.08 32.93C88.8333 34.5167 90.98 36.7567 92.52 39.65C94.1067 42.4967 94.9 45.8333 94.9 49.66C94.9 49.94 94.8767 50.2667 94.83 50.64C94.83 51.0133 94.8067 51.3633 94.76 51.69H63.19V46.86H91.26L88.53 48.54C88.5767 46.16 88.0867 44.0367 87.06 42.17C86.0333 40.3033 84.61 38.8567 82.79 37.83C81.0167 36.7567 78.94 36.22 76.56 36.22C74.2267 36.22 72.15 36.7567 70.33 37.83C68.51 38.8567 67.0867 40.3267 66.06 42.24C65.0333 44.1067 64.52 46.2533 64.52 48.68V49.8C64.52 52.2733 65.08 54.49 66.2 56.45C67.3667 58.3633 68.9767 59.8567 71.03 60.93C73.0833 62.0033 75.44 62.54 78.1 62.54C80.2933 62.54 82.2767 62.1667 84.05 61.42C85.87 60.6733 87.4567 59.5533 88.81 58.06L92.52 62.4C90.84 64.36 88.74 65.8533 86.22 66.88C83.7467 67.9067 80.97 68.42 77.89 68.42ZM104.231 68V16.06H110.951V68H104.231ZM139.672 68.42C135.939 68.42 132.625 67.6033 129.732 65.97C126.839 64.3367 124.552 62.0967 122.872 59.25C121.192 56.3567 120.352 53.09 120.352 49.45C120.352 45.7633 121.192 42.4967 122.872 39.65C124.552 36.8033 126.839 34.5867 129.732 33C132.625 31.3667 135.939 30.55 139.672 30.55C143.359 30.55 146.649 31.3667 149.542 33C152.482 34.5867 154.769 36.8033 156.402 39.65C158.082 42.45 158.922 45.7167 158.922 49.45C158.922 53.1367 158.082 56.4033 156.402 59.25C154.769 62.0967 152.482 64.3367 149.542 65.97C146.649 67.6033 143.359 68.42 139.672 68.42ZM139.672 62.54C142.052 62.54 144.175 62.0033 146.042 60.93C147.955 59.8567 149.449 58.34 150.522 56.38C151.595 54.3733 152.132 52.0633 152.132 49.45C152.132 46.79 151.595 44.5033 150.522 42.59C149.449 40.63 147.955 39.1133 146.042 38.04C144.175 36.9667 142.052 36.43 139.672 36.43C137.292 36.43 135.169 36.9667 133.302 38.04C131.435 39.1133 129.942 40.63 128.822 42.59C127.702 44.5033 127.142 46.79 127.142 49.45C127.142 52.0633 127.702 54.3733 128.822 56.38C129.942 58.34 131.435 59.8567 133.302 60.93C135.169 62.0033 137.292 62.54 139.672 62.54ZM222.333 68.42C218.367 68.42 214.867 67.6033 211.833 65.97C208.847 64.3367 206.513 62.0967 204.833 59.25C203.2 56.4033 202.383 53.1367 202.383 49.45C202.383 45.7633 203.177 42.4967 204.763 39.65C206.397 36.8033 208.613 34.5867 211.413 33C214.26 31.3667 217.457 30.55 221.003 30.55C224.597 30.55 227.77 31.3433 230.523 32.93C233.277 34.5167 235.423 36.7567 236.963 39.65C238.55 42.4967 239.343 45.8333 239.343 49.66C239.343 49.94 239.32 50.2667 239.273 50.64C239.273 51.0133 239.25 51.3633 239.203 51.69H207.633V46.86H235.703L232.973 48.54C233.02 46.16 232.53 44.0367 231.503 42.17C230.477 40.3033 229.053 38.8567 227.233 37.83C225.46 36.7567 223.383 36.22 221.003 36.22C218.67 36.22 216.593 36.7567 214.773 37.83C212.953 38.8567 211.53 40.3267 210.503 42.24C209.477 44.1067 208.963 46.2533 208.963 48.68V49.8C208.963 52.2733 209.523 54.49 210.643 56.45C211.81 58.3633 213.42 59.8567 215.473 60.93C217.527 62.0033 219.883 62.54 222.543 62.54C224.737 62.54 226.72 62.1667 228.493 61.42C230.313 60.6733 231.9 59.5533 233.253 58.06L236.963 62.4C235.283 64.36 233.183 65.8533 230.663 66.88C228.19 67.9067 225.413 68.42 222.333 68.42ZM259.315 68.42C256.235 68.42 253.295 68 250.495 67.16C247.741 66.32 245.571 65.2933 243.985 64.08L246.785 58.76C248.371 59.8333 250.331 60.7433 252.665 61.49C254.998 62.2367 257.378 62.61 259.805 62.61C262.931 62.61 265.171 62.1667 266.525 61.28C267.925 60.3933 268.625 59.1567 268.625 57.57C268.625 56.4033 268.205 55.4933 267.365 54.84C266.525 54.1867 265.405 53.6967 264.005 53.37C262.651 53.0433 261.135 52.7633 259.455 52.53C257.775 52.25 256.095 51.9233 254.415 51.55C252.735 51.13 251.195 50.57 249.795 49.87C248.395 49.1233 247.275 48.12 246.435 46.86C245.595 45.5533 245.175 43.8267 245.175 41.68C245.175 39.44 245.805 37.48 247.065 35.8C248.325 34.12 250.098 32.8367 252.385 31.95C254.718 31.0167 257.471 30.55 260.645 30.55C263.071 30.55 265.521 30.8533 267.995 31.46C270.515 32.02 272.568 32.8367 274.155 33.91L271.285 39.23C269.605 38.11 267.855 37.34 266.035 36.92C264.215 36.5 262.395 36.29 260.575 36.29C257.635 36.29 255.441 36.78 253.995 37.76C252.548 38.6933 251.825 39.9067 251.825 41.4C251.825 42.66 252.245 43.64 253.085 44.34C253.971 44.9933 255.091 45.5067 256.445 45.88C257.845 46.2533 259.385 46.58 261.065 46.86C262.745 47.0933 264.425 47.42 266.105 47.84C267.785 48.2133 269.301 48.75 270.655 49.45C272.055 50.15 273.175 51.13 274.015 52.39C274.901 53.65 275.345 55.33 275.345 57.43C275.345 59.67 274.691 61.6067 273.385 63.24C272.078 64.8733 270.235 66.1567 267.855 67.09C265.475 67.9767 262.628 68.42 259.315 68.42ZM299.633 68.42C295.9 68.42 292.586 67.6033 289.693 65.97C286.8 64.3367 284.513 62.0967 282.833 59.25C281.153 56.3567 280.313 53.09 280.313 49.45C280.313 45.7633 281.153 42.4967 282.833 39.65C284.513 36.8033 286.8 34.5867 289.693 33C292.586 31.3667 295.9 30.55 299.633 30.55C303.32 30.55 306.61 31.3667 309.503 33C312.443 34.5867 314.73 36.8033 316.363 39.65C318.043 42.45 318.883 45.7167 318.883 49.45C318.883 53.1367 318.043 56.4033 316.363 59.25C314.73 62.0967 312.443 64.3367 309.503 65.97C306.61 67.6033 303.32 68.42 299.633 68.42ZM299.633 62.54C302.013 62.54 304.136 62.0033 306.003 60.93C307.916 59.8567 309.41 58.34 310.483 56.38C311.556 54.3733 312.093 52.0633 312.093 49.45C312.093 46.79 311.556 44.5033 310.483 42.59C309.41 40.63 307.916 39.1133 306.003 38.04C304.136 36.9667 302.013 36.43 299.633 36.43C297.253 36.43 295.13 36.9667 293.263 38.04C291.396 39.1133 289.903 40.63 288.783 42.59C287.663 44.5033 287.103 46.79 287.103 49.45C287.103 52.0633 287.663 54.3733 288.783 56.38C289.903 58.34 291.396 59.8567 293.263 60.93C295.13 62.0033 297.253 62.54 299.633 62.54ZM329.157 68V27.61C329.157 23.97 330.207 21.0767 332.307 18.93C334.453 16.7367 337.487 15.64 341.407 15.64C342.853 15.64 344.23 15.8267 345.537 16.2C346.89 16.5267 348.033 17.0633 348.967 17.81L346.937 22.92C346.237 22.36 345.443 21.94 344.557 21.66C343.67 21.3333 342.737 21.17 341.757 21.17C339.797 21.17 338.303 21.73 337.277 22.85C336.25 23.9233 335.737 25.5333 335.737 27.68V32.65L335.877 35.73V68H329.157ZM322.857 36.43V30.9H346.517V36.43H322.857ZM365.594 68.42C361.861 68.42 358.968 67.4167 356.914 65.41C354.861 63.4033 353.834 60.5333 353.834 56.8V22.78H360.554V56.52C360.554 58.5267 361.044 60.0667 362.024 61.14C363.051 62.2133 364.498 62.75 366.364 62.75C368.464 62.75 370.214 62.1667 371.614 61L373.714 65.83C372.688 66.7167 371.451 67.37 370.004 67.79C368.604 68.21 367.134 68.42 365.594 68.42ZM347.534 36.43V30.9H371.194V36.43H347.534Z" fill="black"/>
<path d="M213.947 95.228C212.883 95.228 211.863 95.0887 210.888 94.81C209.913 94.5187 209.127 94.145 208.532 93.689L209.577 91.371C210.147 91.7763 210.818 92.112 211.591 92.378C212.376 92.6313 213.168 92.758 213.966 92.758C214.574 92.758 215.062 92.701 215.429 92.587C215.809 92.4603 216.088 92.2893 216.265 92.074C216.442 91.8587 216.531 91.6117 216.531 91.333C216.531 90.9783 216.392 90.6997 216.113 90.497C215.834 90.2817 215.467 90.1107 215.011 89.984C214.555 89.8447 214.048 89.718 213.491 89.604C212.946 89.4773 212.395 89.3253 211.838 89.148C211.293 88.9707 210.793 88.7427 210.337 88.464C209.881 88.1853 209.507 87.818 209.216 87.362C208.937 86.906 208.798 86.3233 208.798 85.614C208.798 84.854 209.001 84.1637 209.406 83.543C209.824 82.9097 210.445 82.4093 211.268 82.042C212.104 81.662 213.149 81.472 214.403 81.472C215.239 81.472 216.062 81.5733 216.873 81.776C217.684 81.966 218.399 82.2573 219.02 82.65L218.07 84.987C217.449 84.6323 216.829 84.3727 216.208 84.208C215.587 84.0307 214.979 83.942 214.384 83.942C213.789 83.942 213.301 84.0117 212.921 84.151C212.541 84.2903 212.269 84.474 212.104 84.702C211.939 84.9173 211.857 85.1707 211.857 85.462C211.857 85.804 211.996 86.0827 212.275 86.298C212.554 86.5007 212.921 86.6653 213.377 86.792C213.833 86.9187 214.333 87.0453 214.878 87.172C215.435 87.2987 215.986 87.4443 216.531 87.609C217.088 87.7737 217.595 87.9953 218.051 88.274C218.507 88.5527 218.874 88.92 219.153 89.376C219.444 89.832 219.59 90.4083 219.59 91.105C219.59 91.8523 219.381 92.5363 218.963 93.157C218.545 93.7777 217.918 94.278 217.082 94.658C216.259 95.038 215.214 95.228 213.947 95.228ZM221.693 95V81.7H224.771V95H221.693ZM227.928 95V81.7H230.474L238.321 91.276H237.086V81.7H240.126V95H237.599L229.733 85.424H230.968V95H227.928ZM249.637 95.228C248.611 95.228 247.655 95.0633 246.768 94.734C245.894 94.392 245.134 93.9107 244.488 93.29C243.842 92.6693 243.336 91.941 242.968 91.105C242.614 90.269 242.436 89.3507 242.436 88.35C242.436 87.3493 242.614 86.431 242.968 85.595C243.336 84.759 243.842 84.0307 244.488 83.41C245.147 82.7893 245.913 82.3143 246.787 81.985C247.661 81.643 248.618 81.472 249.656 81.472C250.809 81.472 251.848 81.6747 252.772 82.08C253.71 82.4727 254.495 83.0553 255.128 83.828L253.152 85.652C252.696 85.1327 252.19 84.7463 251.632 84.493C251.075 84.227 250.467 84.094 249.808 84.094C249.188 84.094 248.618 84.1953 248.098 84.398C247.579 84.6007 247.129 84.892 246.749 85.272C246.369 85.652 246.072 86.1017 245.856 86.621C245.654 87.1403 245.552 87.7167 245.552 88.35C245.552 88.9833 245.654 89.5597 245.856 90.079C246.072 90.5983 246.369 91.048 246.749 91.428C247.129 91.808 247.579 92.0993 248.098 92.302C248.618 92.5047 249.188 92.606 249.808 92.606C250.467 92.606 251.075 92.4793 251.632 92.226C252.19 91.96 252.696 91.561 253.152 91.029L255.128 92.853C254.495 93.6257 253.71 94.2147 252.772 94.62C251.848 95.0253 250.803 95.228 249.637 95.228ZM260.038 87.058H266.441V89.452H260.038V87.058ZM260.266 92.53H267.505V95H257.207V81.7H267.258V84.17H260.266V92.53ZM271.052 95.152C270.545 95.152 270.108 94.981 269.741 94.639C269.386 94.2843 269.209 93.8347 269.209 93.29C269.209 92.7453 269.386 92.3083 269.741 91.979C270.108 91.637 270.545 91.466 271.052 91.466C271.571 91.466 272.008 91.637 272.363 91.979C272.717 92.3083 272.895 92.7453 272.895 93.29C272.895 93.8347 272.717 94.2843 272.363 94.639C272.008 94.981 271.571 95.152 271.052 95.152ZM274.348 95V93.005L279.478 88.16C279.883 87.7927 280.181 87.4633 280.371 87.172C280.561 86.8807 280.687 86.6147 280.751 86.374C280.827 86.1333 280.865 85.9117 280.865 85.709C280.865 85.177 280.681 84.7717 280.314 84.493C279.959 84.2017 279.433 84.056 278.737 84.056C278.179 84.056 277.66 84.1637 277.179 84.379C276.71 84.5943 276.311 84.93 275.982 85.386L273.74 83.942C274.246 83.182 274.956 82.5803 275.868 82.137C276.78 81.6937 277.831 81.472 279.022 81.472C280.01 81.472 280.871 81.6367 281.606 81.966C282.353 82.2827 282.929 82.7323 283.335 83.315C283.753 83.8977 283.962 84.5943 283.962 85.405C283.962 85.8357 283.905 86.2663 283.791 86.697C283.689 87.115 283.474 87.5583 283.145 88.027C282.828 88.4957 282.359 89.0213 281.739 89.604L277.483 93.613L276.894 92.492H284.399V95H274.348ZM291.369 95.228C290.279 95.228 289.304 94.962 288.443 94.43C287.581 93.8853 286.904 93.1 286.41 92.074C285.916 91.048 285.669 89.8067 285.669 88.35C285.669 86.8933 285.916 85.652 286.41 84.626C286.904 83.6 287.581 82.821 288.443 82.289C289.304 81.7443 290.279 81.472 291.369 81.472C292.471 81.472 293.446 81.7443 294.295 82.289C295.156 82.821 295.834 83.6 296.328 84.626C296.822 85.652 297.069 86.8933 297.069 88.35C297.069 89.8067 296.822 91.048 296.328 92.074C295.834 93.1 295.156 93.8853 294.295 94.43C293.446 94.962 292.471 95.228 291.369 95.228ZM291.369 92.625C291.888 92.625 292.338 92.4793 292.718 92.188C293.11 91.8967 293.414 91.4343 293.63 90.801C293.858 90.1677 293.972 89.3507 293.972 88.35C293.972 87.3493 293.858 86.5323 293.63 85.899C293.414 85.2657 293.11 84.8033 292.718 84.512C292.338 84.2207 291.888 84.075 291.369 84.075C290.862 84.075 290.412 84.2207 290.02 84.512C289.64 84.8033 289.336 85.2657 289.108 85.899C288.892 86.5323 288.785 87.3493 288.785 88.35C288.785 89.3507 288.892 90.1677 289.108 90.801C289.336 91.4343 289.64 91.8967 290.02 92.188C290.412 92.4793 290.862 92.625 291.369 92.625ZM300.542 95V82.84L301.872 84.17H297.882V81.7H303.62V95H300.542ZM310.452 95.228C309.528 95.228 308.609 95.1077 307.697 94.867C306.798 94.6137 306.025 94.259 305.379 93.803L306.595 91.447C307.102 91.8143 307.685 92.1057 308.343 92.321C309.015 92.5363 309.692 92.644 310.376 92.644C311.149 92.644 311.757 92.492 312.2 92.188C312.644 91.884 312.865 91.4597 312.865 90.915C312.865 90.573 312.777 90.269 312.599 90.003C312.422 89.737 312.105 89.5343 311.649 89.395C311.206 89.2557 310.579 89.186 309.768 89.186H306.367L307.051 81.7H315.164V84.17H308.153L309.749 82.764L309.274 88.103L307.678 86.697H310.49C311.808 86.697 312.865 86.8807 313.663 87.248C314.474 87.6027 315.063 88.0903 315.43 88.711C315.798 89.3317 315.981 90.0347 315.981 90.82C315.981 91.6053 315.785 92.3337 315.392 93.005C315 93.6637 314.392 94.202 313.568 94.62C312.758 95.0253 311.719 95.228 310.452 95.228Z" fill="#807F7F"/>
<path d="M5.81 69V20H29.75C35.91 20 40.53 21.1667 43.61 23.5C46.7367 25.8333 48.3 28.9133 48.3 32.74C48.3 35.3067 47.67 37.5467 46.41 39.46C45.15 41.3267 43.4233 42.7733 41.23 43.8C39.0367 44.8267 36.5167 45.34 33.67 45.34L35 42.47C38.08 42.47 40.81 42.9833 43.19 44.01C45.57 44.99 47.4133 46.46 48.72 48.42C50.0733 50.38 50.75 52.7833 50.75 55.63C50.75 59.83 49.0933 63.12 45.78 65.5C42.4667 67.8333 37.59 69 31.15 69H5.81ZM17.08 60.46H30.31C33.25 60.46 35.4667 59.9933 36.96 59.06C38.5 58.08 39.27 56.54 39.27 54.44C39.27 52.3867 38.5 50.87 36.96 49.89C35.4667 48.8633 33.25 48.35 30.31 48.35H16.24V40.09H28.35C31.1033 40.09 33.2033 39.6233 34.65 38.69C36.1433 37.71 36.89 36.24 36.89 34.28C36.89 32.3667 36.1433 30.9433 34.65 30.01C33.2033 29.03 31.1033 28.54 28.35 28.54H17.08V60.46Z" fill="black"/>
<rect x="6" y="83" width="194" height="2" fill="black"/>
<rect x="6" y="88" width="194" height="2" fill="black"/>
<rect x="6" y="93" width="194" height="2" fill="black"/>
<path d="M168 24L178 52.8029C191.667 26.9696 229.9 -18.1971 273.5 7.80292C256.5 -1.36381 211.6 4.50273 176 69.3027L161 27.5L168 24Z" fill="#B5DC08"/>
</svg>
