<svg width="378" height="95" viewBox="0 0 378 95" fill="none" xmlns="http://www.w3.org/2000/svg">
<path d="M77.89 62.42C73.9233 62.42 70.4233 61.6033 67.39 59.97C64.4033 58.3367 62.07 56.0967 60.39 53.25C58.7567 50.4033 57.94 47.1367 57.94 43.45C57.94 39.7633 58.7333 36.4967 60.32 33.65C61.9533 30.8033 64.17 28.5867 66.97 27C69.8167 25.3667 73.0133 24.55 76.56 24.55C80.1533 24.55 83.3267 25.3433 86.08 26.93C88.8333 28.5167 90.98 30.7567 92.52 33.65C94.1067 36.4967 94.9 39.8333 94.9 43.66C94.9 43.94 94.8767 44.2667 94.83 44.64C94.83 45.0133 94.8067 45.3633 94.76 45.69H63.19V40.86H91.26L88.53 42.54C88.5767 40.16 88.0867 38.0367 87.06 36.17C86.0333 34.3033 84.61 32.8567 82.79 31.83C81.0167 30.7567 78.94 30.22 76.56 30.22C74.2267 30.22 72.15 30.7567 70.33 31.83C68.51 32.8567 67.0867 34.3267 66.06 36.24C65.0333 38.1067 64.52 40.2533 64.52 42.68V43.8C64.52 46.2733 65.08 48.49 66.2 50.45C67.3667 52.3633 68.9767 53.8567 71.03 54.93C73.0833 56.0033 75.44 56.54 78.1 56.54C80.2933 56.54 82.2767 56.1667 84.05 55.42C85.87 54.6733 87.4567 53.5533 88.81 52.06L92.52 56.4C90.84 58.36 88.74 59.8533 86.22 60.88C83.7467 61.9067 80.97 62.42 77.89 62.42ZM104.231 62V10.06H110.951V62H104.231ZM139.672 62.42C135.939 62.42 132.625 61.6033 129.732 59.97C126.839 58.3367 124.552 56.0967 122.872 53.25C121.192 50.3567 120.352 47.09 120.352 43.45C120.352 39.7633 121.192 36.4967 122.872 33.65C124.552 30.8033 126.839 28.5867 129.732 27C132.625 25.3667 135.939 24.55 139.672 24.55C143.359 24.55 146.649 25.3667 149.542 27C152.482 28.5867 154.769 30.8033 156.402 33.65C158.082 36.45 158.922 39.7167 158.922 43.45C158.922 47.1367 158.082 50.4033 156.402 53.25C154.769 56.0967 152.482 58.3367 149.542 59.97C146.649 61.6033 143.359 62.42 139.672 62.42ZM139.672 56.54C142.052 56.54 144.175 56.0033 146.042 54.93C147.955 53.8567 149.449 52.34 150.522 50.38C151.595 48.3733 152.132 46.0633 152.132 43.45C152.132 40.79 151.595 38.5033 150.522 36.59C149.449 34.63 147.955 33.1133 146.042 32.04C144.175 30.9667 142.052 30.43 139.672 30.43C137.292 30.43 135.169 30.9667 133.302 32.04C131.435 33.1133 129.942 34.63 128.822 36.59C127.702 38.5033 127.142 40.79 127.142 43.45C127.142 46.0633 127.702 48.3733 128.822 50.38C129.942 52.34 131.435 53.8567 133.302 54.93C135.169 56.0033 137.292 56.54 139.672 56.54ZM222.333 62.42C218.367 62.42 214.867 61.6033 211.833 59.97C208.847 58.3367 206.513 56.0967 204.833 53.25C203.2 50.4033 202.383 47.1367 202.383 43.45C202.383 39.7633 203.177 36.4967 204.763 33.65C206.397 30.8033 208.613 28.5867 211.413 27C214.26 25.3667 217.457 24.55 221.003 24.55C224.597 24.55 227.77 25.3433 230.523 26.93C233.277 28.5167 235.423 30.7567 236.963 33.65C238.55 36.4967 239.343 39.8333 239.343 43.66C239.343 43.94 239.32 44.2667 239.273 44.64C239.273 45.0133 239.25 45.3633 239.203 45.69H207.633V40.86H235.703L232.973 42.54C233.02 40.16 232.53 38.0367 231.503 36.17C230.477 34.3033 229.053 32.8567 227.233 31.83C225.46 30.7567 223.383 30.22 221.003 30.22C218.67 30.22 216.593 30.7567 214.773 31.83C212.953 32.8567 211.53 34.3267 210.503 36.24C209.477 38.1067 208.963 40.2533 208.963 42.68V43.8C208.963 46.2733 209.523 48.49 210.643 50.45C211.81 52.3633 213.42 53.8567 215.473 54.93C217.527 56.0033 219.883 56.54 222.543 56.54C224.737 56.54 226.72 56.1667 228.493 55.42C230.313 54.6733 231.9 53.5533 233.253 52.06L236.963 56.4C235.283 58.36 233.183 59.8533 230.663 60.88C228.19 61.9067 225.413 62.42 222.333 62.42ZM259.315 62.42C256.235 62.42 253.295 62 250.495 61.16C247.741 60.32 245.571 59.2933 243.985 58.08L246.785 52.76C248.371 53.8333 250.331 54.7433 252.665 55.49C254.998 56.2367 257.378 56.61 259.805 56.61C262.931 56.61 265.171 56.1667 266.525 55.28C267.925 54.3933 268.625 53.1567 268.625 51.57C268.625 50.4033 268.205 49.4933 267.365 48.84C266.525 48.1867 265.405 47.6967 264.005 47.37C262.651 47.0433 261.135 46.7633 259.455 46.53C257.775 46.25 256.095 45.9233 254.415 45.55C252.735 45.13 251.195 44.57 249.795 43.87C248.395 43.1233 247.275 42.12 246.435 40.86C245.595 39.5533 245.175 37.8267 245.175 35.68C245.175 33.44 245.805 31.48 247.065 29.8C248.325 28.12 250.098 26.8367 252.385 25.95C254.718 25.0167 257.471 24.55 260.645 24.55C263.071 24.55 265.521 24.8533 267.995 25.46C270.515 26.02 272.568 26.8367 274.155 27.91L271.285 33.23C269.605 32.11 267.855 31.34 266.035 30.92C264.215 30.5 262.395 30.29 260.575 30.29C257.635 30.29 255.441 30.78 253.995 31.76C252.548 32.6933 251.825 33.9067 251.825 35.4C251.825 36.66 252.245 37.64 253.085 38.34C253.971 38.9933 255.091 39.5067 256.445 39.88C257.845 40.2533 259.385 40.58 261.065 40.86C262.745 41.0933 264.425 41.42 266.105 41.84C267.785 42.2133 269.301 42.75 270.655 43.45C272.055 44.15 273.175 45.13 274.015 46.39C274.901 47.65 275.345 49.33 275.345 51.43C275.345 53.67 274.691 55.6067 273.385 57.24C272.078 58.8733 270.235 60.1567 267.855 61.09C265.475 61.9767 262.628 62.42 259.315 62.42ZM299.633 62.42C295.9 62.42 292.586 61.6033 289.693 59.97C286.8 58.3367 284.513 56.0967 282.833 53.25C281.153 50.3567 280.313 47.09 280.313 43.45C280.313 39.7633 281.153 36.4967 282.833 33.65C284.513 30.8033 286.8 28.5867 289.693 27C292.586 25.3667 295.9 24.55 299.633 24.55C303.32 24.55 306.61 25.3667 309.503 27C312.443 28.5867 314.73 30.8033 316.363 33.65C318.043 36.45 318.883 39.7167 318.883 43.45C318.883 47.1367 318.043 50.4033 316.363 53.25C314.73 56.0967 312.443 58.3367 309.503 59.97C306.61 61.6033 303.32 62.42 299.633 62.42ZM299.633 56.54C302.013 56.54 304.136 56.0033 306.003 54.93C307.916 53.8567 309.41 52.34 310.483 50.38C311.556 48.3733 312.093 46.0633 312.093 43.45C312.093 40.79 311.556 38.5033 310.483 36.59C309.41 34.63 307.916 33.1133 306.003 32.04C304.136 30.9667 302.013 30.43 299.633 30.43C297.253 30.43 295.13 30.9667 293.263 32.04C291.396 33.1133 289.903 34.63 288.783 36.59C287.663 38.5033 287.103 40.79 287.103 43.45C287.103 46.0633 287.663 48.3733 288.783 50.38C289.903 52.34 291.396 53.8567 293.263 54.93C295.13 56.0033 297.253 56.54 299.633 56.54ZM329.157 62V21.61C329.157 17.97 330.207 15.0767 332.307 12.93C334.453 10.7367 337.487 9.64 341.407 9.64C342.853 9.64 344.23 9.82667 345.537 10.2C346.89 10.5267 348.033 11.0633 348.967 11.81L346.937 16.92C346.237 16.36 345.443 15.94 344.557 15.66C343.67 15.3333 342.737 15.17 341.757 15.17C339.797 15.17 338.303 15.73 337.277 16.85C336.25 17.9233 335.737 19.5333 335.737 21.68V26.65L335.877 29.73V62H329.157ZM322.857 30.43V24.9H346.517V30.43H322.857ZM365.594 62.42C361.861 62.42 358.968 61.4167 356.914 59.41C354.861 57.4033 353.834 54.5333 353.834 50.8V16.78H360.554V50.52C360.554 52.5267 361.044 54.0667 362.024 55.14C363.051 56.2133 364.498 56.75 366.364 56.75C368.464 56.75 370.214 56.1667 371.614 55L373.714 59.83C372.688 60.7167 371.451 61.37 370.004 61.79C368.604 62.21 367.134 62.42 365.594 62.42ZM347.534 30.43V24.9H371.194V30.43H347.534Z" fill="black"/>
<path d="M213.947 89.228C212.883 89.228 211.863 89.0887 210.888 88.81C209.913 88.5187 209.127 88.145 208.532 87.689L209.577 85.371C210.147 85.7763 210.818 86.112 211.591 86.378C212.376 86.6313 213.168 86.758 213.966 86.758C214.574 86.758 215.062 86.701 215.429 86.587C215.809 86.4603 216.088 86.2893 216.265 86.074C216.442 85.8587 216.531 85.6117 216.531 85.333C216.531 84.9783 216.392 84.6997 216.113 84.497C215.834 84.2817 215.467 84.1107 215.011 83.984C214.555 83.8447 214.048 83.718 213.491 83.604C212.946 83.4773 212.395 83.3253 211.838 83.148C211.293 82.9707 210.793 82.7427 210.337 82.464C209.881 82.1853 209.507 81.818 209.216 81.362C208.937 80.906 208.798 80.3233 208.798 79.614C208.798 78.854 209.001 78.1637 209.406 77.543C209.824 76.9097 210.445 76.4093 211.268 76.042C212.104 75.662 213.149 75.472 214.403 75.472C215.239 75.472 216.062 75.5733 216.873 75.776C217.684 75.966 218.399 76.2573 219.02 76.65L218.07 78.987C217.449 78.6323 216.829 78.3727 216.208 78.208C215.587 78.0307 214.979 77.942 214.384 77.942C213.789 77.942 213.301 78.0117 212.921 78.151C212.541 78.2903 212.269 78.474 212.104 78.702C211.939 78.9173 211.857 79.1707 211.857 79.462C211.857 79.804 211.996 80.0827 212.275 80.298C212.554 80.5007 212.921 80.6653 213.377 80.792C213.833 80.9187 214.333 81.0453 214.878 81.172C215.435 81.2987 215.986 81.4443 216.531 81.609C217.088 81.7737 217.595 81.9953 218.051 82.274C218.507 82.5527 218.874 82.92 219.153 83.376C219.444 83.832 219.59 84.4083 219.59 85.105C219.59 85.8523 219.381 86.5363 218.963 87.157C218.545 87.7777 217.918 88.278 217.082 88.658C216.259 89.038 215.214 89.228 213.947 89.228ZM221.693 89V75.7H224.771V89H221.693ZM227.928 89V75.7H230.474L238.321 85.276H237.086V75.7H240.126V89H237.599L229.733 79.424H230.968V89H227.928ZM249.637 89.228C248.611 89.228 247.655 89.0633 246.768 88.734C245.894 88.392 245.134 87.9107 244.488 87.29C243.842 86.6693 243.336 85.941 242.968 85.105C242.614 84.269 242.436 83.3507 242.436 82.35C242.436 81.3493 242.614 80.431 242.968 79.595C243.336 78.759 243.842 78.0307 244.488 77.41C245.147 76.7893 245.913 76.3143 246.787 75.985C247.661 75.643 248.618 75.472 249.656 75.472C250.809 75.472 251.848 75.6747 252.772 76.08C253.71 76.4727 254.495 77.0553 255.128 77.828L253.152 79.652C252.696 79.1327 252.19 78.7463 251.632 78.493C251.075 78.227 250.467 78.094 249.808 78.094C249.188 78.094 248.618 78.1953 248.098 78.398C247.579 78.6007 247.129 78.892 246.749 79.272C246.369 79.652 246.072 80.1017 245.856 80.621C245.654 81.1403 245.552 81.7167 245.552 82.35C245.552 82.9833 245.654 83.5597 245.856 84.079C246.072 84.5983 246.369 85.048 246.749 85.428C247.129 85.808 247.579 86.0993 248.098 86.302C248.618 86.5047 249.188 86.606 249.808 86.606C250.467 86.606 251.075 86.4793 251.632 86.226C252.19 85.96 252.696 85.561 253.152 85.029L255.128 86.853C254.495 87.6257 253.71 88.2147 252.772 88.62C251.848 89.0253 250.803 89.228 249.637 89.228ZM260.038 81.058H266.441V83.452H260.038V81.058ZM260.266 86.53H267.505V89H257.207V75.7H267.258V78.17H260.266V86.53ZM271.052 89.152C270.545 89.152 270.108 88.981 269.741 88.639C269.386 88.2843 269.209 87.8347 269.209 87.29C269.209 86.7453 269.386 86.3083 269.741 85.979C270.108 85.637 270.545 85.466 271.052 85.466C271.571 85.466 272.008 85.637 272.363 85.979C272.717 86.3083 272.895 86.7453 272.895 87.29C272.895 87.8347 272.717 88.2843 272.363 88.639C272.008 88.981 271.571 89.152 271.052 89.152ZM274.348 89V87.005L279.478 82.16C279.883 81.7927 280.181 81.4633 280.371 81.172C280.561 80.8807 280.687 80.6147 280.751 80.374C280.827 80.1333 280.865 79.9117 280.865 79.709C280.865 79.177 280.681 78.7717 280.314 78.493C279.959 78.2017 279.433 78.056 278.737 78.056C278.179 78.056 277.66 78.1637 277.179 78.379C276.71 78.5943 276.311 78.93 275.982 79.386L273.74 77.942C274.246 77.182 274.956 76.5803 275.868 76.137C276.78 75.6937 277.831 75.472 279.022 75.472C280.01 75.472 280.871 75.6367 281.606 75.966C282.353 76.2827 282.929 76.7323 283.335 77.315C283.753 77.8977 283.962 78.5943 283.962 79.405C283.962 79.8357 283.905 80.2663 283.791 80.697C283.689 81.115 283.474 81.5583 283.145 82.027C282.828 82.4957 282.359 83.0213 281.739 83.604L277.483 87.613L276.894 86.492H284.399V89H274.348ZM291.369 89.228C290.279 89.228 289.304 88.962 288.443 88.43C287.581 87.8853 286.904 87.1 286.41 86.074C285.916 85.048 285.669 83.8067 285.669 82.35C285.669 80.8933 285.916 79.652 286.41 78.626C286.904 77.6 287.581 76.821 288.443 76.289C289.304 75.7443 290.279 75.472 291.369 75.472C292.471 75.472 293.446 75.7443 294.295 76.289C295.156 76.821 295.834 77.6 296.328 78.626C296.822 79.652 297.069 80.8933 297.069 82.35C297.069 83.8067 296.822 85.048 296.328 86.074C295.834 87.1 295.156 87.8853 294.295 88.43C293.446 88.962 292.471 89.228 291.369 89.228ZM291.369 86.625C291.888 86.625 292.338 86.4793 292.718 86.188C293.11 85.8967 293.414 85.4343 293.63 84.801C293.858 84.1677 293.972 83.3507 293.972 82.35C293.972 81.3493 293.858 80.5323 293.63 79.899C293.414 79.2657 293.11 78.8033 292.718 78.512C292.338 78.2207 291.888 78.075 291.369 78.075C290.862 78.075 290.412 78.2207 290.02 78.512C289.64 78.8033 289.336 79.2657 289.108 79.899C288.892 80.5323 288.785 81.3493 288.785 82.35C288.785 83.3507 288.892 84.1677 289.108 84.801C289.336 85.4343 289.64 85.8967 290.02 86.188C290.412 86.4793 290.862 86.625 291.369 86.625ZM300.542 89V76.84L301.872 78.17H297.882V75.7H303.62V89H300.542ZM310.452 89.228C309.528 89.228 308.609 89.1077 307.697 88.867C306.798 88.6137 306.025 88.259 305.379 87.803L306.595 85.447C307.102 85.8143 307.685 86.1057 308.343 86.321C309.015 86.5363 309.692 86.644 310.376 86.644C311.149 86.644 311.757 86.492 312.2 86.188C312.644 85.884 312.865 85.4597 312.865 84.915C312.865 84.573 312.777 84.269 312.599 84.003C312.422 83.737 312.105 83.5343 311.649 83.395C311.206 83.2557 310.579 83.186 309.768 83.186H306.367L307.051 75.7H315.164V78.17H308.153L309.749 76.764L309.274 82.103L307.678 80.697H310.49C311.808 80.697 312.865 80.8807 313.663 81.248C314.474 81.6027 315.063 82.0903 315.43 82.711C315.798 83.3317 315.981 84.0347 315.981 84.82C315.981 85.6053 315.785 86.3337 315.392 87.005C315 87.6637 314.392 88.202 313.568 88.62C312.758 89.0253 311.719 89.228 310.452 89.228Z" fill="#807F7F"/>
<path d="M5.81 63V14H29.75C35.91 14 40.53 15.1667 43.61 17.5C46.7367 19.8333 48.3 22.9133 48.3 26.74C48.3 29.3067 47.67 31.5467 46.41 33.46C45.15 35.3267 43.4233 36.7733 41.23 37.8C39.0367 38.8267 36.5167 39.34 33.67 39.34L35 36.47C38.08 36.47 40.81 36.9833 43.19 38.01C45.57 38.99 47.4133 40.46 48.72 42.42C50.0733 44.38 50.75 46.7833 50.75 49.63C50.75 53.83 49.0933 57.12 45.78 59.5C42.4667 61.8333 37.59 63 31.15 63H5.81ZM17.08 54.46H30.31C33.25 54.46 35.4667 53.9933 36.96 53.06C38.5 52.08 39.27 50.54 39.27 48.44C39.27 46.3867 38.5 44.87 36.96 43.89C35.4667 42.8633 33.25 42.35 30.31 42.35H16.24V34.09H28.35C31.1033 34.09 33.2033 33.6233 34.65 32.69C36.1433 31.71 36.89 30.24 36.89 28.28C36.89 26.3667 36.1433 24.9433 34.65 24.01C33.2033 23.03 31.1033 22.54 28.35 22.54H17.08V54.46Z" fill="black"/>
<rect x="6" y="77" width="194" height="2" fill="black"/>
<rect x="6" y="82" width="194" height="2" fill="black"/>
<rect x="6" y="87" width="194" height="2" fill="black"/>
<path d="M175.5 57.5L170 29.999H161L168.849 61.67H181.5C214.023 -0.755531 243.176 2.33822 258 11.1643C218.28 -13.3425 186.598 30.5477 175.5 57.5Z" fill="#B5DC08"/>
</svg>
