<svg width="100" height="100" viewBox="0 0 100 100" fill="none" xmlns="http://www.w3.org/2000/svg">
<path d="M49.9006 74.6129C36.2564 74.6129 25.1957 63.5521 25.1957 49.908C25.1957 36.2639 36.2564 25.2031 49.9006 25.2031C63.5447 25.2031 74.6055 36.2639 74.6055 49.908C74.6055 63.5521 63.5447 74.6129 49.9006 74.6129Z" stroke="#5CCBE4" stroke-miterlimit="10" stroke-dasharray="4 8"/>
<path d="M49.906 83.0278C31.6136 83.0278 16.7847 68.1989 16.7847 49.9065C16.7847 31.6141 31.6136 16.7852 49.906 16.7852C68.1984 16.7852 83.0273 31.6141 83.0273 49.9065C83.0273 68.1989 68.1984 83.0278 49.906 83.0278Z" stroke="#5CCBE4" stroke-miterlimit="10" stroke-dasharray="4 8"/>
<path d="M49.9011 91.2251C27.082 91.2251 8.58352 72.7266 8.58352 49.9075C8.58352 27.0884 27.082 8.58984 49.9011 8.58984C72.7202 8.58984 91.2188 27.0884 91.2188 49.9075C91.2188 72.7266 72.7202 91.2251 49.9011 91.2251Z" stroke="#5CCBE4" stroke-miterlimit="10" stroke-dasharray="4 8"/>
<path d="M49.9054 99.3142C22.6186 99.3142 0.498268 77.1939 0.498268 49.9071C0.498268 22.6203 22.6186 0.5 49.9054 0.5C77.1922 0.5 99.3125 22.6203 99.3125 49.9071C99.3125 77.1939 77.1922 99.3142 49.9054 99.3142Z" stroke="#5CCBE4" stroke-miterlimit="10" stroke-dasharray="4 8"/>
</svg>
