<svg width="285" height="239" viewBox="0 0 285 239" fill="none" xmlns="http://www.w3.org/2000/svg">
<path fill-rule="evenodd" clip-rule="evenodd" d="M174.491 140.62L41.0098 201.09L42.699 207.924L140.247 235.649L247.704 167.157L250.667 158.876L174.491 140.62Z" fill="#5CCBE4"/>
<path fill-rule="evenodd" clip-rule="evenodd" d="M166.701 33.4501L18.6562 87.75L34.7114 196.597L173.538 134.539L166.701 33.4501Z" fill="#5CCBE4"/>
<path fill-rule="evenodd" clip-rule="evenodd" d="M166.684 33.459L23.3828 85.6367L39.4382 194.485L173.766 134.438L166.684 33.459Z" fill="#87DEED"/>
<path fill-rule="evenodd" clip-rule="evenodd" d="M161.384 43.6314L33.7344 90.5371L47.4612 183.599L167.174 130.085L161.384 43.6314Z" fill="white"/>
<path fill-rule="evenodd" clip-rule="evenodd" d="M175.005 140.222L40.9609 200.947L137.987 228.632L250.645 158.799L175.005 140.222Z" fill="#87DEED"/>
<path fill-rule="evenodd" clip-rule="evenodd" d="M175.218 146.7L65.5224 198.599L113.809 210.861L212.382 155.553L175.218 146.7Z" fill="#5CCBE4"/>
<path fill-rule="evenodd" clip-rule="evenodd" d="M188.548 173.256L137.854 201.374L162.552 207.646L209.808 178.092L188.548 173.256Z" fill="#5CCBE4"/>
<path fill-rule="evenodd" clip-rule="evenodd" d="M179.622 80.9934L125.859 84.334L154.061 127.697L163.847 111.246L197.599 127.499L205.602 112.535L171.303 96.7419L179.622 80.9934Z" fill="#B2E8F3"/>
<path d="M37.9773 214.645C48.3265 214.645 56.7163 206.255 56.7163 195.906C56.7163 185.557 48.3265 177.167 37.9773 177.167C27.628 177.167 19.2383 185.557 19.2383 195.906C19.2383 206.255 27.628 214.645 37.9773 214.645Z" stroke="#5CCBE4" stroke-miterlimit="10" stroke-dasharray="4 8"/>
<path d="M37.9746 221.028C51.8496 221.028 63.0976 209.78 63.0976 195.905C63.0976 182.03 51.8496 170.782 37.9746 170.782C24.0995 170.782 12.8516 182.03 12.8516 195.905C12.8516 209.78 24.0995 221.028 37.9746 221.028Z" stroke="#5CCBE4" stroke-miterlimit="10" stroke-dasharray="4 8"/>
<path d="M37.9767 227.245C55.2853 227.245 69.3167 213.214 69.3167 195.905C69.3167 178.597 55.2853 164.565 37.9767 164.565C20.6681 164.565 6.63672 178.597 6.63672 195.905C6.63672 213.214 20.6681 227.245 37.9767 227.245Z" stroke="#5CCBE4" stroke-miterlimit="10" stroke-dasharray="4 8"/>
<path d="M37.976 233.382C58.6734 233.382 75.452 216.603 75.452 195.906C75.452 175.208 58.6734 158.43 37.976 158.43C17.2786 158.43 0.5 175.208 0.5 195.906C0.5 216.603 17.2786 233.382 37.976 233.382Z" stroke="#5CCBE4" stroke-miterlimit="10" stroke-dasharray="4 8"/>
<path d="M162.009 56.7153C172.358 56.7153 180.748 48.3256 180.748 37.9763C180.748 27.627 172.358 19.2373 162.009 19.2373C151.659 19.2373 143.27 27.627 143.27 37.9763C143.27 48.3256 151.659 56.7153 162.009 56.7153Z" stroke="#5CCBE4" stroke-miterlimit="10" stroke-dasharray="4 8"/>
<path d="M162.006 63.0985C175.881 63.0985 187.129 51.8506 187.129 37.9755C187.129 24.1005 175.881 12.8525 162.006 12.8525C148.131 12.8525 136.883 24.1005 136.883 37.9755C136.883 51.8506 148.131 63.0985 162.006 63.0985Z" stroke="#5CCBE4" stroke-miterlimit="10" stroke-dasharray="4 8"/>
<path d="M162.008 69.3157C179.317 69.3157 193.348 55.2843 193.348 37.9757C193.348 20.6671 179.317 6.63574 162.008 6.63574C144.699 6.63574 130.668 20.6671 130.668 37.9757C130.668 55.2843 144.699 69.3157 162.008 69.3157Z" stroke="#5CCBE4" stroke-miterlimit="10" stroke-dasharray="4 8"/>
<path d="M162.007 75.452C182.705 75.452 199.483 58.6734 199.483 37.976C199.483 17.2786 182.705 0.5 162.007 0.5C141.31 0.5 124.531 17.2786 124.531 37.976C124.531 58.6734 141.31 75.452 162.007 75.452Z" stroke="#5CCBE4" stroke-miterlimit="10" stroke-dasharray="4 8"/>
<path d="M205.634 213.223C215.983 213.223 224.373 204.833 224.373 194.484C224.373 184.135 215.983 175.745 205.634 175.745C195.284 175.745 186.895 184.135 186.895 194.484C186.895 204.833 195.284 213.223 205.634 213.223Z" stroke="#5CCBE4" stroke-miterlimit="10" stroke-dasharray="4 8"/>
<path d="M205.631 219.606C219.506 219.606 230.754 208.358 230.754 194.483C230.754 180.608 219.506 169.36 205.631 169.36C191.756 169.36 180.508 180.608 180.508 194.483C180.508 208.358 191.756 219.606 205.631 219.606Z" stroke="#5CCBE4" stroke-miterlimit="10" stroke-dasharray="4 8"/>
<path d="M205.633 225.824C222.942 225.824 236.973 211.792 236.973 194.484C236.973 177.175 222.942 163.144 205.633 163.144C188.324 163.144 174.293 177.175 174.293 194.484C174.293 211.792 188.324 225.824 205.633 225.824Z" stroke="#5CCBE4" stroke-miterlimit="10" stroke-dasharray="4 8"/>
<path d="M205.632 231.96C226.33 231.96 243.108 215.181 243.108 194.484C243.108 173.786 226.33 157.008 205.632 157.008C184.935 157.008 168.156 173.786 168.156 194.484C168.156 215.181 184.935 231.96 205.632 231.96Z" stroke="#5CCBE4" stroke-miterlimit="10" stroke-dasharray="4 8"/>
</svg>
