<svg width="139" height="126" viewBox="0 0 139 126" fill="none" xmlns="http://www.w3.org/2000/svg">
<path d="M58.4486 52.3462C66.3578 37.0981 86.7 28.2744 108.262 42.5873C122.617 52.7528 131.36 73.6835 131.36 90.0701C131.36 113.451 111.841 125.202 90.3698 125.852C52.6234 126.493 43.4741 80.3113 58.4486 52.3462Z" fill="#C4EE18" fill-opacity="0.32"/>
<mask id="mask0_989_391" style="mask-type:luminance" maskUnits="userSpaceOnUse" x="28" y="4" width="111" height="111">
<path d="M56.0212 4.46006L138.605 31.6406L111.408 114.175L28.8241 86.9943L56.0212 4.46006Z" fill="white"/>
</mask>
<g mask="url(#mask0_989_391)">
<path fill-rule="evenodd" clip-rule="evenodd" d="M77.3954 30.3101C78.0783 35.2844 77.4404 41.8953 75.1404 48.8749C72.8406 55.8542 69.423 61.5504 65.9161 65.1459C62.2456 68.9093 59.3272 69.6123 57.6215 69.0509C55.9158 68.4895 53.9865 66.191 53.2718 60.9843C52.5889 56.0099 53.2268 49.3989 55.5267 42.4195C57.8266 35.44 61.2442 29.7439 64.751 26.1485C68.4215 22.3853 71.34 21.682 73.0457 22.2434C74.7514 22.8048 76.6806 25.1035 77.3954 30.3101ZM84.2284 29.2442C83.4007 23.2126 80.7651 17.372 75.2491 15.5566C69.7332 13.7412 64.1407 16.8736 59.8888 21.2335C55.4729 25.7609 51.5566 32.4752 48.9888 40.2677C46.4209 48.0604 45.5788 55.7863 46.4387 62.0502C47.2664 68.0816 49.902 73.9224 55.418 75.7379C60.9339 77.5533 66.5265 74.4206 70.7783 70.0609C75.1942 65.5335 79.1105 58.8193 81.6784 51.0267C84.2462 43.2341 85.0883 35.5081 84.2284 29.2442Z" fill="#A0BF1E"/>
<path d="M96.4317 27.8989C88.8744 22.4489 81.0363 17.4633 75.2499 15.5589C73.8247 15.0898 72.2887 15.8642 71.8193 17.2887C71.3499 18.7131 72.1249 20.2481 73.5501 20.7172C75.8467 21.4731 77.9856 24.3139 78.789 29.7929C79.5662 35.0923 78.9177 42.0467 76.5176 49.3301C74.1176 56.6135 70.5043 62.5922 66.7284 66.3929C62.8245 70.3227 59.4151 71.3376 57.1186 70.5817C55.6933 70.1126 54.1573 70.8871 53.6879 72.3115C53.2185 73.7359 53.9935 75.271 55.4188 75.7401C61.2052 77.6446 70.4738 78.289 79.7925 78.3935C89.226 78.499 99.1024 78.0486 106.325 77.6005C114.06 77.1206 120.572 71.9019 122.971 64.6192C125.371 57.3366 123.237 49.2721 117.301 44.2929C111.758 39.6432 104.082 33.4158 96.4317 27.8989Z" fill="#A0BF1E"/>
<path fill-rule="evenodd" clip-rule="evenodd" d="M101.79 71.9677C99.8276 71.5805 97.9223 72.8567 97.5348 74.8184C96.113 82.0166 90.4703 87.6106 83.3402 88.9446L75.4415 90.4222C73.4745 90.7903 72.1788 92.6818 72.5469 94.6472C72.9153 96.6126 74.8079 97.9079 76.7745 97.5397L84.6736 96.0619C94.7439 94.178 102.652 86.2986 104.643 76.221C105.03 74.2593 103.753 72.355 101.79 71.9677Z" fill="#A0BF1E"/>
</g>
<path fill-rule="evenodd" clip-rule="evenodd" d="M29.1934 44.516C25.3297 45.1245 21.5236 46.2823 17.8433 47.4316C17.0518 47.6817 16.5947 48.5193 16.8767 49.2751C17.1054 50.0559 17.9476 50.48 18.6856 50.2544C22.2513 49.1375 25.9374 48.0017 29.6241 47.431C30.4114 47.3128 30.9713 46.5569 30.8596 45.749C30.7481 44.9416 29.9809 44.3984 29.1934 44.516Z" fill="#A0BF1E"/>
<path fill-rule="evenodd" clip-rule="evenodd" d="M33.4819 31.8771C25.3951 28.7827 16.9447 26.7301 8.89567 23.4359C8.16709 23.1177 7.29804 23.4809 6.99392 24.229C6.69004 24.9777 7.0252 25.8488 7.80726 26.1426C15.8639 29.4533 24.3216 31.5219 32.416 34.6329C33.1922 34.9138 34.0513 34.5293 34.3488 33.7668C34.593 33.0293 34.2581 32.158 33.4819 31.8771Z" fill="#A0BF1E"/>
<path fill-rule="evenodd" clip-rule="evenodd" d="M29.8293 15.9918C32.1943 18.6301 34.559 21.2686 36.9243 23.9074C37.4346 24.5371 38.3776 24.579 38.993 24.0303C39.608 23.4811 39.6306 22.5752 39.12 21.945C36.7513 19.3021 34.3833 16.6595 32.015 14.0171C31.459 13.4243 30.5188 13.3855 29.9063 13.9378C29.3397 14.4532 29.2737 15.3995 29.8293 15.9918Z" fill="#A0BF1E"/>
</svg>
