<svg width="177" height="42" viewBox="0 0 177 42" fill="none" xmlns="http://www.w3.org/2000/svg">
<path d="M6.137 0.551514L12.274 11.6265H0L6.137 0.551514Z" fill="#E36F0D"/>
<path d="M170.598 0.551514L176.735 11.6265H164.461L170.598 0.551514Z" fill="#E36F0D"/>
<path d="M170.461 0.551514H6V41.1595H170.461V0.551514Z" fill="#F58220"/>
<path d="M169.961 1.05151H6.5V40.6595H169.961V1.05151Z" stroke="#E36F0D"/>
<path d="M44.328 16.7235C44.28 16.8035 44.2267 16.8648 44.168 16.9075C44.1147 16.9448 44.048 16.9635 43.968 16.9635C43.8773 16.9635 43.7707 16.9182 43.648 16.8275C43.5253 16.7368 43.3707 16.6382 43.184 16.5315C43.0027 16.4195 42.7813 16.3182 42.52 16.2275C42.264 16.1368 41.952 16.0915 41.584 16.0915C41.2373 16.0915 40.9307 16.1395 40.664 16.2355C40.4027 16.3262 40.1813 16.4515 40 16.6115C39.824 16.7715 39.6907 16.9608 39.6 17.1795C39.5093 17.3928 39.464 17.6248 39.464 17.8755C39.464 18.1955 39.5413 18.4622 39.696 18.6755C39.856 18.8835 40.064 19.0622 40.32 19.2115C40.5813 19.3608 40.8747 19.4915 41.2 19.6035C41.5307 19.7102 41.8667 19.8222 42.208 19.9395C42.5547 20.0568 42.8907 20.1902 43.216 20.3395C43.5467 20.4835 43.84 20.6675 44.096 20.8915C44.3573 21.1155 44.5653 21.3902 44.72 21.7155C44.88 22.0408 44.96 22.4408 44.96 22.9155C44.96 23.4168 44.8747 23.8888 44.704 24.3315C44.5333 24.7688 44.2827 25.1502 43.952 25.4755C43.6267 25.8008 43.224 26.0568 42.744 26.2435C42.2693 26.4302 41.728 26.5235 41.12 26.5235C40.3733 26.5235 39.696 26.3902 39.088 26.1235C38.48 25.8515 37.96 25.4862 37.528 25.0275L37.976 24.2915C38.0187 24.2328 38.0693 24.1848 38.128 24.1475C38.192 24.1048 38.2613 24.0835 38.336 24.0835C38.4053 24.0835 38.4827 24.1128 38.568 24.1715C38.6587 24.2248 38.76 24.2942 38.872 24.3795C38.984 24.4648 39.112 24.5582 39.256 24.6595C39.4 24.7608 39.5627 24.8542 39.744 24.9395C39.9307 25.0248 40.1413 25.0968 40.376 25.1555C40.6107 25.2088 40.8747 25.2355 41.168 25.2355C41.536 25.2355 41.864 25.1848 42.152 25.0835C42.44 24.9822 42.6827 24.8408 42.88 24.6595C43.0827 24.4728 43.2373 24.2515 43.344 23.9955C43.4507 23.7395 43.504 23.4542 43.504 23.1395C43.504 22.7928 43.424 22.5102 43.264 22.2915C43.1093 22.0675 42.904 21.8808 42.648 21.7315C42.392 21.5822 42.0987 21.4568 41.768 21.3555C41.4373 21.2488 41.1013 21.1422 40.76 21.0355C40.4187 20.9235 40.0827 20.7955 39.752 20.6515C39.4213 20.5075 39.128 20.3208 38.872 20.0915C38.616 19.8622 38.408 19.5768 38.248 19.2355C38.0933 18.8888 38.016 18.4622 38.016 17.9555C38.016 17.5502 38.0933 17.1582 38.248 16.7795C38.408 16.4008 38.6373 16.0648 38.936 15.7715C39.24 15.4782 39.6107 15.2435 40.048 15.0675C40.4907 14.8915 40.9973 14.8035 41.568 14.8035C42.208 14.8035 42.7893 14.9048 43.312 15.1075C43.84 15.3102 44.304 15.6035 44.704 15.9875L44.328 16.7235ZM54.9035 16.2355H51.1915V26.3955H49.6475V16.2355H45.9275V14.9315H54.9035V16.2355ZM61.5676 22.1395L59.7676 17.4755C59.7143 17.3368 59.6583 17.1768 59.5996 16.9955C59.541 16.8088 59.485 16.6115 59.4316 16.4035C59.3196 16.8355 59.205 17.1955 59.0876 17.4835L57.2876 22.1395H61.5676ZM64.7996 26.3955H63.5996C63.461 26.3955 63.349 26.3608 63.2636 26.2915C63.1783 26.2222 63.1143 26.1342 63.0716 26.0275L61.9996 23.2595H56.8556L55.7836 26.0275C55.7516 26.1235 55.6903 26.2088 55.5996 26.2835C55.509 26.3582 55.397 26.3955 55.2636 26.3955H54.0636L58.6476 14.9315H60.2156L64.7996 26.3955ZM69.4838 20.4835C69.9318 20.4835 70.3264 20.4302 70.6678 20.3235C71.0144 20.2115 71.3024 20.0568 71.5318 19.8595C71.7664 19.6568 71.9424 19.4168 72.0598 19.1395C72.1771 18.8622 72.2358 18.5555 72.2358 18.2195C72.2358 17.5368 72.0118 17.0222 71.5638 16.6755C71.1158 16.3288 70.4438 16.1555 69.5477 16.1555H67.8518V20.4835H69.4838ZM74.7798 26.3955H73.4038C73.1211 26.3955 72.9131 26.2862 72.7798 26.0675L69.8038 21.9715C69.7131 21.8435 69.6144 21.7528 69.5078 21.6995C69.4064 21.6408 69.2464 21.6115 69.0278 21.6115H67.8518V26.3955H66.3078V14.9315H69.5477C70.2731 14.9315 70.8998 15.0062 71.4278 15.1555C71.9558 15.2995 72.3904 15.5102 72.7318 15.7875C73.0784 16.0648 73.3344 16.4008 73.4998 16.7955C73.6651 17.1848 73.7478 17.6222 73.7478 18.1075C73.7478 18.5128 73.6838 18.8915 73.5558 19.2435C73.4278 19.5955 73.2411 19.9128 72.9958 20.1955C72.7558 20.4728 72.4598 20.7102 72.1078 20.9075C71.7611 21.1048 71.3664 21.2542 70.9238 21.3555C71.1211 21.4675 71.2918 21.6302 71.4358 21.8435L74.7798 26.3955ZM83.716 16.2355H80.004V26.3955H78.46V16.2355H74.74V14.9315H83.716V16.2355ZM91.2343 16.7235C91.1863 16.8035 91.1329 16.8648 91.0743 16.9075C91.0209 16.9448 90.9543 16.9635 90.8743 16.9635C90.7836 16.9635 90.6769 16.9182 90.5543 16.8275C90.4316 16.7368 90.2769 16.6382 90.0903 16.5315C89.9089 16.4195 89.6876 16.3182 89.4263 16.2275C89.1703 16.1368 88.8583 16.0915 88.4903 16.0915C88.1436 16.0915 87.8369 16.1395 87.5703 16.2355C87.3089 16.3262 87.0876 16.4515 86.9063 16.6115C86.7303 16.7715 86.5969 16.9608 86.5063 17.1795C86.4156 17.3928 86.3703 17.6248 86.3703 17.8755C86.3703 18.1955 86.4476 18.4622 86.6023 18.6755C86.7623 18.8835 86.9703 19.0622 87.2263 19.2115C87.4876 19.3608 87.7809 19.4915 88.1063 19.6035C88.4369 19.7102 88.7729 19.8222 89.1143 19.9395C89.4609 20.0568 89.7969 20.1902 90.1223 20.3395C90.4529 20.4835 90.7463 20.6675 91.0023 20.8915C91.2636 21.1155 91.4716 21.3902 91.6263 21.7155C91.7863 22.0408 91.8663 22.4408 91.8663 22.9155C91.8663 23.4168 91.7809 23.8888 91.6103 24.3315C91.4396 24.7688 91.1889 25.1502 90.8583 25.4755C90.5329 25.8008 90.1303 26.0568 89.6503 26.2435C89.1756 26.4302 88.6343 26.5235 88.0263 26.5235C87.2796 26.5235 86.6023 26.3902 85.9943 26.1235C85.3863 25.8515 84.8662 25.4862 84.4342 25.0275L84.8823 24.2915C84.9249 24.2328 84.9756 24.1848 85.0343 24.1475C85.0983 24.1048 85.1676 24.0835 85.2423 24.0835C85.3116 24.0835 85.3889 24.1128 85.4743 24.1715C85.5649 24.2248 85.6663 24.2942 85.7783 24.3795C85.8903 24.4648 86.0183 24.5582 86.1623 24.6595C86.3063 24.7608 86.4689 24.8542 86.6503 24.9395C86.8369 25.0248 87.0476 25.0968 87.2823 25.1555C87.5169 25.2088 87.7809 25.2355 88.0743 25.2355C88.4423 25.2355 88.7703 25.1848 89.0583 25.0835C89.3463 24.9822 89.5889 24.8408 89.7863 24.6595C89.9889 24.4728 90.1436 24.2515 90.2503 23.9955C90.3569 23.7395 90.4103 23.4542 90.4103 23.1395C90.4103 22.7928 90.3303 22.5102 90.1703 22.2915C90.0156 22.0675 89.8103 21.8808 89.5543 21.7315C89.2983 21.5822 89.0049 21.4568 88.6743 21.3555C88.3436 21.2488 88.0076 21.1422 87.6663 21.0355C87.3249 20.9235 86.9889 20.7955 86.6583 20.6515C86.3276 20.5075 86.0343 20.3208 85.7783 20.0915C85.5223 19.8622 85.3143 19.5768 85.1543 19.2355C84.9996 18.8888 84.9223 18.4622 84.9223 17.9555C84.9223 17.5502 84.9996 17.1582 85.1543 16.7795C85.3143 16.4008 85.5436 16.0648 85.8423 15.7715C86.1463 15.4782 86.5169 15.2435 86.9543 15.0675C87.3969 14.8915 87.9036 14.8035 88.4743 14.8035C89.1143 14.8035 89.6956 14.9048 90.2183 15.1075C90.7463 15.3102 91.2103 15.6035 91.6103 15.9875L91.2343 16.7235ZM112.789 14.9315L109.213 26.3955H107.821L104.917 17.6515C104.89 17.5662 104.863 17.4755 104.837 17.3795C104.815 17.2835 104.791 17.1822 104.765 17.0755C104.738 17.1822 104.711 17.2835 104.685 17.3795C104.658 17.4755 104.631 17.5662 104.605 17.6515L101.685 26.3955H100.293L96.7168 14.9315H98.0048C98.1434 14.9315 98.2581 14.9662 98.3488 15.0355C98.4448 15.1048 98.5061 15.1928 98.5328 15.2995L100.901 23.2675C100.938 23.4115 100.973 23.5662 101.005 23.7315C101.042 23.8968 101.077 24.0728 101.109 24.2595C101.146 24.0728 101.183 23.8968 101.221 23.7315C101.263 23.5608 101.309 23.4062 101.357 23.2675L104.053 15.2995C104.085 15.2088 104.146 15.1262 104.237 15.0515C104.333 14.9715 104.447 14.9315 104.581 14.9315H105.029C105.167 14.9315 105.279 14.9662 105.365 15.0355C105.45 15.1048 105.514 15.1928 105.557 15.2995L108.245 23.2675C108.293 23.4062 108.335 23.5555 108.373 23.7155C108.415 23.8755 108.455 24.0435 108.493 24.2195C108.519 24.0435 108.549 23.8755 108.581 23.7155C108.613 23.5555 108.647 23.4062 108.685 23.2675L111.061 15.2995C111.087 15.2035 111.146 15.1182 111.237 15.0435C111.333 14.9688 111.447 14.9315 111.581 14.9315H112.789ZM116.047 26.3955H114.495V14.9315H116.047V26.3955ZM126.732 16.2355H123.02V26.3955H121.476V16.2355H117.756V14.9315H126.732V16.2355ZM137.721 14.9315V26.3955H136.169V21.1795H129.985V26.3955H128.433V14.9315H129.985V20.0435H136.169V14.9315H137.721Z" fill="white"/>
</svg>
