<svg width="312" height="146" viewBox="0 0 312 146" fill="none" xmlns="http://www.w3.org/2000/svg">
<g clip-path="url(#clip0_1_2)">
<path d="M92.899 89.5644C127.685 58.7486 149.188 26.2083 140.928 16.8837C132.667 7.55905 97.7712 24.9811 62.9854 55.7968C28.1995 86.6126 6.69641 119.153 14.9568 128.477C23.2173 137.802 58.1132 120.38 92.899 89.5644Z" fill="#6E0073"/>
<path d="M23 30.0468L70.5 118.047L112 27.0468H86C79.5 26.5468 66.1 29.8468 64.5 47.0468H81L69.5 73.5469L50 38.0469C47 33.7135 37.4 26.0467 23 30.0468Z" fill="#FF9933"/>
<path d="M149.614 60.09V68.14H160.424V73.246H149.614V81.756H161.804V87H143.174V54.846H161.804V60.09H149.614Z" fill="#FF9933"/>
<path d="M192.956 87L185.872 74.488H182.836V87H176.396V54.892H188.448C190.932 54.892 193.048 55.3367 194.796 56.226C196.544 57.0847 197.848 58.2653 198.706 59.768C199.596 61.24 200.04 62.896 200.04 64.736C200.04 66.852 199.427 68.7687 198.2 70.486C196.974 72.1727 195.149 73.338 192.726 73.982L200.408 87H192.956ZM182.836 69.658H188.218C189.966 69.658 191.27 69.244 192.128 68.416C192.987 67.5573 193.416 66.3767 193.416 64.874C193.416 63.402 192.987 62.2673 192.128 61.47C191.27 60.642 189.966 60.228 188.218 60.228H182.836V69.658ZM236.455 54.892V60.09H227.899V87H221.459V60.09H212.903V54.892H236.455ZM256.334 60.09V68.14H267.144V73.246H256.334V81.756H268.524V87H249.894V54.846H268.524V60.09H256.334ZM302.344 87L295.398 76.19L289.096 87H281.828L291.948 70.808L281.69 54.892H289.096L296.042 65.656L302.298 54.892H309.566L299.492 71.038L309.75 87H302.344Z" fill="black"/>
<path d="M168.213 106.185V118H166.275V106.185H168.213ZM183.694 118H181.756L175.925 109.177V118H173.987V106.168H175.925L181.756 114.974V106.168H183.694V118ZM196.422 106.185V107.766H191.407V111.251H195.317V112.832H191.407V118H189.469V106.185H196.422ZM206.837 118.119C205.738 118.119 204.724 117.864 203.794 117.354C202.876 116.833 202.145 116.113 201.601 115.195C201.069 114.266 200.802 113.223 200.802 112.067C200.802 110.911 201.069 109.874 201.601 108.956C202.145 108.038 202.876 107.324 203.794 106.814C204.724 106.293 205.738 106.032 206.837 106.032C207.948 106.032 208.962 106.293 209.88 106.814C210.81 107.324 211.541 108.038 212.073 108.956C212.606 109.874 212.872 110.911 212.872 112.067C212.872 113.223 212.606 114.266 212.073 115.195C211.541 116.113 210.81 116.833 209.88 117.354C208.962 117.864 207.948 118.119 206.837 118.119ZM206.837 116.436C207.619 116.436 208.316 116.26 208.928 115.909C209.54 115.546 210.016 115.036 210.356 114.379C210.708 113.71 210.883 112.94 210.883 112.067C210.883 111.194 210.708 110.429 210.356 109.772C210.016 109.115 209.54 108.61 208.928 108.259C208.316 107.908 207.619 107.732 206.837 107.732C206.055 107.732 205.358 107.908 204.746 108.259C204.134 108.61 203.653 109.115 203.301 109.772C202.961 110.429 202.791 111.194 202.791 112.067C202.791 112.94 202.961 113.71 203.301 114.379C203.653 115.036 204.134 115.546 204.746 115.909C205.358 116.26 206.055 116.436 206.837 116.436ZM217.363 112.067C217.363 110.911 217.63 109.874 218.162 108.956C218.706 108.038 219.437 107.324 220.355 106.814C221.285 106.293 222.299 106.032 223.398 106.032C224.656 106.032 225.773 106.344 226.747 106.967C227.733 107.579 228.447 108.452 228.889 109.585H226.56C226.254 108.962 225.829 108.497 225.285 108.191C224.741 107.885 224.112 107.732 223.398 107.732C222.616 107.732 221.919 107.908 221.307 108.259C220.695 108.61 220.214 109.115 219.862 109.772C219.522 110.429 219.352 111.194 219.352 112.067C219.352 112.94 219.522 113.705 219.862 114.362C220.214 115.019 220.695 115.529 221.307 115.892C221.919 116.243 222.616 116.419 223.398 116.419C224.112 116.419 224.741 116.266 225.285 115.96C225.829 115.654 226.254 115.189 226.56 114.566H228.889C228.447 115.699 227.733 116.572 226.747 117.184C225.773 117.796 224.656 118.102 223.398 118.102C222.288 118.102 221.273 117.847 220.355 117.337C219.437 116.816 218.706 116.096 218.162 115.178C217.63 114.26 217.363 113.223 217.363 112.067ZM239.777 118.119C238.678 118.119 237.663 117.864 236.734 117.354C235.816 116.833 235.085 116.113 234.541 115.195C234.008 114.266 233.742 113.223 233.742 112.067C233.742 110.911 234.008 109.874 234.541 108.956C235.085 108.038 235.816 107.324 236.734 106.814C237.663 106.293 238.678 106.032 239.777 106.032C240.888 106.032 241.902 106.293 242.82 106.814C243.749 107.324 244.48 108.038 245.013 108.956C245.546 109.874 245.812 110.911 245.812 112.067C245.812 113.223 245.546 114.266 245.013 115.195C244.48 116.113 243.749 116.833 242.82 117.354C241.902 117.864 240.888 118.119 239.777 118.119ZM239.777 116.436C240.559 116.436 241.256 116.26 241.868 115.909C242.48 115.546 242.956 115.036 243.296 114.379C243.647 113.71 243.823 112.94 243.823 112.067C243.823 111.194 243.647 110.429 243.296 109.772C242.956 109.115 242.48 108.61 241.868 108.259C241.256 107.908 240.559 107.732 239.777 107.732C238.995 107.732 238.298 107.908 237.686 108.259C237.074 108.61 236.592 109.115 236.241 109.772C235.901 110.429 235.731 111.194 235.731 112.067C235.731 112.94 235.901 113.71 236.241 114.379C236.592 115.036 237.074 115.546 237.686 115.909C238.298 116.26 238.995 116.436 239.777 116.436ZM254.808 106.185C256.066 106.185 257.165 106.429 258.106 106.916C259.058 107.392 259.789 108.083 260.299 108.99C260.82 109.885 261.081 110.934 261.081 112.135C261.081 113.336 260.82 114.379 260.299 115.263C259.789 116.147 259.058 116.827 258.106 117.303C257.165 117.768 256.066 118 254.808 118H250.949V106.185H254.808ZM254.808 116.419C256.191 116.419 257.25 116.045 257.987 115.297C258.724 114.549 259.092 113.495 259.092 112.135C259.092 110.764 258.724 109.693 257.987 108.922C257.25 108.151 256.191 107.766 254.808 107.766H252.887V116.419H254.808ZM268.17 107.749V111.217H272.25V112.798H268.17V116.419H272.76V118H266.232V106.168H272.76V107.749H268.17Z" fill="#404040"/>
</g>
<defs>
<clipPath id="clip0_1_2">
<rect width="312" height="146" fill="white"/>
</clipPath>
</defs>
</svg>
